G04 #@! TF.GenerationSoftware,KiCad,Pcbnew,8.0.8*
G04 #@! TF.CreationDate,2025-05-22T15:23:05+02:00*
G04 #@! TF.ProjectId,capteur graphite CouBeh,63617074-6575-4722-9067-726170686974,rev?*
G04 #@! TF.SameCoordinates,Original*
G04 #@! TF.FileFunction,Legend,Top*
G04 #@! TF.FilePolarity,Positive*
%FSLAX46Y46*%
G04 Gerber Fmt 4.6, Leading zero omitted, Abs format (unit mm)*
G04 Created by KiCad (PCBNEW 8.0.8) date 2025-05-22 15:23:05*
%MOMM*%
%LPD*%
G01*
G04 APERTURE LIST*
%ADD10C,0.150000*%
%ADD11C,0.100000*%
%ADD12C,0.120000*%
%ADD13C,0.152400*%
G04 APERTURE END LIST*
D10*
X117824819Y-70246666D02*
X117348628Y-70579999D01*
X117824819Y-70818094D02*
X116824819Y-70818094D01*
X116824819Y-70818094D02*
X116824819Y-70437142D01*
X116824819Y-70437142D02*
X116872438Y-70341904D01*
X116872438Y-70341904D02*
X116920057Y-70294285D01*
X116920057Y-70294285D02*
X117015295Y-70246666D01*
X117015295Y-70246666D02*
X117158152Y-70246666D01*
X117158152Y-70246666D02*
X117253390Y-70294285D01*
X117253390Y-70294285D02*
X117301009Y-70341904D01*
X117301009Y-70341904D02*
X117348628Y-70437142D01*
X117348628Y-70437142D02*
X117348628Y-70818094D01*
X116920057Y-69865713D02*
X116872438Y-69818094D01*
X116872438Y-69818094D02*
X116824819Y-69722856D01*
X116824819Y-69722856D02*
X116824819Y-69484761D01*
X116824819Y-69484761D02*
X116872438Y-69389523D01*
X116872438Y-69389523D02*
X116920057Y-69341904D01*
X116920057Y-69341904D02*
X117015295Y-69294285D01*
X117015295Y-69294285D02*
X117110533Y-69294285D01*
X117110533Y-69294285D02*
X117253390Y-69341904D01*
X117253390Y-69341904D02*
X117824819Y-69913332D01*
X117824819Y-69913332D02*
X117824819Y-69294285D01*
X169224819Y-78245713D02*
X168224819Y-78245713D01*
X169224819Y-77674285D02*
X168653390Y-78102856D01*
X168224819Y-77674285D02*
X168796247Y-78245713D01*
X168748628Y-77055237D02*
X169224819Y-77055237D01*
X168224819Y-77388570D02*
X168748628Y-77055237D01*
X168748628Y-77055237D02*
X168224819Y-76721904D01*
X168843866Y-76388570D02*
X168843866Y-75626666D01*
X169224819Y-74626666D02*
X169224819Y-75198094D01*
X169224819Y-74912380D02*
X168224819Y-74912380D01*
X168224819Y-74912380D02*
X168367676Y-75007618D01*
X168367676Y-75007618D02*
X168462914Y-75102856D01*
X168462914Y-75102856D02*
X168510533Y-75198094D01*
X131824819Y-79086666D02*
X131348628Y-79419999D01*
X131824819Y-79658094D02*
X130824819Y-79658094D01*
X130824819Y-79658094D02*
X130824819Y-79277142D01*
X130824819Y-79277142D02*
X130872438Y-79181904D01*
X130872438Y-79181904D02*
X130920057Y-79134285D01*
X130920057Y-79134285D02*
X131015295Y-79086666D01*
X131015295Y-79086666D02*
X131158152Y-79086666D01*
X131158152Y-79086666D02*
X131253390Y-79134285D01*
X131253390Y-79134285D02*
X131301009Y-79181904D01*
X131301009Y-79181904D02*
X131348628Y-79277142D01*
X131348628Y-79277142D02*
X131348628Y-79658094D01*
X131158152Y-78229523D02*
X131824819Y-78229523D01*
X130777200Y-78467618D02*
X131491485Y-78705713D01*
X131491485Y-78705713D02*
X131491485Y-78086666D01*
X115833333Y-76584819D02*
X115500000Y-76108628D01*
X115261905Y-76584819D02*
X115261905Y-75584819D01*
X115261905Y-75584819D02*
X115642857Y-75584819D01*
X115642857Y-75584819D02*
X115738095Y-75632438D01*
X115738095Y-75632438D02*
X115785714Y-75680057D01*
X115785714Y-75680057D02*
X115833333Y-75775295D01*
X115833333Y-75775295D02*
X115833333Y-75918152D01*
X115833333Y-75918152D02*
X115785714Y-76013390D01*
X115785714Y-76013390D02*
X115738095Y-76061009D01*
X115738095Y-76061009D02*
X115642857Y-76108628D01*
X115642857Y-76108628D02*
X115261905Y-76108628D01*
X116166667Y-75584819D02*
X116785714Y-75584819D01*
X116785714Y-75584819D02*
X116452381Y-75965771D01*
X116452381Y-75965771D02*
X116595238Y-75965771D01*
X116595238Y-75965771D02*
X116690476Y-76013390D01*
X116690476Y-76013390D02*
X116738095Y-76061009D01*
X116738095Y-76061009D02*
X116785714Y-76156247D01*
X116785714Y-76156247D02*
X116785714Y-76394342D01*
X116785714Y-76394342D02*
X116738095Y-76489580D01*
X116738095Y-76489580D02*
X116690476Y-76537200D01*
X116690476Y-76537200D02*
X116595238Y-76584819D01*
X116595238Y-76584819D02*
X116309524Y-76584819D01*
X116309524Y-76584819D02*
X116214286Y-76537200D01*
X116214286Y-76537200D02*
X116166667Y-76489580D01*
X145889048Y-52184819D02*
X145889048Y-51184819D01*
X145889048Y-51661009D02*
X146460476Y-51661009D01*
X146460476Y-52184819D02*
X146460476Y-51184819D01*
X147508095Y-52089580D02*
X147460476Y-52137200D01*
X147460476Y-52137200D02*
X147317619Y-52184819D01*
X147317619Y-52184819D02*
X147222381Y-52184819D01*
X147222381Y-52184819D02*
X147079524Y-52137200D01*
X147079524Y-52137200D02*
X146984286Y-52041961D01*
X146984286Y-52041961D02*
X146936667Y-51946723D01*
X146936667Y-51946723D02*
X146889048Y-51756247D01*
X146889048Y-51756247D02*
X146889048Y-51613390D01*
X146889048Y-51613390D02*
X146936667Y-51422914D01*
X146936667Y-51422914D02*
X146984286Y-51327676D01*
X146984286Y-51327676D02*
X147079524Y-51232438D01*
X147079524Y-51232438D02*
X147222381Y-51184819D01*
X147222381Y-51184819D02*
X147317619Y-51184819D01*
X147317619Y-51184819D02*
X147460476Y-51232438D01*
X147460476Y-51232438D02*
X147508095Y-51280057D01*
X147936667Y-51803866D02*
X148698572Y-51803866D01*
X149698571Y-52184819D02*
X149127143Y-52184819D01*
X149412857Y-52184819D02*
X149412857Y-51184819D01*
X149412857Y-51184819D02*
X149317619Y-51327676D01*
X149317619Y-51327676D02*
X149222381Y-51422914D01*
X149222381Y-51422914D02*
X149127143Y-51470533D01*
X128859580Y-91166666D02*
X128907200Y-91214285D01*
X128907200Y-91214285D02*
X128954819Y-91357142D01*
X128954819Y-91357142D02*
X128954819Y-91452380D01*
X128954819Y-91452380D02*
X128907200Y-91595237D01*
X128907200Y-91595237D02*
X128811961Y-91690475D01*
X128811961Y-91690475D02*
X128716723Y-91738094D01*
X128716723Y-91738094D02*
X128526247Y-91785713D01*
X128526247Y-91785713D02*
X128383390Y-91785713D01*
X128383390Y-91785713D02*
X128192914Y-91738094D01*
X128192914Y-91738094D02*
X128097676Y-91690475D01*
X128097676Y-91690475D02*
X128002438Y-91595237D01*
X128002438Y-91595237D02*
X127954819Y-91452380D01*
X127954819Y-91452380D02*
X127954819Y-91357142D01*
X127954819Y-91357142D02*
X128002438Y-91214285D01*
X128002438Y-91214285D02*
X128050057Y-91166666D01*
X128050057Y-90785713D02*
X128002438Y-90738094D01*
X128002438Y-90738094D02*
X127954819Y-90642856D01*
X127954819Y-90642856D02*
X127954819Y-90404761D01*
X127954819Y-90404761D02*
X128002438Y-90309523D01*
X128002438Y-90309523D02*
X128050057Y-90261904D01*
X128050057Y-90261904D02*
X128145295Y-90214285D01*
X128145295Y-90214285D02*
X128240533Y-90214285D01*
X128240533Y-90214285D02*
X128383390Y-90261904D01*
X128383390Y-90261904D02*
X128954819Y-90833332D01*
X128954819Y-90833332D02*
X128954819Y-90214285D01*
X122235180Y-57738095D02*
X121425657Y-57738095D01*
X121425657Y-57738095D02*
X121330419Y-57785714D01*
X121330419Y-57785714D02*
X121282800Y-57833333D01*
X121282800Y-57833333D02*
X121235180Y-57928571D01*
X121235180Y-57928571D02*
X121235180Y-58119047D01*
X121235180Y-58119047D02*
X121282800Y-58214285D01*
X121282800Y-58214285D02*
X121330419Y-58261904D01*
X121330419Y-58261904D02*
X121425657Y-58309523D01*
X121425657Y-58309523D02*
X122235180Y-58309523D01*
X122235180Y-58690476D02*
X122235180Y-59309523D01*
X122235180Y-59309523D02*
X121854228Y-58976190D01*
X121854228Y-58976190D02*
X121854228Y-59119047D01*
X121854228Y-59119047D02*
X121806609Y-59214285D01*
X121806609Y-59214285D02*
X121758990Y-59261904D01*
X121758990Y-59261904D02*
X121663752Y-59309523D01*
X121663752Y-59309523D02*
X121425657Y-59309523D01*
X121425657Y-59309523D02*
X121330419Y-59261904D01*
X121330419Y-59261904D02*
X121282800Y-59214285D01*
X121282800Y-59214285D02*
X121235180Y-59119047D01*
X121235180Y-59119047D02*
X121235180Y-58833333D01*
X121235180Y-58833333D02*
X121282800Y-58738095D01*
X121282800Y-58738095D02*
X121330419Y-58690476D01*
X126466119Y-54689999D02*
X126704214Y-54689999D01*
X126608976Y-54928094D02*
X126704214Y-54689999D01*
X126704214Y-54689999D02*
X126608976Y-54451904D01*
X126894690Y-54832856D02*
X126704214Y-54689999D01*
X126704214Y-54689999D02*
X126894690Y-54547142D01*
X127556480Y-54690000D02*
X127318385Y-54690000D01*
X127413623Y-54451905D02*
X127318385Y-54690000D01*
X127318385Y-54690000D02*
X127413623Y-54928095D01*
X127127909Y-54547143D02*
X127318385Y-54690000D01*
X127318385Y-54690000D02*
X127127909Y-54832857D01*
X164109580Y-86916666D02*
X164157200Y-86964285D01*
X164157200Y-86964285D02*
X164204819Y-87107142D01*
X164204819Y-87107142D02*
X164204819Y-87202380D01*
X164204819Y-87202380D02*
X164157200Y-87345237D01*
X164157200Y-87345237D02*
X164061961Y-87440475D01*
X164061961Y-87440475D02*
X163966723Y-87488094D01*
X163966723Y-87488094D02*
X163776247Y-87535713D01*
X163776247Y-87535713D02*
X163633390Y-87535713D01*
X163633390Y-87535713D02*
X163442914Y-87488094D01*
X163442914Y-87488094D02*
X163347676Y-87440475D01*
X163347676Y-87440475D02*
X163252438Y-87345237D01*
X163252438Y-87345237D02*
X163204819Y-87202380D01*
X163204819Y-87202380D02*
X163204819Y-87107142D01*
X163204819Y-87107142D02*
X163252438Y-86964285D01*
X163252438Y-86964285D02*
X163300057Y-86916666D01*
X163538152Y-86059523D02*
X164204819Y-86059523D01*
X163157200Y-86297618D02*
X163871485Y-86535713D01*
X163871485Y-86535713D02*
X163871485Y-85916666D01*
X107166666Y-75364819D02*
X107166666Y-76079104D01*
X107166666Y-76079104D02*
X107119047Y-76221961D01*
X107119047Y-76221961D02*
X107023809Y-76317200D01*
X107023809Y-76317200D02*
X106880952Y-76364819D01*
X106880952Y-76364819D02*
X106785714Y-76364819D01*
X108119047Y-75364819D02*
X107642857Y-75364819D01*
X107642857Y-75364819D02*
X107595238Y-75841009D01*
X107595238Y-75841009D02*
X107642857Y-75793390D01*
X107642857Y-75793390D02*
X107738095Y-75745771D01*
X107738095Y-75745771D02*
X107976190Y-75745771D01*
X107976190Y-75745771D02*
X108071428Y-75793390D01*
X108071428Y-75793390D02*
X108119047Y-75841009D01*
X108119047Y-75841009D02*
X108166666Y-75936247D01*
X108166666Y-75936247D02*
X108166666Y-76174342D01*
X108166666Y-76174342D02*
X108119047Y-76269580D01*
X108119047Y-76269580D02*
X108071428Y-76317200D01*
X108071428Y-76317200D02*
X107976190Y-76364819D01*
X107976190Y-76364819D02*
X107738095Y-76364819D01*
X107738095Y-76364819D02*
X107642857Y-76317200D01*
X107642857Y-76317200D02*
X107595238Y-76269580D01*
X111609580Y-70666666D02*
X111657200Y-70714285D01*
X111657200Y-70714285D02*
X111704819Y-70857142D01*
X111704819Y-70857142D02*
X111704819Y-70952380D01*
X111704819Y-70952380D02*
X111657200Y-71095237D01*
X111657200Y-71095237D02*
X111561961Y-71190475D01*
X111561961Y-71190475D02*
X111466723Y-71238094D01*
X111466723Y-71238094D02*
X111276247Y-71285713D01*
X111276247Y-71285713D02*
X111133390Y-71285713D01*
X111133390Y-71285713D02*
X110942914Y-71238094D01*
X110942914Y-71238094D02*
X110847676Y-71190475D01*
X110847676Y-71190475D02*
X110752438Y-71095237D01*
X110752438Y-71095237D02*
X110704819Y-70952380D01*
X110704819Y-70952380D02*
X110704819Y-70857142D01*
X110704819Y-70857142D02*
X110752438Y-70714285D01*
X110752438Y-70714285D02*
X110800057Y-70666666D01*
X111704819Y-69714285D02*
X111704819Y-70285713D01*
X111704819Y-69999999D02*
X110704819Y-69999999D01*
X110704819Y-69999999D02*
X110847676Y-70095237D01*
X110847676Y-70095237D02*
X110942914Y-70190475D01*
X110942914Y-70190475D02*
X110990533Y-70285713D01*
X115928095Y-92404819D02*
X115928095Y-93214342D01*
X115928095Y-93214342D02*
X115975714Y-93309580D01*
X115975714Y-93309580D02*
X116023333Y-93357200D01*
X116023333Y-93357200D02*
X116118571Y-93404819D01*
X116118571Y-93404819D02*
X116309047Y-93404819D01*
X116309047Y-93404819D02*
X116404285Y-93357200D01*
X116404285Y-93357200D02*
X116451904Y-93309580D01*
X116451904Y-93309580D02*
X116499523Y-93214342D01*
X116499523Y-93214342D02*
X116499523Y-92404819D01*
X116928095Y-92500057D02*
X116975714Y-92452438D01*
X116975714Y-92452438D02*
X117070952Y-92404819D01*
X117070952Y-92404819D02*
X117309047Y-92404819D01*
X117309047Y-92404819D02*
X117404285Y-92452438D01*
X117404285Y-92452438D02*
X117451904Y-92500057D01*
X117451904Y-92500057D02*
X117499523Y-92595295D01*
X117499523Y-92595295D02*
X117499523Y-92690533D01*
X117499523Y-92690533D02*
X117451904Y-92833390D01*
X117451904Y-92833390D02*
X116880476Y-93404819D01*
X116880476Y-93404819D02*
X117499523Y-93404819D01*
X134083333Y-90609580D02*
X134035714Y-90657200D01*
X134035714Y-90657200D02*
X133892857Y-90704819D01*
X133892857Y-90704819D02*
X133797619Y-90704819D01*
X133797619Y-90704819D02*
X133654762Y-90657200D01*
X133654762Y-90657200D02*
X133559524Y-90561961D01*
X133559524Y-90561961D02*
X133511905Y-90466723D01*
X133511905Y-90466723D02*
X133464286Y-90276247D01*
X133464286Y-90276247D02*
X133464286Y-90133390D01*
X133464286Y-90133390D02*
X133511905Y-89942914D01*
X133511905Y-89942914D02*
X133559524Y-89847676D01*
X133559524Y-89847676D02*
X133654762Y-89752438D01*
X133654762Y-89752438D02*
X133797619Y-89704819D01*
X133797619Y-89704819D02*
X133892857Y-89704819D01*
X133892857Y-89704819D02*
X134035714Y-89752438D01*
X134035714Y-89752438D02*
X134083333Y-89800057D01*
X134416667Y-89704819D02*
X135035714Y-89704819D01*
X135035714Y-89704819D02*
X134702381Y-90085771D01*
X134702381Y-90085771D02*
X134845238Y-90085771D01*
X134845238Y-90085771D02*
X134940476Y-90133390D01*
X134940476Y-90133390D02*
X134988095Y-90181009D01*
X134988095Y-90181009D02*
X135035714Y-90276247D01*
X135035714Y-90276247D02*
X135035714Y-90514342D01*
X135035714Y-90514342D02*
X134988095Y-90609580D01*
X134988095Y-90609580D02*
X134940476Y-90657200D01*
X134940476Y-90657200D02*
X134845238Y-90704819D01*
X134845238Y-90704819D02*
X134559524Y-90704819D01*
X134559524Y-90704819D02*
X134464286Y-90657200D01*
X134464286Y-90657200D02*
X134416667Y-90609580D01*
X129954819Y-90166666D02*
X129478628Y-90499999D01*
X129954819Y-90738094D02*
X128954819Y-90738094D01*
X128954819Y-90738094D02*
X128954819Y-90357142D01*
X128954819Y-90357142D02*
X129002438Y-90261904D01*
X129002438Y-90261904D02*
X129050057Y-90214285D01*
X129050057Y-90214285D02*
X129145295Y-90166666D01*
X129145295Y-90166666D02*
X129288152Y-90166666D01*
X129288152Y-90166666D02*
X129383390Y-90214285D01*
X129383390Y-90214285D02*
X129431009Y-90261904D01*
X129431009Y-90261904D02*
X129478628Y-90357142D01*
X129478628Y-90357142D02*
X129478628Y-90738094D01*
X128954819Y-89261904D02*
X128954819Y-89738094D01*
X128954819Y-89738094D02*
X129431009Y-89785713D01*
X129431009Y-89785713D02*
X129383390Y-89738094D01*
X129383390Y-89738094D02*
X129335771Y-89642856D01*
X129335771Y-89642856D02*
X129335771Y-89404761D01*
X129335771Y-89404761D02*
X129383390Y-89309523D01*
X129383390Y-89309523D02*
X129431009Y-89261904D01*
X129431009Y-89261904D02*
X129526247Y-89214285D01*
X129526247Y-89214285D02*
X129764342Y-89214285D01*
X129764342Y-89214285D02*
X129859580Y-89261904D01*
X129859580Y-89261904D02*
X129907200Y-89309523D01*
X129907200Y-89309523D02*
X129954819Y-89404761D01*
X129954819Y-89404761D02*
X129954819Y-89642856D01*
X129954819Y-89642856D02*
X129907200Y-89738094D01*
X129907200Y-89738094D02*
X129859580Y-89785713D01*
X144428095Y-79654819D02*
X144428095Y-80464342D01*
X144428095Y-80464342D02*
X144475714Y-80559580D01*
X144475714Y-80559580D02*
X144523333Y-80607200D01*
X144523333Y-80607200D02*
X144618571Y-80654819D01*
X144618571Y-80654819D02*
X144809047Y-80654819D01*
X144809047Y-80654819D02*
X144904285Y-80607200D01*
X144904285Y-80607200D02*
X144951904Y-80559580D01*
X144951904Y-80559580D02*
X144999523Y-80464342D01*
X144999523Y-80464342D02*
X144999523Y-79654819D01*
X145999523Y-80654819D02*
X145428095Y-80654819D01*
X145713809Y-80654819D02*
X145713809Y-79654819D01*
X145713809Y-79654819D02*
X145618571Y-79797676D01*
X145618571Y-79797676D02*
X145523333Y-79892914D01*
X145523333Y-79892914D02*
X145428095Y-79940533D01*
D11*
X149569961Y-83627693D02*
X149617580Y-83532455D01*
X149617580Y-83532455D02*
X149617580Y-83389598D01*
X149617580Y-83389598D02*
X149569961Y-83246741D01*
X149569961Y-83246741D02*
X149474723Y-83151503D01*
X149474723Y-83151503D02*
X149379485Y-83103884D01*
X149379485Y-83103884D02*
X149189009Y-83056265D01*
X149189009Y-83056265D02*
X149046152Y-83056265D01*
X149046152Y-83056265D02*
X148855676Y-83103884D01*
X148855676Y-83103884D02*
X148760438Y-83151503D01*
X148760438Y-83151503D02*
X148665200Y-83246741D01*
X148665200Y-83246741D02*
X148617580Y-83389598D01*
X148617580Y-83389598D02*
X148617580Y-83484836D01*
X148617580Y-83484836D02*
X148665200Y-83627693D01*
X148665200Y-83627693D02*
X148712819Y-83675312D01*
X148712819Y-83675312D02*
X149046152Y-83675312D01*
X149046152Y-83675312D02*
X149046152Y-83484836D01*
X148617580Y-84103884D02*
X149617580Y-84103884D01*
X149617580Y-84103884D02*
X148617580Y-84675312D01*
X148617580Y-84675312D02*
X149617580Y-84675312D01*
X148617580Y-85151503D02*
X149617580Y-85151503D01*
X149617580Y-85151503D02*
X149617580Y-85389598D01*
X149617580Y-85389598D02*
X149569961Y-85532455D01*
X149569961Y-85532455D02*
X149474723Y-85627693D01*
X149474723Y-85627693D02*
X149379485Y-85675312D01*
X149379485Y-85675312D02*
X149189009Y-85722931D01*
X149189009Y-85722931D02*
X149046152Y-85722931D01*
X149046152Y-85722931D02*
X148855676Y-85675312D01*
X148855676Y-85675312D02*
X148760438Y-85627693D01*
X148760438Y-85627693D02*
X148665200Y-85532455D01*
X148665200Y-85532455D02*
X148617580Y-85389598D01*
X148617580Y-85389598D02*
X148617580Y-85151503D01*
X140965200Y-82956265D02*
X140917580Y-83099122D01*
X140917580Y-83099122D02*
X140917580Y-83337217D01*
X140917580Y-83337217D02*
X140965200Y-83432455D01*
X140965200Y-83432455D02*
X141012819Y-83480074D01*
X141012819Y-83480074D02*
X141108057Y-83527693D01*
X141108057Y-83527693D02*
X141203295Y-83527693D01*
X141203295Y-83527693D02*
X141298533Y-83480074D01*
X141298533Y-83480074D02*
X141346152Y-83432455D01*
X141346152Y-83432455D02*
X141393771Y-83337217D01*
X141393771Y-83337217D02*
X141441390Y-83146741D01*
X141441390Y-83146741D02*
X141489009Y-83051503D01*
X141489009Y-83051503D02*
X141536628Y-83003884D01*
X141536628Y-83003884D02*
X141631866Y-82956265D01*
X141631866Y-82956265D02*
X141727104Y-82956265D01*
X141727104Y-82956265D02*
X141822342Y-83003884D01*
X141822342Y-83003884D02*
X141869961Y-83051503D01*
X141869961Y-83051503D02*
X141917580Y-83146741D01*
X141917580Y-83146741D02*
X141917580Y-83384836D01*
X141917580Y-83384836D02*
X141869961Y-83527693D01*
X140917580Y-83956265D02*
X141917580Y-83956265D01*
X141917580Y-83956265D02*
X141917580Y-84194360D01*
X141917580Y-84194360D02*
X141869961Y-84337217D01*
X141869961Y-84337217D02*
X141774723Y-84432455D01*
X141774723Y-84432455D02*
X141679485Y-84480074D01*
X141679485Y-84480074D02*
X141489009Y-84527693D01*
X141489009Y-84527693D02*
X141346152Y-84527693D01*
X141346152Y-84527693D02*
X141155676Y-84480074D01*
X141155676Y-84480074D02*
X141060438Y-84432455D01*
X141060438Y-84432455D02*
X140965200Y-84337217D01*
X140965200Y-84337217D02*
X140917580Y-84194360D01*
X140917580Y-84194360D02*
X140917580Y-83956265D01*
X141203295Y-84908646D02*
X141203295Y-85384836D01*
X140917580Y-84813408D02*
X141917580Y-85146741D01*
X141917580Y-85146741D02*
X140917580Y-85480074D01*
X147017580Y-83161027D02*
X146017580Y-83494360D01*
X146017580Y-83494360D02*
X147017580Y-83827693D01*
X146112819Y-84732455D02*
X146065200Y-84684836D01*
X146065200Y-84684836D02*
X146017580Y-84541979D01*
X146017580Y-84541979D02*
X146017580Y-84446741D01*
X146017580Y-84446741D02*
X146065200Y-84303884D01*
X146065200Y-84303884D02*
X146160438Y-84208646D01*
X146160438Y-84208646D02*
X146255676Y-84161027D01*
X146255676Y-84161027D02*
X146446152Y-84113408D01*
X146446152Y-84113408D02*
X146589009Y-84113408D01*
X146589009Y-84113408D02*
X146779485Y-84161027D01*
X146779485Y-84161027D02*
X146874723Y-84208646D01*
X146874723Y-84208646D02*
X146969961Y-84303884D01*
X146969961Y-84303884D02*
X147017580Y-84446741D01*
X147017580Y-84446741D02*
X147017580Y-84541979D01*
X147017580Y-84541979D02*
X146969961Y-84684836D01*
X146969961Y-84684836D02*
X146922342Y-84732455D01*
X146112819Y-85732455D02*
X146065200Y-85684836D01*
X146065200Y-85684836D02*
X146017580Y-85541979D01*
X146017580Y-85541979D02*
X146017580Y-85446741D01*
X146017580Y-85446741D02*
X146065200Y-85303884D01*
X146065200Y-85303884D02*
X146160438Y-85208646D01*
X146160438Y-85208646D02*
X146255676Y-85161027D01*
X146255676Y-85161027D02*
X146446152Y-85113408D01*
X146446152Y-85113408D02*
X146589009Y-85113408D01*
X146589009Y-85113408D02*
X146779485Y-85161027D01*
X146779485Y-85161027D02*
X146874723Y-85208646D01*
X146874723Y-85208646D02*
X146969961Y-85303884D01*
X146969961Y-85303884D02*
X147017580Y-85446741D01*
X147017580Y-85446741D02*
X147017580Y-85541979D01*
X147017580Y-85541979D02*
X146969961Y-85684836D01*
X146969961Y-85684836D02*
X146922342Y-85732455D01*
X143565200Y-83256265D02*
X143517580Y-83399122D01*
X143517580Y-83399122D02*
X143517580Y-83637217D01*
X143517580Y-83637217D02*
X143565200Y-83732455D01*
X143565200Y-83732455D02*
X143612819Y-83780074D01*
X143612819Y-83780074D02*
X143708057Y-83827693D01*
X143708057Y-83827693D02*
X143803295Y-83827693D01*
X143803295Y-83827693D02*
X143898533Y-83780074D01*
X143898533Y-83780074D02*
X143946152Y-83732455D01*
X143946152Y-83732455D02*
X143993771Y-83637217D01*
X143993771Y-83637217D02*
X144041390Y-83446741D01*
X144041390Y-83446741D02*
X144089009Y-83351503D01*
X144089009Y-83351503D02*
X144136628Y-83303884D01*
X144136628Y-83303884D02*
X144231866Y-83256265D01*
X144231866Y-83256265D02*
X144327104Y-83256265D01*
X144327104Y-83256265D02*
X144422342Y-83303884D01*
X144422342Y-83303884D02*
X144469961Y-83351503D01*
X144469961Y-83351503D02*
X144517580Y-83446741D01*
X144517580Y-83446741D02*
X144517580Y-83684836D01*
X144517580Y-83684836D02*
X144469961Y-83827693D01*
X143612819Y-84827693D02*
X143565200Y-84780074D01*
X143565200Y-84780074D02*
X143517580Y-84637217D01*
X143517580Y-84637217D02*
X143517580Y-84541979D01*
X143517580Y-84541979D02*
X143565200Y-84399122D01*
X143565200Y-84399122D02*
X143660438Y-84303884D01*
X143660438Y-84303884D02*
X143755676Y-84256265D01*
X143755676Y-84256265D02*
X143946152Y-84208646D01*
X143946152Y-84208646D02*
X144089009Y-84208646D01*
X144089009Y-84208646D02*
X144279485Y-84256265D01*
X144279485Y-84256265D02*
X144374723Y-84303884D01*
X144374723Y-84303884D02*
X144469961Y-84399122D01*
X144469961Y-84399122D02*
X144517580Y-84541979D01*
X144517580Y-84541979D02*
X144517580Y-84637217D01*
X144517580Y-84637217D02*
X144469961Y-84780074D01*
X144469961Y-84780074D02*
X144422342Y-84827693D01*
X143517580Y-85732455D02*
X143517580Y-85256265D01*
X143517580Y-85256265D02*
X144517580Y-85256265D01*
D12*
X126610000Y-96130000D02*
X127940000Y-96130000D01*
X126610000Y-97460000D02*
X126610000Y-96130000D01*
X129210000Y-96130000D02*
X147050000Y-96130000D01*
X129210000Y-98790000D02*
X129210000Y-96130000D01*
X129210000Y-98790000D02*
X147050000Y-98790000D01*
X147050000Y-98790000D02*
X147050000Y-96130000D01*
X149470000Y-96130000D02*
X150800000Y-96130000D01*
X149470000Y-97460000D02*
X149470000Y-96130000D01*
X152070000Y-96130000D02*
X164830000Y-96130000D01*
X152070000Y-98790000D02*
X152070000Y-96130000D01*
X152070000Y-98790000D02*
X164830000Y-98790000D01*
X164830000Y-98790000D02*
X164830000Y-96130000D01*
X117466000Y-47870000D02*
X118796000Y-47870000D01*
X117466000Y-49200000D02*
X117466000Y-47870000D01*
X120066000Y-47870000D02*
X142986000Y-47870000D01*
X120066000Y-50530000D02*
X120066000Y-47870000D01*
X120066000Y-50530000D02*
X142986000Y-50530000D01*
X142986000Y-50530000D02*
X142986000Y-47870000D01*
X144390000Y-47870000D02*
X145720000Y-47870000D01*
X144390000Y-49200000D02*
X144390000Y-47870000D01*
X146990000Y-47870000D02*
X164830000Y-47870000D01*
X146990000Y-50530000D02*
X146990000Y-47870000D01*
X146990000Y-50530000D02*
X164830000Y-50530000D01*
X164830000Y-50530000D02*
X164830000Y-47870000D01*
X113630000Y-66810000D02*
X113630000Y-73350000D01*
X113630000Y-73350000D02*
X116370000Y-73350000D01*
X115000000Y-66040000D02*
X115000000Y-66810000D01*
X115000000Y-74120000D02*
X115000000Y-73350000D01*
X116370000Y-66810000D02*
X113630000Y-66810000D01*
X116370000Y-73350000D02*
X116370000Y-66810000D01*
X164230000Y-69880000D02*
X167770000Y-69880000D01*
X164230000Y-80270000D02*
X167770000Y-80270000D01*
X164230000Y-83040000D02*
X164230000Y-69880000D01*
X167770000Y-69880000D02*
X167770000Y-83040000D01*
X167770000Y-83040000D02*
X164230000Y-83040000D01*
X127630000Y-75650000D02*
X127630000Y-82190000D01*
X127630000Y-82190000D02*
X130370000Y-82190000D01*
X129000000Y-74880000D02*
X129000000Y-75650000D01*
X129000000Y-82960000D02*
X129000000Y-82190000D01*
X130370000Y-75650000D02*
X127630000Y-75650000D01*
X130370000Y-82190000D02*
X130370000Y-75650000D01*
X111960000Y-78500000D02*
X112730000Y-78500000D01*
X112730000Y-77130000D02*
X112730000Y-79870000D01*
X112730000Y-79870000D02*
X119270000Y-79870000D01*
X119270000Y-77130000D02*
X112730000Y-77130000D01*
X119270000Y-79870000D02*
X119270000Y-77130000D01*
X120040000Y-78500000D02*
X119270000Y-78500000D01*
X139920000Y-52730000D02*
X155620000Y-52730000D01*
X139920000Y-56270000D02*
X139920000Y-52730000D01*
X152850000Y-56270000D02*
X152850000Y-52730000D01*
X155620000Y-52730000D02*
X155620000Y-56270000D01*
X155620000Y-56270000D02*
X139920000Y-56270000D01*
X122630000Y-87380000D02*
X122630000Y-94620000D01*
X127370000Y-87380000D02*
X122630000Y-87380000D01*
X127370000Y-87380000D02*
X127370000Y-94620000D01*
X127370000Y-94620000D02*
X122630000Y-94620000D01*
D13*
X116483000Y-54817000D02*
X116483000Y-62183000D01*
X116483000Y-62183000D02*
X116805439Y-62183000D01*
X116805439Y-54817000D02*
X116483000Y-54817000D01*
X118954561Y-62183000D02*
X119345439Y-62183000D01*
X119345439Y-54817000D02*
X118954561Y-54817000D01*
X121494561Y-62183000D02*
X121885439Y-62183000D01*
X121885439Y-54817000D02*
X121494561Y-54817000D01*
X124034561Y-62183000D02*
X124425439Y-62183000D01*
X124417960Y-54817000D02*
X124034561Y-54817000D01*
X126574561Y-62183000D02*
X126897000Y-62183000D01*
X126897000Y-54817000D02*
X126582040Y-54817000D01*
X126897000Y-62183000D02*
X126897000Y-54817000D01*
D12*
X164880000Y-85130000D02*
X164945000Y-85130000D01*
X164880000Y-88370000D02*
X164880000Y-85130000D01*
X164880000Y-88370000D02*
X164945000Y-88370000D01*
X167055000Y-85130000D02*
X167120000Y-85130000D01*
X167055000Y-88370000D02*
X167120000Y-88370000D01*
X167120000Y-88370000D02*
X167120000Y-85130000D01*
X106170000Y-79950000D02*
X106170000Y-82550000D01*
X106170000Y-79950000D02*
X108830000Y-79950000D01*
X106170000Y-82550000D02*
X108830000Y-82550000D01*
X107500000Y-77350000D02*
X108830000Y-77350000D01*
X108830000Y-77350000D02*
X108830000Y-78680000D01*
X108830000Y-79950000D02*
X108830000Y-82550000D01*
X107880000Y-68880000D02*
X107880000Y-72120000D01*
X107945000Y-68880000D02*
X107880000Y-68880000D01*
X107945000Y-72120000D02*
X107880000Y-72120000D01*
X110120000Y-68880000D02*
X110055000Y-68880000D01*
X110120000Y-68880000D02*
X110120000Y-72120000D01*
X110120000Y-72120000D02*
X110055000Y-72120000D01*
X114040000Y-81670000D02*
X114040000Y-91950000D01*
X114040000Y-91950000D02*
X115690000Y-91950000D01*
X117690000Y-91950000D02*
X119340000Y-91950000D01*
X119340000Y-81670000D02*
X114040000Y-81670000D01*
X119340000Y-91950000D02*
X119340000Y-81670000D01*
X115690000Y-91950000D02*
G75*
G02*
X117690000Y-91950000I1000000J0D01*
G01*
X132630000Y-91380000D02*
X132630000Y-91445000D01*
X132630000Y-91380000D02*
X135870000Y-91380000D01*
X132630000Y-93555000D02*
X132630000Y-93620000D01*
X132630000Y-93620000D02*
X135870000Y-93620000D01*
X135870000Y-91380000D02*
X135870000Y-91445000D01*
X135870000Y-93555000D02*
X135870000Y-93620000D01*
X128580000Y-88080000D02*
X128580000Y-91920000D01*
X128580000Y-91920000D02*
X130420000Y-91920000D01*
X129500000Y-87130000D02*
X129500000Y-88080000D01*
X129500000Y-92870000D02*
X129500000Y-91920000D01*
X130420000Y-88080000D02*
X128580000Y-88080000D01*
X130420000Y-91920000D02*
X130420000Y-88080000D01*
X139880000Y-86500000D02*
X150500000Y-86500000D01*
X139880000Y-89500000D02*
X139880000Y-86500000D01*
X147730000Y-89500000D02*
X147730000Y-86500000D01*
X150500000Y-86500000D02*
X150500000Y-89500000D01*
X150500000Y-89500000D02*
X139880000Y-89500000D01*
D11*
X159290000Y-89700000D02*
X131290000Y-89700000D01*
X131290000Y-61700000D01*
X159290000Y-61700000D01*
X159290000Y-89700000D01*
M02*
