%TF.GenerationSoftware,KiCad,Pcbnew,8.0.3*%
%TF.CreationDate,2025-03-28T10:03:14+01:00*%
%TF.ProjectId,capteur graphite CouBeh,63617074-6575-4722-9067-726170686974,rev?*%
%TF.SameCoordinates,Original*%
%TF.FileFunction,Legend,Top*%
%TF.FilePolarity,Positive*%
%FSLAX46Y46*%
G04 Gerber Fmt 4.6, Leading zero omitted, Abs format (unit mm)*
G04 Created by KiCad (PCBNEW 8.0.3) date 2025-03-28 10:03:14*
%MOMM*%
%LPD*%
G01*
G04 APERTURE LIST*
%ADD10C,0.150000*%
%ADD11C,0.100000*%
%ADD12C,0.120000*%
%ADD13C,0.152400*%
G04 APERTURE END LIST*
D10*
X117824819Y-70246666D02*
X117348628Y-70579999D01*
X117824819Y-70818094D02*
X116824819Y-70818094D01*
X116824819Y-70818094D02*
X116824819Y-70437142D01*
X116824819Y-70437142D02*
X116872438Y-70341904D01*
X116872438Y-70341904D02*
X116920057Y-70294285D01*
X116920057Y-70294285D02*
X117015295Y-70246666D01*
X117015295Y-70246666D02*
X117158152Y-70246666D01*
X117158152Y-70246666D02*
X117253390Y-70294285D01*
X117253390Y-70294285D02*
X117301009Y-70341904D01*
X117301009Y-70341904D02*
X117348628Y-70437142D01*
X117348628Y-70437142D02*
X117348628Y-70818094D01*
X116920057Y-69865713D02*
X116872438Y-69818094D01*
X116872438Y-69818094D02*
X116824819Y-69722856D01*
X116824819Y-69722856D02*
X116824819Y-69484761D01*
X116824819Y-69484761D02*
X116872438Y-69389523D01*
X116872438Y-69389523D02*
X116920057Y-69341904D01*
X116920057Y-69341904D02*
X117015295Y-69294285D01*
X117015295Y-69294285D02*
X117110533Y-69294285D01*
X117110533Y-69294285D02*
X117253390Y-69341904D01*
X117253390Y-69341904D02*
X117824819Y-69913332D01*
X117824819Y-69913332D02*
X117824819Y-69294285D01*
X169224819Y-78245713D02*
X168224819Y-78245713D01*
X169224819Y-77674285D02*
X168653390Y-78102856D01*
X168224819Y-77674285D02*
X168796247Y-78245713D01*
X168748628Y-77055237D02*
X169224819Y-77055237D01*
X168224819Y-77388570D02*
X168748628Y-77055237D01*
X168748628Y-77055237D02*
X168224819Y-76721904D01*
X168843866Y-76388570D02*
X168843866Y-75626666D01*
X169224819Y-74626666D02*
X169224819Y-75198094D01*
X169224819Y-74912380D02*
X168224819Y-74912380D01*
X168224819Y-74912380D02*
X168367676Y-75007618D01*
X168367676Y-75007618D02*
X168462914Y-75102856D01*
X168462914Y-75102856D02*
X168510533Y-75198094D01*
X131824819Y-79086666D02*
X131348628Y-79419999D01*
X131824819Y-79658094D02*
X130824819Y-79658094D01*
X130824819Y-79658094D02*
X130824819Y-79277142D01*
X130824819Y-79277142D02*
X130872438Y-79181904D01*
X130872438Y-79181904D02*
X130920057Y-79134285D01*
X130920057Y-79134285D02*
X131015295Y-79086666D01*
X131015295Y-79086666D02*
X131158152Y-79086666D01*
X131158152Y-79086666D02*
X131253390Y-79134285D01*
X131253390Y-79134285D02*
X131301009Y-79181904D01*
X131301009Y-79181904D02*
X131348628Y-79277142D01*
X131348628Y-79277142D02*
X131348628Y-79658094D01*
X131158152Y-78229523D02*
X131824819Y-78229523D01*
X130777200Y-78467618D02*
X131491485Y-78705713D01*
X131491485Y-78705713D02*
X131491485Y-78086666D01*
X115833333Y-76584819D02*
X115500000Y-76108628D01*
X115261905Y-76584819D02*
X115261905Y-75584819D01*
X115261905Y-75584819D02*
X115642857Y-75584819D01*
X115642857Y-75584819D02*
X115738095Y-75632438D01*
X115738095Y-75632438D02*
X115785714Y-75680057D01*
X115785714Y-75680057D02*
X115833333Y-75775295D01*
X115833333Y-75775295D02*
X115833333Y-75918152D01*
X115833333Y-75918152D02*
X115785714Y-76013390D01*
X115785714Y-76013390D02*
X115738095Y-76061009D01*
X115738095Y-76061009D02*
X115642857Y-76108628D01*
X115642857Y-76108628D02*
X115261905Y-76108628D01*
X116166667Y-75584819D02*
X116785714Y-75584819D01*
X116785714Y-75584819D02*
X116452381Y-75965771D01*
X116452381Y-75965771D02*
X116595238Y-75965771D01*
X116595238Y-75965771D02*
X116690476Y-76013390D01*
X116690476Y-76013390D02*
X116738095Y-76061009D01*
X116738095Y-76061009D02*
X116785714Y-76156247D01*
X116785714Y-76156247D02*
X116785714Y-76394342D01*
X116785714Y-76394342D02*
X116738095Y-76489580D01*
X116738095Y-76489580D02*
X116690476Y-76537200D01*
X116690476Y-76537200D02*
X116595238Y-76584819D01*
X116595238Y-76584819D02*
X116309524Y-76584819D01*
X116309524Y-76584819D02*
X116214286Y-76537200D01*
X116214286Y-76537200D02*
X116166667Y-76489580D01*
X145889048Y-52184819D02*
X145889048Y-51184819D01*
X145889048Y-51661009D02*
X146460476Y-51661009D01*
X146460476Y-52184819D02*
X146460476Y-51184819D01*
X147508095Y-52089580D02*
X147460476Y-52137200D01*
X147460476Y-52137200D02*
X147317619Y-52184819D01*
X147317619Y-52184819D02*
X147222381Y-52184819D01*
X147222381Y-52184819D02*
X147079524Y-52137200D01*
X147079524Y-52137200D02*
X146984286Y-52041961D01*
X146984286Y-52041961D02*
X146936667Y-51946723D01*
X146936667Y-51946723D02*
X146889048Y-51756247D01*
X146889048Y-51756247D02*
X146889048Y-51613390D01*
X146889048Y-51613390D02*
X146936667Y-51422914D01*
X146936667Y-51422914D02*
X146984286Y-51327676D01*
X146984286Y-51327676D02*
X147079524Y-51232438D01*
X147079524Y-51232438D02*
X147222381Y-51184819D01*
X147222381Y-51184819D02*
X147317619Y-51184819D01*
X147317619Y-51184819D02*
X147460476Y-51232438D01*
X147460476Y-51232438D02*
X147508095Y-51280057D01*
X147936667Y-51803866D02*
X148698572Y-51803866D01*
X149698571Y-52184819D02*
X149127143Y-52184819D01*
X149412857Y-52184819D02*
X149412857Y-51184819D01*
X149412857Y-51184819D02*
X149317619Y-51327676D01*
X149317619Y-51327676D02*
X149222381Y-51422914D01*
X149222381Y-51422914D02*
X149127143Y-51470533D01*
X128859580Y-91166666D02*
X128907200Y-91214285D01*
X128907200Y-91214285D02*
X128954819Y-91357142D01*
X128954819Y-91357142D02*
X128954819Y-91452380D01*
X128954819Y-91452380D02*
X128907200Y-91595237D01*
X128907200Y-91595237D02*
X128811961Y-91690475D01*
X128811961Y-91690475D02*
X128716723Y-91738094D01*
X128716723Y-91738094D02*
X128526247Y-91785713D01*
X128526247Y-91785713D02*
X128383390Y-91785713D01*
X128383390Y-91785713D02*
X128192914Y-91738094D01*
X128192914Y-91738094D02*
X128097676Y-91690475D01*
X128097676Y-91690475D02*
X128002438Y-91595237D01*
X128002438Y-91595237D02*
X127954819Y-91452380D01*
X127954819Y-91452380D02*
X127954819Y-91357142D01*
X127954819Y-91357142D02*
X128002438Y-91214285D01*
X128002438Y-91214285D02*
X128050057Y-91166666D01*
X128050057Y-90785713D02*
X128002438Y-90738094D01*
X128002438Y-90738094D02*
X127954819Y-90642856D01*
X127954819Y-90642856D02*
X127954819Y-90404761D01*
X127954819Y-90404761D02*
X128002438Y-90309523D01*
X128002438Y-90309523D02*
X128050057Y-90261904D01*
X128050057Y-90261904D02*
X128145295Y-90214285D01*
X128145295Y-90214285D02*
X128240533Y-90214285D01*
X128240533Y-90214285D02*
X128383390Y-90261904D01*
X128383390Y-90261904D02*
X128954819Y-90833332D01*
X128954819Y-90833332D02*
X128954819Y-90214285D01*
X120545180Y-57738095D02*
X119735657Y-57738095D01*
X119735657Y-57738095D02*
X119640419Y-57785714D01*
X119640419Y-57785714D02*
X119592800Y-57833333D01*
X119592800Y-57833333D02*
X119545180Y-57928571D01*
X119545180Y-57928571D02*
X119545180Y-58119047D01*
X119545180Y-58119047D02*
X119592800Y-58214285D01*
X119592800Y-58214285D02*
X119640419Y-58261904D01*
X119640419Y-58261904D02*
X119735657Y-58309523D01*
X119735657Y-58309523D02*
X120545180Y-58309523D01*
X120545180Y-58690476D02*
X120545180Y-59309523D01*
X120545180Y-59309523D02*
X120164228Y-58976190D01*
X120164228Y-58976190D02*
X120164228Y-59119047D01*
X120164228Y-59119047D02*
X120116609Y-59214285D01*
X120116609Y-59214285D02*
X120068990Y-59261904D01*
X120068990Y-59261904D02*
X119973752Y-59309523D01*
X119973752Y-59309523D02*
X119735657Y-59309523D01*
X119735657Y-59309523D02*
X119640419Y-59261904D01*
X119640419Y-59261904D02*
X119592800Y-59214285D01*
X119592800Y-59214285D02*
X119545180Y-59119047D01*
X119545180Y-59119047D02*
X119545180Y-58833333D01*
X119545180Y-58833333D02*
X119592800Y-58738095D01*
X119592800Y-58738095D02*
X119640419Y-58690476D01*
X124776119Y-54689999D02*
X125014214Y-54689999D01*
X124918976Y-54928094D02*
X125014214Y-54689999D01*
X125014214Y-54689999D02*
X124918976Y-54451904D01*
X125204690Y-54832856D02*
X125014214Y-54689999D01*
X125014214Y-54689999D02*
X125204690Y-54547142D01*
X125866480Y-54690000D02*
X125628385Y-54690000D01*
X125723623Y-54451905D02*
X125628385Y-54690000D01*
X125628385Y-54690000D02*
X125723623Y-54928095D01*
X125437909Y-54547143D02*
X125628385Y-54690000D01*
X125628385Y-54690000D02*
X125437909Y-54832857D01*
X123534819Y-79976666D02*
X123058628Y-80309999D01*
X123534819Y-80548094D02*
X122534819Y-80548094D01*
X122534819Y-80548094D02*
X122534819Y-80167142D01*
X122534819Y-80167142D02*
X122582438Y-80071904D01*
X122582438Y-80071904D02*
X122630057Y-80024285D01*
X122630057Y-80024285D02*
X122725295Y-79976666D01*
X122725295Y-79976666D02*
X122868152Y-79976666D01*
X122868152Y-79976666D02*
X122963390Y-80024285D01*
X122963390Y-80024285D02*
X123011009Y-80071904D01*
X123011009Y-80071904D02*
X123058628Y-80167142D01*
X123058628Y-80167142D02*
X123058628Y-80548094D01*
X123534819Y-79024285D02*
X123534819Y-79595713D01*
X123534819Y-79309999D02*
X122534819Y-79309999D01*
X122534819Y-79309999D02*
X122677676Y-79405237D01*
X122677676Y-79405237D02*
X122772914Y-79500475D01*
X122772914Y-79500475D02*
X122820533Y-79595713D01*
X164109580Y-86916666D02*
X164157200Y-86964285D01*
X164157200Y-86964285D02*
X164204819Y-87107142D01*
X164204819Y-87107142D02*
X164204819Y-87202380D01*
X164204819Y-87202380D02*
X164157200Y-87345237D01*
X164157200Y-87345237D02*
X164061961Y-87440475D01*
X164061961Y-87440475D02*
X163966723Y-87488094D01*
X163966723Y-87488094D02*
X163776247Y-87535713D01*
X163776247Y-87535713D02*
X163633390Y-87535713D01*
X163633390Y-87535713D02*
X163442914Y-87488094D01*
X163442914Y-87488094D02*
X163347676Y-87440475D01*
X163347676Y-87440475D02*
X163252438Y-87345237D01*
X163252438Y-87345237D02*
X163204819Y-87202380D01*
X163204819Y-87202380D02*
X163204819Y-87107142D01*
X163204819Y-87107142D02*
X163252438Y-86964285D01*
X163252438Y-86964285D02*
X163300057Y-86916666D01*
X163538152Y-86059523D02*
X164204819Y-86059523D01*
X163157200Y-86297618D02*
X163871485Y-86535713D01*
X163871485Y-86535713D02*
X163871485Y-85916666D01*
X107166666Y-75364819D02*
X107166666Y-76079104D01*
X107166666Y-76079104D02*
X107119047Y-76221961D01*
X107119047Y-76221961D02*
X107023809Y-76317200D01*
X107023809Y-76317200D02*
X106880952Y-76364819D01*
X106880952Y-76364819D02*
X106785714Y-76364819D01*
X108119047Y-75364819D02*
X107642857Y-75364819D01*
X107642857Y-75364819D02*
X107595238Y-75841009D01*
X107595238Y-75841009D02*
X107642857Y-75793390D01*
X107642857Y-75793390D02*
X107738095Y-75745771D01*
X107738095Y-75745771D02*
X107976190Y-75745771D01*
X107976190Y-75745771D02*
X108071428Y-75793390D01*
X108071428Y-75793390D02*
X108119047Y-75841009D01*
X108119047Y-75841009D02*
X108166666Y-75936247D01*
X108166666Y-75936247D02*
X108166666Y-76174342D01*
X108166666Y-76174342D02*
X108119047Y-76269580D01*
X108119047Y-76269580D02*
X108071428Y-76317200D01*
X108071428Y-76317200D02*
X107976190Y-76364819D01*
X107976190Y-76364819D02*
X107738095Y-76364819D01*
X107738095Y-76364819D02*
X107642857Y-76317200D01*
X107642857Y-76317200D02*
X107595238Y-76269580D01*
X111609580Y-70666666D02*
X111657200Y-70714285D01*
X111657200Y-70714285D02*
X111704819Y-70857142D01*
X111704819Y-70857142D02*
X111704819Y-70952380D01*
X111704819Y-70952380D02*
X111657200Y-71095237D01*
X111657200Y-71095237D02*
X111561961Y-71190475D01*
X111561961Y-71190475D02*
X111466723Y-71238094D01*
X111466723Y-71238094D02*
X111276247Y-71285713D01*
X111276247Y-71285713D02*
X111133390Y-71285713D01*
X111133390Y-71285713D02*
X110942914Y-71238094D01*
X110942914Y-71238094D02*
X110847676Y-71190475D01*
X110847676Y-71190475D02*
X110752438Y-71095237D01*
X110752438Y-71095237D02*
X110704819Y-70952380D01*
X110704819Y-70952380D02*
X110704819Y-70857142D01*
X110704819Y-70857142D02*
X110752438Y-70714285D01*
X110752438Y-70714285D02*
X110800057Y-70666666D01*
X111704819Y-69714285D02*
X111704819Y-70285713D01*
X111704819Y-69999999D02*
X110704819Y-69999999D01*
X110704819Y-69999999D02*
X110847676Y-70095237D01*
X110847676Y-70095237D02*
X110942914Y-70190475D01*
X110942914Y-70190475D02*
X110990533Y-70285713D01*
X115928095Y-92404819D02*
X115928095Y-93214342D01*
X115928095Y-93214342D02*
X115975714Y-93309580D01*
X115975714Y-93309580D02*
X116023333Y-93357200D01*
X116023333Y-93357200D02*
X116118571Y-93404819D01*
X116118571Y-93404819D02*
X116309047Y-93404819D01*
X116309047Y-93404819D02*
X116404285Y-93357200D01*
X116404285Y-93357200D02*
X116451904Y-93309580D01*
X116451904Y-93309580D02*
X116499523Y-93214342D01*
X116499523Y-93214342D02*
X116499523Y-92404819D01*
X116928095Y-92500057D02*
X116975714Y-92452438D01*
X116975714Y-92452438D02*
X117070952Y-92404819D01*
X117070952Y-92404819D02*
X117309047Y-92404819D01*
X117309047Y-92404819D02*
X117404285Y-92452438D01*
X117404285Y-92452438D02*
X117451904Y-92500057D01*
X117451904Y-92500057D02*
X117499523Y-92595295D01*
X117499523Y-92595295D02*
X117499523Y-92690533D01*
X117499523Y-92690533D02*
X117451904Y-92833390D01*
X117451904Y-92833390D02*
X116880476Y-93404819D01*
X116880476Y-93404819D02*
X117499523Y-93404819D01*
X134083333Y-90609580D02*
X134035714Y-90657200D01*
X134035714Y-90657200D02*
X133892857Y-90704819D01*
X133892857Y-90704819D02*
X133797619Y-90704819D01*
X133797619Y-90704819D02*
X133654762Y-90657200D01*
X133654762Y-90657200D02*
X133559524Y-90561961D01*
X133559524Y-90561961D02*
X133511905Y-90466723D01*
X133511905Y-90466723D02*
X133464286Y-90276247D01*
X133464286Y-90276247D02*
X133464286Y-90133390D01*
X133464286Y-90133390D02*
X133511905Y-89942914D01*
X133511905Y-89942914D02*
X133559524Y-89847676D01*
X133559524Y-89847676D02*
X133654762Y-89752438D01*
X133654762Y-89752438D02*
X133797619Y-89704819D01*
X133797619Y-89704819D02*
X133892857Y-89704819D01*
X133892857Y-89704819D02*
X134035714Y-89752438D01*
X134035714Y-89752438D02*
X134083333Y-89800057D01*
X134416667Y-89704819D02*
X135035714Y-89704819D01*
X135035714Y-89704819D02*
X134702381Y-90085771D01*
X134702381Y-90085771D02*
X134845238Y-90085771D01*
X134845238Y-90085771D02*
X134940476Y-90133390D01*
X134940476Y-90133390D02*
X134988095Y-90181009D01*
X134988095Y-90181009D02*
X135035714Y-90276247D01*
X135035714Y-90276247D02*
X135035714Y-90514342D01*
X135035714Y-90514342D02*
X134988095Y-90609580D01*
X134988095Y-90609580D02*
X134940476Y-90657200D01*
X134940476Y-90657200D02*
X134845238Y-90704819D01*
X134845238Y-90704819D02*
X134559524Y-90704819D01*
X134559524Y-90704819D02*
X134464286Y-90657200D01*
X134464286Y-90657200D02*
X134416667Y-90609580D01*
X129954819Y-90166666D02*
X129478628Y-90499999D01*
X129954819Y-90738094D02*
X128954819Y-90738094D01*
X128954819Y-90738094D02*
X128954819Y-90357142D01*
X128954819Y-90357142D02*
X129002438Y-90261904D01*
X129002438Y-90261904D02*
X129050057Y-90214285D01*
X129050057Y-90214285D02*
X129145295Y-90166666D01*
X129145295Y-90166666D02*
X129288152Y-90166666D01*
X129288152Y-90166666D02*
X129383390Y-90214285D01*
X129383390Y-90214285D02*
X129431009Y-90261904D01*
X129431009Y-90261904D02*
X129478628Y-90357142D01*
X129478628Y-90357142D02*
X129478628Y-90738094D01*
X128954819Y-89261904D02*
X128954819Y-89738094D01*
X128954819Y-89738094D02*
X129431009Y-89785713D01*
X129431009Y-89785713D02*
X129383390Y-89738094D01*
X129383390Y-89738094D02*
X129335771Y-89642856D01*
X129335771Y-89642856D02*
X129335771Y-89404761D01*
X129335771Y-89404761D02*
X129383390Y-89309523D01*
X129383390Y-89309523D02*
X129431009Y-89261904D01*
X129431009Y-89261904D02*
X129526247Y-89214285D01*
X129526247Y-89214285D02*
X129764342Y-89214285D01*
X129764342Y-89214285D02*
X129859580Y-89261904D01*
X129859580Y-89261904D02*
X129907200Y-89309523D01*
X129907200Y-89309523D02*
X129954819Y-89404761D01*
X129954819Y-89404761D02*
X129954819Y-89642856D01*
X129954819Y-89642856D02*
X129907200Y-89738094D01*
X129907200Y-89738094D02*
X129859580Y-89785713D01*
X144928095Y-70254819D02*
X144928095Y-71064342D01*
X144928095Y-71064342D02*
X144975714Y-71159580D01*
X144975714Y-71159580D02*
X145023333Y-71207200D01*
X145023333Y-71207200D02*
X145118571Y-71254819D01*
X145118571Y-71254819D02*
X145309047Y-71254819D01*
X145309047Y-71254819D02*
X145404285Y-71207200D01*
X145404285Y-71207200D02*
X145451904Y-71159580D01*
X145451904Y-71159580D02*
X145499523Y-71064342D01*
X145499523Y-71064342D02*
X145499523Y-70254819D01*
X146499523Y-71254819D02*
X145928095Y-71254819D01*
X146213809Y-71254819D02*
X146213809Y-70254819D01*
X146213809Y-70254819D02*
X146118571Y-70397676D01*
X146118571Y-70397676D02*
X146023333Y-70492914D01*
X146023333Y-70492914D02*
X145928095Y-70540533D01*
D11*
X141310038Y-67372306D02*
X141262419Y-67467544D01*
X141262419Y-67467544D02*
X141262419Y-67610401D01*
X141262419Y-67610401D02*
X141310038Y-67753258D01*
X141310038Y-67753258D02*
X141405276Y-67848496D01*
X141405276Y-67848496D02*
X141500514Y-67896115D01*
X141500514Y-67896115D02*
X141690990Y-67943734D01*
X141690990Y-67943734D02*
X141833847Y-67943734D01*
X141833847Y-67943734D02*
X142024323Y-67896115D01*
X142024323Y-67896115D02*
X142119561Y-67848496D01*
X142119561Y-67848496D02*
X142214800Y-67753258D01*
X142214800Y-67753258D02*
X142262419Y-67610401D01*
X142262419Y-67610401D02*
X142262419Y-67515163D01*
X142262419Y-67515163D02*
X142214800Y-67372306D01*
X142214800Y-67372306D02*
X142167180Y-67324687D01*
X142167180Y-67324687D02*
X141833847Y-67324687D01*
X141833847Y-67324687D02*
X141833847Y-67515163D01*
X142262419Y-66896115D02*
X141262419Y-66896115D01*
X141262419Y-66896115D02*
X142262419Y-66324687D01*
X142262419Y-66324687D02*
X141262419Y-66324687D01*
X142262419Y-65848496D02*
X141262419Y-65848496D01*
X141262419Y-65848496D02*
X141262419Y-65610401D01*
X141262419Y-65610401D02*
X141310038Y-65467544D01*
X141310038Y-65467544D02*
X141405276Y-65372306D01*
X141405276Y-65372306D02*
X141500514Y-65324687D01*
X141500514Y-65324687D02*
X141690990Y-65277068D01*
X141690990Y-65277068D02*
X141833847Y-65277068D01*
X141833847Y-65277068D02*
X142024323Y-65324687D01*
X142024323Y-65324687D02*
X142119561Y-65372306D01*
X142119561Y-65372306D02*
X142214800Y-65467544D01*
X142214800Y-65467544D02*
X142262419Y-65610401D01*
X142262419Y-65610401D02*
X142262419Y-65848496D01*
X149914800Y-68043734D02*
X149962419Y-67900877D01*
X149962419Y-67900877D02*
X149962419Y-67662782D01*
X149962419Y-67662782D02*
X149914800Y-67567544D01*
X149914800Y-67567544D02*
X149867180Y-67519925D01*
X149867180Y-67519925D02*
X149771942Y-67472306D01*
X149771942Y-67472306D02*
X149676704Y-67472306D01*
X149676704Y-67472306D02*
X149581466Y-67519925D01*
X149581466Y-67519925D02*
X149533847Y-67567544D01*
X149533847Y-67567544D02*
X149486228Y-67662782D01*
X149486228Y-67662782D02*
X149438609Y-67853258D01*
X149438609Y-67853258D02*
X149390990Y-67948496D01*
X149390990Y-67948496D02*
X149343371Y-67996115D01*
X149343371Y-67996115D02*
X149248133Y-68043734D01*
X149248133Y-68043734D02*
X149152895Y-68043734D01*
X149152895Y-68043734D02*
X149057657Y-67996115D01*
X149057657Y-67996115D02*
X149010038Y-67948496D01*
X149010038Y-67948496D02*
X148962419Y-67853258D01*
X148962419Y-67853258D02*
X148962419Y-67615163D01*
X148962419Y-67615163D02*
X149010038Y-67472306D01*
X149962419Y-67043734D02*
X148962419Y-67043734D01*
X148962419Y-67043734D02*
X148962419Y-66805639D01*
X148962419Y-66805639D02*
X149010038Y-66662782D01*
X149010038Y-66662782D02*
X149105276Y-66567544D01*
X149105276Y-66567544D02*
X149200514Y-66519925D01*
X149200514Y-66519925D02*
X149390990Y-66472306D01*
X149390990Y-66472306D02*
X149533847Y-66472306D01*
X149533847Y-66472306D02*
X149724323Y-66519925D01*
X149724323Y-66519925D02*
X149819561Y-66567544D01*
X149819561Y-66567544D02*
X149914800Y-66662782D01*
X149914800Y-66662782D02*
X149962419Y-66805639D01*
X149962419Y-66805639D02*
X149962419Y-67043734D01*
X149676704Y-66091353D02*
X149676704Y-65615163D01*
X149962419Y-66186591D02*
X148962419Y-65853258D01*
X148962419Y-65853258D02*
X149962419Y-65519925D01*
X143862419Y-67838972D02*
X144862419Y-67505639D01*
X144862419Y-67505639D02*
X143862419Y-67172306D01*
X144767180Y-66267544D02*
X144814800Y-66315163D01*
X144814800Y-66315163D02*
X144862419Y-66458020D01*
X144862419Y-66458020D02*
X144862419Y-66553258D01*
X144862419Y-66553258D02*
X144814800Y-66696115D01*
X144814800Y-66696115D02*
X144719561Y-66791353D01*
X144719561Y-66791353D02*
X144624323Y-66838972D01*
X144624323Y-66838972D02*
X144433847Y-66886591D01*
X144433847Y-66886591D02*
X144290990Y-66886591D01*
X144290990Y-66886591D02*
X144100514Y-66838972D01*
X144100514Y-66838972D02*
X144005276Y-66791353D01*
X144005276Y-66791353D02*
X143910038Y-66696115D01*
X143910038Y-66696115D02*
X143862419Y-66553258D01*
X143862419Y-66553258D02*
X143862419Y-66458020D01*
X143862419Y-66458020D02*
X143910038Y-66315163D01*
X143910038Y-66315163D02*
X143957657Y-66267544D01*
X144767180Y-65267544D02*
X144814800Y-65315163D01*
X144814800Y-65315163D02*
X144862419Y-65458020D01*
X144862419Y-65458020D02*
X144862419Y-65553258D01*
X144862419Y-65553258D02*
X144814800Y-65696115D01*
X144814800Y-65696115D02*
X144719561Y-65791353D01*
X144719561Y-65791353D02*
X144624323Y-65838972D01*
X144624323Y-65838972D02*
X144433847Y-65886591D01*
X144433847Y-65886591D02*
X144290990Y-65886591D01*
X144290990Y-65886591D02*
X144100514Y-65838972D01*
X144100514Y-65838972D02*
X144005276Y-65791353D01*
X144005276Y-65791353D02*
X143910038Y-65696115D01*
X143910038Y-65696115D02*
X143862419Y-65553258D01*
X143862419Y-65553258D02*
X143862419Y-65458020D01*
X143862419Y-65458020D02*
X143910038Y-65315163D01*
X143910038Y-65315163D02*
X143957657Y-65267544D01*
X147314800Y-67743734D02*
X147362419Y-67600877D01*
X147362419Y-67600877D02*
X147362419Y-67362782D01*
X147362419Y-67362782D02*
X147314800Y-67267544D01*
X147314800Y-67267544D02*
X147267180Y-67219925D01*
X147267180Y-67219925D02*
X147171942Y-67172306D01*
X147171942Y-67172306D02*
X147076704Y-67172306D01*
X147076704Y-67172306D02*
X146981466Y-67219925D01*
X146981466Y-67219925D02*
X146933847Y-67267544D01*
X146933847Y-67267544D02*
X146886228Y-67362782D01*
X146886228Y-67362782D02*
X146838609Y-67553258D01*
X146838609Y-67553258D02*
X146790990Y-67648496D01*
X146790990Y-67648496D02*
X146743371Y-67696115D01*
X146743371Y-67696115D02*
X146648133Y-67743734D01*
X146648133Y-67743734D02*
X146552895Y-67743734D01*
X146552895Y-67743734D02*
X146457657Y-67696115D01*
X146457657Y-67696115D02*
X146410038Y-67648496D01*
X146410038Y-67648496D02*
X146362419Y-67553258D01*
X146362419Y-67553258D02*
X146362419Y-67315163D01*
X146362419Y-67315163D02*
X146410038Y-67172306D01*
X147267180Y-66172306D02*
X147314800Y-66219925D01*
X147314800Y-66219925D02*
X147362419Y-66362782D01*
X147362419Y-66362782D02*
X147362419Y-66458020D01*
X147362419Y-66458020D02*
X147314800Y-66600877D01*
X147314800Y-66600877D02*
X147219561Y-66696115D01*
X147219561Y-66696115D02*
X147124323Y-66743734D01*
X147124323Y-66743734D02*
X146933847Y-66791353D01*
X146933847Y-66791353D02*
X146790990Y-66791353D01*
X146790990Y-66791353D02*
X146600514Y-66743734D01*
X146600514Y-66743734D02*
X146505276Y-66696115D01*
X146505276Y-66696115D02*
X146410038Y-66600877D01*
X146410038Y-66600877D02*
X146362419Y-66458020D01*
X146362419Y-66458020D02*
X146362419Y-66362782D01*
X146362419Y-66362782D02*
X146410038Y-66219925D01*
X146410038Y-66219925D02*
X146457657Y-66172306D01*
X147362419Y-65267544D02*
X147362419Y-65743734D01*
X147362419Y-65743734D02*
X146362419Y-65743734D01*
D12*
%TO.C,J1*%
X126610000Y-96130000D02*
X127940000Y-96130000D01*
X126610000Y-97460000D02*
X126610000Y-96130000D01*
X129210000Y-96130000D02*
X147050000Y-96130000D01*
X129210000Y-98790000D02*
X129210000Y-96130000D01*
X129210000Y-98790000D02*
X147050000Y-98790000D01*
X147050000Y-98790000D02*
X147050000Y-96130000D01*
%TO.C,J3*%
X149470000Y-96130000D02*
X150800000Y-96130000D01*
X149470000Y-97460000D02*
X149470000Y-96130000D01*
X152070000Y-96130000D02*
X164830000Y-96130000D01*
X152070000Y-98790000D02*
X152070000Y-96130000D01*
X152070000Y-98790000D02*
X164830000Y-98790000D01*
X164830000Y-98790000D02*
X164830000Y-96130000D01*
%TO.C,J2*%
X117466000Y-47870000D02*
X118796000Y-47870000D01*
X117466000Y-49200000D02*
X117466000Y-47870000D01*
X120066000Y-47870000D02*
X142986000Y-47870000D01*
X120066000Y-50530000D02*
X120066000Y-47870000D01*
X120066000Y-50530000D02*
X142986000Y-50530000D01*
X142986000Y-50530000D02*
X142986000Y-47870000D01*
%TO.C,J4*%
X144390000Y-47870000D02*
X145720000Y-47870000D01*
X144390000Y-49200000D02*
X144390000Y-47870000D01*
X146990000Y-47870000D02*
X164830000Y-47870000D01*
X146990000Y-50530000D02*
X146990000Y-47870000D01*
X146990000Y-50530000D02*
X164830000Y-50530000D01*
X164830000Y-50530000D02*
X164830000Y-47870000D01*
%TO.C,R2*%
X113630000Y-66810000D02*
X113630000Y-73350000D01*
X113630000Y-73350000D02*
X116370000Y-73350000D01*
X115000000Y-66040000D02*
X115000000Y-66810000D01*
X115000000Y-74120000D02*
X115000000Y-73350000D01*
X116370000Y-66810000D02*
X113630000Y-66810000D01*
X116370000Y-73350000D02*
X116370000Y-66810000D01*
%TO.C,KY-1*%
X164230000Y-69880000D02*
X167770000Y-69880000D01*
X164230000Y-80270000D02*
X167770000Y-80270000D01*
X164230000Y-83040000D02*
X164230000Y-69880000D01*
X167770000Y-69880000D02*
X167770000Y-83040000D01*
X167770000Y-83040000D02*
X164230000Y-83040000D01*
%TO.C,R4*%
X127630000Y-75650000D02*
X127630000Y-82190000D01*
X127630000Y-82190000D02*
X130370000Y-82190000D01*
X129000000Y-74880000D02*
X129000000Y-75650000D01*
X129000000Y-82960000D02*
X129000000Y-82190000D01*
X130370000Y-75650000D02*
X127630000Y-75650000D01*
X130370000Y-82190000D02*
X130370000Y-75650000D01*
%TO.C,R3*%
X111960000Y-78500000D02*
X112730000Y-78500000D01*
X112730000Y-77130000D02*
X112730000Y-79870000D01*
X112730000Y-79870000D02*
X119270000Y-79870000D01*
X119270000Y-77130000D02*
X112730000Y-77130000D01*
X119270000Y-79870000D02*
X119270000Y-77130000D01*
X120040000Y-78500000D02*
X119270000Y-78500000D01*
%TO.C,HC-1*%
X139920000Y-52730000D02*
X155620000Y-52730000D01*
X139920000Y-56270000D02*
X139920000Y-52730000D01*
X152850000Y-56270000D02*
X152850000Y-52730000D01*
X155620000Y-52730000D02*
X155620000Y-56270000D01*
X155620000Y-56270000D02*
X139920000Y-56270000D01*
%TO.C,C2*%
X122630000Y-87380000D02*
X122630000Y-94620000D01*
X127370000Y-87380000D02*
X122630000Y-87380000D01*
X127370000Y-87380000D02*
X127370000Y-94620000D01*
X127370000Y-94620000D02*
X122630000Y-94620000D01*
D13*
%TO.C,U3*%
X114793000Y-54817000D02*
X114793000Y-62183000D01*
X114793000Y-62183000D02*
X115115439Y-62183000D01*
X115115439Y-54817000D02*
X114793000Y-54817000D01*
X117264561Y-62183000D02*
X117655439Y-62183000D01*
X117655439Y-54817000D02*
X117264561Y-54817000D01*
X119804561Y-62183000D02*
X120195439Y-62183000D01*
X120195439Y-54817000D02*
X119804561Y-54817000D01*
X122344561Y-62183000D02*
X122735439Y-62183000D01*
X122727960Y-54817000D02*
X122344561Y-54817000D01*
X124884561Y-62183000D02*
X125207000Y-62183000D01*
X125207000Y-54817000D02*
X124892040Y-54817000D01*
X125207000Y-62183000D02*
X125207000Y-54817000D01*
D12*
%TO.C,R1*%
X124080000Y-77890000D02*
X124080000Y-81730000D01*
X124080000Y-81730000D02*
X125920000Y-81730000D01*
X125000000Y-76940000D02*
X125000000Y-77890000D01*
X125000000Y-82680000D02*
X125000000Y-81730000D01*
X125920000Y-77890000D02*
X124080000Y-77890000D01*
X125920000Y-81730000D02*
X125920000Y-77890000D01*
%TO.C,C4*%
X164880000Y-85130000D02*
X164945000Y-85130000D01*
X164880000Y-88370000D02*
X164880000Y-85130000D01*
X164880000Y-88370000D02*
X164945000Y-88370000D01*
X167055000Y-85130000D02*
X167120000Y-85130000D01*
X167055000Y-88370000D02*
X167120000Y-88370000D01*
X167120000Y-88370000D02*
X167120000Y-85130000D01*
%TO.C,J5*%
X106170000Y-79950000D02*
X106170000Y-82550000D01*
X106170000Y-79950000D02*
X108830000Y-79950000D01*
X106170000Y-82550000D02*
X108830000Y-82550000D01*
X107500000Y-77350000D02*
X108830000Y-77350000D01*
X108830000Y-77350000D02*
X108830000Y-78680000D01*
X108830000Y-79950000D02*
X108830000Y-82550000D01*
%TO.C,C1*%
X107880000Y-68880000D02*
X107880000Y-72120000D01*
X107945000Y-68880000D02*
X107880000Y-68880000D01*
X107945000Y-72120000D02*
X107880000Y-72120000D01*
X110120000Y-68880000D02*
X110055000Y-68880000D01*
X110120000Y-68880000D02*
X110120000Y-72120000D01*
X110120000Y-72120000D02*
X110055000Y-72120000D01*
%TO.C,U2*%
X114040000Y-81670000D02*
X114040000Y-91950000D01*
X114040000Y-91950000D02*
X115690000Y-91950000D01*
X117690000Y-91950000D02*
X119340000Y-91950000D01*
X119340000Y-81670000D02*
X114040000Y-81670000D01*
X119340000Y-91950000D02*
X119340000Y-81670000D01*
X115690000Y-91950000D02*
G75*
G02*
X117690000Y-91950000I1000000J0D01*
G01*
%TO.C,C3*%
X132630000Y-91380000D02*
X132630000Y-91445000D01*
X132630000Y-91380000D02*
X135870000Y-91380000D01*
X132630000Y-93555000D02*
X132630000Y-93620000D01*
X132630000Y-93620000D02*
X135870000Y-93620000D01*
X135870000Y-91380000D02*
X135870000Y-91445000D01*
X135870000Y-93555000D02*
X135870000Y-93620000D01*
%TO.C,R5*%
X128580000Y-88080000D02*
X128580000Y-91920000D01*
X128580000Y-91920000D02*
X130420000Y-91920000D01*
X129500000Y-87130000D02*
X129500000Y-88080000D01*
X129500000Y-92870000D02*
X129500000Y-91920000D01*
X130420000Y-88080000D02*
X128580000Y-88080000D01*
X130420000Y-91920000D02*
X130420000Y-88080000D01*
%TO.C,U1*%
X140380000Y-61500000D02*
X151000000Y-61500000D01*
X140380000Y-64500000D02*
X140380000Y-61500000D01*
X143150000Y-61500000D02*
X143150000Y-64500000D01*
X151000000Y-61500000D02*
X151000000Y-64500000D01*
X151000000Y-64500000D02*
X140380000Y-64500000D01*
D11*
X131590000Y-61300000D02*
X159590000Y-61300000D01*
X159590000Y-89300000D01*
X131590000Y-89300000D01*
X131590000Y-61300000D01*
%TD*%
M02*
