G04 #@! TF.GenerationSoftware,KiCad,Pcbnew,8.0.8*
G04 #@! TF.CreationDate,2025-05-22T15:23:05+02:00*
G04 #@! TF.ProjectId,capteur graphite CouBeh,63617074-6575-4722-9067-726170686974,rev?*
G04 #@! TF.SameCoordinates,Original*
G04 #@! TF.FileFunction,Copper,L1,Top*
G04 #@! TF.FilePolarity,Positive*
%FSLAX46Y46*%
G04 Gerber Fmt 4.6, Leading zero omitted, Abs format (unit mm)*
G04 Created by KiCad (PCBNEW 8.0.8) date 2025-05-22 15:23:05*
%MOMM*%
%LPD*%
G01*
G04 APERTURE LIST*
%ADD10C,0.250000*%
G04 #@! TA.AperFunction,NonConductor*
%ADD11C,0.250000*%
G04 #@! TD*
G04 #@! TA.AperFunction,ComponentPad*
%ADD12R,2.000000X2.540000*%
G04 #@! TD*
G04 #@! TA.AperFunction,ComponentPad*
%ADD13O,2.000000X2.540000*%
G04 #@! TD*
G04 #@! TA.AperFunction,ComponentPad*
%ADD14C,2.000000*%
G04 #@! TD*
G04 #@! TA.AperFunction,ComponentPad*
%ADD15R,2.540000X2.000000*%
G04 #@! TD*
G04 #@! TA.AperFunction,ComponentPad*
%ADD16O,2.540000X2.000000*%
G04 #@! TD*
G04 #@! TA.AperFunction,ComponentPad*
%ADD17C,1.600000*%
G04 #@! TD*
G04 #@! TA.AperFunction,ComponentPad*
%ADD18R,2.540000X1.700000*%
G04 #@! TD*
G04 #@! TA.AperFunction,ComponentPad*
%ADD19O,2.540000X1.700000*%
G04 #@! TD*
G04 #@! TA.AperFunction,ComponentPad*
%ADD20R,2.000000X2.000000*%
G04 #@! TD*
G04 #@! TA.AperFunction,Conductor*
%ADD21C,1.000000*%
G04 #@! TD*
G04 APERTURE END LIST*
D10*
D11*
X101473996Y-48534787D02*
X101140663Y-48058596D01*
X100902568Y-48534787D02*
X100902568Y-47534787D01*
X100902568Y-47534787D02*
X101283520Y-47534787D01*
X101283520Y-47534787D02*
X101378758Y-47582406D01*
X101378758Y-47582406D02*
X101426377Y-47630025D01*
X101426377Y-47630025D02*
X101473996Y-47725263D01*
X101473996Y-47725263D02*
X101473996Y-47868120D01*
X101473996Y-47868120D02*
X101426377Y-47963358D01*
X101426377Y-47963358D02*
X101378758Y-48010977D01*
X101378758Y-48010977D02*
X101283520Y-48058596D01*
X101283520Y-48058596D02*
X100902568Y-48058596D01*
X102331139Y-48534787D02*
X102331139Y-48010977D01*
X102331139Y-48010977D02*
X102283520Y-47915739D01*
X102283520Y-47915739D02*
X102188282Y-47868120D01*
X102188282Y-47868120D02*
X101997806Y-47868120D01*
X101997806Y-47868120D02*
X101902568Y-47915739D01*
X102331139Y-48487168D02*
X102235901Y-48534787D01*
X102235901Y-48534787D02*
X101997806Y-48534787D01*
X101997806Y-48534787D02*
X101902568Y-48487168D01*
X101902568Y-48487168D02*
X101854949Y-48391929D01*
X101854949Y-48391929D02*
X101854949Y-48296691D01*
X101854949Y-48296691D02*
X101902568Y-48201453D01*
X101902568Y-48201453D02*
X101997806Y-48153834D01*
X101997806Y-48153834D02*
X102235901Y-48153834D01*
X102235901Y-48153834D02*
X102331139Y-48106215D01*
X102664473Y-47868120D02*
X103045425Y-47868120D01*
X102807330Y-48534787D02*
X102807330Y-47677644D01*
X102807330Y-47677644D02*
X102854949Y-47582406D01*
X102854949Y-47582406D02*
X102950187Y-47534787D01*
X102950187Y-47534787D02*
X103045425Y-47534787D01*
X103807330Y-48534787D02*
X103807330Y-48010977D01*
X103807330Y-48010977D02*
X103759711Y-47915739D01*
X103759711Y-47915739D02*
X103664473Y-47868120D01*
X103664473Y-47868120D02*
X103473997Y-47868120D01*
X103473997Y-47868120D02*
X103378759Y-47915739D01*
X103807330Y-48487168D02*
X103712092Y-48534787D01*
X103712092Y-48534787D02*
X103473997Y-48534787D01*
X103473997Y-48534787D02*
X103378759Y-48487168D01*
X103378759Y-48487168D02*
X103331140Y-48391929D01*
X103331140Y-48391929D02*
X103331140Y-48296691D01*
X103331140Y-48296691D02*
X103378759Y-48201453D01*
X103378759Y-48201453D02*
X103473997Y-48153834D01*
X103473997Y-48153834D02*
X103712092Y-48153834D01*
X103712092Y-48153834D02*
X103807330Y-48106215D01*
X104664473Y-48487168D02*
X104569235Y-48534787D01*
X104569235Y-48534787D02*
X104378759Y-48534787D01*
X104378759Y-48534787D02*
X104283521Y-48487168D01*
X104283521Y-48487168D02*
X104235902Y-48391929D01*
X104235902Y-48391929D02*
X104235902Y-48010977D01*
X104235902Y-48010977D02*
X104283521Y-47915739D01*
X104283521Y-47915739D02*
X104378759Y-47868120D01*
X104378759Y-47868120D02*
X104569235Y-47868120D01*
X104569235Y-47868120D02*
X104664473Y-47915739D01*
X104664473Y-47915739D02*
X104712092Y-48010977D01*
X104712092Y-48010977D02*
X104712092Y-48106215D01*
X104712092Y-48106215D02*
X104235902Y-48201453D01*
X105283521Y-48534787D02*
X105188283Y-48487168D01*
X105188283Y-48487168D02*
X105140664Y-48391929D01*
X105140664Y-48391929D02*
X105140664Y-47534787D01*
X105807331Y-48534787D02*
X105712093Y-48487168D01*
X105712093Y-48487168D02*
X105664474Y-48439548D01*
X105664474Y-48439548D02*
X105616855Y-48344310D01*
X105616855Y-48344310D02*
X105616855Y-48058596D01*
X105616855Y-48058596D02*
X105664474Y-47963358D01*
X105664474Y-47963358D02*
X105712093Y-47915739D01*
X105712093Y-47915739D02*
X105807331Y-47868120D01*
X105807331Y-47868120D02*
X105950188Y-47868120D01*
X105950188Y-47868120D02*
X106045426Y-47915739D01*
X106045426Y-47915739D02*
X106093045Y-47963358D01*
X106093045Y-47963358D02*
X106140664Y-48058596D01*
X106140664Y-48058596D02*
X106140664Y-48344310D01*
X106140664Y-48344310D02*
X106093045Y-48439548D01*
X106093045Y-48439548D02*
X106045426Y-48487168D01*
X106045426Y-48487168D02*
X105950188Y-48534787D01*
X105950188Y-48534787D02*
X105807331Y-48534787D01*
X107854950Y-47582406D02*
X107759712Y-47534787D01*
X107759712Y-47534787D02*
X107616855Y-47534787D01*
X107616855Y-47534787D02*
X107473998Y-47582406D01*
X107473998Y-47582406D02*
X107378760Y-47677644D01*
X107378760Y-47677644D02*
X107331141Y-47772882D01*
X107331141Y-47772882D02*
X107283522Y-47963358D01*
X107283522Y-47963358D02*
X107283522Y-48106215D01*
X107283522Y-48106215D02*
X107331141Y-48296691D01*
X107331141Y-48296691D02*
X107378760Y-48391929D01*
X107378760Y-48391929D02*
X107473998Y-48487168D01*
X107473998Y-48487168D02*
X107616855Y-48534787D01*
X107616855Y-48534787D02*
X107712093Y-48534787D01*
X107712093Y-48534787D02*
X107854950Y-48487168D01*
X107854950Y-48487168D02*
X107902569Y-48439548D01*
X107902569Y-48439548D02*
X107902569Y-48106215D01*
X107902569Y-48106215D02*
X107712093Y-48106215D01*
X108712093Y-48487168D02*
X108616855Y-48534787D01*
X108616855Y-48534787D02*
X108426379Y-48534787D01*
X108426379Y-48534787D02*
X108331141Y-48487168D01*
X108331141Y-48487168D02*
X108283522Y-48391929D01*
X108283522Y-48391929D02*
X108283522Y-48010977D01*
X108283522Y-48010977D02*
X108331141Y-47915739D01*
X108331141Y-47915739D02*
X108426379Y-47868120D01*
X108426379Y-47868120D02*
X108616855Y-47868120D01*
X108616855Y-47868120D02*
X108712093Y-47915739D01*
X108712093Y-47915739D02*
X108759712Y-48010977D01*
X108759712Y-48010977D02*
X108759712Y-48106215D01*
X108759712Y-48106215D02*
X108283522Y-48201453D01*
X109188284Y-48534787D02*
X109188284Y-47868120D01*
X109188284Y-48058596D02*
X109235903Y-47963358D01*
X109235903Y-47963358D02*
X109283522Y-47915739D01*
X109283522Y-47915739D02*
X109378760Y-47868120D01*
X109378760Y-47868120D02*
X109473998Y-47868120D01*
X110235903Y-48534787D02*
X110235903Y-48010977D01*
X110235903Y-48010977D02*
X110188284Y-47915739D01*
X110188284Y-47915739D02*
X110093046Y-47868120D01*
X110093046Y-47868120D02*
X109902570Y-47868120D01*
X109902570Y-47868120D02*
X109807332Y-47915739D01*
X110235903Y-48487168D02*
X110140665Y-48534787D01*
X110140665Y-48534787D02*
X109902570Y-48534787D01*
X109902570Y-48534787D02*
X109807332Y-48487168D01*
X109807332Y-48487168D02*
X109759713Y-48391929D01*
X109759713Y-48391929D02*
X109759713Y-48296691D01*
X109759713Y-48296691D02*
X109807332Y-48201453D01*
X109807332Y-48201453D02*
X109902570Y-48153834D01*
X109902570Y-48153834D02*
X110140665Y-48153834D01*
X110140665Y-48153834D02*
X110235903Y-48106215D01*
X110712094Y-48534787D02*
X110712094Y-47868120D01*
X110712094Y-48058596D02*
X110759713Y-47963358D01*
X110759713Y-47963358D02*
X110807332Y-47915739D01*
X110807332Y-47915739D02*
X110902570Y-47868120D01*
X110902570Y-47868120D02*
X110997808Y-47868120D01*
X111759713Y-48534787D02*
X111759713Y-47534787D01*
X111759713Y-48487168D02*
X111664475Y-48534787D01*
X111664475Y-48534787D02*
X111473999Y-48534787D01*
X111473999Y-48534787D02*
X111378761Y-48487168D01*
X111378761Y-48487168D02*
X111331142Y-48439548D01*
X111331142Y-48439548D02*
X111283523Y-48344310D01*
X111283523Y-48344310D02*
X111283523Y-48058596D01*
X111283523Y-48058596D02*
X111331142Y-47963358D01*
X111331142Y-47963358D02*
X111378761Y-47915739D01*
X111378761Y-47915739D02*
X111473999Y-47868120D01*
X111473999Y-47868120D02*
X111664475Y-47868120D01*
X111664475Y-47868120D02*
X111759713Y-47915739D01*
X112235904Y-48534787D02*
X112235904Y-47868120D01*
X112235904Y-47534787D02*
X112188285Y-47582406D01*
X112188285Y-47582406D02*
X112235904Y-47630025D01*
X112235904Y-47630025D02*
X112283523Y-47582406D01*
X112283523Y-47582406D02*
X112235904Y-47534787D01*
X112235904Y-47534787D02*
X112235904Y-47630025D01*
X112712094Y-47868120D02*
X112712094Y-48534787D01*
X112712094Y-47963358D02*
X112759713Y-47915739D01*
X112759713Y-47915739D02*
X112854951Y-47868120D01*
X112854951Y-47868120D02*
X112997808Y-47868120D01*
X112997808Y-47868120D02*
X113093046Y-47915739D01*
X113093046Y-47915739D02*
X113140665Y-48010977D01*
X113140665Y-48010977D02*
X113140665Y-48534787D01*
X100902568Y-49620921D02*
X101235901Y-49620921D01*
X101378758Y-50144731D02*
X100902568Y-50144731D01*
X100902568Y-50144731D02*
X100902568Y-49144731D01*
X100902568Y-49144731D02*
X101378758Y-49144731D01*
X101950187Y-50144731D02*
X101854949Y-50097112D01*
X101854949Y-50097112D02*
X101807330Y-50001873D01*
X101807330Y-50001873D02*
X101807330Y-49144731D01*
X102331140Y-50144731D02*
X102331140Y-49478064D01*
X102331140Y-49144731D02*
X102283521Y-49192350D01*
X102283521Y-49192350D02*
X102331140Y-49239969D01*
X102331140Y-49239969D02*
X102378759Y-49192350D01*
X102378759Y-49192350D02*
X102331140Y-49144731D01*
X102331140Y-49144731D02*
X102331140Y-49239969D01*
X102950187Y-50144731D02*
X102854949Y-50097112D01*
X102854949Y-50097112D02*
X102807330Y-50049492D01*
X102807330Y-50049492D02*
X102759711Y-49954254D01*
X102759711Y-49954254D02*
X102759711Y-49668540D01*
X102759711Y-49668540D02*
X102807330Y-49573302D01*
X102807330Y-49573302D02*
X102854949Y-49525683D01*
X102854949Y-49525683D02*
X102950187Y-49478064D01*
X102950187Y-49478064D02*
X103093044Y-49478064D01*
X103093044Y-49478064D02*
X103188282Y-49525683D01*
X103188282Y-49525683D02*
X103235901Y-49573302D01*
X103235901Y-49573302D02*
X103283520Y-49668540D01*
X103283520Y-49668540D02*
X103283520Y-49954254D01*
X103283520Y-49954254D02*
X103235901Y-50049492D01*
X103235901Y-50049492D02*
X103188282Y-50097112D01*
X103188282Y-50097112D02*
X103093044Y-50144731D01*
X103093044Y-50144731D02*
X102950187Y-50144731D01*
X104997806Y-49192350D02*
X104902568Y-49144731D01*
X104902568Y-49144731D02*
X104759711Y-49144731D01*
X104759711Y-49144731D02*
X104616854Y-49192350D01*
X104616854Y-49192350D02*
X104521616Y-49287588D01*
X104521616Y-49287588D02*
X104473997Y-49382826D01*
X104473997Y-49382826D02*
X104426378Y-49573302D01*
X104426378Y-49573302D02*
X104426378Y-49716159D01*
X104426378Y-49716159D02*
X104473997Y-49906635D01*
X104473997Y-49906635D02*
X104521616Y-50001873D01*
X104521616Y-50001873D02*
X104616854Y-50097112D01*
X104616854Y-50097112D02*
X104759711Y-50144731D01*
X104759711Y-50144731D02*
X104854949Y-50144731D01*
X104854949Y-50144731D02*
X104997806Y-50097112D01*
X104997806Y-50097112D02*
X105045425Y-50049492D01*
X105045425Y-50049492D02*
X105045425Y-49716159D01*
X105045425Y-49716159D02*
X104854949Y-49716159D01*
X105902568Y-50144731D02*
X105902568Y-49620921D01*
X105902568Y-49620921D02*
X105854949Y-49525683D01*
X105854949Y-49525683D02*
X105759711Y-49478064D01*
X105759711Y-49478064D02*
X105569235Y-49478064D01*
X105569235Y-49478064D02*
X105473997Y-49525683D01*
X105902568Y-50097112D02*
X105807330Y-50144731D01*
X105807330Y-50144731D02*
X105569235Y-50144731D01*
X105569235Y-50144731D02*
X105473997Y-50097112D01*
X105473997Y-50097112D02*
X105426378Y-50001873D01*
X105426378Y-50001873D02*
X105426378Y-49906635D01*
X105426378Y-49906635D02*
X105473997Y-49811397D01*
X105473997Y-49811397D02*
X105569235Y-49763778D01*
X105569235Y-49763778D02*
X105807330Y-49763778D01*
X105807330Y-49763778D02*
X105902568Y-49716159D01*
X106521616Y-50144731D02*
X106426378Y-50097112D01*
X106426378Y-50097112D02*
X106378759Y-50001873D01*
X106378759Y-50001873D02*
X106378759Y-49144731D01*
X106902569Y-50144731D02*
X106902569Y-49478064D01*
X106902569Y-49144731D02*
X106854950Y-49192350D01*
X106854950Y-49192350D02*
X106902569Y-49239969D01*
X106902569Y-49239969D02*
X106950188Y-49192350D01*
X106950188Y-49192350D02*
X106902569Y-49144731D01*
X106902569Y-49144731D02*
X106902569Y-49239969D01*
X107378759Y-49478064D02*
X107378759Y-50144731D01*
X107378759Y-49573302D02*
X107426378Y-49525683D01*
X107426378Y-49525683D02*
X107521616Y-49478064D01*
X107521616Y-49478064D02*
X107664473Y-49478064D01*
X107664473Y-49478064D02*
X107759711Y-49525683D01*
X107759711Y-49525683D02*
X107807330Y-49620921D01*
X107807330Y-49620921D02*
X107807330Y-50144731D01*
X101331139Y-51088008D02*
X101331139Y-51754675D01*
X101093044Y-50707056D02*
X100854949Y-51421341D01*
X100854949Y-51421341D02*
X101473996Y-51421341D01*
X102378758Y-50802294D02*
X102283520Y-50754675D01*
X102283520Y-50754675D02*
X102140663Y-50754675D01*
X102140663Y-50754675D02*
X101997806Y-50802294D01*
X101997806Y-50802294D02*
X101902568Y-50897532D01*
X101902568Y-50897532D02*
X101854949Y-50992770D01*
X101854949Y-50992770D02*
X101807330Y-51183246D01*
X101807330Y-51183246D02*
X101807330Y-51326103D01*
X101807330Y-51326103D02*
X101854949Y-51516579D01*
X101854949Y-51516579D02*
X101902568Y-51611817D01*
X101902568Y-51611817D02*
X101997806Y-51707056D01*
X101997806Y-51707056D02*
X102140663Y-51754675D01*
X102140663Y-51754675D02*
X102235901Y-51754675D01*
X102235901Y-51754675D02*
X102378758Y-51707056D01*
X102378758Y-51707056D02*
X102426377Y-51659436D01*
X102426377Y-51659436D02*
X102426377Y-51326103D01*
X102426377Y-51326103D02*
X102235901Y-51326103D01*
X102854949Y-51754675D02*
X102854949Y-50754675D01*
X102854949Y-50754675D02*
X103235901Y-50754675D01*
X103235901Y-50754675D02*
X103331139Y-50802294D01*
X103331139Y-50802294D02*
X103378758Y-50849913D01*
X103378758Y-50849913D02*
X103426377Y-50945151D01*
X103426377Y-50945151D02*
X103426377Y-51088008D01*
X103426377Y-51088008D02*
X103378758Y-51183246D01*
X103378758Y-51183246D02*
X103331139Y-51230865D01*
X103331139Y-51230865D02*
X103235901Y-51278484D01*
X103235901Y-51278484D02*
X102854949Y-51278484D01*
X100854949Y-52459857D02*
X100902568Y-52412238D01*
X100902568Y-52412238D02*
X100997806Y-52364619D01*
X100997806Y-52364619D02*
X101235901Y-52364619D01*
X101235901Y-52364619D02*
X101331139Y-52412238D01*
X101331139Y-52412238D02*
X101378758Y-52459857D01*
X101378758Y-52459857D02*
X101426377Y-52555095D01*
X101426377Y-52555095D02*
X101426377Y-52650333D01*
X101426377Y-52650333D02*
X101378758Y-52793190D01*
X101378758Y-52793190D02*
X100807330Y-53364619D01*
X100807330Y-53364619D02*
X101426377Y-53364619D01*
X102045425Y-52364619D02*
X102140663Y-52364619D01*
X102140663Y-52364619D02*
X102235901Y-52412238D01*
X102235901Y-52412238D02*
X102283520Y-52459857D01*
X102283520Y-52459857D02*
X102331139Y-52555095D01*
X102331139Y-52555095D02*
X102378758Y-52745571D01*
X102378758Y-52745571D02*
X102378758Y-52983666D01*
X102378758Y-52983666D02*
X102331139Y-53174142D01*
X102331139Y-53174142D02*
X102283520Y-53269380D01*
X102283520Y-53269380D02*
X102235901Y-53317000D01*
X102235901Y-53317000D02*
X102140663Y-53364619D01*
X102140663Y-53364619D02*
X102045425Y-53364619D01*
X102045425Y-53364619D02*
X101950187Y-53317000D01*
X101950187Y-53317000D02*
X101902568Y-53269380D01*
X101902568Y-53269380D02*
X101854949Y-53174142D01*
X101854949Y-53174142D02*
X101807330Y-52983666D01*
X101807330Y-52983666D02*
X101807330Y-52745571D01*
X101807330Y-52745571D02*
X101854949Y-52555095D01*
X101854949Y-52555095D02*
X101902568Y-52459857D01*
X101902568Y-52459857D02*
X101950187Y-52412238D01*
X101950187Y-52412238D02*
X102045425Y-52364619D01*
X102759711Y-52459857D02*
X102807330Y-52412238D01*
X102807330Y-52412238D02*
X102902568Y-52364619D01*
X102902568Y-52364619D02*
X103140663Y-52364619D01*
X103140663Y-52364619D02*
X103235901Y-52412238D01*
X103235901Y-52412238D02*
X103283520Y-52459857D01*
X103283520Y-52459857D02*
X103331139Y-52555095D01*
X103331139Y-52555095D02*
X103331139Y-52650333D01*
X103331139Y-52650333D02*
X103283520Y-52793190D01*
X103283520Y-52793190D02*
X102712092Y-53364619D01*
X102712092Y-53364619D02*
X103331139Y-53364619D01*
X104235901Y-52364619D02*
X103759711Y-52364619D01*
X103759711Y-52364619D02*
X103712092Y-52840809D01*
X103712092Y-52840809D02*
X103759711Y-52793190D01*
X103759711Y-52793190D02*
X103854949Y-52745571D01*
X103854949Y-52745571D02*
X104093044Y-52745571D01*
X104093044Y-52745571D02*
X104188282Y-52793190D01*
X104188282Y-52793190D02*
X104235901Y-52840809D01*
X104235901Y-52840809D02*
X104283520Y-52936047D01*
X104283520Y-52936047D02*
X104283520Y-53174142D01*
X104283520Y-53174142D02*
X104235901Y-53269380D01*
X104235901Y-53269380D02*
X104188282Y-53317000D01*
X104188282Y-53317000D02*
X104093044Y-53364619D01*
X104093044Y-53364619D02*
X103854949Y-53364619D01*
X103854949Y-53364619D02*
X103759711Y-53317000D01*
X103759711Y-53317000D02*
X103712092Y-53269380D01*
D12*
X127940000Y-97460000D03*
D13*
X130480000Y-97460000D03*
X133020000Y-97460000D03*
X135560000Y-97460000D03*
X138100000Y-97460000D03*
X140640000Y-97460000D03*
X143180000Y-97460000D03*
X145720000Y-97460000D03*
D12*
X150800000Y-97460000D03*
D13*
X153340000Y-97460000D03*
X155880000Y-97460000D03*
X158420000Y-97460000D03*
X160960000Y-97460000D03*
X163500000Y-97460000D03*
D12*
X118796000Y-49200000D03*
D13*
X121336000Y-49200000D03*
X123876000Y-49200000D03*
X126416000Y-49200000D03*
X128956000Y-49200000D03*
X131496000Y-49200000D03*
X134036000Y-49200000D03*
X136576000Y-49200000D03*
X139116000Y-49200000D03*
X141656000Y-49200000D03*
D12*
X145720000Y-49200000D03*
D13*
X148260000Y-49200000D03*
X150800000Y-49200000D03*
X153340000Y-49200000D03*
X155880000Y-49200000D03*
X158420000Y-49200000D03*
X160960000Y-49200000D03*
X163500000Y-49200000D03*
D14*
X115000000Y-65000000D03*
X115000000Y-75160000D03*
D15*
X166000000Y-81540000D03*
D16*
X166000000Y-79000000D03*
X166000000Y-76460000D03*
X166000000Y-73920000D03*
X166000000Y-71380000D03*
D14*
X129000000Y-73840000D03*
X129000000Y-84000000D03*
X110920000Y-78500000D03*
X121080000Y-78500000D03*
D12*
X154120000Y-54500000D03*
D13*
X151580000Y-54500000D03*
X149040000Y-54500000D03*
X146500000Y-54500000D03*
X143960000Y-54500000D03*
X141420000Y-54500000D03*
D14*
X125000000Y-88500000D03*
X125000000Y-93500000D03*
D12*
X125500000Y-54690000D03*
D13*
X122960000Y-54690000D03*
X120420000Y-54690000D03*
X117880000Y-54690000D03*
X117880000Y-62310000D03*
X120420000Y-62310000D03*
X122960000Y-62310000D03*
X125500000Y-62310000D03*
D17*
X166000000Y-88000000D03*
X166000000Y-85500000D03*
D18*
X107500000Y-78680000D03*
D19*
X107500000Y-81220000D03*
D14*
X109000000Y-69250000D03*
X109000000Y-71750000D03*
D15*
X120500000Y-90620000D03*
D16*
X120500000Y-88080000D03*
X120500000Y-85540000D03*
X120500000Y-83000000D03*
X112880000Y-83000000D03*
X112880000Y-85540000D03*
X112880000Y-88080000D03*
X112880000Y-90620000D03*
D14*
X133000000Y-92500000D03*
X135500000Y-92500000D03*
X129500000Y-86190000D03*
X129500000Y-93810000D03*
D20*
X149000000Y-88000000D03*
D14*
X146460000Y-88000000D03*
X143920000Y-88000000D03*
X141380000Y-88000000D03*
D21*
X112880000Y-85540000D02*
X113040000Y-85540000D01*
X110740000Y-78680000D02*
X110920000Y-78500000D01*
M02*
