%TF.GenerationSoftware,KiCad,Pcbnew,8.0.3*%
%TF.CreationDate,2025-03-25T09:42:14+01:00*%
%TF.ProjectId,capteur graphite CouBeh,63617074-6575-4722-9067-726170686974,rev?*%
%TF.SameCoordinates,Original*%
%TF.FileFunction,Legend,Top*%
%TF.FilePolarity,Positive*%
%FSLAX46Y46*%
G04 Gerber Fmt 4.6, Leading zero omitted, Abs format (unit mm)*
G04 Created by KiCad (PCBNEW 8.0.3) date 2025-03-25 09:42:14*
%MOMM*%
%LPD*%
G01*
G04 APERTURE LIST*
%ADD10C,0.100000*%
%ADD11C,0.150000*%
%ADD12C,0.300000*%
%ADD13C,0.400000*%
%ADD14C,0.120000*%
%ADD15C,0.152400*%
G04 APERTURE END LIST*
D10*
D11*
X177002200Y-166007200D02*
X285002200Y-166007200D01*
X285002200Y-198007200D01*
X177002200Y-198007200D01*
X177002200Y-166007200D01*
D10*
D11*
X10000000Y-10000000D02*
X287002200Y-10000000D01*
X287002200Y-200007200D01*
X10000000Y-200007200D01*
X10000000Y-10000000D01*
D10*
D11*
X12000000Y-12000000D02*
X285002200Y-12000000D01*
X285002200Y-198007200D01*
X12000000Y-198007200D01*
X12000000Y-12000000D01*
D10*
D11*
X60000000Y-12000000D02*
X60000000Y-10000000D01*
D10*
D11*
X110000000Y-12000000D02*
X110000000Y-10000000D01*
D10*
D11*
X160000000Y-12000000D02*
X160000000Y-10000000D01*
D10*
D11*
X210000000Y-12000000D02*
X210000000Y-10000000D01*
D10*
D11*
X260000000Y-12000000D02*
X260000000Y-10000000D01*
D10*
D11*
X36089160Y-11593604D02*
X35346303Y-11593604D01*
X35717731Y-11593604D02*
X35717731Y-10293604D01*
X35717731Y-10293604D02*
X35593922Y-10479319D01*
X35593922Y-10479319D02*
X35470112Y-10603128D01*
X35470112Y-10603128D02*
X35346303Y-10665033D01*
D10*
D11*
X85346303Y-10417414D02*
X85408207Y-10355509D01*
X85408207Y-10355509D02*
X85532017Y-10293604D01*
X85532017Y-10293604D02*
X85841541Y-10293604D01*
X85841541Y-10293604D02*
X85965350Y-10355509D01*
X85965350Y-10355509D02*
X86027255Y-10417414D01*
X86027255Y-10417414D02*
X86089160Y-10541223D01*
X86089160Y-10541223D02*
X86089160Y-10665033D01*
X86089160Y-10665033D02*
X86027255Y-10850747D01*
X86027255Y-10850747D02*
X85284398Y-11593604D01*
X85284398Y-11593604D02*
X86089160Y-11593604D01*
D10*
D11*
X135284398Y-10293604D02*
X136089160Y-10293604D01*
X136089160Y-10293604D02*
X135655826Y-10788842D01*
X135655826Y-10788842D02*
X135841541Y-10788842D01*
X135841541Y-10788842D02*
X135965350Y-10850747D01*
X135965350Y-10850747D02*
X136027255Y-10912652D01*
X136027255Y-10912652D02*
X136089160Y-11036461D01*
X136089160Y-11036461D02*
X136089160Y-11345985D01*
X136089160Y-11345985D02*
X136027255Y-11469795D01*
X136027255Y-11469795D02*
X135965350Y-11531700D01*
X135965350Y-11531700D02*
X135841541Y-11593604D01*
X135841541Y-11593604D02*
X135470112Y-11593604D01*
X135470112Y-11593604D02*
X135346303Y-11531700D01*
X135346303Y-11531700D02*
X135284398Y-11469795D01*
D10*
D11*
X185965350Y-10726938D02*
X185965350Y-11593604D01*
X185655826Y-10231700D02*
X185346303Y-11160271D01*
X185346303Y-11160271D02*
X186151064Y-11160271D01*
D10*
D11*
X236027255Y-10293604D02*
X235408207Y-10293604D01*
X235408207Y-10293604D02*
X235346303Y-10912652D01*
X235346303Y-10912652D02*
X235408207Y-10850747D01*
X235408207Y-10850747D02*
X235532017Y-10788842D01*
X235532017Y-10788842D02*
X235841541Y-10788842D01*
X235841541Y-10788842D02*
X235965350Y-10850747D01*
X235965350Y-10850747D02*
X236027255Y-10912652D01*
X236027255Y-10912652D02*
X236089160Y-11036461D01*
X236089160Y-11036461D02*
X236089160Y-11345985D01*
X236089160Y-11345985D02*
X236027255Y-11469795D01*
X236027255Y-11469795D02*
X235965350Y-11531700D01*
X235965350Y-11531700D02*
X235841541Y-11593604D01*
X235841541Y-11593604D02*
X235532017Y-11593604D01*
X235532017Y-11593604D02*
X235408207Y-11531700D01*
X235408207Y-11531700D02*
X235346303Y-11469795D01*
D10*
D11*
X285965350Y-10293604D02*
X285717731Y-10293604D01*
X285717731Y-10293604D02*
X285593922Y-10355509D01*
X285593922Y-10355509D02*
X285532017Y-10417414D01*
X285532017Y-10417414D02*
X285408207Y-10603128D01*
X285408207Y-10603128D02*
X285346303Y-10850747D01*
X285346303Y-10850747D02*
X285346303Y-11345985D01*
X285346303Y-11345985D02*
X285408207Y-11469795D01*
X285408207Y-11469795D02*
X285470112Y-11531700D01*
X285470112Y-11531700D02*
X285593922Y-11593604D01*
X285593922Y-11593604D02*
X285841541Y-11593604D01*
X285841541Y-11593604D02*
X285965350Y-11531700D01*
X285965350Y-11531700D02*
X286027255Y-11469795D01*
X286027255Y-11469795D02*
X286089160Y-11345985D01*
X286089160Y-11345985D02*
X286089160Y-11036461D01*
X286089160Y-11036461D02*
X286027255Y-10912652D01*
X286027255Y-10912652D02*
X285965350Y-10850747D01*
X285965350Y-10850747D02*
X285841541Y-10788842D01*
X285841541Y-10788842D02*
X285593922Y-10788842D01*
X285593922Y-10788842D02*
X285470112Y-10850747D01*
X285470112Y-10850747D02*
X285408207Y-10912652D01*
X285408207Y-10912652D02*
X285346303Y-11036461D01*
D10*
D11*
X60000000Y-198007200D02*
X60000000Y-200007200D01*
D10*
D11*
X110000000Y-198007200D02*
X110000000Y-200007200D01*
D10*
D11*
X160000000Y-198007200D02*
X160000000Y-200007200D01*
D10*
D11*
X210000000Y-198007200D02*
X210000000Y-200007200D01*
D10*
D11*
X260000000Y-198007200D02*
X260000000Y-200007200D01*
D10*
D11*
X36089160Y-199600804D02*
X35346303Y-199600804D01*
X35717731Y-199600804D02*
X35717731Y-198300804D01*
X35717731Y-198300804D02*
X35593922Y-198486519D01*
X35593922Y-198486519D02*
X35470112Y-198610328D01*
X35470112Y-198610328D02*
X35346303Y-198672233D01*
D10*
D11*
X85346303Y-198424614D02*
X85408207Y-198362709D01*
X85408207Y-198362709D02*
X85532017Y-198300804D01*
X85532017Y-198300804D02*
X85841541Y-198300804D01*
X85841541Y-198300804D02*
X85965350Y-198362709D01*
X85965350Y-198362709D02*
X86027255Y-198424614D01*
X86027255Y-198424614D02*
X86089160Y-198548423D01*
X86089160Y-198548423D02*
X86089160Y-198672233D01*
X86089160Y-198672233D02*
X86027255Y-198857947D01*
X86027255Y-198857947D02*
X85284398Y-199600804D01*
X85284398Y-199600804D02*
X86089160Y-199600804D01*
D10*
D11*
X135284398Y-198300804D02*
X136089160Y-198300804D01*
X136089160Y-198300804D02*
X135655826Y-198796042D01*
X135655826Y-198796042D02*
X135841541Y-198796042D01*
X135841541Y-198796042D02*
X135965350Y-198857947D01*
X135965350Y-198857947D02*
X136027255Y-198919852D01*
X136027255Y-198919852D02*
X136089160Y-199043661D01*
X136089160Y-199043661D02*
X136089160Y-199353185D01*
X136089160Y-199353185D02*
X136027255Y-199476995D01*
X136027255Y-199476995D02*
X135965350Y-199538900D01*
X135965350Y-199538900D02*
X135841541Y-199600804D01*
X135841541Y-199600804D02*
X135470112Y-199600804D01*
X135470112Y-199600804D02*
X135346303Y-199538900D01*
X135346303Y-199538900D02*
X135284398Y-199476995D01*
D10*
D11*
X185965350Y-198734138D02*
X185965350Y-199600804D01*
X185655826Y-198238900D02*
X185346303Y-199167471D01*
X185346303Y-199167471D02*
X186151064Y-199167471D01*
D10*
D11*
X236027255Y-198300804D02*
X235408207Y-198300804D01*
X235408207Y-198300804D02*
X235346303Y-198919852D01*
X235346303Y-198919852D02*
X235408207Y-198857947D01*
X235408207Y-198857947D02*
X235532017Y-198796042D01*
X235532017Y-198796042D02*
X235841541Y-198796042D01*
X235841541Y-198796042D02*
X235965350Y-198857947D01*
X235965350Y-198857947D02*
X236027255Y-198919852D01*
X236027255Y-198919852D02*
X236089160Y-199043661D01*
X236089160Y-199043661D02*
X236089160Y-199353185D01*
X236089160Y-199353185D02*
X236027255Y-199476995D01*
X236027255Y-199476995D02*
X235965350Y-199538900D01*
X235965350Y-199538900D02*
X235841541Y-199600804D01*
X235841541Y-199600804D02*
X235532017Y-199600804D01*
X235532017Y-199600804D02*
X235408207Y-199538900D01*
X235408207Y-199538900D02*
X235346303Y-199476995D01*
D10*
D11*
X285965350Y-198300804D02*
X285717731Y-198300804D01*
X285717731Y-198300804D02*
X285593922Y-198362709D01*
X285593922Y-198362709D02*
X285532017Y-198424614D01*
X285532017Y-198424614D02*
X285408207Y-198610328D01*
X285408207Y-198610328D02*
X285346303Y-198857947D01*
X285346303Y-198857947D02*
X285346303Y-199353185D01*
X285346303Y-199353185D02*
X285408207Y-199476995D01*
X285408207Y-199476995D02*
X285470112Y-199538900D01*
X285470112Y-199538900D02*
X285593922Y-199600804D01*
X285593922Y-199600804D02*
X285841541Y-199600804D01*
X285841541Y-199600804D02*
X285965350Y-199538900D01*
X285965350Y-199538900D02*
X286027255Y-199476995D01*
X286027255Y-199476995D02*
X286089160Y-199353185D01*
X286089160Y-199353185D02*
X286089160Y-199043661D01*
X286089160Y-199043661D02*
X286027255Y-198919852D01*
X286027255Y-198919852D02*
X285965350Y-198857947D01*
X285965350Y-198857947D02*
X285841541Y-198796042D01*
X285841541Y-198796042D02*
X285593922Y-198796042D01*
X285593922Y-198796042D02*
X285470112Y-198857947D01*
X285470112Y-198857947D02*
X285408207Y-198919852D01*
X285408207Y-198919852D02*
X285346303Y-199043661D01*
D10*
D11*
X10000000Y-60000000D02*
X12000000Y-60000000D01*
D10*
D11*
X10000000Y-110000000D02*
X12000000Y-110000000D01*
D10*
D11*
X10000000Y-160000000D02*
X12000000Y-160000000D01*
D10*
D11*
X10690476Y-35222176D02*
X11309523Y-35222176D01*
X10566666Y-35593604D02*
X10999999Y-34293604D01*
X10999999Y-34293604D02*
X11433333Y-35593604D01*
D10*
D11*
X11092857Y-84912652D02*
X11278571Y-84974557D01*
X11278571Y-84974557D02*
X11340476Y-85036461D01*
X11340476Y-85036461D02*
X11402380Y-85160271D01*
X11402380Y-85160271D02*
X11402380Y-85345985D01*
X11402380Y-85345985D02*
X11340476Y-85469795D01*
X11340476Y-85469795D02*
X11278571Y-85531700D01*
X11278571Y-85531700D02*
X11154761Y-85593604D01*
X11154761Y-85593604D02*
X10659523Y-85593604D01*
X10659523Y-85593604D02*
X10659523Y-84293604D01*
X10659523Y-84293604D02*
X11092857Y-84293604D01*
X11092857Y-84293604D02*
X11216666Y-84355509D01*
X11216666Y-84355509D02*
X11278571Y-84417414D01*
X11278571Y-84417414D02*
X11340476Y-84541223D01*
X11340476Y-84541223D02*
X11340476Y-84665033D01*
X11340476Y-84665033D02*
X11278571Y-84788842D01*
X11278571Y-84788842D02*
X11216666Y-84850747D01*
X11216666Y-84850747D02*
X11092857Y-84912652D01*
X11092857Y-84912652D02*
X10659523Y-84912652D01*
D10*
D11*
X11402380Y-135469795D02*
X11340476Y-135531700D01*
X11340476Y-135531700D02*
X11154761Y-135593604D01*
X11154761Y-135593604D02*
X11030952Y-135593604D01*
X11030952Y-135593604D02*
X10845238Y-135531700D01*
X10845238Y-135531700D02*
X10721428Y-135407890D01*
X10721428Y-135407890D02*
X10659523Y-135284080D01*
X10659523Y-135284080D02*
X10597619Y-135036461D01*
X10597619Y-135036461D02*
X10597619Y-134850747D01*
X10597619Y-134850747D02*
X10659523Y-134603128D01*
X10659523Y-134603128D02*
X10721428Y-134479319D01*
X10721428Y-134479319D02*
X10845238Y-134355509D01*
X10845238Y-134355509D02*
X11030952Y-134293604D01*
X11030952Y-134293604D02*
X11154761Y-134293604D01*
X11154761Y-134293604D02*
X11340476Y-134355509D01*
X11340476Y-134355509D02*
X11402380Y-134417414D01*
D10*
D11*
X10659523Y-185593604D02*
X10659523Y-184293604D01*
X10659523Y-184293604D02*
X10969047Y-184293604D01*
X10969047Y-184293604D02*
X11154761Y-184355509D01*
X11154761Y-184355509D02*
X11278571Y-184479319D01*
X11278571Y-184479319D02*
X11340476Y-184603128D01*
X11340476Y-184603128D02*
X11402380Y-184850747D01*
X11402380Y-184850747D02*
X11402380Y-185036461D01*
X11402380Y-185036461D02*
X11340476Y-185284080D01*
X11340476Y-185284080D02*
X11278571Y-185407890D01*
X11278571Y-185407890D02*
X11154761Y-185531700D01*
X11154761Y-185531700D02*
X10969047Y-185593604D01*
X10969047Y-185593604D02*
X10659523Y-185593604D01*
D10*
D11*
X287002200Y-60000000D02*
X285002200Y-60000000D01*
D10*
D11*
X287002200Y-110000000D02*
X285002200Y-110000000D01*
D10*
D11*
X287002200Y-160000000D02*
X285002200Y-160000000D01*
D10*
D11*
X285692676Y-35222176D02*
X286311723Y-35222176D01*
X285568866Y-35593604D02*
X286002199Y-34293604D01*
X286002199Y-34293604D02*
X286435533Y-35593604D01*
D10*
D11*
X286095057Y-84912652D02*
X286280771Y-84974557D01*
X286280771Y-84974557D02*
X286342676Y-85036461D01*
X286342676Y-85036461D02*
X286404580Y-85160271D01*
X286404580Y-85160271D02*
X286404580Y-85345985D01*
X286404580Y-85345985D02*
X286342676Y-85469795D01*
X286342676Y-85469795D02*
X286280771Y-85531700D01*
X286280771Y-85531700D02*
X286156961Y-85593604D01*
X286156961Y-85593604D02*
X285661723Y-85593604D01*
X285661723Y-85593604D02*
X285661723Y-84293604D01*
X285661723Y-84293604D02*
X286095057Y-84293604D01*
X286095057Y-84293604D02*
X286218866Y-84355509D01*
X286218866Y-84355509D02*
X286280771Y-84417414D01*
X286280771Y-84417414D02*
X286342676Y-84541223D01*
X286342676Y-84541223D02*
X286342676Y-84665033D01*
X286342676Y-84665033D02*
X286280771Y-84788842D01*
X286280771Y-84788842D02*
X286218866Y-84850747D01*
X286218866Y-84850747D02*
X286095057Y-84912652D01*
X286095057Y-84912652D02*
X285661723Y-84912652D01*
D10*
D11*
X286404580Y-135469795D02*
X286342676Y-135531700D01*
X286342676Y-135531700D02*
X286156961Y-135593604D01*
X286156961Y-135593604D02*
X286033152Y-135593604D01*
X286033152Y-135593604D02*
X285847438Y-135531700D01*
X285847438Y-135531700D02*
X285723628Y-135407890D01*
X285723628Y-135407890D02*
X285661723Y-135284080D01*
X285661723Y-135284080D02*
X285599819Y-135036461D01*
X285599819Y-135036461D02*
X285599819Y-134850747D01*
X285599819Y-134850747D02*
X285661723Y-134603128D01*
X285661723Y-134603128D02*
X285723628Y-134479319D01*
X285723628Y-134479319D02*
X285847438Y-134355509D01*
X285847438Y-134355509D02*
X286033152Y-134293604D01*
X286033152Y-134293604D02*
X286156961Y-134293604D01*
X286156961Y-134293604D02*
X286342676Y-134355509D01*
X286342676Y-134355509D02*
X286404580Y-134417414D01*
D10*
D11*
X285661723Y-185593604D02*
X285661723Y-184293604D01*
X285661723Y-184293604D02*
X285971247Y-184293604D01*
X285971247Y-184293604D02*
X286156961Y-184355509D01*
X286156961Y-184355509D02*
X286280771Y-184479319D01*
X286280771Y-184479319D02*
X286342676Y-184603128D01*
X286342676Y-184603128D02*
X286404580Y-184850747D01*
X286404580Y-184850747D02*
X286404580Y-185036461D01*
X286404580Y-185036461D02*
X286342676Y-185284080D01*
X286342676Y-185284080D02*
X286280771Y-185407890D01*
X286280771Y-185407890D02*
X286156961Y-185531700D01*
X286156961Y-185531700D02*
X285971247Y-185593604D01*
X285971247Y-185593604D02*
X285661723Y-185593604D01*
D10*
D11*
X200458026Y-193793328D02*
X200458026Y-192293328D01*
X200458026Y-192293328D02*
X200815169Y-192293328D01*
X200815169Y-192293328D02*
X201029455Y-192364757D01*
X201029455Y-192364757D02*
X201172312Y-192507614D01*
X201172312Y-192507614D02*
X201243741Y-192650471D01*
X201243741Y-192650471D02*
X201315169Y-192936185D01*
X201315169Y-192936185D02*
X201315169Y-193150471D01*
X201315169Y-193150471D02*
X201243741Y-193436185D01*
X201243741Y-193436185D02*
X201172312Y-193579042D01*
X201172312Y-193579042D02*
X201029455Y-193721900D01*
X201029455Y-193721900D02*
X200815169Y-193793328D01*
X200815169Y-193793328D02*
X200458026Y-193793328D01*
X202600884Y-193793328D02*
X202600884Y-193007614D01*
X202600884Y-193007614D02*
X202529455Y-192864757D01*
X202529455Y-192864757D02*
X202386598Y-192793328D01*
X202386598Y-192793328D02*
X202100884Y-192793328D01*
X202100884Y-192793328D02*
X201958026Y-192864757D01*
X202600884Y-193721900D02*
X202458026Y-193793328D01*
X202458026Y-193793328D02*
X202100884Y-193793328D01*
X202100884Y-193793328D02*
X201958026Y-193721900D01*
X201958026Y-193721900D02*
X201886598Y-193579042D01*
X201886598Y-193579042D02*
X201886598Y-193436185D01*
X201886598Y-193436185D02*
X201958026Y-193293328D01*
X201958026Y-193293328D02*
X202100884Y-193221900D01*
X202100884Y-193221900D02*
X202458026Y-193221900D01*
X202458026Y-193221900D02*
X202600884Y-193150471D01*
X203100884Y-192793328D02*
X203672312Y-192793328D01*
X203315169Y-192293328D02*
X203315169Y-193579042D01*
X203315169Y-193579042D02*
X203386598Y-193721900D01*
X203386598Y-193721900D02*
X203529455Y-193793328D01*
X203529455Y-193793328D02*
X203672312Y-193793328D01*
X204743741Y-193721900D02*
X204600884Y-193793328D01*
X204600884Y-193793328D02*
X204315170Y-193793328D01*
X204315170Y-193793328D02*
X204172312Y-193721900D01*
X204172312Y-193721900D02*
X204100884Y-193579042D01*
X204100884Y-193579042D02*
X204100884Y-193007614D01*
X204100884Y-193007614D02*
X204172312Y-192864757D01*
X204172312Y-192864757D02*
X204315170Y-192793328D01*
X204315170Y-192793328D02*
X204600884Y-192793328D01*
X204600884Y-192793328D02*
X204743741Y-192864757D01*
X204743741Y-192864757D02*
X204815170Y-193007614D01*
X204815170Y-193007614D02*
X204815170Y-193150471D01*
X204815170Y-193150471D02*
X204100884Y-193293328D01*
X205458026Y-193650471D02*
X205529455Y-193721900D01*
X205529455Y-193721900D02*
X205458026Y-193793328D01*
X205458026Y-193793328D02*
X205386598Y-193721900D01*
X205386598Y-193721900D02*
X205458026Y-193650471D01*
X205458026Y-193650471D02*
X205458026Y-193793328D01*
X205458026Y-192864757D02*
X205529455Y-192936185D01*
X205529455Y-192936185D02*
X205458026Y-193007614D01*
X205458026Y-193007614D02*
X205386598Y-192936185D01*
X205386598Y-192936185D02*
X205458026Y-192864757D01*
X205458026Y-192864757D02*
X205458026Y-193007614D01*
X207315169Y-193793328D02*
X207315169Y-192793328D01*
X207315169Y-192936185D02*
X207386598Y-192864757D01*
X207386598Y-192864757D02*
X207529455Y-192793328D01*
X207529455Y-192793328D02*
X207743741Y-192793328D01*
X207743741Y-192793328D02*
X207886598Y-192864757D01*
X207886598Y-192864757D02*
X207958027Y-193007614D01*
X207958027Y-193007614D02*
X207958027Y-193793328D01*
X207958027Y-193007614D02*
X208029455Y-192864757D01*
X208029455Y-192864757D02*
X208172312Y-192793328D01*
X208172312Y-192793328D02*
X208386598Y-192793328D01*
X208386598Y-192793328D02*
X208529455Y-192864757D01*
X208529455Y-192864757D02*
X208600884Y-193007614D01*
X208600884Y-193007614D02*
X208600884Y-193793328D01*
X209958027Y-193793328D02*
X209958027Y-193007614D01*
X209958027Y-193007614D02*
X209886598Y-192864757D01*
X209886598Y-192864757D02*
X209743741Y-192793328D01*
X209743741Y-192793328D02*
X209458027Y-192793328D01*
X209458027Y-192793328D02*
X209315169Y-192864757D01*
X209958027Y-193721900D02*
X209815169Y-193793328D01*
X209815169Y-193793328D02*
X209458027Y-193793328D01*
X209458027Y-193793328D02*
X209315169Y-193721900D01*
X209315169Y-193721900D02*
X209243741Y-193579042D01*
X209243741Y-193579042D02*
X209243741Y-193436185D01*
X209243741Y-193436185D02*
X209315169Y-193293328D01*
X209315169Y-193293328D02*
X209458027Y-193221900D01*
X209458027Y-193221900D02*
X209815169Y-193221900D01*
X209815169Y-193221900D02*
X209958027Y-193150471D01*
X210672312Y-193793328D02*
X210672312Y-192793328D01*
X210672312Y-193079042D02*
X210743741Y-192936185D01*
X210743741Y-192936185D02*
X210815170Y-192864757D01*
X210815170Y-192864757D02*
X210958027Y-192793328D01*
X210958027Y-192793328D02*
X211100884Y-192793328D01*
X211600883Y-193650471D02*
X211672312Y-193721900D01*
X211672312Y-193721900D02*
X211600883Y-193793328D01*
X211600883Y-193793328D02*
X211529455Y-193721900D01*
X211529455Y-193721900D02*
X211600883Y-193650471D01*
X211600883Y-193650471D02*
X211600883Y-193793328D01*
X213315169Y-192293328D02*
X214243741Y-192293328D01*
X214243741Y-192293328D02*
X213743741Y-192864757D01*
X213743741Y-192864757D02*
X213958026Y-192864757D01*
X213958026Y-192864757D02*
X214100884Y-192936185D01*
X214100884Y-192936185D02*
X214172312Y-193007614D01*
X214172312Y-193007614D02*
X214243741Y-193150471D01*
X214243741Y-193150471D02*
X214243741Y-193507614D01*
X214243741Y-193507614D02*
X214172312Y-193650471D01*
X214172312Y-193650471D02*
X214100884Y-193721900D01*
X214100884Y-193721900D02*
X213958026Y-193793328D01*
X213958026Y-193793328D02*
X213529455Y-193793328D01*
X213529455Y-193793328D02*
X213386598Y-193721900D01*
X213386598Y-193721900D02*
X213315169Y-193650471D01*
X215672312Y-193793328D02*
X214815169Y-193793328D01*
X215243740Y-193793328D02*
X215243740Y-192293328D01*
X215243740Y-192293328D02*
X215100883Y-192507614D01*
X215100883Y-192507614D02*
X214958026Y-192650471D01*
X214958026Y-192650471D02*
X214815169Y-192721900D01*
X217458025Y-193793328D02*
X217458025Y-192793328D01*
X217458025Y-192936185D02*
X217529454Y-192864757D01*
X217529454Y-192864757D02*
X217672311Y-192793328D01*
X217672311Y-192793328D02*
X217886597Y-192793328D01*
X217886597Y-192793328D02*
X218029454Y-192864757D01*
X218029454Y-192864757D02*
X218100883Y-193007614D01*
X218100883Y-193007614D02*
X218100883Y-193793328D01*
X218100883Y-193007614D02*
X218172311Y-192864757D01*
X218172311Y-192864757D02*
X218315168Y-192793328D01*
X218315168Y-192793328D02*
X218529454Y-192793328D01*
X218529454Y-192793328D02*
X218672311Y-192864757D01*
X218672311Y-192864757D02*
X218743740Y-193007614D01*
X218743740Y-193007614D02*
X218743740Y-193793328D01*
X220100883Y-193793328D02*
X220100883Y-193007614D01*
X220100883Y-193007614D02*
X220029454Y-192864757D01*
X220029454Y-192864757D02*
X219886597Y-192793328D01*
X219886597Y-192793328D02*
X219600883Y-192793328D01*
X219600883Y-192793328D02*
X219458025Y-192864757D01*
X220100883Y-193721900D02*
X219958025Y-193793328D01*
X219958025Y-193793328D02*
X219600883Y-193793328D01*
X219600883Y-193793328D02*
X219458025Y-193721900D01*
X219458025Y-193721900D02*
X219386597Y-193579042D01*
X219386597Y-193579042D02*
X219386597Y-193436185D01*
X219386597Y-193436185D02*
X219458025Y-193293328D01*
X219458025Y-193293328D02*
X219600883Y-193221900D01*
X219600883Y-193221900D02*
X219958025Y-193221900D01*
X219958025Y-193221900D02*
X220100883Y-193150471D01*
X220815168Y-193793328D02*
X220815168Y-192793328D01*
X220815168Y-193079042D02*
X220886597Y-192936185D01*
X220886597Y-192936185D02*
X220958026Y-192864757D01*
X220958026Y-192864757D02*
X221100883Y-192793328D01*
X221100883Y-192793328D02*
X221243740Y-192793328D01*
X221672311Y-193721900D02*
X221815168Y-193793328D01*
X221815168Y-193793328D02*
X222100882Y-193793328D01*
X222100882Y-193793328D02*
X222243739Y-193721900D01*
X222243739Y-193721900D02*
X222315168Y-193579042D01*
X222315168Y-193579042D02*
X222315168Y-193507614D01*
X222315168Y-193507614D02*
X222243739Y-193364757D01*
X222243739Y-193364757D02*
X222100882Y-193293328D01*
X222100882Y-193293328D02*
X221886597Y-193293328D01*
X221886597Y-193293328D02*
X221743739Y-193221900D01*
X221743739Y-193221900D02*
X221672311Y-193079042D01*
X221672311Y-193079042D02*
X221672311Y-193007614D01*
X221672311Y-193007614D02*
X221743739Y-192864757D01*
X221743739Y-192864757D02*
X221886597Y-192793328D01*
X221886597Y-192793328D02*
X222100882Y-192793328D01*
X222100882Y-192793328D02*
X222243739Y-192864757D01*
X224029454Y-192436185D02*
X224100882Y-192364757D01*
X224100882Y-192364757D02*
X224243740Y-192293328D01*
X224243740Y-192293328D02*
X224600882Y-192293328D01*
X224600882Y-192293328D02*
X224743740Y-192364757D01*
X224743740Y-192364757D02*
X224815168Y-192436185D01*
X224815168Y-192436185D02*
X224886597Y-192579042D01*
X224886597Y-192579042D02*
X224886597Y-192721900D01*
X224886597Y-192721900D02*
X224815168Y-192936185D01*
X224815168Y-192936185D02*
X223958025Y-193793328D01*
X223958025Y-193793328D02*
X224886597Y-193793328D01*
X225815168Y-192293328D02*
X225958025Y-192293328D01*
X225958025Y-192293328D02*
X226100882Y-192364757D01*
X226100882Y-192364757D02*
X226172311Y-192436185D01*
X226172311Y-192436185D02*
X226243739Y-192579042D01*
X226243739Y-192579042D02*
X226315168Y-192864757D01*
X226315168Y-192864757D02*
X226315168Y-193221900D01*
X226315168Y-193221900D02*
X226243739Y-193507614D01*
X226243739Y-193507614D02*
X226172311Y-193650471D01*
X226172311Y-193650471D02*
X226100882Y-193721900D01*
X226100882Y-193721900D02*
X225958025Y-193793328D01*
X225958025Y-193793328D02*
X225815168Y-193793328D01*
X225815168Y-193793328D02*
X225672311Y-193721900D01*
X225672311Y-193721900D02*
X225600882Y-193650471D01*
X225600882Y-193650471D02*
X225529453Y-193507614D01*
X225529453Y-193507614D02*
X225458025Y-193221900D01*
X225458025Y-193221900D02*
X225458025Y-192864757D01*
X225458025Y-192864757D02*
X225529453Y-192579042D01*
X225529453Y-192579042D02*
X225600882Y-192436185D01*
X225600882Y-192436185D02*
X225672311Y-192364757D01*
X225672311Y-192364757D02*
X225815168Y-192293328D01*
X227743739Y-193793328D02*
X226886596Y-193793328D01*
X227315167Y-193793328D02*
X227315167Y-192293328D01*
X227315167Y-192293328D02*
X227172310Y-192507614D01*
X227172310Y-192507614D02*
X227029453Y-192650471D01*
X227029453Y-192650471D02*
X226886596Y-192721900D01*
X229100881Y-192293328D02*
X228386595Y-192293328D01*
X228386595Y-192293328D02*
X228315167Y-193007614D01*
X228315167Y-193007614D02*
X228386595Y-192936185D01*
X228386595Y-192936185D02*
X228529453Y-192864757D01*
X228529453Y-192864757D02*
X228886595Y-192864757D01*
X228886595Y-192864757D02*
X229029453Y-192936185D01*
X229029453Y-192936185D02*
X229100881Y-193007614D01*
X229100881Y-193007614D02*
X229172310Y-193150471D01*
X229172310Y-193150471D02*
X229172310Y-193507614D01*
X229172310Y-193507614D02*
X229100881Y-193650471D01*
X229100881Y-193650471D02*
X229029453Y-193721900D01*
X229029453Y-193721900D02*
X228886595Y-193793328D01*
X228886595Y-193793328D02*
X228529453Y-193793328D01*
X228529453Y-193793328D02*
X228386595Y-193721900D01*
X228386595Y-193721900D02*
X228315167Y-193650471D01*
D10*
D11*
X177002200Y-194507200D02*
X285002200Y-194507200D01*
D10*
D11*
X178458026Y-196593328D02*
X178458026Y-195093328D01*
X179315169Y-196593328D02*
X178672312Y-195736185D01*
X179315169Y-195093328D02*
X178458026Y-195950471D01*
X179958026Y-196593328D02*
X179958026Y-195593328D01*
X179958026Y-195093328D02*
X179886598Y-195164757D01*
X179886598Y-195164757D02*
X179958026Y-195236185D01*
X179958026Y-195236185D02*
X180029455Y-195164757D01*
X180029455Y-195164757D02*
X179958026Y-195093328D01*
X179958026Y-195093328D02*
X179958026Y-195236185D01*
X181529455Y-196450471D02*
X181458027Y-196521900D01*
X181458027Y-196521900D02*
X181243741Y-196593328D01*
X181243741Y-196593328D02*
X181100884Y-196593328D01*
X181100884Y-196593328D02*
X180886598Y-196521900D01*
X180886598Y-196521900D02*
X180743741Y-196379042D01*
X180743741Y-196379042D02*
X180672312Y-196236185D01*
X180672312Y-196236185D02*
X180600884Y-195950471D01*
X180600884Y-195950471D02*
X180600884Y-195736185D01*
X180600884Y-195736185D02*
X180672312Y-195450471D01*
X180672312Y-195450471D02*
X180743741Y-195307614D01*
X180743741Y-195307614D02*
X180886598Y-195164757D01*
X180886598Y-195164757D02*
X181100884Y-195093328D01*
X181100884Y-195093328D02*
X181243741Y-195093328D01*
X181243741Y-195093328D02*
X181458027Y-195164757D01*
X181458027Y-195164757D02*
X181529455Y-195236185D01*
X182815170Y-196593328D02*
X182815170Y-195807614D01*
X182815170Y-195807614D02*
X182743741Y-195664757D01*
X182743741Y-195664757D02*
X182600884Y-195593328D01*
X182600884Y-195593328D02*
X182315170Y-195593328D01*
X182315170Y-195593328D02*
X182172312Y-195664757D01*
X182815170Y-196521900D02*
X182672312Y-196593328D01*
X182672312Y-196593328D02*
X182315170Y-196593328D01*
X182315170Y-196593328D02*
X182172312Y-196521900D01*
X182172312Y-196521900D02*
X182100884Y-196379042D01*
X182100884Y-196379042D02*
X182100884Y-196236185D01*
X182100884Y-196236185D02*
X182172312Y-196093328D01*
X182172312Y-196093328D02*
X182315170Y-196021900D01*
X182315170Y-196021900D02*
X182672312Y-196021900D01*
X182672312Y-196021900D02*
X182815170Y-195950471D01*
X184172313Y-196593328D02*
X184172313Y-195093328D01*
X184172313Y-196521900D02*
X184029455Y-196593328D01*
X184029455Y-196593328D02*
X183743741Y-196593328D01*
X183743741Y-196593328D02*
X183600884Y-196521900D01*
X183600884Y-196521900D02*
X183529455Y-196450471D01*
X183529455Y-196450471D02*
X183458027Y-196307614D01*
X183458027Y-196307614D02*
X183458027Y-195879042D01*
X183458027Y-195879042D02*
X183529455Y-195736185D01*
X183529455Y-195736185D02*
X183600884Y-195664757D01*
X183600884Y-195664757D02*
X183743741Y-195593328D01*
X183743741Y-195593328D02*
X184029455Y-195593328D01*
X184029455Y-195593328D02*
X184172313Y-195664757D01*
X186029455Y-195807614D02*
X186529455Y-195807614D01*
X186743741Y-196593328D02*
X186029455Y-196593328D01*
X186029455Y-196593328D02*
X186029455Y-195093328D01*
X186029455Y-195093328D02*
X186743741Y-195093328D01*
X187386598Y-196450471D02*
X187458027Y-196521900D01*
X187458027Y-196521900D02*
X187386598Y-196593328D01*
X187386598Y-196593328D02*
X187315170Y-196521900D01*
X187315170Y-196521900D02*
X187386598Y-196450471D01*
X187386598Y-196450471D02*
X187386598Y-196593328D01*
X188100884Y-196593328D02*
X188100884Y-195093328D01*
X188100884Y-195093328D02*
X188458027Y-195093328D01*
X188458027Y-195093328D02*
X188672313Y-195164757D01*
X188672313Y-195164757D02*
X188815170Y-195307614D01*
X188815170Y-195307614D02*
X188886599Y-195450471D01*
X188886599Y-195450471D02*
X188958027Y-195736185D01*
X188958027Y-195736185D02*
X188958027Y-195950471D01*
X188958027Y-195950471D02*
X188886599Y-196236185D01*
X188886599Y-196236185D02*
X188815170Y-196379042D01*
X188815170Y-196379042D02*
X188672313Y-196521900D01*
X188672313Y-196521900D02*
X188458027Y-196593328D01*
X188458027Y-196593328D02*
X188100884Y-196593328D01*
X189600884Y-196450471D02*
X189672313Y-196521900D01*
X189672313Y-196521900D02*
X189600884Y-196593328D01*
X189600884Y-196593328D02*
X189529456Y-196521900D01*
X189529456Y-196521900D02*
X189600884Y-196450471D01*
X189600884Y-196450471D02*
X189600884Y-196593328D01*
X190243742Y-196164757D02*
X190958028Y-196164757D01*
X190100885Y-196593328D02*
X190600885Y-195093328D01*
X190600885Y-195093328D02*
X191100885Y-196593328D01*
X191600884Y-196450471D02*
X191672313Y-196521900D01*
X191672313Y-196521900D02*
X191600884Y-196593328D01*
X191600884Y-196593328D02*
X191529456Y-196521900D01*
X191529456Y-196521900D02*
X191600884Y-196450471D01*
X191600884Y-196450471D02*
X191600884Y-196593328D01*
X193672313Y-195736185D02*
X193529456Y-195664757D01*
X193529456Y-195664757D02*
X193458027Y-195593328D01*
X193458027Y-195593328D02*
X193386599Y-195450471D01*
X193386599Y-195450471D02*
X193386599Y-195379042D01*
X193386599Y-195379042D02*
X193458027Y-195236185D01*
X193458027Y-195236185D02*
X193529456Y-195164757D01*
X193529456Y-195164757D02*
X193672313Y-195093328D01*
X193672313Y-195093328D02*
X193958027Y-195093328D01*
X193958027Y-195093328D02*
X194100885Y-195164757D01*
X194100885Y-195164757D02*
X194172313Y-195236185D01*
X194172313Y-195236185D02*
X194243742Y-195379042D01*
X194243742Y-195379042D02*
X194243742Y-195450471D01*
X194243742Y-195450471D02*
X194172313Y-195593328D01*
X194172313Y-195593328D02*
X194100885Y-195664757D01*
X194100885Y-195664757D02*
X193958027Y-195736185D01*
X193958027Y-195736185D02*
X193672313Y-195736185D01*
X193672313Y-195736185D02*
X193529456Y-195807614D01*
X193529456Y-195807614D02*
X193458027Y-195879042D01*
X193458027Y-195879042D02*
X193386599Y-196021900D01*
X193386599Y-196021900D02*
X193386599Y-196307614D01*
X193386599Y-196307614D02*
X193458027Y-196450471D01*
X193458027Y-196450471D02*
X193529456Y-196521900D01*
X193529456Y-196521900D02*
X193672313Y-196593328D01*
X193672313Y-196593328D02*
X193958027Y-196593328D01*
X193958027Y-196593328D02*
X194100885Y-196521900D01*
X194100885Y-196521900D02*
X194172313Y-196450471D01*
X194172313Y-196450471D02*
X194243742Y-196307614D01*
X194243742Y-196307614D02*
X194243742Y-196021900D01*
X194243742Y-196021900D02*
X194172313Y-195879042D01*
X194172313Y-195879042D02*
X194100885Y-195807614D01*
X194100885Y-195807614D02*
X193958027Y-195736185D01*
X194886598Y-196450471D02*
X194958027Y-196521900D01*
X194958027Y-196521900D02*
X194886598Y-196593328D01*
X194886598Y-196593328D02*
X194815170Y-196521900D01*
X194815170Y-196521900D02*
X194886598Y-196450471D01*
X194886598Y-196450471D02*
X194886598Y-196593328D01*
X195886599Y-195093328D02*
X196029456Y-195093328D01*
X196029456Y-195093328D02*
X196172313Y-195164757D01*
X196172313Y-195164757D02*
X196243742Y-195236185D01*
X196243742Y-195236185D02*
X196315170Y-195379042D01*
X196315170Y-195379042D02*
X196386599Y-195664757D01*
X196386599Y-195664757D02*
X196386599Y-196021900D01*
X196386599Y-196021900D02*
X196315170Y-196307614D01*
X196315170Y-196307614D02*
X196243742Y-196450471D01*
X196243742Y-196450471D02*
X196172313Y-196521900D01*
X196172313Y-196521900D02*
X196029456Y-196593328D01*
X196029456Y-196593328D02*
X195886599Y-196593328D01*
X195886599Y-196593328D02*
X195743742Y-196521900D01*
X195743742Y-196521900D02*
X195672313Y-196450471D01*
X195672313Y-196450471D02*
X195600884Y-196307614D01*
X195600884Y-196307614D02*
X195529456Y-196021900D01*
X195529456Y-196021900D02*
X195529456Y-195664757D01*
X195529456Y-195664757D02*
X195600884Y-195379042D01*
X195600884Y-195379042D02*
X195672313Y-195236185D01*
X195672313Y-195236185D02*
X195743742Y-195164757D01*
X195743742Y-195164757D02*
X195886599Y-195093328D01*
X197029455Y-196450471D02*
X197100884Y-196521900D01*
X197100884Y-196521900D02*
X197029455Y-196593328D01*
X197029455Y-196593328D02*
X196958027Y-196521900D01*
X196958027Y-196521900D02*
X197029455Y-196450471D01*
X197029455Y-196450471D02*
X197029455Y-196593328D01*
X197600884Y-195093328D02*
X198529456Y-195093328D01*
X198529456Y-195093328D02*
X198029456Y-195664757D01*
X198029456Y-195664757D02*
X198243741Y-195664757D01*
X198243741Y-195664757D02*
X198386599Y-195736185D01*
X198386599Y-195736185D02*
X198458027Y-195807614D01*
X198458027Y-195807614D02*
X198529456Y-195950471D01*
X198529456Y-195950471D02*
X198529456Y-196307614D01*
X198529456Y-196307614D02*
X198458027Y-196450471D01*
X198458027Y-196450471D02*
X198386599Y-196521900D01*
X198386599Y-196521900D02*
X198243741Y-196593328D01*
X198243741Y-196593328D02*
X197815170Y-196593328D01*
X197815170Y-196593328D02*
X197672313Y-196521900D01*
X197672313Y-196521900D02*
X197600884Y-196450471D01*
D10*
D11*
X177002200Y-191507200D02*
X285002200Y-191507200D01*
D10*
D12*
X264413853Y-193785528D02*
X263913853Y-193071242D01*
X263556710Y-193785528D02*
X263556710Y-192285528D01*
X263556710Y-192285528D02*
X264128139Y-192285528D01*
X264128139Y-192285528D02*
X264270996Y-192356957D01*
X264270996Y-192356957D02*
X264342425Y-192428385D01*
X264342425Y-192428385D02*
X264413853Y-192571242D01*
X264413853Y-192571242D02*
X264413853Y-192785528D01*
X264413853Y-192785528D02*
X264342425Y-192928385D01*
X264342425Y-192928385D02*
X264270996Y-192999814D01*
X264270996Y-192999814D02*
X264128139Y-193071242D01*
X264128139Y-193071242D02*
X263556710Y-193071242D01*
X265628139Y-193714100D02*
X265485282Y-193785528D01*
X265485282Y-193785528D02*
X265199568Y-193785528D01*
X265199568Y-193785528D02*
X265056710Y-193714100D01*
X265056710Y-193714100D02*
X264985282Y-193571242D01*
X264985282Y-193571242D02*
X264985282Y-192999814D01*
X264985282Y-192999814D02*
X265056710Y-192856957D01*
X265056710Y-192856957D02*
X265199568Y-192785528D01*
X265199568Y-192785528D02*
X265485282Y-192785528D01*
X265485282Y-192785528D02*
X265628139Y-192856957D01*
X265628139Y-192856957D02*
X265699568Y-192999814D01*
X265699568Y-192999814D02*
X265699568Y-193142671D01*
X265699568Y-193142671D02*
X264985282Y-193285528D01*
X266199567Y-192785528D02*
X266556710Y-193785528D01*
X266556710Y-193785528D02*
X266913853Y-192785528D01*
X267485281Y-193642671D02*
X267556710Y-193714100D01*
X267556710Y-193714100D02*
X267485281Y-193785528D01*
X267485281Y-193785528D02*
X267413853Y-193714100D01*
X267413853Y-193714100D02*
X267485281Y-193642671D01*
X267485281Y-193642671D02*
X267485281Y-193785528D01*
X267485281Y-192856957D02*
X267556710Y-192928385D01*
X267556710Y-192928385D02*
X267485281Y-192999814D01*
X267485281Y-192999814D02*
X267413853Y-192928385D01*
X267413853Y-192928385D02*
X267485281Y-192856957D01*
X267485281Y-192856957D02*
X267485281Y-192999814D01*
D10*
D11*
X178386598Y-193721900D02*
X178600884Y-193793328D01*
X178600884Y-193793328D02*
X178958026Y-193793328D01*
X178958026Y-193793328D02*
X179100884Y-193721900D01*
X179100884Y-193721900D02*
X179172312Y-193650471D01*
X179172312Y-193650471D02*
X179243741Y-193507614D01*
X179243741Y-193507614D02*
X179243741Y-193364757D01*
X179243741Y-193364757D02*
X179172312Y-193221900D01*
X179172312Y-193221900D02*
X179100884Y-193150471D01*
X179100884Y-193150471D02*
X178958026Y-193079042D01*
X178958026Y-193079042D02*
X178672312Y-193007614D01*
X178672312Y-193007614D02*
X178529455Y-192936185D01*
X178529455Y-192936185D02*
X178458026Y-192864757D01*
X178458026Y-192864757D02*
X178386598Y-192721900D01*
X178386598Y-192721900D02*
X178386598Y-192579042D01*
X178386598Y-192579042D02*
X178458026Y-192436185D01*
X178458026Y-192436185D02*
X178529455Y-192364757D01*
X178529455Y-192364757D02*
X178672312Y-192293328D01*
X178672312Y-192293328D02*
X179029455Y-192293328D01*
X179029455Y-192293328D02*
X179243741Y-192364757D01*
X179886597Y-193793328D02*
X179886597Y-192793328D01*
X179886597Y-192293328D02*
X179815169Y-192364757D01*
X179815169Y-192364757D02*
X179886597Y-192436185D01*
X179886597Y-192436185D02*
X179958026Y-192364757D01*
X179958026Y-192364757D02*
X179886597Y-192293328D01*
X179886597Y-192293328D02*
X179886597Y-192436185D01*
X180458026Y-192793328D02*
X181243741Y-192793328D01*
X181243741Y-192793328D02*
X180458026Y-193793328D01*
X180458026Y-193793328D02*
X181243741Y-193793328D01*
X182386598Y-193721900D02*
X182243741Y-193793328D01*
X182243741Y-193793328D02*
X181958027Y-193793328D01*
X181958027Y-193793328D02*
X181815169Y-193721900D01*
X181815169Y-193721900D02*
X181743741Y-193579042D01*
X181743741Y-193579042D02*
X181743741Y-193007614D01*
X181743741Y-193007614D02*
X181815169Y-192864757D01*
X181815169Y-192864757D02*
X181958027Y-192793328D01*
X181958027Y-192793328D02*
X182243741Y-192793328D01*
X182243741Y-192793328D02*
X182386598Y-192864757D01*
X182386598Y-192864757D02*
X182458027Y-193007614D01*
X182458027Y-193007614D02*
X182458027Y-193150471D01*
X182458027Y-193150471D02*
X181743741Y-193293328D01*
X183100883Y-193650471D02*
X183172312Y-193721900D01*
X183172312Y-193721900D02*
X183100883Y-193793328D01*
X183100883Y-193793328D02*
X183029455Y-193721900D01*
X183029455Y-193721900D02*
X183100883Y-193650471D01*
X183100883Y-193650471D02*
X183100883Y-193793328D01*
X183100883Y-192864757D02*
X183172312Y-192936185D01*
X183172312Y-192936185D02*
X183100883Y-193007614D01*
X183100883Y-193007614D02*
X183029455Y-192936185D01*
X183029455Y-192936185D02*
X183100883Y-192864757D01*
X183100883Y-192864757D02*
X183100883Y-193007614D01*
X184886598Y-193364757D02*
X185600884Y-193364757D01*
X184743741Y-193793328D02*
X185243741Y-192293328D01*
X185243741Y-192293328D02*
X185743741Y-193793328D01*
X186886598Y-192793328D02*
X186886598Y-193793328D01*
X186529455Y-192221900D02*
X186172312Y-193293328D01*
X186172312Y-193293328D02*
X187100883Y-193293328D01*
D10*
D11*
X263458026Y-196593328D02*
X263458026Y-195093328D01*
X264815170Y-196593328D02*
X264815170Y-195093328D01*
X264815170Y-196521900D02*
X264672312Y-196593328D01*
X264672312Y-196593328D02*
X264386598Y-196593328D01*
X264386598Y-196593328D02*
X264243741Y-196521900D01*
X264243741Y-196521900D02*
X264172312Y-196450471D01*
X264172312Y-196450471D02*
X264100884Y-196307614D01*
X264100884Y-196307614D02*
X264100884Y-195879042D01*
X264100884Y-195879042D02*
X264172312Y-195736185D01*
X264172312Y-195736185D02*
X264243741Y-195664757D01*
X264243741Y-195664757D02*
X264386598Y-195593328D01*
X264386598Y-195593328D02*
X264672312Y-195593328D01*
X264672312Y-195593328D02*
X264815170Y-195664757D01*
X265529455Y-196450471D02*
X265600884Y-196521900D01*
X265600884Y-196521900D02*
X265529455Y-196593328D01*
X265529455Y-196593328D02*
X265458027Y-196521900D01*
X265458027Y-196521900D02*
X265529455Y-196450471D01*
X265529455Y-196450471D02*
X265529455Y-196593328D01*
X265529455Y-195664757D02*
X265600884Y-195736185D01*
X265600884Y-195736185D02*
X265529455Y-195807614D01*
X265529455Y-195807614D02*
X265458027Y-195736185D01*
X265458027Y-195736185D02*
X265529455Y-195664757D01*
X265529455Y-195664757D02*
X265529455Y-195807614D01*
X268172313Y-196593328D02*
X267315170Y-196593328D01*
X267743741Y-196593328D02*
X267743741Y-195093328D01*
X267743741Y-195093328D02*
X267600884Y-195307614D01*
X267600884Y-195307614D02*
X267458027Y-195450471D01*
X267458027Y-195450471D02*
X267315170Y-195521900D01*
X269886598Y-195021900D02*
X268600884Y-196950471D01*
X271172313Y-196593328D02*
X270315170Y-196593328D01*
X270743741Y-196593328D02*
X270743741Y-195093328D01*
X270743741Y-195093328D02*
X270600884Y-195307614D01*
X270600884Y-195307614D02*
X270458027Y-195450471D01*
X270458027Y-195450471D02*
X270315170Y-195521900D01*
D10*
D11*
X177002200Y-187507200D02*
X285002200Y-187507200D01*
D10*
D13*
X178693928Y-188211638D02*
X179836785Y-188211638D01*
X179015357Y-190211638D02*
X179265357Y-188211638D01*
X180253452Y-190211638D02*
X180420119Y-188878304D01*
X180503452Y-188211638D02*
X180396309Y-188306876D01*
X180396309Y-188306876D02*
X180479643Y-188402114D01*
X180479643Y-188402114D02*
X180586786Y-188306876D01*
X180586786Y-188306876D02*
X180503452Y-188211638D01*
X180503452Y-188211638D02*
X180479643Y-188402114D01*
X181086786Y-188878304D02*
X181848690Y-188878304D01*
X181455833Y-188211638D02*
X181241548Y-189925923D01*
X181241548Y-189925923D02*
X181312976Y-190116400D01*
X181312976Y-190116400D02*
X181491548Y-190211638D01*
X181491548Y-190211638D02*
X181682024Y-190211638D01*
X182634405Y-190211638D02*
X182455833Y-190116400D01*
X182455833Y-190116400D02*
X182384405Y-189925923D01*
X182384405Y-189925923D02*
X182598690Y-188211638D01*
X184170119Y-190116400D02*
X183967738Y-190211638D01*
X183967738Y-190211638D02*
X183586785Y-190211638D01*
X183586785Y-190211638D02*
X183408214Y-190116400D01*
X183408214Y-190116400D02*
X183336785Y-189925923D01*
X183336785Y-189925923D02*
X183432024Y-189164019D01*
X183432024Y-189164019D02*
X183551071Y-188973542D01*
X183551071Y-188973542D02*
X183753452Y-188878304D01*
X183753452Y-188878304D02*
X184134404Y-188878304D01*
X184134404Y-188878304D02*
X184312976Y-188973542D01*
X184312976Y-188973542D02*
X184384404Y-189164019D01*
X184384404Y-189164019D02*
X184360595Y-189354495D01*
X184360595Y-189354495D02*
X183384404Y-189544971D01*
X185134405Y-190021161D02*
X185217738Y-190116400D01*
X185217738Y-190116400D02*
X185110595Y-190211638D01*
X185110595Y-190211638D02*
X185027262Y-190116400D01*
X185027262Y-190116400D02*
X185134405Y-190021161D01*
X185134405Y-190021161D02*
X185110595Y-190211638D01*
X185265357Y-188973542D02*
X185348690Y-189068780D01*
X185348690Y-189068780D02*
X185241548Y-189164019D01*
X185241548Y-189164019D02*
X185158214Y-189068780D01*
X185158214Y-189068780D02*
X185265357Y-188973542D01*
X185265357Y-188973542D02*
X185241548Y-189164019D01*
D10*
D11*
X178958026Y-185607614D02*
X178458026Y-185607614D01*
X178458026Y-186393328D02*
X178458026Y-184893328D01*
X178458026Y-184893328D02*
X179172312Y-184893328D01*
X179743740Y-186393328D02*
X179743740Y-185393328D01*
X179743740Y-184893328D02*
X179672312Y-184964757D01*
X179672312Y-184964757D02*
X179743740Y-185036185D01*
X179743740Y-185036185D02*
X179815169Y-184964757D01*
X179815169Y-184964757D02*
X179743740Y-184893328D01*
X179743740Y-184893328D02*
X179743740Y-185036185D01*
X180672312Y-186393328D02*
X180529455Y-186321900D01*
X180529455Y-186321900D02*
X180458026Y-186179042D01*
X180458026Y-186179042D02*
X180458026Y-184893328D01*
X181815169Y-186321900D02*
X181672312Y-186393328D01*
X181672312Y-186393328D02*
X181386598Y-186393328D01*
X181386598Y-186393328D02*
X181243740Y-186321900D01*
X181243740Y-186321900D02*
X181172312Y-186179042D01*
X181172312Y-186179042D02*
X181172312Y-185607614D01*
X181172312Y-185607614D02*
X181243740Y-185464757D01*
X181243740Y-185464757D02*
X181386598Y-185393328D01*
X181386598Y-185393328D02*
X181672312Y-185393328D01*
X181672312Y-185393328D02*
X181815169Y-185464757D01*
X181815169Y-185464757D02*
X181886598Y-185607614D01*
X181886598Y-185607614D02*
X181886598Y-185750471D01*
X181886598Y-185750471D02*
X181172312Y-185893328D01*
X182529454Y-186250471D02*
X182600883Y-186321900D01*
X182600883Y-186321900D02*
X182529454Y-186393328D01*
X182529454Y-186393328D02*
X182458026Y-186321900D01*
X182458026Y-186321900D02*
X182529454Y-186250471D01*
X182529454Y-186250471D02*
X182529454Y-186393328D01*
X182529454Y-185464757D02*
X182600883Y-185536185D01*
X182600883Y-185536185D02*
X182529454Y-185607614D01*
X182529454Y-185607614D02*
X182458026Y-185536185D01*
X182458026Y-185536185D02*
X182529454Y-185464757D01*
X182529454Y-185464757D02*
X182529454Y-185607614D01*
X185029455Y-186321900D02*
X184886597Y-186393328D01*
X184886597Y-186393328D02*
X184600883Y-186393328D01*
X184600883Y-186393328D02*
X184458026Y-186321900D01*
X184458026Y-186321900D02*
X184386597Y-186250471D01*
X184386597Y-186250471D02*
X184315169Y-186107614D01*
X184315169Y-186107614D02*
X184315169Y-185679042D01*
X184315169Y-185679042D02*
X184386597Y-185536185D01*
X184386597Y-185536185D02*
X184458026Y-185464757D01*
X184458026Y-185464757D02*
X184600883Y-185393328D01*
X184600883Y-185393328D02*
X184886597Y-185393328D01*
X184886597Y-185393328D02*
X185029455Y-185464757D01*
X186315169Y-186393328D02*
X186315169Y-185607614D01*
X186315169Y-185607614D02*
X186243740Y-185464757D01*
X186243740Y-185464757D02*
X186100883Y-185393328D01*
X186100883Y-185393328D02*
X185815169Y-185393328D01*
X185815169Y-185393328D02*
X185672311Y-185464757D01*
X186315169Y-186321900D02*
X186172311Y-186393328D01*
X186172311Y-186393328D02*
X185815169Y-186393328D01*
X185815169Y-186393328D02*
X185672311Y-186321900D01*
X185672311Y-186321900D02*
X185600883Y-186179042D01*
X185600883Y-186179042D02*
X185600883Y-186036185D01*
X185600883Y-186036185D02*
X185672311Y-185893328D01*
X185672311Y-185893328D02*
X185815169Y-185821900D01*
X185815169Y-185821900D02*
X186172311Y-185821900D01*
X186172311Y-185821900D02*
X186315169Y-185750471D01*
X187029454Y-185393328D02*
X187029454Y-186893328D01*
X187029454Y-185464757D02*
X187172312Y-185393328D01*
X187172312Y-185393328D02*
X187458026Y-185393328D01*
X187458026Y-185393328D02*
X187600883Y-185464757D01*
X187600883Y-185464757D02*
X187672312Y-185536185D01*
X187672312Y-185536185D02*
X187743740Y-185679042D01*
X187743740Y-185679042D02*
X187743740Y-186107614D01*
X187743740Y-186107614D02*
X187672312Y-186250471D01*
X187672312Y-186250471D02*
X187600883Y-186321900D01*
X187600883Y-186321900D02*
X187458026Y-186393328D01*
X187458026Y-186393328D02*
X187172312Y-186393328D01*
X187172312Y-186393328D02*
X187029454Y-186321900D01*
X188172312Y-185393328D02*
X188743740Y-185393328D01*
X188386597Y-184893328D02*
X188386597Y-186179042D01*
X188386597Y-186179042D02*
X188458026Y-186321900D01*
X188458026Y-186321900D02*
X188600883Y-186393328D01*
X188600883Y-186393328D02*
X188743740Y-186393328D01*
X189815169Y-186321900D02*
X189672312Y-186393328D01*
X189672312Y-186393328D02*
X189386598Y-186393328D01*
X189386598Y-186393328D02*
X189243740Y-186321900D01*
X189243740Y-186321900D02*
X189172312Y-186179042D01*
X189172312Y-186179042D02*
X189172312Y-185607614D01*
X189172312Y-185607614D02*
X189243740Y-185464757D01*
X189243740Y-185464757D02*
X189386598Y-185393328D01*
X189386598Y-185393328D02*
X189672312Y-185393328D01*
X189672312Y-185393328D02*
X189815169Y-185464757D01*
X189815169Y-185464757D02*
X189886598Y-185607614D01*
X189886598Y-185607614D02*
X189886598Y-185750471D01*
X189886598Y-185750471D02*
X189172312Y-185893328D01*
X191172312Y-185393328D02*
X191172312Y-186393328D01*
X190529454Y-185393328D02*
X190529454Y-186179042D01*
X190529454Y-186179042D02*
X190600883Y-186321900D01*
X190600883Y-186321900D02*
X190743740Y-186393328D01*
X190743740Y-186393328D02*
X190958026Y-186393328D01*
X190958026Y-186393328D02*
X191100883Y-186321900D01*
X191100883Y-186321900D02*
X191172312Y-186250471D01*
X191886597Y-186393328D02*
X191886597Y-185393328D01*
X191886597Y-185679042D02*
X191958026Y-185536185D01*
X191958026Y-185536185D02*
X192029455Y-185464757D01*
X192029455Y-185464757D02*
X192172312Y-185393328D01*
X192172312Y-185393328D02*
X192315169Y-185393328D01*
X194600883Y-185393328D02*
X194600883Y-186607614D01*
X194600883Y-186607614D02*
X194529454Y-186750471D01*
X194529454Y-186750471D02*
X194458025Y-186821900D01*
X194458025Y-186821900D02*
X194315168Y-186893328D01*
X194315168Y-186893328D02*
X194100883Y-186893328D01*
X194100883Y-186893328D02*
X193958025Y-186821900D01*
X194600883Y-186321900D02*
X194458025Y-186393328D01*
X194458025Y-186393328D02*
X194172311Y-186393328D01*
X194172311Y-186393328D02*
X194029454Y-186321900D01*
X194029454Y-186321900D02*
X193958025Y-186250471D01*
X193958025Y-186250471D02*
X193886597Y-186107614D01*
X193886597Y-186107614D02*
X193886597Y-185679042D01*
X193886597Y-185679042D02*
X193958025Y-185536185D01*
X193958025Y-185536185D02*
X194029454Y-185464757D01*
X194029454Y-185464757D02*
X194172311Y-185393328D01*
X194172311Y-185393328D02*
X194458025Y-185393328D01*
X194458025Y-185393328D02*
X194600883Y-185464757D01*
X195315168Y-186393328D02*
X195315168Y-185393328D01*
X195315168Y-185679042D02*
X195386597Y-185536185D01*
X195386597Y-185536185D02*
X195458026Y-185464757D01*
X195458026Y-185464757D02*
X195600883Y-185393328D01*
X195600883Y-185393328D02*
X195743740Y-185393328D01*
X196886597Y-186393328D02*
X196886597Y-185607614D01*
X196886597Y-185607614D02*
X196815168Y-185464757D01*
X196815168Y-185464757D02*
X196672311Y-185393328D01*
X196672311Y-185393328D02*
X196386597Y-185393328D01*
X196386597Y-185393328D02*
X196243739Y-185464757D01*
X196886597Y-186321900D02*
X196743739Y-186393328D01*
X196743739Y-186393328D02*
X196386597Y-186393328D01*
X196386597Y-186393328D02*
X196243739Y-186321900D01*
X196243739Y-186321900D02*
X196172311Y-186179042D01*
X196172311Y-186179042D02*
X196172311Y-186036185D01*
X196172311Y-186036185D02*
X196243739Y-185893328D01*
X196243739Y-185893328D02*
X196386597Y-185821900D01*
X196386597Y-185821900D02*
X196743739Y-185821900D01*
X196743739Y-185821900D02*
X196886597Y-185750471D01*
X197600882Y-185393328D02*
X197600882Y-186893328D01*
X197600882Y-185464757D02*
X197743740Y-185393328D01*
X197743740Y-185393328D02*
X198029454Y-185393328D01*
X198029454Y-185393328D02*
X198172311Y-185464757D01*
X198172311Y-185464757D02*
X198243740Y-185536185D01*
X198243740Y-185536185D02*
X198315168Y-185679042D01*
X198315168Y-185679042D02*
X198315168Y-186107614D01*
X198315168Y-186107614D02*
X198243740Y-186250471D01*
X198243740Y-186250471D02*
X198172311Y-186321900D01*
X198172311Y-186321900D02*
X198029454Y-186393328D01*
X198029454Y-186393328D02*
X197743740Y-186393328D01*
X197743740Y-186393328D02*
X197600882Y-186321900D01*
X198958025Y-186393328D02*
X198958025Y-184893328D01*
X199600883Y-186393328D02*
X199600883Y-185607614D01*
X199600883Y-185607614D02*
X199529454Y-185464757D01*
X199529454Y-185464757D02*
X199386597Y-185393328D01*
X199386597Y-185393328D02*
X199172311Y-185393328D01*
X199172311Y-185393328D02*
X199029454Y-185464757D01*
X199029454Y-185464757D02*
X198958025Y-185536185D01*
X200315168Y-186393328D02*
X200315168Y-185393328D01*
X200315168Y-184893328D02*
X200243740Y-184964757D01*
X200243740Y-184964757D02*
X200315168Y-185036185D01*
X200315168Y-185036185D02*
X200386597Y-184964757D01*
X200386597Y-184964757D02*
X200315168Y-184893328D01*
X200315168Y-184893328D02*
X200315168Y-185036185D01*
X200815169Y-185393328D02*
X201386597Y-185393328D01*
X201029454Y-184893328D02*
X201029454Y-186179042D01*
X201029454Y-186179042D02*
X201100883Y-186321900D01*
X201100883Y-186321900D02*
X201243740Y-186393328D01*
X201243740Y-186393328D02*
X201386597Y-186393328D01*
X202458026Y-186321900D02*
X202315169Y-186393328D01*
X202315169Y-186393328D02*
X202029455Y-186393328D01*
X202029455Y-186393328D02*
X201886597Y-186321900D01*
X201886597Y-186321900D02*
X201815169Y-186179042D01*
X201815169Y-186179042D02*
X201815169Y-185607614D01*
X201815169Y-185607614D02*
X201886597Y-185464757D01*
X201886597Y-185464757D02*
X202029455Y-185393328D01*
X202029455Y-185393328D02*
X202315169Y-185393328D01*
X202315169Y-185393328D02*
X202458026Y-185464757D01*
X202458026Y-185464757D02*
X202529455Y-185607614D01*
X202529455Y-185607614D02*
X202529455Y-185750471D01*
X202529455Y-185750471D02*
X201815169Y-185893328D01*
X205172311Y-186250471D02*
X205100883Y-186321900D01*
X205100883Y-186321900D02*
X204886597Y-186393328D01*
X204886597Y-186393328D02*
X204743740Y-186393328D01*
X204743740Y-186393328D02*
X204529454Y-186321900D01*
X204529454Y-186321900D02*
X204386597Y-186179042D01*
X204386597Y-186179042D02*
X204315168Y-186036185D01*
X204315168Y-186036185D02*
X204243740Y-185750471D01*
X204243740Y-185750471D02*
X204243740Y-185536185D01*
X204243740Y-185536185D02*
X204315168Y-185250471D01*
X204315168Y-185250471D02*
X204386597Y-185107614D01*
X204386597Y-185107614D02*
X204529454Y-184964757D01*
X204529454Y-184964757D02*
X204743740Y-184893328D01*
X204743740Y-184893328D02*
X204886597Y-184893328D01*
X204886597Y-184893328D02*
X205100883Y-184964757D01*
X205100883Y-184964757D02*
X205172311Y-185036185D01*
X206029454Y-186393328D02*
X205886597Y-186321900D01*
X205886597Y-186321900D02*
X205815168Y-186250471D01*
X205815168Y-186250471D02*
X205743740Y-186107614D01*
X205743740Y-186107614D02*
X205743740Y-185679042D01*
X205743740Y-185679042D02*
X205815168Y-185536185D01*
X205815168Y-185536185D02*
X205886597Y-185464757D01*
X205886597Y-185464757D02*
X206029454Y-185393328D01*
X206029454Y-185393328D02*
X206243740Y-185393328D01*
X206243740Y-185393328D02*
X206386597Y-185464757D01*
X206386597Y-185464757D02*
X206458026Y-185536185D01*
X206458026Y-185536185D02*
X206529454Y-185679042D01*
X206529454Y-185679042D02*
X206529454Y-186107614D01*
X206529454Y-186107614D02*
X206458026Y-186250471D01*
X206458026Y-186250471D02*
X206386597Y-186321900D01*
X206386597Y-186321900D02*
X206243740Y-186393328D01*
X206243740Y-186393328D02*
X206029454Y-186393328D01*
X207815169Y-185393328D02*
X207815169Y-186393328D01*
X207172311Y-185393328D02*
X207172311Y-186179042D01*
X207172311Y-186179042D02*
X207243740Y-186321900D01*
X207243740Y-186321900D02*
X207386597Y-186393328D01*
X207386597Y-186393328D02*
X207600883Y-186393328D01*
X207600883Y-186393328D02*
X207743740Y-186321900D01*
X207743740Y-186321900D02*
X207815169Y-186250471D01*
X209029454Y-185607614D02*
X209243740Y-185679042D01*
X209243740Y-185679042D02*
X209315169Y-185750471D01*
X209315169Y-185750471D02*
X209386597Y-185893328D01*
X209386597Y-185893328D02*
X209386597Y-186107614D01*
X209386597Y-186107614D02*
X209315169Y-186250471D01*
X209315169Y-186250471D02*
X209243740Y-186321900D01*
X209243740Y-186321900D02*
X209100883Y-186393328D01*
X209100883Y-186393328D02*
X208529454Y-186393328D01*
X208529454Y-186393328D02*
X208529454Y-184893328D01*
X208529454Y-184893328D02*
X209029454Y-184893328D01*
X209029454Y-184893328D02*
X209172312Y-184964757D01*
X209172312Y-184964757D02*
X209243740Y-185036185D01*
X209243740Y-185036185D02*
X209315169Y-185179042D01*
X209315169Y-185179042D02*
X209315169Y-185321900D01*
X209315169Y-185321900D02*
X209243740Y-185464757D01*
X209243740Y-185464757D02*
X209172312Y-185536185D01*
X209172312Y-185536185D02*
X209029454Y-185607614D01*
X209029454Y-185607614D02*
X208529454Y-185607614D01*
X210600883Y-186321900D02*
X210458026Y-186393328D01*
X210458026Y-186393328D02*
X210172312Y-186393328D01*
X210172312Y-186393328D02*
X210029454Y-186321900D01*
X210029454Y-186321900D02*
X209958026Y-186179042D01*
X209958026Y-186179042D02*
X209958026Y-185607614D01*
X209958026Y-185607614D02*
X210029454Y-185464757D01*
X210029454Y-185464757D02*
X210172312Y-185393328D01*
X210172312Y-185393328D02*
X210458026Y-185393328D01*
X210458026Y-185393328D02*
X210600883Y-185464757D01*
X210600883Y-185464757D02*
X210672312Y-185607614D01*
X210672312Y-185607614D02*
X210672312Y-185750471D01*
X210672312Y-185750471D02*
X209958026Y-185893328D01*
X211315168Y-186393328D02*
X211315168Y-184893328D01*
X211958026Y-186393328D02*
X211958026Y-185607614D01*
X211958026Y-185607614D02*
X211886597Y-185464757D01*
X211886597Y-185464757D02*
X211743740Y-185393328D01*
X211743740Y-185393328D02*
X211529454Y-185393328D01*
X211529454Y-185393328D02*
X211386597Y-185464757D01*
X211386597Y-185464757D02*
X211315168Y-185536185D01*
X212672311Y-186250471D02*
X212743740Y-186321900D01*
X212743740Y-186321900D02*
X212672311Y-186393328D01*
X212672311Y-186393328D02*
X212600883Y-186321900D01*
X212600883Y-186321900D02*
X212672311Y-186250471D01*
X212672311Y-186250471D02*
X212672311Y-186393328D01*
X213386597Y-186393328D02*
X213386597Y-184893328D01*
X213529455Y-185821900D02*
X213958026Y-186393328D01*
X213958026Y-185393328D02*
X213386597Y-185964757D01*
X214600883Y-186393328D02*
X214600883Y-185393328D01*
X214600883Y-184893328D02*
X214529455Y-184964757D01*
X214529455Y-184964757D02*
X214600883Y-185036185D01*
X214600883Y-185036185D02*
X214672312Y-184964757D01*
X214672312Y-184964757D02*
X214600883Y-184893328D01*
X214600883Y-184893328D02*
X214600883Y-185036185D01*
X215958027Y-186321900D02*
X215815169Y-186393328D01*
X215815169Y-186393328D02*
X215529455Y-186393328D01*
X215529455Y-186393328D02*
X215386598Y-186321900D01*
X215386598Y-186321900D02*
X215315169Y-186250471D01*
X215315169Y-186250471D02*
X215243741Y-186107614D01*
X215243741Y-186107614D02*
X215243741Y-185679042D01*
X215243741Y-185679042D02*
X215315169Y-185536185D01*
X215315169Y-185536185D02*
X215386598Y-185464757D01*
X215386598Y-185464757D02*
X215529455Y-185393328D01*
X215529455Y-185393328D02*
X215815169Y-185393328D01*
X215815169Y-185393328D02*
X215958027Y-185464757D01*
X217243741Y-186393328D02*
X217243741Y-185607614D01*
X217243741Y-185607614D02*
X217172312Y-185464757D01*
X217172312Y-185464757D02*
X217029455Y-185393328D01*
X217029455Y-185393328D02*
X216743741Y-185393328D01*
X216743741Y-185393328D02*
X216600883Y-185464757D01*
X217243741Y-186321900D02*
X217100883Y-186393328D01*
X217100883Y-186393328D02*
X216743741Y-186393328D01*
X216743741Y-186393328D02*
X216600883Y-186321900D01*
X216600883Y-186321900D02*
X216529455Y-186179042D01*
X216529455Y-186179042D02*
X216529455Y-186036185D01*
X216529455Y-186036185D02*
X216600883Y-185893328D01*
X216600883Y-185893328D02*
X216743741Y-185821900D01*
X216743741Y-185821900D02*
X217100883Y-185821900D01*
X217100883Y-185821900D02*
X217243741Y-185750471D01*
X218600884Y-186393328D02*
X218600884Y-184893328D01*
X218600884Y-186321900D02*
X218458026Y-186393328D01*
X218458026Y-186393328D02*
X218172312Y-186393328D01*
X218172312Y-186393328D02*
X218029455Y-186321900D01*
X218029455Y-186321900D02*
X217958026Y-186250471D01*
X217958026Y-186250471D02*
X217886598Y-186107614D01*
X217886598Y-186107614D02*
X217886598Y-185679042D01*
X217886598Y-185679042D02*
X217958026Y-185536185D01*
X217958026Y-185536185D02*
X218029455Y-185464757D01*
X218029455Y-185464757D02*
X218172312Y-185393328D01*
X218172312Y-185393328D02*
X218458026Y-185393328D01*
X218458026Y-185393328D02*
X218600884Y-185464757D01*
X218958027Y-186536185D02*
X220100884Y-186536185D01*
X220458026Y-185393328D02*
X220458026Y-186893328D01*
X220458026Y-185464757D02*
X220600884Y-185393328D01*
X220600884Y-185393328D02*
X220886598Y-185393328D01*
X220886598Y-185393328D02*
X221029455Y-185464757D01*
X221029455Y-185464757D02*
X221100884Y-185536185D01*
X221100884Y-185536185D02*
X221172312Y-185679042D01*
X221172312Y-185679042D02*
X221172312Y-186107614D01*
X221172312Y-186107614D02*
X221100884Y-186250471D01*
X221100884Y-186250471D02*
X221029455Y-186321900D01*
X221029455Y-186321900D02*
X220886598Y-186393328D01*
X220886598Y-186393328D02*
X220600884Y-186393328D01*
X220600884Y-186393328D02*
X220458026Y-186321900D01*
X222458027Y-186321900D02*
X222315169Y-186393328D01*
X222315169Y-186393328D02*
X222029455Y-186393328D01*
X222029455Y-186393328D02*
X221886598Y-186321900D01*
X221886598Y-186321900D02*
X221815169Y-186250471D01*
X221815169Y-186250471D02*
X221743741Y-186107614D01*
X221743741Y-186107614D02*
X221743741Y-185679042D01*
X221743741Y-185679042D02*
X221815169Y-185536185D01*
X221815169Y-185536185D02*
X221886598Y-185464757D01*
X221886598Y-185464757D02*
X222029455Y-185393328D01*
X222029455Y-185393328D02*
X222315169Y-185393328D01*
X222315169Y-185393328D02*
X222458027Y-185464757D01*
X223100883Y-186393328D02*
X223100883Y-184893328D01*
X223100883Y-185464757D02*
X223243741Y-185393328D01*
X223243741Y-185393328D02*
X223529455Y-185393328D01*
X223529455Y-185393328D02*
X223672312Y-185464757D01*
X223672312Y-185464757D02*
X223743741Y-185536185D01*
X223743741Y-185536185D02*
X223815169Y-185679042D01*
X223815169Y-185679042D02*
X223815169Y-186107614D01*
X223815169Y-186107614D02*
X223743741Y-186250471D01*
X223743741Y-186250471D02*
X223672312Y-186321900D01*
X223672312Y-186321900D02*
X223529455Y-186393328D01*
X223529455Y-186393328D02*
X223243741Y-186393328D01*
X223243741Y-186393328D02*
X223100883Y-186321900D01*
D10*
D11*
X177002200Y-181507200D02*
X285002200Y-181507200D01*
D10*
D11*
X178386598Y-183621900D02*
X178600884Y-183693328D01*
X178600884Y-183693328D02*
X178958026Y-183693328D01*
X178958026Y-183693328D02*
X179100884Y-183621900D01*
X179100884Y-183621900D02*
X179172312Y-183550471D01*
X179172312Y-183550471D02*
X179243741Y-183407614D01*
X179243741Y-183407614D02*
X179243741Y-183264757D01*
X179243741Y-183264757D02*
X179172312Y-183121900D01*
X179172312Y-183121900D02*
X179100884Y-183050471D01*
X179100884Y-183050471D02*
X178958026Y-182979042D01*
X178958026Y-182979042D02*
X178672312Y-182907614D01*
X178672312Y-182907614D02*
X178529455Y-182836185D01*
X178529455Y-182836185D02*
X178458026Y-182764757D01*
X178458026Y-182764757D02*
X178386598Y-182621900D01*
X178386598Y-182621900D02*
X178386598Y-182479042D01*
X178386598Y-182479042D02*
X178458026Y-182336185D01*
X178458026Y-182336185D02*
X178529455Y-182264757D01*
X178529455Y-182264757D02*
X178672312Y-182193328D01*
X178672312Y-182193328D02*
X179029455Y-182193328D01*
X179029455Y-182193328D02*
X179243741Y-182264757D01*
X179886597Y-183693328D02*
X179886597Y-182193328D01*
X180529455Y-183693328D02*
X180529455Y-182907614D01*
X180529455Y-182907614D02*
X180458026Y-182764757D01*
X180458026Y-182764757D02*
X180315169Y-182693328D01*
X180315169Y-182693328D02*
X180100883Y-182693328D01*
X180100883Y-182693328D02*
X179958026Y-182764757D01*
X179958026Y-182764757D02*
X179886597Y-182836185D01*
X181815169Y-183621900D02*
X181672312Y-183693328D01*
X181672312Y-183693328D02*
X181386598Y-183693328D01*
X181386598Y-183693328D02*
X181243740Y-183621900D01*
X181243740Y-183621900D02*
X181172312Y-183479042D01*
X181172312Y-183479042D02*
X181172312Y-182907614D01*
X181172312Y-182907614D02*
X181243740Y-182764757D01*
X181243740Y-182764757D02*
X181386598Y-182693328D01*
X181386598Y-182693328D02*
X181672312Y-182693328D01*
X181672312Y-182693328D02*
X181815169Y-182764757D01*
X181815169Y-182764757D02*
X181886598Y-182907614D01*
X181886598Y-182907614D02*
X181886598Y-183050471D01*
X181886598Y-183050471D02*
X181172312Y-183193328D01*
X183100883Y-183621900D02*
X182958026Y-183693328D01*
X182958026Y-183693328D02*
X182672312Y-183693328D01*
X182672312Y-183693328D02*
X182529454Y-183621900D01*
X182529454Y-183621900D02*
X182458026Y-183479042D01*
X182458026Y-183479042D02*
X182458026Y-182907614D01*
X182458026Y-182907614D02*
X182529454Y-182764757D01*
X182529454Y-182764757D02*
X182672312Y-182693328D01*
X182672312Y-182693328D02*
X182958026Y-182693328D01*
X182958026Y-182693328D02*
X183100883Y-182764757D01*
X183100883Y-182764757D02*
X183172312Y-182907614D01*
X183172312Y-182907614D02*
X183172312Y-183050471D01*
X183172312Y-183050471D02*
X182458026Y-183193328D01*
X183600883Y-182693328D02*
X184172311Y-182693328D01*
X183815168Y-182193328D02*
X183815168Y-183479042D01*
X183815168Y-183479042D02*
X183886597Y-183621900D01*
X183886597Y-183621900D02*
X184029454Y-183693328D01*
X184029454Y-183693328D02*
X184172311Y-183693328D01*
X184672311Y-183550471D02*
X184743740Y-183621900D01*
X184743740Y-183621900D02*
X184672311Y-183693328D01*
X184672311Y-183693328D02*
X184600883Y-183621900D01*
X184600883Y-183621900D02*
X184672311Y-183550471D01*
X184672311Y-183550471D02*
X184672311Y-183693328D01*
X184672311Y-182764757D02*
X184743740Y-182836185D01*
X184743740Y-182836185D02*
X184672311Y-182907614D01*
X184672311Y-182907614D02*
X184600883Y-182836185D01*
X184600883Y-182836185D02*
X184672311Y-182764757D01*
X184672311Y-182764757D02*
X184672311Y-182907614D01*
D10*
D11*
X197002200Y-191507200D02*
X197002200Y-194507200D01*
D10*
D11*
X261002200Y-191507200D02*
X261002200Y-198007200D01*
X117824819Y-70246666D02*
X117348628Y-70579999D01*
X117824819Y-70818094D02*
X116824819Y-70818094D01*
X116824819Y-70818094D02*
X116824819Y-70437142D01*
X116824819Y-70437142D02*
X116872438Y-70341904D01*
X116872438Y-70341904D02*
X116920057Y-70294285D01*
X116920057Y-70294285D02*
X117015295Y-70246666D01*
X117015295Y-70246666D02*
X117158152Y-70246666D01*
X117158152Y-70246666D02*
X117253390Y-70294285D01*
X117253390Y-70294285D02*
X117301009Y-70341904D01*
X117301009Y-70341904D02*
X117348628Y-70437142D01*
X117348628Y-70437142D02*
X117348628Y-70818094D01*
X116920057Y-69865713D02*
X116872438Y-69818094D01*
X116872438Y-69818094D02*
X116824819Y-69722856D01*
X116824819Y-69722856D02*
X116824819Y-69484761D01*
X116824819Y-69484761D02*
X116872438Y-69389523D01*
X116872438Y-69389523D02*
X116920057Y-69341904D01*
X116920057Y-69341904D02*
X117015295Y-69294285D01*
X117015295Y-69294285D02*
X117110533Y-69294285D01*
X117110533Y-69294285D02*
X117253390Y-69341904D01*
X117253390Y-69341904D02*
X117824819Y-69913332D01*
X117824819Y-69913332D02*
X117824819Y-69294285D01*
X131824819Y-79086666D02*
X131348628Y-79419999D01*
X131824819Y-79658094D02*
X130824819Y-79658094D01*
X130824819Y-79658094D02*
X130824819Y-79277142D01*
X130824819Y-79277142D02*
X130872438Y-79181904D01*
X130872438Y-79181904D02*
X130920057Y-79134285D01*
X130920057Y-79134285D02*
X131015295Y-79086666D01*
X131015295Y-79086666D02*
X131158152Y-79086666D01*
X131158152Y-79086666D02*
X131253390Y-79134285D01*
X131253390Y-79134285D02*
X131301009Y-79181904D01*
X131301009Y-79181904D02*
X131348628Y-79277142D01*
X131348628Y-79277142D02*
X131348628Y-79658094D01*
X131158152Y-78229523D02*
X131824819Y-78229523D01*
X130777200Y-78467618D02*
X131491485Y-78705713D01*
X131491485Y-78705713D02*
X131491485Y-78086666D01*
X115833333Y-76584819D02*
X115500000Y-76108628D01*
X115261905Y-76584819D02*
X115261905Y-75584819D01*
X115261905Y-75584819D02*
X115642857Y-75584819D01*
X115642857Y-75584819D02*
X115738095Y-75632438D01*
X115738095Y-75632438D02*
X115785714Y-75680057D01*
X115785714Y-75680057D02*
X115833333Y-75775295D01*
X115833333Y-75775295D02*
X115833333Y-75918152D01*
X115833333Y-75918152D02*
X115785714Y-76013390D01*
X115785714Y-76013390D02*
X115738095Y-76061009D01*
X115738095Y-76061009D02*
X115642857Y-76108628D01*
X115642857Y-76108628D02*
X115261905Y-76108628D01*
X116166667Y-75584819D02*
X116785714Y-75584819D01*
X116785714Y-75584819D02*
X116452381Y-75965771D01*
X116452381Y-75965771D02*
X116595238Y-75965771D01*
X116595238Y-75965771D02*
X116690476Y-76013390D01*
X116690476Y-76013390D02*
X116738095Y-76061009D01*
X116738095Y-76061009D02*
X116785714Y-76156247D01*
X116785714Y-76156247D02*
X116785714Y-76394342D01*
X116785714Y-76394342D02*
X116738095Y-76489580D01*
X116738095Y-76489580D02*
X116690476Y-76537200D01*
X116690476Y-76537200D02*
X116595238Y-76584819D01*
X116595238Y-76584819D02*
X116309524Y-76584819D01*
X116309524Y-76584819D02*
X116214286Y-76537200D01*
X116214286Y-76537200D02*
X116166667Y-76489580D01*
X144928095Y-70254819D02*
X144928095Y-71064342D01*
X144928095Y-71064342D02*
X144975714Y-71159580D01*
X144975714Y-71159580D02*
X145023333Y-71207200D01*
X145023333Y-71207200D02*
X145118571Y-71254819D01*
X145118571Y-71254819D02*
X145309047Y-71254819D01*
X145309047Y-71254819D02*
X145404285Y-71207200D01*
X145404285Y-71207200D02*
X145451904Y-71159580D01*
X145451904Y-71159580D02*
X145499523Y-71064342D01*
X145499523Y-71064342D02*
X145499523Y-70254819D01*
X146499523Y-71254819D02*
X145928095Y-71254819D01*
X146213809Y-71254819D02*
X146213809Y-70254819D01*
X146213809Y-70254819D02*
X146118571Y-70397676D01*
X146118571Y-70397676D02*
X146023333Y-70492914D01*
X146023333Y-70492914D02*
X145928095Y-70540533D01*
D10*
X143862419Y-67838972D02*
X144862419Y-67505639D01*
X144862419Y-67505639D02*
X143862419Y-67172306D01*
X144767180Y-66267544D02*
X144814800Y-66315163D01*
X144814800Y-66315163D02*
X144862419Y-66458020D01*
X144862419Y-66458020D02*
X144862419Y-66553258D01*
X144862419Y-66553258D02*
X144814800Y-66696115D01*
X144814800Y-66696115D02*
X144719561Y-66791353D01*
X144719561Y-66791353D02*
X144624323Y-66838972D01*
X144624323Y-66838972D02*
X144433847Y-66886591D01*
X144433847Y-66886591D02*
X144290990Y-66886591D01*
X144290990Y-66886591D02*
X144100514Y-66838972D01*
X144100514Y-66838972D02*
X144005276Y-66791353D01*
X144005276Y-66791353D02*
X143910038Y-66696115D01*
X143910038Y-66696115D02*
X143862419Y-66553258D01*
X143862419Y-66553258D02*
X143862419Y-66458020D01*
X143862419Y-66458020D02*
X143910038Y-66315163D01*
X143910038Y-66315163D02*
X143957657Y-66267544D01*
X144767180Y-65267544D02*
X144814800Y-65315163D01*
X144814800Y-65315163D02*
X144862419Y-65458020D01*
X144862419Y-65458020D02*
X144862419Y-65553258D01*
X144862419Y-65553258D02*
X144814800Y-65696115D01*
X144814800Y-65696115D02*
X144719561Y-65791353D01*
X144719561Y-65791353D02*
X144624323Y-65838972D01*
X144624323Y-65838972D02*
X144433847Y-65886591D01*
X144433847Y-65886591D02*
X144290990Y-65886591D01*
X144290990Y-65886591D02*
X144100514Y-65838972D01*
X144100514Y-65838972D02*
X144005276Y-65791353D01*
X144005276Y-65791353D02*
X143910038Y-65696115D01*
X143910038Y-65696115D02*
X143862419Y-65553258D01*
X143862419Y-65553258D02*
X143862419Y-65458020D01*
X143862419Y-65458020D02*
X143910038Y-65315163D01*
X143910038Y-65315163D02*
X143957657Y-65267544D01*
X147314800Y-67743734D02*
X147362419Y-67600877D01*
X147362419Y-67600877D02*
X147362419Y-67362782D01*
X147362419Y-67362782D02*
X147314800Y-67267544D01*
X147314800Y-67267544D02*
X147267180Y-67219925D01*
X147267180Y-67219925D02*
X147171942Y-67172306D01*
X147171942Y-67172306D02*
X147076704Y-67172306D01*
X147076704Y-67172306D02*
X146981466Y-67219925D01*
X146981466Y-67219925D02*
X146933847Y-67267544D01*
X146933847Y-67267544D02*
X146886228Y-67362782D01*
X146886228Y-67362782D02*
X146838609Y-67553258D01*
X146838609Y-67553258D02*
X146790990Y-67648496D01*
X146790990Y-67648496D02*
X146743371Y-67696115D01*
X146743371Y-67696115D02*
X146648133Y-67743734D01*
X146648133Y-67743734D02*
X146552895Y-67743734D01*
X146552895Y-67743734D02*
X146457657Y-67696115D01*
X146457657Y-67696115D02*
X146410038Y-67648496D01*
X146410038Y-67648496D02*
X146362419Y-67553258D01*
X146362419Y-67553258D02*
X146362419Y-67315163D01*
X146362419Y-67315163D02*
X146410038Y-67172306D01*
X147267180Y-66172306D02*
X147314800Y-66219925D01*
X147314800Y-66219925D02*
X147362419Y-66362782D01*
X147362419Y-66362782D02*
X147362419Y-66458020D01*
X147362419Y-66458020D02*
X147314800Y-66600877D01*
X147314800Y-66600877D02*
X147219561Y-66696115D01*
X147219561Y-66696115D02*
X147124323Y-66743734D01*
X147124323Y-66743734D02*
X146933847Y-66791353D01*
X146933847Y-66791353D02*
X146790990Y-66791353D01*
X146790990Y-66791353D02*
X146600514Y-66743734D01*
X146600514Y-66743734D02*
X146505276Y-66696115D01*
X146505276Y-66696115D02*
X146410038Y-66600877D01*
X146410038Y-66600877D02*
X146362419Y-66458020D01*
X146362419Y-66458020D02*
X146362419Y-66362782D01*
X146362419Y-66362782D02*
X146410038Y-66219925D01*
X146410038Y-66219925D02*
X146457657Y-66172306D01*
X147362419Y-65267544D02*
X147362419Y-65743734D01*
X147362419Y-65743734D02*
X146362419Y-65743734D01*
X149914800Y-68043734D02*
X149962419Y-67900877D01*
X149962419Y-67900877D02*
X149962419Y-67662782D01*
X149962419Y-67662782D02*
X149914800Y-67567544D01*
X149914800Y-67567544D02*
X149867180Y-67519925D01*
X149867180Y-67519925D02*
X149771942Y-67472306D01*
X149771942Y-67472306D02*
X149676704Y-67472306D01*
X149676704Y-67472306D02*
X149581466Y-67519925D01*
X149581466Y-67519925D02*
X149533847Y-67567544D01*
X149533847Y-67567544D02*
X149486228Y-67662782D01*
X149486228Y-67662782D02*
X149438609Y-67853258D01*
X149438609Y-67853258D02*
X149390990Y-67948496D01*
X149390990Y-67948496D02*
X149343371Y-67996115D01*
X149343371Y-67996115D02*
X149248133Y-68043734D01*
X149248133Y-68043734D02*
X149152895Y-68043734D01*
X149152895Y-68043734D02*
X149057657Y-67996115D01*
X149057657Y-67996115D02*
X149010038Y-67948496D01*
X149010038Y-67948496D02*
X148962419Y-67853258D01*
X148962419Y-67853258D02*
X148962419Y-67615163D01*
X148962419Y-67615163D02*
X149010038Y-67472306D01*
X149962419Y-67043734D02*
X148962419Y-67043734D01*
X148962419Y-67043734D02*
X148962419Y-66805639D01*
X148962419Y-66805639D02*
X149010038Y-66662782D01*
X149010038Y-66662782D02*
X149105276Y-66567544D01*
X149105276Y-66567544D02*
X149200514Y-66519925D01*
X149200514Y-66519925D02*
X149390990Y-66472306D01*
X149390990Y-66472306D02*
X149533847Y-66472306D01*
X149533847Y-66472306D02*
X149724323Y-66519925D01*
X149724323Y-66519925D02*
X149819561Y-66567544D01*
X149819561Y-66567544D02*
X149914800Y-66662782D01*
X149914800Y-66662782D02*
X149962419Y-66805639D01*
X149962419Y-66805639D02*
X149962419Y-67043734D01*
X149676704Y-66091353D02*
X149676704Y-65615163D01*
X149962419Y-66186591D02*
X148962419Y-65853258D01*
X148962419Y-65853258D02*
X149962419Y-65519925D01*
X141310038Y-67372306D02*
X141262419Y-67467544D01*
X141262419Y-67467544D02*
X141262419Y-67610401D01*
X141262419Y-67610401D02*
X141310038Y-67753258D01*
X141310038Y-67753258D02*
X141405276Y-67848496D01*
X141405276Y-67848496D02*
X141500514Y-67896115D01*
X141500514Y-67896115D02*
X141690990Y-67943734D01*
X141690990Y-67943734D02*
X141833847Y-67943734D01*
X141833847Y-67943734D02*
X142024323Y-67896115D01*
X142024323Y-67896115D02*
X142119561Y-67848496D01*
X142119561Y-67848496D02*
X142214800Y-67753258D01*
X142214800Y-67753258D02*
X142262419Y-67610401D01*
X142262419Y-67610401D02*
X142262419Y-67515163D01*
X142262419Y-67515163D02*
X142214800Y-67372306D01*
X142214800Y-67372306D02*
X142167180Y-67324687D01*
X142167180Y-67324687D02*
X141833847Y-67324687D01*
X141833847Y-67324687D02*
X141833847Y-67515163D01*
X142262419Y-66896115D02*
X141262419Y-66896115D01*
X141262419Y-66896115D02*
X142262419Y-66324687D01*
X142262419Y-66324687D02*
X141262419Y-66324687D01*
X142262419Y-65848496D02*
X141262419Y-65848496D01*
X141262419Y-65848496D02*
X141262419Y-65610401D01*
X141262419Y-65610401D02*
X141310038Y-65467544D01*
X141310038Y-65467544D02*
X141405276Y-65372306D01*
X141405276Y-65372306D02*
X141500514Y-65324687D01*
X141500514Y-65324687D02*
X141690990Y-65277068D01*
X141690990Y-65277068D02*
X141833847Y-65277068D01*
X141833847Y-65277068D02*
X142024323Y-65324687D01*
X142024323Y-65324687D02*
X142119561Y-65372306D01*
X142119561Y-65372306D02*
X142214800Y-65467544D01*
X142214800Y-65467544D02*
X142262419Y-65610401D01*
X142262419Y-65610401D02*
X142262419Y-65848496D01*
D11*
X128859580Y-91166666D02*
X128907200Y-91214285D01*
X128907200Y-91214285D02*
X128954819Y-91357142D01*
X128954819Y-91357142D02*
X128954819Y-91452380D01*
X128954819Y-91452380D02*
X128907200Y-91595237D01*
X128907200Y-91595237D02*
X128811961Y-91690475D01*
X128811961Y-91690475D02*
X128716723Y-91738094D01*
X128716723Y-91738094D02*
X128526247Y-91785713D01*
X128526247Y-91785713D02*
X128383390Y-91785713D01*
X128383390Y-91785713D02*
X128192914Y-91738094D01*
X128192914Y-91738094D02*
X128097676Y-91690475D01*
X128097676Y-91690475D02*
X128002438Y-91595237D01*
X128002438Y-91595237D02*
X127954819Y-91452380D01*
X127954819Y-91452380D02*
X127954819Y-91357142D01*
X127954819Y-91357142D02*
X128002438Y-91214285D01*
X128002438Y-91214285D02*
X128050057Y-91166666D01*
X128050057Y-90785713D02*
X128002438Y-90738094D01*
X128002438Y-90738094D02*
X127954819Y-90642856D01*
X127954819Y-90642856D02*
X127954819Y-90404761D01*
X127954819Y-90404761D02*
X128002438Y-90309523D01*
X128002438Y-90309523D02*
X128050057Y-90261904D01*
X128050057Y-90261904D02*
X128145295Y-90214285D01*
X128145295Y-90214285D02*
X128240533Y-90214285D01*
X128240533Y-90214285D02*
X128383390Y-90261904D01*
X128383390Y-90261904D02*
X128954819Y-90833332D01*
X128954819Y-90833332D02*
X128954819Y-90214285D01*
X123534819Y-79976666D02*
X123058628Y-80309999D01*
X123534819Y-80548094D02*
X122534819Y-80548094D01*
X122534819Y-80548094D02*
X122534819Y-80167142D01*
X122534819Y-80167142D02*
X122582438Y-80071904D01*
X122582438Y-80071904D02*
X122630057Y-80024285D01*
X122630057Y-80024285D02*
X122725295Y-79976666D01*
X122725295Y-79976666D02*
X122868152Y-79976666D01*
X122868152Y-79976666D02*
X122963390Y-80024285D01*
X122963390Y-80024285D02*
X123011009Y-80071904D01*
X123011009Y-80071904D02*
X123058628Y-80167142D01*
X123058628Y-80167142D02*
X123058628Y-80548094D01*
X123534819Y-79024285D02*
X123534819Y-79595713D01*
X123534819Y-79309999D02*
X122534819Y-79309999D01*
X122534819Y-79309999D02*
X122677676Y-79405237D01*
X122677676Y-79405237D02*
X122772914Y-79500475D01*
X122772914Y-79500475D02*
X122820533Y-79595713D01*
X164109580Y-86916666D02*
X164157200Y-86964285D01*
X164157200Y-86964285D02*
X164204819Y-87107142D01*
X164204819Y-87107142D02*
X164204819Y-87202380D01*
X164204819Y-87202380D02*
X164157200Y-87345237D01*
X164157200Y-87345237D02*
X164061961Y-87440475D01*
X164061961Y-87440475D02*
X163966723Y-87488094D01*
X163966723Y-87488094D02*
X163776247Y-87535713D01*
X163776247Y-87535713D02*
X163633390Y-87535713D01*
X163633390Y-87535713D02*
X163442914Y-87488094D01*
X163442914Y-87488094D02*
X163347676Y-87440475D01*
X163347676Y-87440475D02*
X163252438Y-87345237D01*
X163252438Y-87345237D02*
X163204819Y-87202380D01*
X163204819Y-87202380D02*
X163204819Y-87107142D01*
X163204819Y-87107142D02*
X163252438Y-86964285D01*
X163252438Y-86964285D02*
X163300057Y-86916666D01*
X163538152Y-86059523D02*
X164204819Y-86059523D01*
X163157200Y-86297618D02*
X163871485Y-86535713D01*
X163871485Y-86535713D02*
X163871485Y-85916666D01*
X145809048Y-52184819D02*
X145809048Y-51184819D01*
X145809048Y-51661009D02*
X146380476Y-51661009D01*
X146380476Y-52184819D02*
X146380476Y-51184819D01*
X147428095Y-52089580D02*
X147380476Y-52137200D01*
X147380476Y-52137200D02*
X147237619Y-52184819D01*
X147237619Y-52184819D02*
X147142381Y-52184819D01*
X147142381Y-52184819D02*
X146999524Y-52137200D01*
X146999524Y-52137200D02*
X146904286Y-52041961D01*
X146904286Y-52041961D02*
X146856667Y-51946723D01*
X146856667Y-51946723D02*
X146809048Y-51756247D01*
X146809048Y-51756247D02*
X146809048Y-51613390D01*
X146809048Y-51613390D02*
X146856667Y-51422914D01*
X146856667Y-51422914D02*
X146904286Y-51327676D01*
X146904286Y-51327676D02*
X146999524Y-51232438D01*
X146999524Y-51232438D02*
X147142381Y-51184819D01*
X147142381Y-51184819D02*
X147237619Y-51184819D01*
X147237619Y-51184819D02*
X147380476Y-51232438D01*
X147380476Y-51232438D02*
X147428095Y-51280057D01*
X147856667Y-51803866D02*
X148618572Y-51803866D01*
X149618571Y-52184819D02*
X149047143Y-52184819D01*
X149332857Y-52184819D02*
X149332857Y-51184819D01*
X149332857Y-51184819D02*
X149237619Y-51327676D01*
X149237619Y-51327676D02*
X149142381Y-51422914D01*
X149142381Y-51422914D02*
X149047143Y-51470533D01*
X120735180Y-57548095D02*
X119925657Y-57548095D01*
X119925657Y-57548095D02*
X119830419Y-57595714D01*
X119830419Y-57595714D02*
X119782800Y-57643333D01*
X119782800Y-57643333D02*
X119735180Y-57738571D01*
X119735180Y-57738571D02*
X119735180Y-57929047D01*
X119735180Y-57929047D02*
X119782800Y-58024285D01*
X119782800Y-58024285D02*
X119830419Y-58071904D01*
X119830419Y-58071904D02*
X119925657Y-58119523D01*
X119925657Y-58119523D02*
X120735180Y-58119523D01*
X120735180Y-58500476D02*
X120735180Y-59119523D01*
X120735180Y-59119523D02*
X120354228Y-58786190D01*
X120354228Y-58786190D02*
X120354228Y-58929047D01*
X120354228Y-58929047D02*
X120306609Y-59024285D01*
X120306609Y-59024285D02*
X120258990Y-59071904D01*
X120258990Y-59071904D02*
X120163752Y-59119523D01*
X120163752Y-59119523D02*
X119925657Y-59119523D01*
X119925657Y-59119523D02*
X119830419Y-59071904D01*
X119830419Y-59071904D02*
X119782800Y-59024285D01*
X119782800Y-59024285D02*
X119735180Y-58929047D01*
X119735180Y-58929047D02*
X119735180Y-58643333D01*
X119735180Y-58643333D02*
X119782800Y-58548095D01*
X119782800Y-58548095D02*
X119830419Y-58500476D01*
X126056480Y-54500000D02*
X125818385Y-54500000D01*
X125913623Y-54261905D02*
X125818385Y-54500000D01*
X125818385Y-54500000D02*
X125913623Y-54738095D01*
X125627909Y-54357143D02*
X125818385Y-54500000D01*
X125818385Y-54500000D02*
X125627909Y-54642857D01*
X124966119Y-54499999D02*
X125204214Y-54499999D01*
X125108976Y-54738094D02*
X125204214Y-54499999D01*
X125204214Y-54499999D02*
X125108976Y-54261904D01*
X125394690Y-54642856D02*
X125204214Y-54499999D01*
X125204214Y-54499999D02*
X125394690Y-54357142D01*
X107166666Y-75364819D02*
X107166666Y-76079104D01*
X107166666Y-76079104D02*
X107119047Y-76221961D01*
X107119047Y-76221961D02*
X107023809Y-76317200D01*
X107023809Y-76317200D02*
X106880952Y-76364819D01*
X106880952Y-76364819D02*
X106785714Y-76364819D01*
X108119047Y-75364819D02*
X107642857Y-75364819D01*
X107642857Y-75364819D02*
X107595238Y-75841009D01*
X107595238Y-75841009D02*
X107642857Y-75793390D01*
X107642857Y-75793390D02*
X107738095Y-75745771D01*
X107738095Y-75745771D02*
X107976190Y-75745771D01*
X107976190Y-75745771D02*
X108071428Y-75793390D01*
X108071428Y-75793390D02*
X108119047Y-75841009D01*
X108119047Y-75841009D02*
X108166666Y-75936247D01*
X108166666Y-75936247D02*
X108166666Y-76174342D01*
X108166666Y-76174342D02*
X108119047Y-76269580D01*
X108119047Y-76269580D02*
X108071428Y-76317200D01*
X108071428Y-76317200D02*
X107976190Y-76364819D01*
X107976190Y-76364819D02*
X107738095Y-76364819D01*
X107738095Y-76364819D02*
X107642857Y-76317200D01*
X107642857Y-76317200D02*
X107595238Y-76269580D01*
X111609580Y-70666666D02*
X111657200Y-70714285D01*
X111657200Y-70714285D02*
X111704819Y-70857142D01*
X111704819Y-70857142D02*
X111704819Y-70952380D01*
X111704819Y-70952380D02*
X111657200Y-71095237D01*
X111657200Y-71095237D02*
X111561961Y-71190475D01*
X111561961Y-71190475D02*
X111466723Y-71238094D01*
X111466723Y-71238094D02*
X111276247Y-71285713D01*
X111276247Y-71285713D02*
X111133390Y-71285713D01*
X111133390Y-71285713D02*
X110942914Y-71238094D01*
X110942914Y-71238094D02*
X110847676Y-71190475D01*
X110847676Y-71190475D02*
X110752438Y-71095237D01*
X110752438Y-71095237D02*
X110704819Y-70952380D01*
X110704819Y-70952380D02*
X110704819Y-70857142D01*
X110704819Y-70857142D02*
X110752438Y-70714285D01*
X110752438Y-70714285D02*
X110800057Y-70666666D01*
X111704819Y-69714285D02*
X111704819Y-70285713D01*
X111704819Y-69999999D02*
X110704819Y-69999999D01*
X110704819Y-69999999D02*
X110847676Y-70095237D01*
X110847676Y-70095237D02*
X110942914Y-70190475D01*
X110942914Y-70190475D02*
X110990533Y-70285713D01*
X115928095Y-92404819D02*
X115928095Y-93214342D01*
X115928095Y-93214342D02*
X115975714Y-93309580D01*
X115975714Y-93309580D02*
X116023333Y-93357200D01*
X116023333Y-93357200D02*
X116118571Y-93404819D01*
X116118571Y-93404819D02*
X116309047Y-93404819D01*
X116309047Y-93404819D02*
X116404285Y-93357200D01*
X116404285Y-93357200D02*
X116451904Y-93309580D01*
X116451904Y-93309580D02*
X116499523Y-93214342D01*
X116499523Y-93214342D02*
X116499523Y-92404819D01*
X116928095Y-92500057D02*
X116975714Y-92452438D01*
X116975714Y-92452438D02*
X117070952Y-92404819D01*
X117070952Y-92404819D02*
X117309047Y-92404819D01*
X117309047Y-92404819D02*
X117404285Y-92452438D01*
X117404285Y-92452438D02*
X117451904Y-92500057D01*
X117451904Y-92500057D02*
X117499523Y-92595295D01*
X117499523Y-92595295D02*
X117499523Y-92690533D01*
X117499523Y-92690533D02*
X117451904Y-92833390D01*
X117451904Y-92833390D02*
X116880476Y-93404819D01*
X116880476Y-93404819D02*
X117499523Y-93404819D01*
X134083333Y-90609580D02*
X134035714Y-90657200D01*
X134035714Y-90657200D02*
X133892857Y-90704819D01*
X133892857Y-90704819D02*
X133797619Y-90704819D01*
X133797619Y-90704819D02*
X133654762Y-90657200D01*
X133654762Y-90657200D02*
X133559524Y-90561961D01*
X133559524Y-90561961D02*
X133511905Y-90466723D01*
X133511905Y-90466723D02*
X133464286Y-90276247D01*
X133464286Y-90276247D02*
X133464286Y-90133390D01*
X133464286Y-90133390D02*
X133511905Y-89942914D01*
X133511905Y-89942914D02*
X133559524Y-89847676D01*
X133559524Y-89847676D02*
X133654762Y-89752438D01*
X133654762Y-89752438D02*
X133797619Y-89704819D01*
X133797619Y-89704819D02*
X133892857Y-89704819D01*
X133892857Y-89704819D02*
X134035714Y-89752438D01*
X134035714Y-89752438D02*
X134083333Y-89800057D01*
X134416667Y-89704819D02*
X135035714Y-89704819D01*
X135035714Y-89704819D02*
X134702381Y-90085771D01*
X134702381Y-90085771D02*
X134845238Y-90085771D01*
X134845238Y-90085771D02*
X134940476Y-90133390D01*
X134940476Y-90133390D02*
X134988095Y-90181009D01*
X134988095Y-90181009D02*
X135035714Y-90276247D01*
X135035714Y-90276247D02*
X135035714Y-90514342D01*
X135035714Y-90514342D02*
X134988095Y-90609580D01*
X134988095Y-90609580D02*
X134940476Y-90657200D01*
X134940476Y-90657200D02*
X134845238Y-90704819D01*
X134845238Y-90704819D02*
X134559524Y-90704819D01*
X134559524Y-90704819D02*
X134464286Y-90657200D01*
X134464286Y-90657200D02*
X134416667Y-90609580D01*
X129954819Y-90166666D02*
X129478628Y-90499999D01*
X129954819Y-90738094D02*
X128954819Y-90738094D01*
X128954819Y-90738094D02*
X128954819Y-90357142D01*
X128954819Y-90357142D02*
X129002438Y-90261904D01*
X129002438Y-90261904D02*
X129050057Y-90214285D01*
X129050057Y-90214285D02*
X129145295Y-90166666D01*
X129145295Y-90166666D02*
X129288152Y-90166666D01*
X129288152Y-90166666D02*
X129383390Y-90214285D01*
X129383390Y-90214285D02*
X129431009Y-90261904D01*
X129431009Y-90261904D02*
X129478628Y-90357142D01*
X129478628Y-90357142D02*
X129478628Y-90738094D01*
X128954819Y-89261904D02*
X128954819Y-89738094D01*
X128954819Y-89738094D02*
X129431009Y-89785713D01*
X129431009Y-89785713D02*
X129383390Y-89738094D01*
X129383390Y-89738094D02*
X129335771Y-89642856D01*
X129335771Y-89642856D02*
X129335771Y-89404761D01*
X129335771Y-89404761D02*
X129383390Y-89309523D01*
X129383390Y-89309523D02*
X129431009Y-89261904D01*
X129431009Y-89261904D02*
X129526247Y-89214285D01*
X129526247Y-89214285D02*
X129764342Y-89214285D01*
X129764342Y-89214285D02*
X129859580Y-89261904D01*
X129859580Y-89261904D02*
X129907200Y-89309523D01*
X129907200Y-89309523D02*
X129954819Y-89404761D01*
X129954819Y-89404761D02*
X129954819Y-89642856D01*
X129954819Y-89642856D02*
X129907200Y-89738094D01*
X129907200Y-89738094D02*
X129859580Y-89785713D01*
X169224819Y-78325713D02*
X168224819Y-78325713D01*
X169224819Y-77754285D02*
X168653390Y-78182856D01*
X168224819Y-77754285D02*
X168796247Y-78325713D01*
X168748628Y-77135237D02*
X169224819Y-77135237D01*
X168224819Y-77468570D02*
X168748628Y-77135237D01*
X168748628Y-77135237D02*
X168224819Y-76801904D01*
X168843866Y-76468570D02*
X168843866Y-75706666D01*
X169224819Y-74706666D02*
X169224819Y-75278094D01*
X169224819Y-74992380D02*
X168224819Y-74992380D01*
X168224819Y-74992380D02*
X168367676Y-75087618D01*
X168367676Y-75087618D02*
X168462914Y-75182856D01*
X168462914Y-75182856D02*
X168510533Y-75278094D01*
D14*
%TO.C,J1*%
X126610000Y-96130000D02*
X127940000Y-96130000D01*
X126610000Y-97460000D02*
X126610000Y-96130000D01*
X129210000Y-96130000D02*
X147050000Y-96130000D01*
X129210000Y-98790000D02*
X129210000Y-96130000D01*
X129210000Y-98790000D02*
X147050000Y-98790000D01*
X147050000Y-98790000D02*
X147050000Y-96130000D01*
%TO.C,J3*%
X149470000Y-96130000D02*
X150800000Y-96130000D01*
X149470000Y-97460000D02*
X149470000Y-96130000D01*
X152070000Y-96130000D02*
X164830000Y-96130000D01*
X152070000Y-98790000D02*
X152070000Y-96130000D01*
X152070000Y-98790000D02*
X164830000Y-98790000D01*
X164830000Y-98790000D02*
X164830000Y-96130000D01*
%TO.C,J2*%
X117466000Y-47870000D02*
X118796000Y-47870000D01*
X117466000Y-49200000D02*
X117466000Y-47870000D01*
X120066000Y-47870000D02*
X142986000Y-47870000D01*
X120066000Y-50530000D02*
X120066000Y-47870000D01*
X120066000Y-50530000D02*
X142986000Y-50530000D01*
X142986000Y-50530000D02*
X142986000Y-47870000D01*
%TO.C,J4*%
X144390000Y-47870000D02*
X145720000Y-47870000D01*
X144390000Y-49200000D02*
X144390000Y-47870000D01*
X146990000Y-47870000D02*
X164830000Y-47870000D01*
X146990000Y-50530000D02*
X146990000Y-47870000D01*
X146990000Y-50530000D02*
X164830000Y-50530000D01*
X164830000Y-50530000D02*
X164830000Y-47870000D01*
%TO.C,R2*%
X113630000Y-66810000D02*
X113630000Y-73350000D01*
X113630000Y-73350000D02*
X116370000Y-73350000D01*
X115000000Y-66040000D02*
X115000000Y-66810000D01*
X115000000Y-74120000D02*
X115000000Y-73350000D01*
X116370000Y-66810000D02*
X113630000Y-66810000D01*
X116370000Y-73350000D02*
X116370000Y-66810000D01*
%TO.C,R4*%
X127630000Y-75650000D02*
X127630000Y-82190000D01*
X127630000Y-82190000D02*
X130370000Y-82190000D01*
X129000000Y-74880000D02*
X129000000Y-75650000D01*
X129000000Y-82960000D02*
X129000000Y-82190000D01*
X130370000Y-75650000D02*
X127630000Y-75650000D01*
X130370000Y-82190000D02*
X130370000Y-75650000D01*
%TO.C,R3*%
X111960000Y-78500000D02*
X112730000Y-78500000D01*
X112730000Y-77130000D02*
X112730000Y-79870000D01*
X112730000Y-79870000D02*
X119270000Y-79870000D01*
X119270000Y-77130000D02*
X112730000Y-77130000D01*
X119270000Y-79870000D02*
X119270000Y-77130000D01*
X120040000Y-78500000D02*
X119270000Y-78500000D01*
%TO.C,U1*%
X140380000Y-61500000D02*
X151000000Y-61500000D01*
X140380000Y-64500000D02*
X140380000Y-61500000D01*
X143150000Y-61500000D02*
X143150000Y-64500000D01*
X151000000Y-61500000D02*
X151000000Y-64500000D01*
X151000000Y-64500000D02*
X140380000Y-64500000D01*
D10*
X131590000Y-61300000D02*
X159590000Y-61300000D01*
X159590000Y-89300000D01*
X131590000Y-89300000D01*
X131590000Y-61300000D01*
D14*
%TO.C,C2*%
X122630000Y-87380000D02*
X122630000Y-94620000D01*
X127370000Y-87380000D02*
X122630000Y-87380000D01*
X127370000Y-87380000D02*
X127370000Y-94620000D01*
X127370000Y-94620000D02*
X122630000Y-94620000D01*
%TO.C,R1*%
X124080000Y-77890000D02*
X124080000Y-81730000D01*
X124080000Y-81730000D02*
X125920000Y-81730000D01*
X125000000Y-76940000D02*
X125000000Y-77890000D01*
X125000000Y-82680000D02*
X125000000Y-81730000D01*
X125920000Y-77890000D02*
X124080000Y-77890000D01*
X125920000Y-81730000D02*
X125920000Y-77890000D01*
%TO.C,C4*%
X164880000Y-85130000D02*
X164945000Y-85130000D01*
X164880000Y-88370000D02*
X164880000Y-85130000D01*
X164880000Y-88370000D02*
X164945000Y-88370000D01*
X167055000Y-85130000D02*
X167120000Y-85130000D01*
X167055000Y-88370000D02*
X167120000Y-88370000D01*
X167120000Y-88370000D02*
X167120000Y-85130000D01*
%TO.C,HC-1*%
X139840000Y-52730000D02*
X155540000Y-52730000D01*
X139840000Y-56270000D02*
X139840000Y-52730000D01*
X152770000Y-56270000D02*
X152770000Y-52730000D01*
X155540000Y-52730000D02*
X155540000Y-56270000D01*
X155540000Y-56270000D02*
X139840000Y-56270000D01*
D15*
%TO.C,U3*%
X114983000Y-54627000D02*
X114983000Y-61993000D01*
X114983000Y-61993000D02*
X115305439Y-61993000D01*
X115305439Y-54627000D02*
X114983000Y-54627000D01*
X117454561Y-61993000D02*
X117845439Y-61993000D01*
X117845439Y-54627000D02*
X117454561Y-54627000D01*
X119994561Y-61993000D02*
X120385439Y-61993000D01*
X120385439Y-54627000D02*
X119994561Y-54627000D01*
X122534561Y-61993000D02*
X122925439Y-61993000D01*
X122917960Y-54627000D02*
X122534561Y-54627000D01*
X125074561Y-61993000D02*
X125397000Y-61993000D01*
X125397000Y-54627000D02*
X125082040Y-54627000D01*
X125397000Y-61993000D02*
X125397000Y-54627000D01*
D14*
%TO.C,J5*%
X106170000Y-79950000D02*
X106170000Y-82550000D01*
X106170000Y-79950000D02*
X108830000Y-79950000D01*
X106170000Y-82550000D02*
X108830000Y-82550000D01*
X107500000Y-77350000D02*
X108830000Y-77350000D01*
X108830000Y-77350000D02*
X108830000Y-78680000D01*
X108830000Y-79950000D02*
X108830000Y-82550000D01*
%TO.C,C1*%
X107880000Y-68880000D02*
X107880000Y-72120000D01*
X107945000Y-68880000D02*
X107880000Y-68880000D01*
X107945000Y-72120000D02*
X107880000Y-72120000D01*
X110120000Y-68880000D02*
X110055000Y-68880000D01*
X110120000Y-68880000D02*
X110120000Y-72120000D01*
X110120000Y-72120000D02*
X110055000Y-72120000D01*
%TO.C,U2*%
X114040000Y-81670000D02*
X114040000Y-91950000D01*
X114040000Y-91950000D02*
X115690000Y-91950000D01*
X117690000Y-91950000D02*
X119340000Y-91950000D01*
X119340000Y-81670000D02*
X114040000Y-81670000D01*
X119340000Y-91950000D02*
X119340000Y-81670000D01*
X115690000Y-91950000D02*
G75*
G02*
X117690000Y-91950000I1000000J0D01*
G01*
%TO.C,C3*%
X132630000Y-91380000D02*
X132630000Y-91445000D01*
X132630000Y-91380000D02*
X135870000Y-91380000D01*
X132630000Y-93555000D02*
X132630000Y-93620000D01*
X132630000Y-93620000D02*
X135870000Y-93620000D01*
X135870000Y-91380000D02*
X135870000Y-91445000D01*
X135870000Y-93555000D02*
X135870000Y-93620000D01*
%TO.C,R5*%
X128580000Y-88080000D02*
X128580000Y-91920000D01*
X128580000Y-91920000D02*
X130420000Y-91920000D01*
X129500000Y-87130000D02*
X129500000Y-88080000D01*
X129500000Y-92870000D02*
X129500000Y-91920000D01*
X130420000Y-88080000D02*
X128580000Y-88080000D01*
X130420000Y-91920000D02*
X130420000Y-88080000D01*
%TO.C,KY-1*%
X164230000Y-69960000D02*
X167770000Y-69960000D01*
X164230000Y-80350000D02*
X167770000Y-80350000D01*
X164230000Y-83120000D02*
X164230000Y-69960000D01*
X167770000Y-69960000D02*
X167770000Y-83120000D01*
X167770000Y-83120000D02*
X164230000Y-83120000D01*
%TD*%
M02*
