%TF.GenerationSoftware,KiCad,Pcbnew,8.0.3*%
%TF.CreationDate,2025-03-25T09:42:14+01:00*%
%TF.ProjectId,capteur graphite CouBeh,63617074-6575-4722-9067-726170686974,rev?*%
%TF.SameCoordinates,Original*%
%TF.FileFunction,Copper,L2,Bot*%
%TF.FilePolarity,Positive*%
%FSLAX46Y46*%
G04 Gerber Fmt 4.6, Leading zero omitted, Abs format (unit mm)*
G04 Created by KiCad (PCBNEW 8.0.3) date 2025-03-25 09:42:14*
%MOMM*%
%LPD*%
G01*
G04 APERTURE LIST*
%ADD10C,0.100000*%
%ADD11C,0.150000*%
%ADD12C,0.300000*%
%ADD13C,0.400000*%
%TA.AperFunction,ComponentPad*%
%ADD14R,1.700000X1.700000*%
%TD*%
%TA.AperFunction,ComponentPad*%
%ADD15O,1.700000X1.700000*%
%TD*%
%TA.AperFunction,ComponentPad*%
%ADD16C,1.600000*%
%TD*%
%TA.AperFunction,ComponentPad*%
%ADD17O,1.600000X1.600000*%
%TD*%
%TA.AperFunction,ComponentPad*%
%ADD18R,2.000000X2.000000*%
%TD*%
%TA.AperFunction,ComponentPad*%
%ADD19C,2.000000*%
%TD*%
%TA.AperFunction,ComponentPad*%
%ADD20C,1.400000*%
%TD*%
%TA.AperFunction,ComponentPad*%
%ADD21O,1.400000X1.400000*%
%TD*%
%TA.AperFunction,ComponentPad*%
%ADD22R,2.000000X2.540000*%
%TD*%
%TA.AperFunction,ComponentPad*%
%ADD23O,2.000000X2.540000*%
%TD*%
%TA.AperFunction,ComponentPad*%
%ADD24R,1.498600X1.498600*%
%TD*%
%TA.AperFunction,ComponentPad*%
%ADD25C,1.498600*%
%TD*%
%TA.AperFunction,ComponentPad*%
%ADD26R,1.600000X1.600000*%
%TD*%
%TA.AperFunction,ComponentPad*%
%ADD27R,2.540000X2.000000*%
%TD*%
%TA.AperFunction,ComponentPad*%
%ADD28O,2.540000X2.000000*%
%TD*%
%TA.AperFunction,ViaPad*%
%ADD29C,1.800000*%
%TD*%
%TA.AperFunction,Conductor*%
%ADD30C,0.600000*%
%TD*%
%TA.AperFunction,Conductor*%
%ADD31C,1.000000*%
%TD*%
G04 APERTURE END LIST*
D10*
D11*
X177002200Y-166007200D02*
X285002200Y-166007200D01*
X285002200Y-198007200D01*
X177002200Y-198007200D01*
X177002200Y-166007200D01*
D10*
D11*
X10000000Y-10000000D02*
X287002200Y-10000000D01*
X287002200Y-200007200D01*
X10000000Y-200007200D01*
X10000000Y-10000000D01*
D10*
D11*
X12000000Y-12000000D02*
X285002200Y-12000000D01*
X285002200Y-198007200D01*
X12000000Y-198007200D01*
X12000000Y-12000000D01*
D10*
D11*
X60000000Y-12000000D02*
X60000000Y-10000000D01*
D10*
D11*
X110000000Y-12000000D02*
X110000000Y-10000000D01*
D10*
D11*
X160000000Y-12000000D02*
X160000000Y-10000000D01*
D10*
D11*
X210000000Y-12000000D02*
X210000000Y-10000000D01*
D10*
D11*
X260000000Y-12000000D02*
X260000000Y-10000000D01*
D10*
D11*
X36089160Y-11593604D02*
X35346303Y-11593604D01*
X35717731Y-11593604D02*
X35717731Y-10293604D01*
X35717731Y-10293604D02*
X35593922Y-10479319D01*
X35593922Y-10479319D02*
X35470112Y-10603128D01*
X35470112Y-10603128D02*
X35346303Y-10665033D01*
D10*
D11*
X85346303Y-10417414D02*
X85408207Y-10355509D01*
X85408207Y-10355509D02*
X85532017Y-10293604D01*
X85532017Y-10293604D02*
X85841541Y-10293604D01*
X85841541Y-10293604D02*
X85965350Y-10355509D01*
X85965350Y-10355509D02*
X86027255Y-10417414D01*
X86027255Y-10417414D02*
X86089160Y-10541223D01*
X86089160Y-10541223D02*
X86089160Y-10665033D01*
X86089160Y-10665033D02*
X86027255Y-10850747D01*
X86027255Y-10850747D02*
X85284398Y-11593604D01*
X85284398Y-11593604D02*
X86089160Y-11593604D01*
D10*
D11*
X135284398Y-10293604D02*
X136089160Y-10293604D01*
X136089160Y-10293604D02*
X135655826Y-10788842D01*
X135655826Y-10788842D02*
X135841541Y-10788842D01*
X135841541Y-10788842D02*
X135965350Y-10850747D01*
X135965350Y-10850747D02*
X136027255Y-10912652D01*
X136027255Y-10912652D02*
X136089160Y-11036461D01*
X136089160Y-11036461D02*
X136089160Y-11345985D01*
X136089160Y-11345985D02*
X136027255Y-11469795D01*
X136027255Y-11469795D02*
X135965350Y-11531700D01*
X135965350Y-11531700D02*
X135841541Y-11593604D01*
X135841541Y-11593604D02*
X135470112Y-11593604D01*
X135470112Y-11593604D02*
X135346303Y-11531700D01*
X135346303Y-11531700D02*
X135284398Y-11469795D01*
D10*
D11*
X185965350Y-10726938D02*
X185965350Y-11593604D01*
X185655826Y-10231700D02*
X185346303Y-11160271D01*
X185346303Y-11160271D02*
X186151064Y-11160271D01*
D10*
D11*
X236027255Y-10293604D02*
X235408207Y-10293604D01*
X235408207Y-10293604D02*
X235346303Y-10912652D01*
X235346303Y-10912652D02*
X235408207Y-10850747D01*
X235408207Y-10850747D02*
X235532017Y-10788842D01*
X235532017Y-10788842D02*
X235841541Y-10788842D01*
X235841541Y-10788842D02*
X235965350Y-10850747D01*
X235965350Y-10850747D02*
X236027255Y-10912652D01*
X236027255Y-10912652D02*
X236089160Y-11036461D01*
X236089160Y-11036461D02*
X236089160Y-11345985D01*
X236089160Y-11345985D02*
X236027255Y-11469795D01*
X236027255Y-11469795D02*
X235965350Y-11531700D01*
X235965350Y-11531700D02*
X235841541Y-11593604D01*
X235841541Y-11593604D02*
X235532017Y-11593604D01*
X235532017Y-11593604D02*
X235408207Y-11531700D01*
X235408207Y-11531700D02*
X235346303Y-11469795D01*
D10*
D11*
X285965350Y-10293604D02*
X285717731Y-10293604D01*
X285717731Y-10293604D02*
X285593922Y-10355509D01*
X285593922Y-10355509D02*
X285532017Y-10417414D01*
X285532017Y-10417414D02*
X285408207Y-10603128D01*
X285408207Y-10603128D02*
X285346303Y-10850747D01*
X285346303Y-10850747D02*
X285346303Y-11345985D01*
X285346303Y-11345985D02*
X285408207Y-11469795D01*
X285408207Y-11469795D02*
X285470112Y-11531700D01*
X285470112Y-11531700D02*
X285593922Y-11593604D01*
X285593922Y-11593604D02*
X285841541Y-11593604D01*
X285841541Y-11593604D02*
X285965350Y-11531700D01*
X285965350Y-11531700D02*
X286027255Y-11469795D01*
X286027255Y-11469795D02*
X286089160Y-11345985D01*
X286089160Y-11345985D02*
X286089160Y-11036461D01*
X286089160Y-11036461D02*
X286027255Y-10912652D01*
X286027255Y-10912652D02*
X285965350Y-10850747D01*
X285965350Y-10850747D02*
X285841541Y-10788842D01*
X285841541Y-10788842D02*
X285593922Y-10788842D01*
X285593922Y-10788842D02*
X285470112Y-10850747D01*
X285470112Y-10850747D02*
X285408207Y-10912652D01*
X285408207Y-10912652D02*
X285346303Y-11036461D01*
D10*
D11*
X60000000Y-198007200D02*
X60000000Y-200007200D01*
D10*
D11*
X110000000Y-198007200D02*
X110000000Y-200007200D01*
D10*
D11*
X160000000Y-198007200D02*
X160000000Y-200007200D01*
D10*
D11*
X210000000Y-198007200D02*
X210000000Y-200007200D01*
D10*
D11*
X260000000Y-198007200D02*
X260000000Y-200007200D01*
D10*
D11*
X36089160Y-199600804D02*
X35346303Y-199600804D01*
X35717731Y-199600804D02*
X35717731Y-198300804D01*
X35717731Y-198300804D02*
X35593922Y-198486519D01*
X35593922Y-198486519D02*
X35470112Y-198610328D01*
X35470112Y-198610328D02*
X35346303Y-198672233D01*
D10*
D11*
X85346303Y-198424614D02*
X85408207Y-198362709D01*
X85408207Y-198362709D02*
X85532017Y-198300804D01*
X85532017Y-198300804D02*
X85841541Y-198300804D01*
X85841541Y-198300804D02*
X85965350Y-198362709D01*
X85965350Y-198362709D02*
X86027255Y-198424614D01*
X86027255Y-198424614D02*
X86089160Y-198548423D01*
X86089160Y-198548423D02*
X86089160Y-198672233D01*
X86089160Y-198672233D02*
X86027255Y-198857947D01*
X86027255Y-198857947D02*
X85284398Y-199600804D01*
X85284398Y-199600804D02*
X86089160Y-199600804D01*
D10*
D11*
X135284398Y-198300804D02*
X136089160Y-198300804D01*
X136089160Y-198300804D02*
X135655826Y-198796042D01*
X135655826Y-198796042D02*
X135841541Y-198796042D01*
X135841541Y-198796042D02*
X135965350Y-198857947D01*
X135965350Y-198857947D02*
X136027255Y-198919852D01*
X136027255Y-198919852D02*
X136089160Y-199043661D01*
X136089160Y-199043661D02*
X136089160Y-199353185D01*
X136089160Y-199353185D02*
X136027255Y-199476995D01*
X136027255Y-199476995D02*
X135965350Y-199538900D01*
X135965350Y-199538900D02*
X135841541Y-199600804D01*
X135841541Y-199600804D02*
X135470112Y-199600804D01*
X135470112Y-199600804D02*
X135346303Y-199538900D01*
X135346303Y-199538900D02*
X135284398Y-199476995D01*
D10*
D11*
X185965350Y-198734138D02*
X185965350Y-199600804D01*
X185655826Y-198238900D02*
X185346303Y-199167471D01*
X185346303Y-199167471D02*
X186151064Y-199167471D01*
D10*
D11*
X236027255Y-198300804D02*
X235408207Y-198300804D01*
X235408207Y-198300804D02*
X235346303Y-198919852D01*
X235346303Y-198919852D02*
X235408207Y-198857947D01*
X235408207Y-198857947D02*
X235532017Y-198796042D01*
X235532017Y-198796042D02*
X235841541Y-198796042D01*
X235841541Y-198796042D02*
X235965350Y-198857947D01*
X235965350Y-198857947D02*
X236027255Y-198919852D01*
X236027255Y-198919852D02*
X236089160Y-199043661D01*
X236089160Y-199043661D02*
X236089160Y-199353185D01*
X236089160Y-199353185D02*
X236027255Y-199476995D01*
X236027255Y-199476995D02*
X235965350Y-199538900D01*
X235965350Y-199538900D02*
X235841541Y-199600804D01*
X235841541Y-199600804D02*
X235532017Y-199600804D01*
X235532017Y-199600804D02*
X235408207Y-199538900D01*
X235408207Y-199538900D02*
X235346303Y-199476995D01*
D10*
D11*
X285965350Y-198300804D02*
X285717731Y-198300804D01*
X285717731Y-198300804D02*
X285593922Y-198362709D01*
X285593922Y-198362709D02*
X285532017Y-198424614D01*
X285532017Y-198424614D02*
X285408207Y-198610328D01*
X285408207Y-198610328D02*
X285346303Y-198857947D01*
X285346303Y-198857947D02*
X285346303Y-199353185D01*
X285346303Y-199353185D02*
X285408207Y-199476995D01*
X285408207Y-199476995D02*
X285470112Y-199538900D01*
X285470112Y-199538900D02*
X285593922Y-199600804D01*
X285593922Y-199600804D02*
X285841541Y-199600804D01*
X285841541Y-199600804D02*
X285965350Y-199538900D01*
X285965350Y-199538900D02*
X286027255Y-199476995D01*
X286027255Y-199476995D02*
X286089160Y-199353185D01*
X286089160Y-199353185D02*
X286089160Y-199043661D01*
X286089160Y-199043661D02*
X286027255Y-198919852D01*
X286027255Y-198919852D02*
X285965350Y-198857947D01*
X285965350Y-198857947D02*
X285841541Y-198796042D01*
X285841541Y-198796042D02*
X285593922Y-198796042D01*
X285593922Y-198796042D02*
X285470112Y-198857947D01*
X285470112Y-198857947D02*
X285408207Y-198919852D01*
X285408207Y-198919852D02*
X285346303Y-199043661D01*
D10*
D11*
X10000000Y-60000000D02*
X12000000Y-60000000D01*
D10*
D11*
X10000000Y-110000000D02*
X12000000Y-110000000D01*
D10*
D11*
X10000000Y-160000000D02*
X12000000Y-160000000D01*
D10*
D11*
X10690476Y-35222176D02*
X11309523Y-35222176D01*
X10566666Y-35593604D02*
X10999999Y-34293604D01*
X10999999Y-34293604D02*
X11433333Y-35593604D01*
D10*
D11*
X11092857Y-84912652D02*
X11278571Y-84974557D01*
X11278571Y-84974557D02*
X11340476Y-85036461D01*
X11340476Y-85036461D02*
X11402380Y-85160271D01*
X11402380Y-85160271D02*
X11402380Y-85345985D01*
X11402380Y-85345985D02*
X11340476Y-85469795D01*
X11340476Y-85469795D02*
X11278571Y-85531700D01*
X11278571Y-85531700D02*
X11154761Y-85593604D01*
X11154761Y-85593604D02*
X10659523Y-85593604D01*
X10659523Y-85593604D02*
X10659523Y-84293604D01*
X10659523Y-84293604D02*
X11092857Y-84293604D01*
X11092857Y-84293604D02*
X11216666Y-84355509D01*
X11216666Y-84355509D02*
X11278571Y-84417414D01*
X11278571Y-84417414D02*
X11340476Y-84541223D01*
X11340476Y-84541223D02*
X11340476Y-84665033D01*
X11340476Y-84665033D02*
X11278571Y-84788842D01*
X11278571Y-84788842D02*
X11216666Y-84850747D01*
X11216666Y-84850747D02*
X11092857Y-84912652D01*
X11092857Y-84912652D02*
X10659523Y-84912652D01*
D10*
D11*
X11402380Y-135469795D02*
X11340476Y-135531700D01*
X11340476Y-135531700D02*
X11154761Y-135593604D01*
X11154761Y-135593604D02*
X11030952Y-135593604D01*
X11030952Y-135593604D02*
X10845238Y-135531700D01*
X10845238Y-135531700D02*
X10721428Y-135407890D01*
X10721428Y-135407890D02*
X10659523Y-135284080D01*
X10659523Y-135284080D02*
X10597619Y-135036461D01*
X10597619Y-135036461D02*
X10597619Y-134850747D01*
X10597619Y-134850747D02*
X10659523Y-134603128D01*
X10659523Y-134603128D02*
X10721428Y-134479319D01*
X10721428Y-134479319D02*
X10845238Y-134355509D01*
X10845238Y-134355509D02*
X11030952Y-134293604D01*
X11030952Y-134293604D02*
X11154761Y-134293604D01*
X11154761Y-134293604D02*
X11340476Y-134355509D01*
X11340476Y-134355509D02*
X11402380Y-134417414D01*
D10*
D11*
X10659523Y-185593604D02*
X10659523Y-184293604D01*
X10659523Y-184293604D02*
X10969047Y-184293604D01*
X10969047Y-184293604D02*
X11154761Y-184355509D01*
X11154761Y-184355509D02*
X11278571Y-184479319D01*
X11278571Y-184479319D02*
X11340476Y-184603128D01*
X11340476Y-184603128D02*
X11402380Y-184850747D01*
X11402380Y-184850747D02*
X11402380Y-185036461D01*
X11402380Y-185036461D02*
X11340476Y-185284080D01*
X11340476Y-185284080D02*
X11278571Y-185407890D01*
X11278571Y-185407890D02*
X11154761Y-185531700D01*
X11154761Y-185531700D02*
X10969047Y-185593604D01*
X10969047Y-185593604D02*
X10659523Y-185593604D01*
D10*
D11*
X287002200Y-60000000D02*
X285002200Y-60000000D01*
D10*
D11*
X287002200Y-110000000D02*
X285002200Y-110000000D01*
D10*
D11*
X287002200Y-160000000D02*
X285002200Y-160000000D01*
D10*
D11*
X285692676Y-35222176D02*
X286311723Y-35222176D01*
X285568866Y-35593604D02*
X286002199Y-34293604D01*
X286002199Y-34293604D02*
X286435533Y-35593604D01*
D10*
D11*
X286095057Y-84912652D02*
X286280771Y-84974557D01*
X286280771Y-84974557D02*
X286342676Y-85036461D01*
X286342676Y-85036461D02*
X286404580Y-85160271D01*
X286404580Y-85160271D02*
X286404580Y-85345985D01*
X286404580Y-85345985D02*
X286342676Y-85469795D01*
X286342676Y-85469795D02*
X286280771Y-85531700D01*
X286280771Y-85531700D02*
X286156961Y-85593604D01*
X286156961Y-85593604D02*
X285661723Y-85593604D01*
X285661723Y-85593604D02*
X285661723Y-84293604D01*
X285661723Y-84293604D02*
X286095057Y-84293604D01*
X286095057Y-84293604D02*
X286218866Y-84355509D01*
X286218866Y-84355509D02*
X286280771Y-84417414D01*
X286280771Y-84417414D02*
X286342676Y-84541223D01*
X286342676Y-84541223D02*
X286342676Y-84665033D01*
X286342676Y-84665033D02*
X286280771Y-84788842D01*
X286280771Y-84788842D02*
X286218866Y-84850747D01*
X286218866Y-84850747D02*
X286095057Y-84912652D01*
X286095057Y-84912652D02*
X285661723Y-84912652D01*
D10*
D11*
X286404580Y-135469795D02*
X286342676Y-135531700D01*
X286342676Y-135531700D02*
X286156961Y-135593604D01*
X286156961Y-135593604D02*
X286033152Y-135593604D01*
X286033152Y-135593604D02*
X285847438Y-135531700D01*
X285847438Y-135531700D02*
X285723628Y-135407890D01*
X285723628Y-135407890D02*
X285661723Y-135284080D01*
X285661723Y-135284080D02*
X285599819Y-135036461D01*
X285599819Y-135036461D02*
X285599819Y-134850747D01*
X285599819Y-134850747D02*
X285661723Y-134603128D01*
X285661723Y-134603128D02*
X285723628Y-134479319D01*
X285723628Y-134479319D02*
X285847438Y-134355509D01*
X285847438Y-134355509D02*
X286033152Y-134293604D01*
X286033152Y-134293604D02*
X286156961Y-134293604D01*
X286156961Y-134293604D02*
X286342676Y-134355509D01*
X286342676Y-134355509D02*
X286404580Y-134417414D01*
D10*
D11*
X285661723Y-185593604D02*
X285661723Y-184293604D01*
X285661723Y-184293604D02*
X285971247Y-184293604D01*
X285971247Y-184293604D02*
X286156961Y-184355509D01*
X286156961Y-184355509D02*
X286280771Y-184479319D01*
X286280771Y-184479319D02*
X286342676Y-184603128D01*
X286342676Y-184603128D02*
X286404580Y-184850747D01*
X286404580Y-184850747D02*
X286404580Y-185036461D01*
X286404580Y-185036461D02*
X286342676Y-185284080D01*
X286342676Y-185284080D02*
X286280771Y-185407890D01*
X286280771Y-185407890D02*
X286156961Y-185531700D01*
X286156961Y-185531700D02*
X285971247Y-185593604D01*
X285971247Y-185593604D02*
X285661723Y-185593604D01*
D10*
D11*
X200458026Y-193793328D02*
X200458026Y-192293328D01*
X200458026Y-192293328D02*
X200815169Y-192293328D01*
X200815169Y-192293328D02*
X201029455Y-192364757D01*
X201029455Y-192364757D02*
X201172312Y-192507614D01*
X201172312Y-192507614D02*
X201243741Y-192650471D01*
X201243741Y-192650471D02*
X201315169Y-192936185D01*
X201315169Y-192936185D02*
X201315169Y-193150471D01*
X201315169Y-193150471D02*
X201243741Y-193436185D01*
X201243741Y-193436185D02*
X201172312Y-193579042D01*
X201172312Y-193579042D02*
X201029455Y-193721900D01*
X201029455Y-193721900D02*
X200815169Y-193793328D01*
X200815169Y-193793328D02*
X200458026Y-193793328D01*
X202600884Y-193793328D02*
X202600884Y-193007614D01*
X202600884Y-193007614D02*
X202529455Y-192864757D01*
X202529455Y-192864757D02*
X202386598Y-192793328D01*
X202386598Y-192793328D02*
X202100884Y-192793328D01*
X202100884Y-192793328D02*
X201958026Y-192864757D01*
X202600884Y-193721900D02*
X202458026Y-193793328D01*
X202458026Y-193793328D02*
X202100884Y-193793328D01*
X202100884Y-193793328D02*
X201958026Y-193721900D01*
X201958026Y-193721900D02*
X201886598Y-193579042D01*
X201886598Y-193579042D02*
X201886598Y-193436185D01*
X201886598Y-193436185D02*
X201958026Y-193293328D01*
X201958026Y-193293328D02*
X202100884Y-193221900D01*
X202100884Y-193221900D02*
X202458026Y-193221900D01*
X202458026Y-193221900D02*
X202600884Y-193150471D01*
X203100884Y-192793328D02*
X203672312Y-192793328D01*
X203315169Y-192293328D02*
X203315169Y-193579042D01*
X203315169Y-193579042D02*
X203386598Y-193721900D01*
X203386598Y-193721900D02*
X203529455Y-193793328D01*
X203529455Y-193793328D02*
X203672312Y-193793328D01*
X204743741Y-193721900D02*
X204600884Y-193793328D01*
X204600884Y-193793328D02*
X204315170Y-193793328D01*
X204315170Y-193793328D02*
X204172312Y-193721900D01*
X204172312Y-193721900D02*
X204100884Y-193579042D01*
X204100884Y-193579042D02*
X204100884Y-193007614D01*
X204100884Y-193007614D02*
X204172312Y-192864757D01*
X204172312Y-192864757D02*
X204315170Y-192793328D01*
X204315170Y-192793328D02*
X204600884Y-192793328D01*
X204600884Y-192793328D02*
X204743741Y-192864757D01*
X204743741Y-192864757D02*
X204815170Y-193007614D01*
X204815170Y-193007614D02*
X204815170Y-193150471D01*
X204815170Y-193150471D02*
X204100884Y-193293328D01*
X205458026Y-193650471D02*
X205529455Y-193721900D01*
X205529455Y-193721900D02*
X205458026Y-193793328D01*
X205458026Y-193793328D02*
X205386598Y-193721900D01*
X205386598Y-193721900D02*
X205458026Y-193650471D01*
X205458026Y-193650471D02*
X205458026Y-193793328D01*
X205458026Y-192864757D02*
X205529455Y-192936185D01*
X205529455Y-192936185D02*
X205458026Y-193007614D01*
X205458026Y-193007614D02*
X205386598Y-192936185D01*
X205386598Y-192936185D02*
X205458026Y-192864757D01*
X205458026Y-192864757D02*
X205458026Y-193007614D01*
X207315169Y-193793328D02*
X207315169Y-192793328D01*
X207315169Y-192936185D02*
X207386598Y-192864757D01*
X207386598Y-192864757D02*
X207529455Y-192793328D01*
X207529455Y-192793328D02*
X207743741Y-192793328D01*
X207743741Y-192793328D02*
X207886598Y-192864757D01*
X207886598Y-192864757D02*
X207958027Y-193007614D01*
X207958027Y-193007614D02*
X207958027Y-193793328D01*
X207958027Y-193007614D02*
X208029455Y-192864757D01*
X208029455Y-192864757D02*
X208172312Y-192793328D01*
X208172312Y-192793328D02*
X208386598Y-192793328D01*
X208386598Y-192793328D02*
X208529455Y-192864757D01*
X208529455Y-192864757D02*
X208600884Y-193007614D01*
X208600884Y-193007614D02*
X208600884Y-193793328D01*
X209958027Y-193793328D02*
X209958027Y-193007614D01*
X209958027Y-193007614D02*
X209886598Y-192864757D01*
X209886598Y-192864757D02*
X209743741Y-192793328D01*
X209743741Y-192793328D02*
X209458027Y-192793328D01*
X209458027Y-192793328D02*
X209315169Y-192864757D01*
X209958027Y-193721900D02*
X209815169Y-193793328D01*
X209815169Y-193793328D02*
X209458027Y-193793328D01*
X209458027Y-193793328D02*
X209315169Y-193721900D01*
X209315169Y-193721900D02*
X209243741Y-193579042D01*
X209243741Y-193579042D02*
X209243741Y-193436185D01*
X209243741Y-193436185D02*
X209315169Y-193293328D01*
X209315169Y-193293328D02*
X209458027Y-193221900D01*
X209458027Y-193221900D02*
X209815169Y-193221900D01*
X209815169Y-193221900D02*
X209958027Y-193150471D01*
X210672312Y-193793328D02*
X210672312Y-192793328D01*
X210672312Y-193079042D02*
X210743741Y-192936185D01*
X210743741Y-192936185D02*
X210815170Y-192864757D01*
X210815170Y-192864757D02*
X210958027Y-192793328D01*
X210958027Y-192793328D02*
X211100884Y-192793328D01*
X211600883Y-193650471D02*
X211672312Y-193721900D01*
X211672312Y-193721900D02*
X211600883Y-193793328D01*
X211600883Y-193793328D02*
X211529455Y-193721900D01*
X211529455Y-193721900D02*
X211600883Y-193650471D01*
X211600883Y-193650471D02*
X211600883Y-193793328D01*
X213315169Y-192293328D02*
X214243741Y-192293328D01*
X214243741Y-192293328D02*
X213743741Y-192864757D01*
X213743741Y-192864757D02*
X213958026Y-192864757D01*
X213958026Y-192864757D02*
X214100884Y-192936185D01*
X214100884Y-192936185D02*
X214172312Y-193007614D01*
X214172312Y-193007614D02*
X214243741Y-193150471D01*
X214243741Y-193150471D02*
X214243741Y-193507614D01*
X214243741Y-193507614D02*
X214172312Y-193650471D01*
X214172312Y-193650471D02*
X214100884Y-193721900D01*
X214100884Y-193721900D02*
X213958026Y-193793328D01*
X213958026Y-193793328D02*
X213529455Y-193793328D01*
X213529455Y-193793328D02*
X213386598Y-193721900D01*
X213386598Y-193721900D02*
X213315169Y-193650471D01*
X215672312Y-193793328D02*
X214815169Y-193793328D01*
X215243740Y-193793328D02*
X215243740Y-192293328D01*
X215243740Y-192293328D02*
X215100883Y-192507614D01*
X215100883Y-192507614D02*
X214958026Y-192650471D01*
X214958026Y-192650471D02*
X214815169Y-192721900D01*
X217458025Y-193793328D02*
X217458025Y-192793328D01*
X217458025Y-192936185D02*
X217529454Y-192864757D01*
X217529454Y-192864757D02*
X217672311Y-192793328D01*
X217672311Y-192793328D02*
X217886597Y-192793328D01*
X217886597Y-192793328D02*
X218029454Y-192864757D01*
X218029454Y-192864757D02*
X218100883Y-193007614D01*
X218100883Y-193007614D02*
X218100883Y-193793328D01*
X218100883Y-193007614D02*
X218172311Y-192864757D01*
X218172311Y-192864757D02*
X218315168Y-192793328D01*
X218315168Y-192793328D02*
X218529454Y-192793328D01*
X218529454Y-192793328D02*
X218672311Y-192864757D01*
X218672311Y-192864757D02*
X218743740Y-193007614D01*
X218743740Y-193007614D02*
X218743740Y-193793328D01*
X220100883Y-193793328D02*
X220100883Y-193007614D01*
X220100883Y-193007614D02*
X220029454Y-192864757D01*
X220029454Y-192864757D02*
X219886597Y-192793328D01*
X219886597Y-192793328D02*
X219600883Y-192793328D01*
X219600883Y-192793328D02*
X219458025Y-192864757D01*
X220100883Y-193721900D02*
X219958025Y-193793328D01*
X219958025Y-193793328D02*
X219600883Y-193793328D01*
X219600883Y-193793328D02*
X219458025Y-193721900D01*
X219458025Y-193721900D02*
X219386597Y-193579042D01*
X219386597Y-193579042D02*
X219386597Y-193436185D01*
X219386597Y-193436185D02*
X219458025Y-193293328D01*
X219458025Y-193293328D02*
X219600883Y-193221900D01*
X219600883Y-193221900D02*
X219958025Y-193221900D01*
X219958025Y-193221900D02*
X220100883Y-193150471D01*
X220815168Y-193793328D02*
X220815168Y-192793328D01*
X220815168Y-193079042D02*
X220886597Y-192936185D01*
X220886597Y-192936185D02*
X220958026Y-192864757D01*
X220958026Y-192864757D02*
X221100883Y-192793328D01*
X221100883Y-192793328D02*
X221243740Y-192793328D01*
X221672311Y-193721900D02*
X221815168Y-193793328D01*
X221815168Y-193793328D02*
X222100882Y-193793328D01*
X222100882Y-193793328D02*
X222243739Y-193721900D01*
X222243739Y-193721900D02*
X222315168Y-193579042D01*
X222315168Y-193579042D02*
X222315168Y-193507614D01*
X222315168Y-193507614D02*
X222243739Y-193364757D01*
X222243739Y-193364757D02*
X222100882Y-193293328D01*
X222100882Y-193293328D02*
X221886597Y-193293328D01*
X221886597Y-193293328D02*
X221743739Y-193221900D01*
X221743739Y-193221900D02*
X221672311Y-193079042D01*
X221672311Y-193079042D02*
X221672311Y-193007614D01*
X221672311Y-193007614D02*
X221743739Y-192864757D01*
X221743739Y-192864757D02*
X221886597Y-192793328D01*
X221886597Y-192793328D02*
X222100882Y-192793328D01*
X222100882Y-192793328D02*
X222243739Y-192864757D01*
X224029454Y-192436185D02*
X224100882Y-192364757D01*
X224100882Y-192364757D02*
X224243740Y-192293328D01*
X224243740Y-192293328D02*
X224600882Y-192293328D01*
X224600882Y-192293328D02*
X224743740Y-192364757D01*
X224743740Y-192364757D02*
X224815168Y-192436185D01*
X224815168Y-192436185D02*
X224886597Y-192579042D01*
X224886597Y-192579042D02*
X224886597Y-192721900D01*
X224886597Y-192721900D02*
X224815168Y-192936185D01*
X224815168Y-192936185D02*
X223958025Y-193793328D01*
X223958025Y-193793328D02*
X224886597Y-193793328D01*
X225815168Y-192293328D02*
X225958025Y-192293328D01*
X225958025Y-192293328D02*
X226100882Y-192364757D01*
X226100882Y-192364757D02*
X226172311Y-192436185D01*
X226172311Y-192436185D02*
X226243739Y-192579042D01*
X226243739Y-192579042D02*
X226315168Y-192864757D01*
X226315168Y-192864757D02*
X226315168Y-193221900D01*
X226315168Y-193221900D02*
X226243739Y-193507614D01*
X226243739Y-193507614D02*
X226172311Y-193650471D01*
X226172311Y-193650471D02*
X226100882Y-193721900D01*
X226100882Y-193721900D02*
X225958025Y-193793328D01*
X225958025Y-193793328D02*
X225815168Y-193793328D01*
X225815168Y-193793328D02*
X225672311Y-193721900D01*
X225672311Y-193721900D02*
X225600882Y-193650471D01*
X225600882Y-193650471D02*
X225529453Y-193507614D01*
X225529453Y-193507614D02*
X225458025Y-193221900D01*
X225458025Y-193221900D02*
X225458025Y-192864757D01*
X225458025Y-192864757D02*
X225529453Y-192579042D01*
X225529453Y-192579042D02*
X225600882Y-192436185D01*
X225600882Y-192436185D02*
X225672311Y-192364757D01*
X225672311Y-192364757D02*
X225815168Y-192293328D01*
X227743739Y-193793328D02*
X226886596Y-193793328D01*
X227315167Y-193793328D02*
X227315167Y-192293328D01*
X227315167Y-192293328D02*
X227172310Y-192507614D01*
X227172310Y-192507614D02*
X227029453Y-192650471D01*
X227029453Y-192650471D02*
X226886596Y-192721900D01*
X229100881Y-192293328D02*
X228386595Y-192293328D01*
X228386595Y-192293328D02*
X228315167Y-193007614D01*
X228315167Y-193007614D02*
X228386595Y-192936185D01*
X228386595Y-192936185D02*
X228529453Y-192864757D01*
X228529453Y-192864757D02*
X228886595Y-192864757D01*
X228886595Y-192864757D02*
X229029453Y-192936185D01*
X229029453Y-192936185D02*
X229100881Y-193007614D01*
X229100881Y-193007614D02*
X229172310Y-193150471D01*
X229172310Y-193150471D02*
X229172310Y-193507614D01*
X229172310Y-193507614D02*
X229100881Y-193650471D01*
X229100881Y-193650471D02*
X229029453Y-193721900D01*
X229029453Y-193721900D02*
X228886595Y-193793328D01*
X228886595Y-193793328D02*
X228529453Y-193793328D01*
X228529453Y-193793328D02*
X228386595Y-193721900D01*
X228386595Y-193721900D02*
X228315167Y-193650471D01*
D10*
D11*
X177002200Y-194507200D02*
X285002200Y-194507200D01*
D10*
D11*
X178458026Y-196593328D02*
X178458026Y-195093328D01*
X179315169Y-196593328D02*
X178672312Y-195736185D01*
X179315169Y-195093328D02*
X178458026Y-195950471D01*
X179958026Y-196593328D02*
X179958026Y-195593328D01*
X179958026Y-195093328D02*
X179886598Y-195164757D01*
X179886598Y-195164757D02*
X179958026Y-195236185D01*
X179958026Y-195236185D02*
X180029455Y-195164757D01*
X180029455Y-195164757D02*
X179958026Y-195093328D01*
X179958026Y-195093328D02*
X179958026Y-195236185D01*
X181529455Y-196450471D02*
X181458027Y-196521900D01*
X181458027Y-196521900D02*
X181243741Y-196593328D01*
X181243741Y-196593328D02*
X181100884Y-196593328D01*
X181100884Y-196593328D02*
X180886598Y-196521900D01*
X180886598Y-196521900D02*
X180743741Y-196379042D01*
X180743741Y-196379042D02*
X180672312Y-196236185D01*
X180672312Y-196236185D02*
X180600884Y-195950471D01*
X180600884Y-195950471D02*
X180600884Y-195736185D01*
X180600884Y-195736185D02*
X180672312Y-195450471D01*
X180672312Y-195450471D02*
X180743741Y-195307614D01*
X180743741Y-195307614D02*
X180886598Y-195164757D01*
X180886598Y-195164757D02*
X181100884Y-195093328D01*
X181100884Y-195093328D02*
X181243741Y-195093328D01*
X181243741Y-195093328D02*
X181458027Y-195164757D01*
X181458027Y-195164757D02*
X181529455Y-195236185D01*
X182815170Y-196593328D02*
X182815170Y-195807614D01*
X182815170Y-195807614D02*
X182743741Y-195664757D01*
X182743741Y-195664757D02*
X182600884Y-195593328D01*
X182600884Y-195593328D02*
X182315170Y-195593328D01*
X182315170Y-195593328D02*
X182172312Y-195664757D01*
X182815170Y-196521900D02*
X182672312Y-196593328D01*
X182672312Y-196593328D02*
X182315170Y-196593328D01*
X182315170Y-196593328D02*
X182172312Y-196521900D01*
X182172312Y-196521900D02*
X182100884Y-196379042D01*
X182100884Y-196379042D02*
X182100884Y-196236185D01*
X182100884Y-196236185D02*
X182172312Y-196093328D01*
X182172312Y-196093328D02*
X182315170Y-196021900D01*
X182315170Y-196021900D02*
X182672312Y-196021900D01*
X182672312Y-196021900D02*
X182815170Y-195950471D01*
X184172313Y-196593328D02*
X184172313Y-195093328D01*
X184172313Y-196521900D02*
X184029455Y-196593328D01*
X184029455Y-196593328D02*
X183743741Y-196593328D01*
X183743741Y-196593328D02*
X183600884Y-196521900D01*
X183600884Y-196521900D02*
X183529455Y-196450471D01*
X183529455Y-196450471D02*
X183458027Y-196307614D01*
X183458027Y-196307614D02*
X183458027Y-195879042D01*
X183458027Y-195879042D02*
X183529455Y-195736185D01*
X183529455Y-195736185D02*
X183600884Y-195664757D01*
X183600884Y-195664757D02*
X183743741Y-195593328D01*
X183743741Y-195593328D02*
X184029455Y-195593328D01*
X184029455Y-195593328D02*
X184172313Y-195664757D01*
X186029455Y-195807614D02*
X186529455Y-195807614D01*
X186743741Y-196593328D02*
X186029455Y-196593328D01*
X186029455Y-196593328D02*
X186029455Y-195093328D01*
X186029455Y-195093328D02*
X186743741Y-195093328D01*
X187386598Y-196450471D02*
X187458027Y-196521900D01*
X187458027Y-196521900D02*
X187386598Y-196593328D01*
X187386598Y-196593328D02*
X187315170Y-196521900D01*
X187315170Y-196521900D02*
X187386598Y-196450471D01*
X187386598Y-196450471D02*
X187386598Y-196593328D01*
X188100884Y-196593328D02*
X188100884Y-195093328D01*
X188100884Y-195093328D02*
X188458027Y-195093328D01*
X188458027Y-195093328D02*
X188672313Y-195164757D01*
X188672313Y-195164757D02*
X188815170Y-195307614D01*
X188815170Y-195307614D02*
X188886599Y-195450471D01*
X188886599Y-195450471D02*
X188958027Y-195736185D01*
X188958027Y-195736185D02*
X188958027Y-195950471D01*
X188958027Y-195950471D02*
X188886599Y-196236185D01*
X188886599Y-196236185D02*
X188815170Y-196379042D01*
X188815170Y-196379042D02*
X188672313Y-196521900D01*
X188672313Y-196521900D02*
X188458027Y-196593328D01*
X188458027Y-196593328D02*
X188100884Y-196593328D01*
X189600884Y-196450471D02*
X189672313Y-196521900D01*
X189672313Y-196521900D02*
X189600884Y-196593328D01*
X189600884Y-196593328D02*
X189529456Y-196521900D01*
X189529456Y-196521900D02*
X189600884Y-196450471D01*
X189600884Y-196450471D02*
X189600884Y-196593328D01*
X190243742Y-196164757D02*
X190958028Y-196164757D01*
X190100885Y-196593328D02*
X190600885Y-195093328D01*
X190600885Y-195093328D02*
X191100885Y-196593328D01*
X191600884Y-196450471D02*
X191672313Y-196521900D01*
X191672313Y-196521900D02*
X191600884Y-196593328D01*
X191600884Y-196593328D02*
X191529456Y-196521900D01*
X191529456Y-196521900D02*
X191600884Y-196450471D01*
X191600884Y-196450471D02*
X191600884Y-196593328D01*
X193672313Y-195736185D02*
X193529456Y-195664757D01*
X193529456Y-195664757D02*
X193458027Y-195593328D01*
X193458027Y-195593328D02*
X193386599Y-195450471D01*
X193386599Y-195450471D02*
X193386599Y-195379042D01*
X193386599Y-195379042D02*
X193458027Y-195236185D01*
X193458027Y-195236185D02*
X193529456Y-195164757D01*
X193529456Y-195164757D02*
X193672313Y-195093328D01*
X193672313Y-195093328D02*
X193958027Y-195093328D01*
X193958027Y-195093328D02*
X194100885Y-195164757D01*
X194100885Y-195164757D02*
X194172313Y-195236185D01*
X194172313Y-195236185D02*
X194243742Y-195379042D01*
X194243742Y-195379042D02*
X194243742Y-195450471D01*
X194243742Y-195450471D02*
X194172313Y-195593328D01*
X194172313Y-195593328D02*
X194100885Y-195664757D01*
X194100885Y-195664757D02*
X193958027Y-195736185D01*
X193958027Y-195736185D02*
X193672313Y-195736185D01*
X193672313Y-195736185D02*
X193529456Y-195807614D01*
X193529456Y-195807614D02*
X193458027Y-195879042D01*
X193458027Y-195879042D02*
X193386599Y-196021900D01*
X193386599Y-196021900D02*
X193386599Y-196307614D01*
X193386599Y-196307614D02*
X193458027Y-196450471D01*
X193458027Y-196450471D02*
X193529456Y-196521900D01*
X193529456Y-196521900D02*
X193672313Y-196593328D01*
X193672313Y-196593328D02*
X193958027Y-196593328D01*
X193958027Y-196593328D02*
X194100885Y-196521900D01*
X194100885Y-196521900D02*
X194172313Y-196450471D01*
X194172313Y-196450471D02*
X194243742Y-196307614D01*
X194243742Y-196307614D02*
X194243742Y-196021900D01*
X194243742Y-196021900D02*
X194172313Y-195879042D01*
X194172313Y-195879042D02*
X194100885Y-195807614D01*
X194100885Y-195807614D02*
X193958027Y-195736185D01*
X194886598Y-196450471D02*
X194958027Y-196521900D01*
X194958027Y-196521900D02*
X194886598Y-196593328D01*
X194886598Y-196593328D02*
X194815170Y-196521900D01*
X194815170Y-196521900D02*
X194886598Y-196450471D01*
X194886598Y-196450471D02*
X194886598Y-196593328D01*
X195886599Y-195093328D02*
X196029456Y-195093328D01*
X196029456Y-195093328D02*
X196172313Y-195164757D01*
X196172313Y-195164757D02*
X196243742Y-195236185D01*
X196243742Y-195236185D02*
X196315170Y-195379042D01*
X196315170Y-195379042D02*
X196386599Y-195664757D01*
X196386599Y-195664757D02*
X196386599Y-196021900D01*
X196386599Y-196021900D02*
X196315170Y-196307614D01*
X196315170Y-196307614D02*
X196243742Y-196450471D01*
X196243742Y-196450471D02*
X196172313Y-196521900D01*
X196172313Y-196521900D02*
X196029456Y-196593328D01*
X196029456Y-196593328D02*
X195886599Y-196593328D01*
X195886599Y-196593328D02*
X195743742Y-196521900D01*
X195743742Y-196521900D02*
X195672313Y-196450471D01*
X195672313Y-196450471D02*
X195600884Y-196307614D01*
X195600884Y-196307614D02*
X195529456Y-196021900D01*
X195529456Y-196021900D02*
X195529456Y-195664757D01*
X195529456Y-195664757D02*
X195600884Y-195379042D01*
X195600884Y-195379042D02*
X195672313Y-195236185D01*
X195672313Y-195236185D02*
X195743742Y-195164757D01*
X195743742Y-195164757D02*
X195886599Y-195093328D01*
X197029455Y-196450471D02*
X197100884Y-196521900D01*
X197100884Y-196521900D02*
X197029455Y-196593328D01*
X197029455Y-196593328D02*
X196958027Y-196521900D01*
X196958027Y-196521900D02*
X197029455Y-196450471D01*
X197029455Y-196450471D02*
X197029455Y-196593328D01*
X197600884Y-195093328D02*
X198529456Y-195093328D01*
X198529456Y-195093328D02*
X198029456Y-195664757D01*
X198029456Y-195664757D02*
X198243741Y-195664757D01*
X198243741Y-195664757D02*
X198386599Y-195736185D01*
X198386599Y-195736185D02*
X198458027Y-195807614D01*
X198458027Y-195807614D02*
X198529456Y-195950471D01*
X198529456Y-195950471D02*
X198529456Y-196307614D01*
X198529456Y-196307614D02*
X198458027Y-196450471D01*
X198458027Y-196450471D02*
X198386599Y-196521900D01*
X198386599Y-196521900D02*
X198243741Y-196593328D01*
X198243741Y-196593328D02*
X197815170Y-196593328D01*
X197815170Y-196593328D02*
X197672313Y-196521900D01*
X197672313Y-196521900D02*
X197600884Y-196450471D01*
D10*
D11*
X177002200Y-191507200D02*
X285002200Y-191507200D01*
D10*
D12*
X264413853Y-193785528D02*
X263913853Y-193071242D01*
X263556710Y-193785528D02*
X263556710Y-192285528D01*
X263556710Y-192285528D02*
X264128139Y-192285528D01*
X264128139Y-192285528D02*
X264270996Y-192356957D01*
X264270996Y-192356957D02*
X264342425Y-192428385D01*
X264342425Y-192428385D02*
X264413853Y-192571242D01*
X264413853Y-192571242D02*
X264413853Y-192785528D01*
X264413853Y-192785528D02*
X264342425Y-192928385D01*
X264342425Y-192928385D02*
X264270996Y-192999814D01*
X264270996Y-192999814D02*
X264128139Y-193071242D01*
X264128139Y-193071242D02*
X263556710Y-193071242D01*
X265628139Y-193714100D02*
X265485282Y-193785528D01*
X265485282Y-193785528D02*
X265199568Y-193785528D01*
X265199568Y-193785528D02*
X265056710Y-193714100D01*
X265056710Y-193714100D02*
X264985282Y-193571242D01*
X264985282Y-193571242D02*
X264985282Y-192999814D01*
X264985282Y-192999814D02*
X265056710Y-192856957D01*
X265056710Y-192856957D02*
X265199568Y-192785528D01*
X265199568Y-192785528D02*
X265485282Y-192785528D01*
X265485282Y-192785528D02*
X265628139Y-192856957D01*
X265628139Y-192856957D02*
X265699568Y-192999814D01*
X265699568Y-192999814D02*
X265699568Y-193142671D01*
X265699568Y-193142671D02*
X264985282Y-193285528D01*
X266199567Y-192785528D02*
X266556710Y-193785528D01*
X266556710Y-193785528D02*
X266913853Y-192785528D01*
X267485281Y-193642671D02*
X267556710Y-193714100D01*
X267556710Y-193714100D02*
X267485281Y-193785528D01*
X267485281Y-193785528D02*
X267413853Y-193714100D01*
X267413853Y-193714100D02*
X267485281Y-193642671D01*
X267485281Y-193642671D02*
X267485281Y-193785528D01*
X267485281Y-192856957D02*
X267556710Y-192928385D01*
X267556710Y-192928385D02*
X267485281Y-192999814D01*
X267485281Y-192999814D02*
X267413853Y-192928385D01*
X267413853Y-192928385D02*
X267485281Y-192856957D01*
X267485281Y-192856957D02*
X267485281Y-192999814D01*
D10*
D11*
X178386598Y-193721900D02*
X178600884Y-193793328D01*
X178600884Y-193793328D02*
X178958026Y-193793328D01*
X178958026Y-193793328D02*
X179100884Y-193721900D01*
X179100884Y-193721900D02*
X179172312Y-193650471D01*
X179172312Y-193650471D02*
X179243741Y-193507614D01*
X179243741Y-193507614D02*
X179243741Y-193364757D01*
X179243741Y-193364757D02*
X179172312Y-193221900D01*
X179172312Y-193221900D02*
X179100884Y-193150471D01*
X179100884Y-193150471D02*
X178958026Y-193079042D01*
X178958026Y-193079042D02*
X178672312Y-193007614D01*
X178672312Y-193007614D02*
X178529455Y-192936185D01*
X178529455Y-192936185D02*
X178458026Y-192864757D01*
X178458026Y-192864757D02*
X178386598Y-192721900D01*
X178386598Y-192721900D02*
X178386598Y-192579042D01*
X178386598Y-192579042D02*
X178458026Y-192436185D01*
X178458026Y-192436185D02*
X178529455Y-192364757D01*
X178529455Y-192364757D02*
X178672312Y-192293328D01*
X178672312Y-192293328D02*
X179029455Y-192293328D01*
X179029455Y-192293328D02*
X179243741Y-192364757D01*
X179886597Y-193793328D02*
X179886597Y-192793328D01*
X179886597Y-192293328D02*
X179815169Y-192364757D01*
X179815169Y-192364757D02*
X179886597Y-192436185D01*
X179886597Y-192436185D02*
X179958026Y-192364757D01*
X179958026Y-192364757D02*
X179886597Y-192293328D01*
X179886597Y-192293328D02*
X179886597Y-192436185D01*
X180458026Y-192793328D02*
X181243741Y-192793328D01*
X181243741Y-192793328D02*
X180458026Y-193793328D01*
X180458026Y-193793328D02*
X181243741Y-193793328D01*
X182386598Y-193721900D02*
X182243741Y-193793328D01*
X182243741Y-193793328D02*
X181958027Y-193793328D01*
X181958027Y-193793328D02*
X181815169Y-193721900D01*
X181815169Y-193721900D02*
X181743741Y-193579042D01*
X181743741Y-193579042D02*
X181743741Y-193007614D01*
X181743741Y-193007614D02*
X181815169Y-192864757D01*
X181815169Y-192864757D02*
X181958027Y-192793328D01*
X181958027Y-192793328D02*
X182243741Y-192793328D01*
X182243741Y-192793328D02*
X182386598Y-192864757D01*
X182386598Y-192864757D02*
X182458027Y-193007614D01*
X182458027Y-193007614D02*
X182458027Y-193150471D01*
X182458027Y-193150471D02*
X181743741Y-193293328D01*
X183100883Y-193650471D02*
X183172312Y-193721900D01*
X183172312Y-193721900D02*
X183100883Y-193793328D01*
X183100883Y-193793328D02*
X183029455Y-193721900D01*
X183029455Y-193721900D02*
X183100883Y-193650471D01*
X183100883Y-193650471D02*
X183100883Y-193793328D01*
X183100883Y-192864757D02*
X183172312Y-192936185D01*
X183172312Y-192936185D02*
X183100883Y-193007614D01*
X183100883Y-193007614D02*
X183029455Y-192936185D01*
X183029455Y-192936185D02*
X183100883Y-192864757D01*
X183100883Y-192864757D02*
X183100883Y-193007614D01*
X184886598Y-193364757D02*
X185600884Y-193364757D01*
X184743741Y-193793328D02*
X185243741Y-192293328D01*
X185243741Y-192293328D02*
X185743741Y-193793328D01*
X186886598Y-192793328D02*
X186886598Y-193793328D01*
X186529455Y-192221900D02*
X186172312Y-193293328D01*
X186172312Y-193293328D02*
X187100883Y-193293328D01*
D10*
D11*
X263458026Y-196593328D02*
X263458026Y-195093328D01*
X264815170Y-196593328D02*
X264815170Y-195093328D01*
X264815170Y-196521900D02*
X264672312Y-196593328D01*
X264672312Y-196593328D02*
X264386598Y-196593328D01*
X264386598Y-196593328D02*
X264243741Y-196521900D01*
X264243741Y-196521900D02*
X264172312Y-196450471D01*
X264172312Y-196450471D02*
X264100884Y-196307614D01*
X264100884Y-196307614D02*
X264100884Y-195879042D01*
X264100884Y-195879042D02*
X264172312Y-195736185D01*
X264172312Y-195736185D02*
X264243741Y-195664757D01*
X264243741Y-195664757D02*
X264386598Y-195593328D01*
X264386598Y-195593328D02*
X264672312Y-195593328D01*
X264672312Y-195593328D02*
X264815170Y-195664757D01*
X265529455Y-196450471D02*
X265600884Y-196521900D01*
X265600884Y-196521900D02*
X265529455Y-196593328D01*
X265529455Y-196593328D02*
X265458027Y-196521900D01*
X265458027Y-196521900D02*
X265529455Y-196450471D01*
X265529455Y-196450471D02*
X265529455Y-196593328D01*
X265529455Y-195664757D02*
X265600884Y-195736185D01*
X265600884Y-195736185D02*
X265529455Y-195807614D01*
X265529455Y-195807614D02*
X265458027Y-195736185D01*
X265458027Y-195736185D02*
X265529455Y-195664757D01*
X265529455Y-195664757D02*
X265529455Y-195807614D01*
X268172313Y-196593328D02*
X267315170Y-196593328D01*
X267743741Y-196593328D02*
X267743741Y-195093328D01*
X267743741Y-195093328D02*
X267600884Y-195307614D01*
X267600884Y-195307614D02*
X267458027Y-195450471D01*
X267458027Y-195450471D02*
X267315170Y-195521900D01*
X269886598Y-195021900D02*
X268600884Y-196950471D01*
X271172313Y-196593328D02*
X270315170Y-196593328D01*
X270743741Y-196593328D02*
X270743741Y-195093328D01*
X270743741Y-195093328D02*
X270600884Y-195307614D01*
X270600884Y-195307614D02*
X270458027Y-195450471D01*
X270458027Y-195450471D02*
X270315170Y-195521900D01*
D10*
D11*
X177002200Y-187507200D02*
X285002200Y-187507200D01*
D10*
D13*
X178693928Y-188211638D02*
X179836785Y-188211638D01*
X179015357Y-190211638D02*
X179265357Y-188211638D01*
X180253452Y-190211638D02*
X180420119Y-188878304D01*
X180503452Y-188211638D02*
X180396309Y-188306876D01*
X180396309Y-188306876D02*
X180479643Y-188402114D01*
X180479643Y-188402114D02*
X180586786Y-188306876D01*
X180586786Y-188306876D02*
X180503452Y-188211638D01*
X180503452Y-188211638D02*
X180479643Y-188402114D01*
X181086786Y-188878304D02*
X181848690Y-188878304D01*
X181455833Y-188211638D02*
X181241548Y-189925923D01*
X181241548Y-189925923D02*
X181312976Y-190116400D01*
X181312976Y-190116400D02*
X181491548Y-190211638D01*
X181491548Y-190211638D02*
X181682024Y-190211638D01*
X182634405Y-190211638D02*
X182455833Y-190116400D01*
X182455833Y-190116400D02*
X182384405Y-189925923D01*
X182384405Y-189925923D02*
X182598690Y-188211638D01*
X184170119Y-190116400D02*
X183967738Y-190211638D01*
X183967738Y-190211638D02*
X183586785Y-190211638D01*
X183586785Y-190211638D02*
X183408214Y-190116400D01*
X183408214Y-190116400D02*
X183336785Y-189925923D01*
X183336785Y-189925923D02*
X183432024Y-189164019D01*
X183432024Y-189164019D02*
X183551071Y-188973542D01*
X183551071Y-188973542D02*
X183753452Y-188878304D01*
X183753452Y-188878304D02*
X184134404Y-188878304D01*
X184134404Y-188878304D02*
X184312976Y-188973542D01*
X184312976Y-188973542D02*
X184384404Y-189164019D01*
X184384404Y-189164019D02*
X184360595Y-189354495D01*
X184360595Y-189354495D02*
X183384404Y-189544971D01*
X185134405Y-190021161D02*
X185217738Y-190116400D01*
X185217738Y-190116400D02*
X185110595Y-190211638D01*
X185110595Y-190211638D02*
X185027262Y-190116400D01*
X185027262Y-190116400D02*
X185134405Y-190021161D01*
X185134405Y-190021161D02*
X185110595Y-190211638D01*
X185265357Y-188973542D02*
X185348690Y-189068780D01*
X185348690Y-189068780D02*
X185241548Y-189164019D01*
X185241548Y-189164019D02*
X185158214Y-189068780D01*
X185158214Y-189068780D02*
X185265357Y-188973542D01*
X185265357Y-188973542D02*
X185241548Y-189164019D01*
D10*
D11*
X178958026Y-185607614D02*
X178458026Y-185607614D01*
X178458026Y-186393328D02*
X178458026Y-184893328D01*
X178458026Y-184893328D02*
X179172312Y-184893328D01*
X179743740Y-186393328D02*
X179743740Y-185393328D01*
X179743740Y-184893328D02*
X179672312Y-184964757D01*
X179672312Y-184964757D02*
X179743740Y-185036185D01*
X179743740Y-185036185D02*
X179815169Y-184964757D01*
X179815169Y-184964757D02*
X179743740Y-184893328D01*
X179743740Y-184893328D02*
X179743740Y-185036185D01*
X180672312Y-186393328D02*
X180529455Y-186321900D01*
X180529455Y-186321900D02*
X180458026Y-186179042D01*
X180458026Y-186179042D02*
X180458026Y-184893328D01*
X181815169Y-186321900D02*
X181672312Y-186393328D01*
X181672312Y-186393328D02*
X181386598Y-186393328D01*
X181386598Y-186393328D02*
X181243740Y-186321900D01*
X181243740Y-186321900D02*
X181172312Y-186179042D01*
X181172312Y-186179042D02*
X181172312Y-185607614D01*
X181172312Y-185607614D02*
X181243740Y-185464757D01*
X181243740Y-185464757D02*
X181386598Y-185393328D01*
X181386598Y-185393328D02*
X181672312Y-185393328D01*
X181672312Y-185393328D02*
X181815169Y-185464757D01*
X181815169Y-185464757D02*
X181886598Y-185607614D01*
X181886598Y-185607614D02*
X181886598Y-185750471D01*
X181886598Y-185750471D02*
X181172312Y-185893328D01*
X182529454Y-186250471D02*
X182600883Y-186321900D01*
X182600883Y-186321900D02*
X182529454Y-186393328D01*
X182529454Y-186393328D02*
X182458026Y-186321900D01*
X182458026Y-186321900D02*
X182529454Y-186250471D01*
X182529454Y-186250471D02*
X182529454Y-186393328D01*
X182529454Y-185464757D02*
X182600883Y-185536185D01*
X182600883Y-185536185D02*
X182529454Y-185607614D01*
X182529454Y-185607614D02*
X182458026Y-185536185D01*
X182458026Y-185536185D02*
X182529454Y-185464757D01*
X182529454Y-185464757D02*
X182529454Y-185607614D01*
X185029455Y-186321900D02*
X184886597Y-186393328D01*
X184886597Y-186393328D02*
X184600883Y-186393328D01*
X184600883Y-186393328D02*
X184458026Y-186321900D01*
X184458026Y-186321900D02*
X184386597Y-186250471D01*
X184386597Y-186250471D02*
X184315169Y-186107614D01*
X184315169Y-186107614D02*
X184315169Y-185679042D01*
X184315169Y-185679042D02*
X184386597Y-185536185D01*
X184386597Y-185536185D02*
X184458026Y-185464757D01*
X184458026Y-185464757D02*
X184600883Y-185393328D01*
X184600883Y-185393328D02*
X184886597Y-185393328D01*
X184886597Y-185393328D02*
X185029455Y-185464757D01*
X186315169Y-186393328D02*
X186315169Y-185607614D01*
X186315169Y-185607614D02*
X186243740Y-185464757D01*
X186243740Y-185464757D02*
X186100883Y-185393328D01*
X186100883Y-185393328D02*
X185815169Y-185393328D01*
X185815169Y-185393328D02*
X185672311Y-185464757D01*
X186315169Y-186321900D02*
X186172311Y-186393328D01*
X186172311Y-186393328D02*
X185815169Y-186393328D01*
X185815169Y-186393328D02*
X185672311Y-186321900D01*
X185672311Y-186321900D02*
X185600883Y-186179042D01*
X185600883Y-186179042D02*
X185600883Y-186036185D01*
X185600883Y-186036185D02*
X185672311Y-185893328D01*
X185672311Y-185893328D02*
X185815169Y-185821900D01*
X185815169Y-185821900D02*
X186172311Y-185821900D01*
X186172311Y-185821900D02*
X186315169Y-185750471D01*
X187029454Y-185393328D02*
X187029454Y-186893328D01*
X187029454Y-185464757D02*
X187172312Y-185393328D01*
X187172312Y-185393328D02*
X187458026Y-185393328D01*
X187458026Y-185393328D02*
X187600883Y-185464757D01*
X187600883Y-185464757D02*
X187672312Y-185536185D01*
X187672312Y-185536185D02*
X187743740Y-185679042D01*
X187743740Y-185679042D02*
X187743740Y-186107614D01*
X187743740Y-186107614D02*
X187672312Y-186250471D01*
X187672312Y-186250471D02*
X187600883Y-186321900D01*
X187600883Y-186321900D02*
X187458026Y-186393328D01*
X187458026Y-186393328D02*
X187172312Y-186393328D01*
X187172312Y-186393328D02*
X187029454Y-186321900D01*
X188172312Y-185393328D02*
X188743740Y-185393328D01*
X188386597Y-184893328D02*
X188386597Y-186179042D01*
X188386597Y-186179042D02*
X188458026Y-186321900D01*
X188458026Y-186321900D02*
X188600883Y-186393328D01*
X188600883Y-186393328D02*
X188743740Y-186393328D01*
X189815169Y-186321900D02*
X189672312Y-186393328D01*
X189672312Y-186393328D02*
X189386598Y-186393328D01*
X189386598Y-186393328D02*
X189243740Y-186321900D01*
X189243740Y-186321900D02*
X189172312Y-186179042D01*
X189172312Y-186179042D02*
X189172312Y-185607614D01*
X189172312Y-185607614D02*
X189243740Y-185464757D01*
X189243740Y-185464757D02*
X189386598Y-185393328D01*
X189386598Y-185393328D02*
X189672312Y-185393328D01*
X189672312Y-185393328D02*
X189815169Y-185464757D01*
X189815169Y-185464757D02*
X189886598Y-185607614D01*
X189886598Y-185607614D02*
X189886598Y-185750471D01*
X189886598Y-185750471D02*
X189172312Y-185893328D01*
X191172312Y-185393328D02*
X191172312Y-186393328D01*
X190529454Y-185393328D02*
X190529454Y-186179042D01*
X190529454Y-186179042D02*
X190600883Y-186321900D01*
X190600883Y-186321900D02*
X190743740Y-186393328D01*
X190743740Y-186393328D02*
X190958026Y-186393328D01*
X190958026Y-186393328D02*
X191100883Y-186321900D01*
X191100883Y-186321900D02*
X191172312Y-186250471D01*
X191886597Y-186393328D02*
X191886597Y-185393328D01*
X191886597Y-185679042D02*
X191958026Y-185536185D01*
X191958026Y-185536185D02*
X192029455Y-185464757D01*
X192029455Y-185464757D02*
X192172312Y-185393328D01*
X192172312Y-185393328D02*
X192315169Y-185393328D01*
X194600883Y-185393328D02*
X194600883Y-186607614D01*
X194600883Y-186607614D02*
X194529454Y-186750471D01*
X194529454Y-186750471D02*
X194458025Y-186821900D01*
X194458025Y-186821900D02*
X194315168Y-186893328D01*
X194315168Y-186893328D02*
X194100883Y-186893328D01*
X194100883Y-186893328D02*
X193958025Y-186821900D01*
X194600883Y-186321900D02*
X194458025Y-186393328D01*
X194458025Y-186393328D02*
X194172311Y-186393328D01*
X194172311Y-186393328D02*
X194029454Y-186321900D01*
X194029454Y-186321900D02*
X193958025Y-186250471D01*
X193958025Y-186250471D02*
X193886597Y-186107614D01*
X193886597Y-186107614D02*
X193886597Y-185679042D01*
X193886597Y-185679042D02*
X193958025Y-185536185D01*
X193958025Y-185536185D02*
X194029454Y-185464757D01*
X194029454Y-185464757D02*
X194172311Y-185393328D01*
X194172311Y-185393328D02*
X194458025Y-185393328D01*
X194458025Y-185393328D02*
X194600883Y-185464757D01*
X195315168Y-186393328D02*
X195315168Y-185393328D01*
X195315168Y-185679042D02*
X195386597Y-185536185D01*
X195386597Y-185536185D02*
X195458026Y-185464757D01*
X195458026Y-185464757D02*
X195600883Y-185393328D01*
X195600883Y-185393328D02*
X195743740Y-185393328D01*
X196886597Y-186393328D02*
X196886597Y-185607614D01*
X196886597Y-185607614D02*
X196815168Y-185464757D01*
X196815168Y-185464757D02*
X196672311Y-185393328D01*
X196672311Y-185393328D02*
X196386597Y-185393328D01*
X196386597Y-185393328D02*
X196243739Y-185464757D01*
X196886597Y-186321900D02*
X196743739Y-186393328D01*
X196743739Y-186393328D02*
X196386597Y-186393328D01*
X196386597Y-186393328D02*
X196243739Y-186321900D01*
X196243739Y-186321900D02*
X196172311Y-186179042D01*
X196172311Y-186179042D02*
X196172311Y-186036185D01*
X196172311Y-186036185D02*
X196243739Y-185893328D01*
X196243739Y-185893328D02*
X196386597Y-185821900D01*
X196386597Y-185821900D02*
X196743739Y-185821900D01*
X196743739Y-185821900D02*
X196886597Y-185750471D01*
X197600882Y-185393328D02*
X197600882Y-186893328D01*
X197600882Y-185464757D02*
X197743740Y-185393328D01*
X197743740Y-185393328D02*
X198029454Y-185393328D01*
X198029454Y-185393328D02*
X198172311Y-185464757D01*
X198172311Y-185464757D02*
X198243740Y-185536185D01*
X198243740Y-185536185D02*
X198315168Y-185679042D01*
X198315168Y-185679042D02*
X198315168Y-186107614D01*
X198315168Y-186107614D02*
X198243740Y-186250471D01*
X198243740Y-186250471D02*
X198172311Y-186321900D01*
X198172311Y-186321900D02*
X198029454Y-186393328D01*
X198029454Y-186393328D02*
X197743740Y-186393328D01*
X197743740Y-186393328D02*
X197600882Y-186321900D01*
X198958025Y-186393328D02*
X198958025Y-184893328D01*
X199600883Y-186393328D02*
X199600883Y-185607614D01*
X199600883Y-185607614D02*
X199529454Y-185464757D01*
X199529454Y-185464757D02*
X199386597Y-185393328D01*
X199386597Y-185393328D02*
X199172311Y-185393328D01*
X199172311Y-185393328D02*
X199029454Y-185464757D01*
X199029454Y-185464757D02*
X198958025Y-185536185D01*
X200315168Y-186393328D02*
X200315168Y-185393328D01*
X200315168Y-184893328D02*
X200243740Y-184964757D01*
X200243740Y-184964757D02*
X200315168Y-185036185D01*
X200315168Y-185036185D02*
X200386597Y-184964757D01*
X200386597Y-184964757D02*
X200315168Y-184893328D01*
X200315168Y-184893328D02*
X200315168Y-185036185D01*
X200815169Y-185393328D02*
X201386597Y-185393328D01*
X201029454Y-184893328D02*
X201029454Y-186179042D01*
X201029454Y-186179042D02*
X201100883Y-186321900D01*
X201100883Y-186321900D02*
X201243740Y-186393328D01*
X201243740Y-186393328D02*
X201386597Y-186393328D01*
X202458026Y-186321900D02*
X202315169Y-186393328D01*
X202315169Y-186393328D02*
X202029455Y-186393328D01*
X202029455Y-186393328D02*
X201886597Y-186321900D01*
X201886597Y-186321900D02*
X201815169Y-186179042D01*
X201815169Y-186179042D02*
X201815169Y-185607614D01*
X201815169Y-185607614D02*
X201886597Y-185464757D01*
X201886597Y-185464757D02*
X202029455Y-185393328D01*
X202029455Y-185393328D02*
X202315169Y-185393328D01*
X202315169Y-185393328D02*
X202458026Y-185464757D01*
X202458026Y-185464757D02*
X202529455Y-185607614D01*
X202529455Y-185607614D02*
X202529455Y-185750471D01*
X202529455Y-185750471D02*
X201815169Y-185893328D01*
X205172311Y-186250471D02*
X205100883Y-186321900D01*
X205100883Y-186321900D02*
X204886597Y-186393328D01*
X204886597Y-186393328D02*
X204743740Y-186393328D01*
X204743740Y-186393328D02*
X204529454Y-186321900D01*
X204529454Y-186321900D02*
X204386597Y-186179042D01*
X204386597Y-186179042D02*
X204315168Y-186036185D01*
X204315168Y-186036185D02*
X204243740Y-185750471D01*
X204243740Y-185750471D02*
X204243740Y-185536185D01*
X204243740Y-185536185D02*
X204315168Y-185250471D01*
X204315168Y-185250471D02*
X204386597Y-185107614D01*
X204386597Y-185107614D02*
X204529454Y-184964757D01*
X204529454Y-184964757D02*
X204743740Y-184893328D01*
X204743740Y-184893328D02*
X204886597Y-184893328D01*
X204886597Y-184893328D02*
X205100883Y-184964757D01*
X205100883Y-184964757D02*
X205172311Y-185036185D01*
X206029454Y-186393328D02*
X205886597Y-186321900D01*
X205886597Y-186321900D02*
X205815168Y-186250471D01*
X205815168Y-186250471D02*
X205743740Y-186107614D01*
X205743740Y-186107614D02*
X205743740Y-185679042D01*
X205743740Y-185679042D02*
X205815168Y-185536185D01*
X205815168Y-185536185D02*
X205886597Y-185464757D01*
X205886597Y-185464757D02*
X206029454Y-185393328D01*
X206029454Y-185393328D02*
X206243740Y-185393328D01*
X206243740Y-185393328D02*
X206386597Y-185464757D01*
X206386597Y-185464757D02*
X206458026Y-185536185D01*
X206458026Y-185536185D02*
X206529454Y-185679042D01*
X206529454Y-185679042D02*
X206529454Y-186107614D01*
X206529454Y-186107614D02*
X206458026Y-186250471D01*
X206458026Y-186250471D02*
X206386597Y-186321900D01*
X206386597Y-186321900D02*
X206243740Y-186393328D01*
X206243740Y-186393328D02*
X206029454Y-186393328D01*
X207815169Y-185393328D02*
X207815169Y-186393328D01*
X207172311Y-185393328D02*
X207172311Y-186179042D01*
X207172311Y-186179042D02*
X207243740Y-186321900D01*
X207243740Y-186321900D02*
X207386597Y-186393328D01*
X207386597Y-186393328D02*
X207600883Y-186393328D01*
X207600883Y-186393328D02*
X207743740Y-186321900D01*
X207743740Y-186321900D02*
X207815169Y-186250471D01*
X209029454Y-185607614D02*
X209243740Y-185679042D01*
X209243740Y-185679042D02*
X209315169Y-185750471D01*
X209315169Y-185750471D02*
X209386597Y-185893328D01*
X209386597Y-185893328D02*
X209386597Y-186107614D01*
X209386597Y-186107614D02*
X209315169Y-186250471D01*
X209315169Y-186250471D02*
X209243740Y-186321900D01*
X209243740Y-186321900D02*
X209100883Y-186393328D01*
X209100883Y-186393328D02*
X208529454Y-186393328D01*
X208529454Y-186393328D02*
X208529454Y-184893328D01*
X208529454Y-184893328D02*
X209029454Y-184893328D01*
X209029454Y-184893328D02*
X209172312Y-184964757D01*
X209172312Y-184964757D02*
X209243740Y-185036185D01*
X209243740Y-185036185D02*
X209315169Y-185179042D01*
X209315169Y-185179042D02*
X209315169Y-185321900D01*
X209315169Y-185321900D02*
X209243740Y-185464757D01*
X209243740Y-185464757D02*
X209172312Y-185536185D01*
X209172312Y-185536185D02*
X209029454Y-185607614D01*
X209029454Y-185607614D02*
X208529454Y-185607614D01*
X210600883Y-186321900D02*
X210458026Y-186393328D01*
X210458026Y-186393328D02*
X210172312Y-186393328D01*
X210172312Y-186393328D02*
X210029454Y-186321900D01*
X210029454Y-186321900D02*
X209958026Y-186179042D01*
X209958026Y-186179042D02*
X209958026Y-185607614D01*
X209958026Y-185607614D02*
X210029454Y-185464757D01*
X210029454Y-185464757D02*
X210172312Y-185393328D01*
X210172312Y-185393328D02*
X210458026Y-185393328D01*
X210458026Y-185393328D02*
X210600883Y-185464757D01*
X210600883Y-185464757D02*
X210672312Y-185607614D01*
X210672312Y-185607614D02*
X210672312Y-185750471D01*
X210672312Y-185750471D02*
X209958026Y-185893328D01*
X211315168Y-186393328D02*
X211315168Y-184893328D01*
X211958026Y-186393328D02*
X211958026Y-185607614D01*
X211958026Y-185607614D02*
X211886597Y-185464757D01*
X211886597Y-185464757D02*
X211743740Y-185393328D01*
X211743740Y-185393328D02*
X211529454Y-185393328D01*
X211529454Y-185393328D02*
X211386597Y-185464757D01*
X211386597Y-185464757D02*
X211315168Y-185536185D01*
X212672311Y-186250471D02*
X212743740Y-186321900D01*
X212743740Y-186321900D02*
X212672311Y-186393328D01*
X212672311Y-186393328D02*
X212600883Y-186321900D01*
X212600883Y-186321900D02*
X212672311Y-186250471D01*
X212672311Y-186250471D02*
X212672311Y-186393328D01*
X213386597Y-186393328D02*
X213386597Y-184893328D01*
X213529455Y-185821900D02*
X213958026Y-186393328D01*
X213958026Y-185393328D02*
X213386597Y-185964757D01*
X214600883Y-186393328D02*
X214600883Y-185393328D01*
X214600883Y-184893328D02*
X214529455Y-184964757D01*
X214529455Y-184964757D02*
X214600883Y-185036185D01*
X214600883Y-185036185D02*
X214672312Y-184964757D01*
X214672312Y-184964757D02*
X214600883Y-184893328D01*
X214600883Y-184893328D02*
X214600883Y-185036185D01*
X215958027Y-186321900D02*
X215815169Y-186393328D01*
X215815169Y-186393328D02*
X215529455Y-186393328D01*
X215529455Y-186393328D02*
X215386598Y-186321900D01*
X215386598Y-186321900D02*
X215315169Y-186250471D01*
X215315169Y-186250471D02*
X215243741Y-186107614D01*
X215243741Y-186107614D02*
X215243741Y-185679042D01*
X215243741Y-185679042D02*
X215315169Y-185536185D01*
X215315169Y-185536185D02*
X215386598Y-185464757D01*
X215386598Y-185464757D02*
X215529455Y-185393328D01*
X215529455Y-185393328D02*
X215815169Y-185393328D01*
X215815169Y-185393328D02*
X215958027Y-185464757D01*
X217243741Y-186393328D02*
X217243741Y-185607614D01*
X217243741Y-185607614D02*
X217172312Y-185464757D01*
X217172312Y-185464757D02*
X217029455Y-185393328D01*
X217029455Y-185393328D02*
X216743741Y-185393328D01*
X216743741Y-185393328D02*
X216600883Y-185464757D01*
X217243741Y-186321900D02*
X217100883Y-186393328D01*
X217100883Y-186393328D02*
X216743741Y-186393328D01*
X216743741Y-186393328D02*
X216600883Y-186321900D01*
X216600883Y-186321900D02*
X216529455Y-186179042D01*
X216529455Y-186179042D02*
X216529455Y-186036185D01*
X216529455Y-186036185D02*
X216600883Y-185893328D01*
X216600883Y-185893328D02*
X216743741Y-185821900D01*
X216743741Y-185821900D02*
X217100883Y-185821900D01*
X217100883Y-185821900D02*
X217243741Y-185750471D01*
X218600884Y-186393328D02*
X218600884Y-184893328D01*
X218600884Y-186321900D02*
X218458026Y-186393328D01*
X218458026Y-186393328D02*
X218172312Y-186393328D01*
X218172312Y-186393328D02*
X218029455Y-186321900D01*
X218029455Y-186321900D02*
X217958026Y-186250471D01*
X217958026Y-186250471D02*
X217886598Y-186107614D01*
X217886598Y-186107614D02*
X217886598Y-185679042D01*
X217886598Y-185679042D02*
X217958026Y-185536185D01*
X217958026Y-185536185D02*
X218029455Y-185464757D01*
X218029455Y-185464757D02*
X218172312Y-185393328D01*
X218172312Y-185393328D02*
X218458026Y-185393328D01*
X218458026Y-185393328D02*
X218600884Y-185464757D01*
X218958027Y-186536185D02*
X220100884Y-186536185D01*
X220458026Y-185393328D02*
X220458026Y-186893328D01*
X220458026Y-185464757D02*
X220600884Y-185393328D01*
X220600884Y-185393328D02*
X220886598Y-185393328D01*
X220886598Y-185393328D02*
X221029455Y-185464757D01*
X221029455Y-185464757D02*
X221100884Y-185536185D01*
X221100884Y-185536185D02*
X221172312Y-185679042D01*
X221172312Y-185679042D02*
X221172312Y-186107614D01*
X221172312Y-186107614D02*
X221100884Y-186250471D01*
X221100884Y-186250471D02*
X221029455Y-186321900D01*
X221029455Y-186321900D02*
X220886598Y-186393328D01*
X220886598Y-186393328D02*
X220600884Y-186393328D01*
X220600884Y-186393328D02*
X220458026Y-186321900D01*
X222458027Y-186321900D02*
X222315169Y-186393328D01*
X222315169Y-186393328D02*
X222029455Y-186393328D01*
X222029455Y-186393328D02*
X221886598Y-186321900D01*
X221886598Y-186321900D02*
X221815169Y-186250471D01*
X221815169Y-186250471D02*
X221743741Y-186107614D01*
X221743741Y-186107614D02*
X221743741Y-185679042D01*
X221743741Y-185679042D02*
X221815169Y-185536185D01*
X221815169Y-185536185D02*
X221886598Y-185464757D01*
X221886598Y-185464757D02*
X222029455Y-185393328D01*
X222029455Y-185393328D02*
X222315169Y-185393328D01*
X222315169Y-185393328D02*
X222458027Y-185464757D01*
X223100883Y-186393328D02*
X223100883Y-184893328D01*
X223100883Y-185464757D02*
X223243741Y-185393328D01*
X223243741Y-185393328D02*
X223529455Y-185393328D01*
X223529455Y-185393328D02*
X223672312Y-185464757D01*
X223672312Y-185464757D02*
X223743741Y-185536185D01*
X223743741Y-185536185D02*
X223815169Y-185679042D01*
X223815169Y-185679042D02*
X223815169Y-186107614D01*
X223815169Y-186107614D02*
X223743741Y-186250471D01*
X223743741Y-186250471D02*
X223672312Y-186321900D01*
X223672312Y-186321900D02*
X223529455Y-186393328D01*
X223529455Y-186393328D02*
X223243741Y-186393328D01*
X223243741Y-186393328D02*
X223100883Y-186321900D01*
D10*
D11*
X177002200Y-181507200D02*
X285002200Y-181507200D01*
D10*
D11*
X178386598Y-183621900D02*
X178600884Y-183693328D01*
X178600884Y-183693328D02*
X178958026Y-183693328D01*
X178958026Y-183693328D02*
X179100884Y-183621900D01*
X179100884Y-183621900D02*
X179172312Y-183550471D01*
X179172312Y-183550471D02*
X179243741Y-183407614D01*
X179243741Y-183407614D02*
X179243741Y-183264757D01*
X179243741Y-183264757D02*
X179172312Y-183121900D01*
X179172312Y-183121900D02*
X179100884Y-183050471D01*
X179100884Y-183050471D02*
X178958026Y-182979042D01*
X178958026Y-182979042D02*
X178672312Y-182907614D01*
X178672312Y-182907614D02*
X178529455Y-182836185D01*
X178529455Y-182836185D02*
X178458026Y-182764757D01*
X178458026Y-182764757D02*
X178386598Y-182621900D01*
X178386598Y-182621900D02*
X178386598Y-182479042D01*
X178386598Y-182479042D02*
X178458026Y-182336185D01*
X178458026Y-182336185D02*
X178529455Y-182264757D01*
X178529455Y-182264757D02*
X178672312Y-182193328D01*
X178672312Y-182193328D02*
X179029455Y-182193328D01*
X179029455Y-182193328D02*
X179243741Y-182264757D01*
X179886597Y-183693328D02*
X179886597Y-182193328D01*
X180529455Y-183693328D02*
X180529455Y-182907614D01*
X180529455Y-182907614D02*
X180458026Y-182764757D01*
X180458026Y-182764757D02*
X180315169Y-182693328D01*
X180315169Y-182693328D02*
X180100883Y-182693328D01*
X180100883Y-182693328D02*
X179958026Y-182764757D01*
X179958026Y-182764757D02*
X179886597Y-182836185D01*
X181815169Y-183621900D02*
X181672312Y-183693328D01*
X181672312Y-183693328D02*
X181386598Y-183693328D01*
X181386598Y-183693328D02*
X181243740Y-183621900D01*
X181243740Y-183621900D02*
X181172312Y-183479042D01*
X181172312Y-183479042D02*
X181172312Y-182907614D01*
X181172312Y-182907614D02*
X181243740Y-182764757D01*
X181243740Y-182764757D02*
X181386598Y-182693328D01*
X181386598Y-182693328D02*
X181672312Y-182693328D01*
X181672312Y-182693328D02*
X181815169Y-182764757D01*
X181815169Y-182764757D02*
X181886598Y-182907614D01*
X181886598Y-182907614D02*
X181886598Y-183050471D01*
X181886598Y-183050471D02*
X181172312Y-183193328D01*
X183100883Y-183621900D02*
X182958026Y-183693328D01*
X182958026Y-183693328D02*
X182672312Y-183693328D01*
X182672312Y-183693328D02*
X182529454Y-183621900D01*
X182529454Y-183621900D02*
X182458026Y-183479042D01*
X182458026Y-183479042D02*
X182458026Y-182907614D01*
X182458026Y-182907614D02*
X182529454Y-182764757D01*
X182529454Y-182764757D02*
X182672312Y-182693328D01*
X182672312Y-182693328D02*
X182958026Y-182693328D01*
X182958026Y-182693328D02*
X183100883Y-182764757D01*
X183100883Y-182764757D02*
X183172312Y-182907614D01*
X183172312Y-182907614D02*
X183172312Y-183050471D01*
X183172312Y-183050471D02*
X182458026Y-183193328D01*
X183600883Y-182693328D02*
X184172311Y-182693328D01*
X183815168Y-182193328D02*
X183815168Y-183479042D01*
X183815168Y-183479042D02*
X183886597Y-183621900D01*
X183886597Y-183621900D02*
X184029454Y-183693328D01*
X184029454Y-183693328D02*
X184172311Y-183693328D01*
X184672311Y-183550471D02*
X184743740Y-183621900D01*
X184743740Y-183621900D02*
X184672311Y-183693328D01*
X184672311Y-183693328D02*
X184600883Y-183621900D01*
X184600883Y-183621900D02*
X184672311Y-183550471D01*
X184672311Y-183550471D02*
X184672311Y-183693328D01*
X184672311Y-182764757D02*
X184743740Y-182836185D01*
X184743740Y-182836185D02*
X184672311Y-182907614D01*
X184672311Y-182907614D02*
X184600883Y-182836185D01*
X184600883Y-182836185D02*
X184672311Y-182764757D01*
X184672311Y-182764757D02*
X184672311Y-182907614D01*
D10*
D11*
X197002200Y-191507200D02*
X197002200Y-194507200D01*
D10*
D11*
X261002200Y-191507200D02*
X261002200Y-198007200D01*
D14*
%TO.P,J1,1,Pin_1*%
%TO.N,unconnected-(J1-Pin_1-Pad1)*%
X127940000Y-97460000D03*
D15*
%TO.P,J1,2,Pin_2*%
%TO.N,/IOREF*%
X130480000Y-97460000D03*
%TO.P,J1,3,Pin_3*%
%TO.N,/~{RESET}*%
X133020000Y-97460000D03*
%TO.P,J1,4,Pin_4*%
%TO.N,+3V3*%
X135560000Y-97460000D03*
%TO.P,J1,5,Pin_5*%
%TO.N,+5V*%
X138100000Y-97460000D03*
%TO.P,J1,6,Pin_6*%
%TO.N,GND*%
X140640000Y-97460000D03*
%TO.P,J1,7,Pin_7*%
X143180000Y-97460000D03*
%TO.P,J1,8,Pin_8*%
%TO.N,VCC*%
X145720000Y-97460000D03*
%TD*%
D14*
%TO.P,J3,1,Pin_1*%
%TO.N,Ampli Out*%
X150800000Y-97460000D03*
D15*
%TO.P,J3,2,Pin_2*%
%TO.N,/A1*%
X153340000Y-97460000D03*
%TO.P,J3,3,Pin_3*%
%TO.N,/A2*%
X155880000Y-97460000D03*
%TO.P,J3,4,Pin_4*%
%TO.N,/A3*%
X158420000Y-97460000D03*
%TO.P,J3,5,Pin_5*%
%TO.N,OLED SDA*%
X160960000Y-97460000D03*
%TO.P,J3,6,Pin_6*%
%TO.N,OLED SCL*%
X163500000Y-97460000D03*
%TD*%
D14*
%TO.P,J2,1,Pin_1*%
%TO.N,OLED SCL*%
X118796000Y-49200000D03*
D15*
%TO.P,J2,2,Pin_2*%
%TO.N,OLED SDA*%
X121336000Y-49200000D03*
%TO.P,J2,3,Pin_3*%
%TO.N,/AREF*%
X123876000Y-49200000D03*
%TO.P,J2,4,Pin_4*%
%TO.N,GND*%
X126416000Y-49200000D03*
%TO.P,J2,5,Pin_5*%
%TO.N,PD SCK*%
X128956000Y-49200000D03*
%TO.P,J2,6,Pin_6*%
%TO.N,/12*%
X131496000Y-49200000D03*
%TO.P,J2,7,Pin_7*%
%TO.N,PD SDI*%
X134036000Y-49200000D03*
%TO.P,J2,8,Pin_8*%
%TO.N,PD CS*%
X136576000Y-49200000D03*
%TO.P,J2,9,Pin_9*%
%TO.N,/\u002A9*%
X139116000Y-49200000D03*
%TO.P,J2,10,Pin_10*%
%TO.N,BT TX*%
X141656000Y-49200000D03*
%TD*%
D14*
%TO.P,J4,1,Pin_1*%
%TO.N,BT RX*%
X145720000Y-49200000D03*
D15*
%TO.P,J4,2,Pin_2*%
%TO.N,/\u002A6*%
X148260000Y-49200000D03*
%TO.P,J4,3,Pin_3*%
%TO.N,MR SWitch*%
X150800000Y-49200000D03*
%TO.P,J4,4,Pin_4*%
%TO.N,MR Data*%
X153340000Y-49200000D03*
%TO.P,J4,5,Pin_5*%
%TO.N,/\u002A3*%
X155880000Y-49200000D03*
%TO.P,J4,6,Pin_6*%
%TO.N,MR CLK*%
X158420000Y-49200000D03*
%TO.P,J4,7,Pin_7*%
%TO.N,/TX{slash}1*%
X160960000Y-49200000D03*
%TO.P,J4,8,Pin_8*%
%TO.N,/RX{slash}0*%
X163500000Y-49200000D03*
%TD*%
D16*
%TO.P,R2,1*%
%TO.N,Net-(U2-+)*%
X115000000Y-65000000D03*
D17*
%TO.P,R2,2*%
%TO.N,GND*%
X115000000Y-75160000D03*
%TD*%
D16*
%TO.P,R4,1*%
%TO.N,Net-(U2--)*%
X129000000Y-73840000D03*
D17*
%TO.P,R4,2*%
%TO.N,Net-(C2-Pad2)*%
X129000000Y-84000000D03*
%TD*%
D16*
%TO.P,R3,1*%
%TO.N,Net-(J5-Pin_1)*%
X110920000Y-78500000D03*
D17*
%TO.P,R3,2*%
%TO.N,Net-(U2-+)*%
X121080000Y-78500000D03*
%TD*%
D18*
%TO.P,U1,1,GND*%
%TO.N,GND*%
X141880000Y-63000000D03*
D19*
%TO.P,U1,2,vcc*%
%TO.N,+5V*%
X144420000Y-63000000D03*
%TO.P,U1,3,SCL*%
%TO.N,OLED SCL*%
X146960000Y-63000000D03*
%TO.P,U1,4,SDA*%
%TO.N,OLED SDA*%
X149500000Y-63000000D03*
%TD*%
D16*
%TO.P,C2,1*%
%TO.N,Net-(U2--)*%
X125000000Y-88500000D03*
%TO.P,C2,2*%
%TO.N,Net-(C2-Pad2)*%
X125000000Y-93500000D03*
%TD*%
D20*
%TO.P,R1,1*%
%TO.N,Net-(U2--)*%
X125000000Y-83620000D03*
D21*
%TO.P,R1,2*%
%TO.N,GND*%
X125000000Y-76000000D03*
%TD*%
D16*
%TO.P,C4,1*%
%TO.N,MR CLK*%
X166000000Y-88000000D03*
%TO.P,C4,2*%
%TO.N,GND*%
X166000000Y-85500000D03*
%TD*%
D22*
%TO.P,HC-1,1*%
%TO.N,N/C*%
X154040000Y-54500000D03*
D23*
%TO.P,HC-1,2,RX*%
%TO.N,BT RX*%
X151500000Y-54500000D03*
%TO.P,HC-1,3,TX*%
%TO.N,BT TX*%
X148960000Y-54500000D03*
%TO.P,HC-1,4,GND*%
%TO.N,GND*%
X146420000Y-54500000D03*
%TO.P,HC-1,5,5V*%
%TO.N,+5V*%
X143880000Y-54500000D03*
%TO.P,HC-1,6*%
%TO.N,N/C*%
X141340000Y-54500000D03*
%TD*%
D24*
%TO.P,U3,1,~{CS}*%
%TO.N,PD SDI*%
X124000000Y-54500000D03*
D25*
%TO.P,U3,2,SCK*%
%TO.N,PD SCK*%
X121460000Y-54500000D03*
%TO.P,U3,3,SI*%
%TO.N,PD CS*%
X118920000Y-54500000D03*
%TO.P,U3,4,VSS*%
%TO.N,unconnected-(U3-VSS-Pad4)*%
X116380000Y-54500000D03*
%TO.P,U3,5,PA0*%
%TO.N,unconnected-(U3-PA0-Pad5)*%
X116380000Y-62120000D03*
%TO.P,U3,6,PW0*%
%TO.N,unconnected-(U3-PW0-Pad6)*%
X118920000Y-62120000D03*
%TO.P,U3,7,PB0*%
%TO.N,unconnected-(U3-PB0-Pad7)*%
X121460000Y-62120000D03*
%TO.P,U3,8,VDD*%
%TO.N,unconnected-(U3-VDD-Pad8)*%
X124000000Y-62120000D03*
%TD*%
D14*
%TO.P,J5,1,Pin_1*%
%TO.N,Net-(J5-Pin_1)*%
X107500000Y-78680000D03*
D15*
%TO.P,J5,2,Pin_2*%
%TO.N,+5V*%
X107500000Y-81220000D03*
%TD*%
D16*
%TO.P,C1,1*%
%TO.N,Net-(U2-+)*%
X109000000Y-69250000D03*
%TO.P,C1,2*%
%TO.N,GND*%
X109000000Y-71750000D03*
%TD*%
D26*
%TO.P,U2,1,NC*%
%TO.N,unconnected-(U2-NC-Pad1)*%
X120500000Y-90620000D03*
D17*
%TO.P,U2,2,-*%
%TO.N,Net-(U2--)*%
X120500000Y-88080000D03*
%TO.P,U2,3,+*%
%TO.N,Net-(U2-+)*%
X120500000Y-85540000D03*
%TO.P,U2,4,V-*%
%TO.N,GND*%
X120500000Y-83000000D03*
%TO.P,U2,5,EXT*%
%TO.N,unconnected-(U2-EXT-Pad5)*%
X112880000Y-83000000D03*
%TO.P,U2,6*%
%TO.N,Net-(C2-Pad2)*%
X112880000Y-85540000D03*
%TO.P,U2,7,V+*%
%TO.N,+5V*%
X112880000Y-88080000D03*
%TO.P,U2,8,NC*%
%TO.N,unconnected-(U2-NC-Pad8)*%
X112880000Y-90620000D03*
%TD*%
D16*
%TO.P,C3,1*%
%TO.N,Ampli Out*%
X133000000Y-92500000D03*
%TO.P,C3,2*%
%TO.N,GND*%
X135500000Y-92500000D03*
%TD*%
D20*
%TO.P,R5,1*%
%TO.N,Net-(C2-Pad2)*%
X129500000Y-86190000D03*
D21*
%TO.P,R5,2*%
%TO.N,Ampli Out*%
X129500000Y-93810000D03*
%TD*%
D27*
%TO.P,KY-1,1,GND*%
%TO.N,GND*%
X166000000Y-81620000D03*
D28*
%TO.P,KY-1,2,5V*%
%TO.N,+5V*%
X166000000Y-79080000D03*
%TO.P,KY-1,3,Switch*%
%TO.N,MR SWitch*%
X166000000Y-76540000D03*
%TO.P,KY-1,4,Data*%
%TO.N,MR Data*%
X166000000Y-74000000D03*
%TO.P,KY-1,5,CLK*%
%TO.N,MR CLK*%
X166000000Y-71460000D03*
%TD*%
D29*
%TO.N,GND*%
X153000000Y-73500000D03*
X153000000Y-83500000D03*
%TD*%
D30*
%TO.N,GND*%
X151500000Y-56500000D02*
X153000000Y-58000000D01*
X155880000Y-81620000D02*
X166000000Y-81620000D01*
X146420000Y-55830000D02*
X147090000Y-56500000D01*
X154000000Y-83500000D02*
X155880000Y-81620000D01*
X153000000Y-58000000D02*
X153000000Y-73500000D01*
X153000000Y-83500000D02*
X154000000Y-83500000D01*
X147090000Y-56500000D02*
X151500000Y-56500000D01*
X146420000Y-54500000D02*
X146420000Y-55830000D01*
X140460000Y-97460000D02*
X140640000Y-97460000D01*
X124840000Y-76160000D02*
X125000000Y-76000000D01*
%TO.N,+5V*%
X146000000Y-79080000D02*
X146000000Y-64820000D01*
X146500000Y-57500000D02*
X149000000Y-57500000D01*
X146000000Y-79080000D02*
X142250101Y-79080000D01*
X150800000Y-64700000D02*
X146120000Y-64700000D01*
X144275000Y-56225000D02*
X145225000Y-56225000D01*
X107500000Y-82700000D02*
X112880000Y-88080000D01*
X139415050Y-81915050D02*
X127500000Y-93830101D01*
X145225000Y-56225000D02*
X146500000Y-57500000D01*
X166000000Y-79080000D02*
X146000000Y-79080000D01*
X146000000Y-64820000D02*
X146120000Y-64700000D01*
X107500000Y-81220000D02*
X107500000Y-82700000D01*
X143880000Y-54500000D02*
X143880000Y-55830000D01*
X136550000Y-95910000D02*
X138100000Y-97460000D01*
X142250101Y-79080000D02*
X139415050Y-81915050D01*
X151500000Y-60000000D02*
X151500000Y-64000000D01*
X127500000Y-93830101D02*
X127500000Y-95910000D01*
X127500000Y-95910000D02*
X136550000Y-95910000D01*
X106297919Y-81220000D02*
X107500000Y-81220000D01*
X146120000Y-64700000D02*
X144420000Y-63000000D01*
X112880000Y-88080000D02*
X120710000Y-95910000D01*
D31*
X143880000Y-54500000D02*
X143880000Y-54917006D01*
D30*
X143880000Y-55830000D02*
X144275000Y-56225000D01*
X149000000Y-57500000D02*
X151500000Y-60000000D01*
X151500000Y-64000000D02*
X150800000Y-64700000D01*
X120710000Y-95910000D02*
X127500000Y-95910000D01*
%TO.N,Net-(U2-+)*%
X121080000Y-78500000D02*
X124479899Y-78500000D01*
X109000000Y-69250000D02*
X110750000Y-69250000D01*
X126400000Y-76579899D02*
X126400000Y-75400000D01*
X110750000Y-69250000D02*
X115000000Y-65000000D01*
X121080000Y-78500000D02*
X122000000Y-79420000D01*
X116000000Y-65000000D02*
X115000000Y-65000000D01*
X122000000Y-79420000D02*
X122000000Y-84040000D01*
X126400000Y-75400000D02*
X116000000Y-65000000D01*
X122000000Y-84040000D02*
X120500000Y-85540000D01*
X124479899Y-78500000D02*
X126400000Y-76579899D01*
%TO.N,Net-(U2--)*%
X120920000Y-88500000D02*
X120500000Y-88080000D01*
X125000000Y-88500000D02*
X125000000Y-83620000D01*
X129000000Y-79620000D02*
X125000000Y-83620000D01*
X125000000Y-88500000D02*
X120920000Y-88500000D01*
X129000000Y-73840000D02*
X129000000Y-79620000D01*
%TO.N,Net-(C2-Pad2)*%
X129000000Y-84000000D02*
X129000000Y-85690000D01*
X129000000Y-85690000D02*
X129500000Y-86190000D01*
X120500000Y-93500000D02*
X112880000Y-85880000D01*
X125000000Y-90690000D02*
X129500000Y-86190000D01*
X125000000Y-93500000D02*
X125000000Y-90690000D01*
X125000000Y-93500000D02*
X120500000Y-93500000D01*
X112880000Y-85880000D02*
X112880000Y-85540000D01*
%TO.N,MR CLK*%
X166000000Y-71460000D02*
X164000000Y-69460000D01*
X167970000Y-73160000D02*
X166270000Y-71460000D01*
X166270000Y-71460000D02*
X166000000Y-71460000D01*
X164000000Y-69460000D02*
X164000000Y-54780000D01*
X166000000Y-88000000D02*
X167970000Y-86030000D01*
X167970000Y-86030000D02*
X167970000Y-73160000D01*
X164000000Y-54780000D02*
X158420000Y-49200000D01*
%TO.N,PD SDI*%
X124000000Y-54500000D02*
X128736000Y-54500000D01*
X128736000Y-54500000D02*
X134036000Y-49200000D01*
%TO.N,PD SCK*%
X121460000Y-54500000D02*
X122909300Y-53050700D01*
X122909300Y-53050700D02*
X125105300Y-53050700D01*
X125105300Y-53050700D02*
X128956000Y-49200000D01*
%TO.N,PD CS*%
X120369300Y-55949300D02*
X129826700Y-55949300D01*
X118920000Y-54500000D02*
X120369300Y-55949300D01*
X129826700Y-55949300D02*
X136576000Y-49200000D01*
%TO.N,BT TX*%
X148960000Y-54500000D02*
X148960000Y-53170000D01*
X145344163Y-50750000D02*
X143206000Y-50750000D01*
X148960000Y-54365837D02*
X145344163Y-50750000D01*
X143206000Y-50750000D02*
X141656000Y-49200000D01*
X148960000Y-54500000D02*
X148960000Y-54365837D01*
%TO.N,BT RX*%
X151500000Y-53170000D02*
X149830000Y-51500000D01*
X151500000Y-54500000D02*
X151500000Y-53170000D01*
X149830000Y-51500000D02*
X148020000Y-51500000D01*
X148020000Y-51500000D02*
X145720000Y-49200000D01*
%TO.N,MR Data*%
X153687968Y-49200000D02*
X153340000Y-49200000D01*
X165730000Y-74000000D02*
X163000000Y-71270000D01*
X163000000Y-57500000D02*
X157500000Y-52000000D01*
X166000000Y-74000000D02*
X165730000Y-74000000D01*
X157500000Y-52000000D02*
X156487968Y-52000000D01*
X156487968Y-52000000D02*
X153687968Y-49200000D01*
X163000000Y-71270000D02*
X163000000Y-57500000D01*
%TO.N,MR SWitch*%
X161500000Y-58500000D02*
X154750001Y-51750001D01*
X154750001Y-51750001D02*
X153350001Y-51750001D01*
X153350001Y-51750001D02*
X150800000Y-49200000D01*
X166000000Y-76540000D02*
X165730000Y-76540000D01*
X165730000Y-76540000D02*
X161500000Y-72310000D01*
X161500000Y-72310000D02*
X161500000Y-58500000D01*
%TO.N,Ampli Out*%
X134000000Y-91000000D02*
X144340000Y-91000000D01*
X129500000Y-93810000D02*
X131690000Y-93810000D01*
X133000000Y-92500000D02*
X133000000Y-92000000D01*
X144340000Y-91000000D02*
X150800000Y-97460000D01*
X131690000Y-93810000D02*
X133000000Y-92500000D01*
X133000000Y-92000000D02*
X134000000Y-91000000D01*
%TO.N,OLED SCL*%
X146000000Y-59500000D02*
X117916166Y-59500000D01*
X113930699Y-55514533D02*
X113930699Y-53485467D01*
X146960000Y-60460000D02*
X146000000Y-59500000D01*
X113930699Y-53485467D02*
X118216166Y-49200000D01*
X118216166Y-49200000D02*
X118796000Y-49200000D01*
X146960000Y-63000000D02*
X146960000Y-60460000D01*
X117916166Y-59500000D02*
X113930699Y-55514533D01*
%TO.N,OLED SDA*%
X118330380Y-58500000D02*
X148000000Y-58500000D01*
X117830380Y-51000000D02*
X114930700Y-53899680D01*
X121336000Y-48640000D02*
X121336000Y-49200000D01*
X114930700Y-53899680D02*
X114930700Y-55100320D01*
X148000000Y-58500000D02*
X149500000Y-60000000D01*
X121336000Y-50402081D02*
X120738081Y-51000000D01*
X114930700Y-55100320D02*
X118330380Y-58500000D01*
X149500000Y-60000000D02*
X149500000Y-63000000D01*
X121336000Y-49200000D02*
X121336000Y-50402081D01*
X120738081Y-51000000D02*
X117830380Y-51000000D01*
%TO.N,Net-(J5-Pin_1)*%
X110740000Y-78680000D02*
X110920000Y-78500000D01*
X107500000Y-78680000D02*
X110740000Y-78680000D01*
%TD*%
%TA.AperFunction,Conductor*%
%TO.N,GND*%
G36*
X163484404Y-46755185D02*
G01*
X163505046Y-46771819D01*
X165928181Y-49194954D01*
X165961666Y-49256277D01*
X165964500Y-49282635D01*
X165964500Y-59344982D01*
X165964500Y-59375018D01*
X165975994Y-59402767D01*
X165975995Y-59402768D01*
X168468181Y-61894954D01*
X168501666Y-61956277D01*
X168504500Y-61982635D01*
X168504500Y-72251746D01*
X168484815Y-72318785D01*
X168432011Y-72364540D01*
X168362853Y-72374484D01*
X168299297Y-72345459D01*
X168292819Y-72339427D01*
X167789487Y-71836095D01*
X167756002Y-71774772D01*
X167754695Y-71729020D01*
X167775826Y-71595606D01*
X167778500Y-71578726D01*
X167778500Y-71341272D01*
X167741356Y-71106758D01*
X167683807Y-70929642D01*
X167667982Y-70880937D01*
X167667980Y-70880934D01*
X167667980Y-70880932D01*
X167581524Y-70711254D01*
X167560185Y-70669373D01*
X167420620Y-70477278D01*
X167252722Y-70309380D01*
X167060627Y-70169815D01*
X166849067Y-70062019D01*
X166623241Y-69988643D01*
X166388727Y-69951500D01*
X166388722Y-69951500D01*
X165686254Y-69951500D01*
X165619215Y-69931815D01*
X165598573Y-69915181D01*
X164844819Y-69161427D01*
X164811334Y-69100104D01*
X164808500Y-69073746D01*
X164808500Y-54700369D01*
X164808499Y-54700365D01*
X164790449Y-54609622D01*
X164777430Y-54544169D01*
X164736546Y-54445467D01*
X164731868Y-54434174D01*
X164716487Y-54397039D01*
X164716486Y-54397038D01*
X164716484Y-54397032D01*
X164712037Y-54390377D01*
X164628003Y-54264610D01*
X164628000Y-54264607D01*
X161113779Y-50750387D01*
X161080294Y-50689064D01*
X161085278Y-50619372D01*
X161127150Y-50563439D01*
X161181048Y-50540398D01*
X161294635Y-50521444D01*
X161507574Y-50448342D01*
X161705576Y-50341189D01*
X161883240Y-50202906D01*
X161982614Y-50094957D01*
X162035715Y-50037276D01*
X162035715Y-50037275D01*
X162035722Y-50037268D01*
X162126193Y-49898790D01*
X162179338Y-49853437D01*
X162248569Y-49844013D01*
X162311905Y-49873515D01*
X162333804Y-49898787D01*
X162424278Y-50037268D01*
X162424283Y-50037273D01*
X162424284Y-50037276D01*
X162536526Y-50159201D01*
X162576760Y-50202906D01*
X162754424Y-50341189D01*
X162754425Y-50341189D01*
X162754427Y-50341191D01*
X162814314Y-50373600D01*
X162952426Y-50448342D01*
X163165365Y-50521444D01*
X163387431Y-50558500D01*
X163612569Y-50558500D01*
X163834635Y-50521444D01*
X164047574Y-50448342D01*
X164245576Y-50341189D01*
X164423240Y-50202906D01*
X164522614Y-50094957D01*
X164575715Y-50037276D01*
X164575717Y-50037273D01*
X164575722Y-50037268D01*
X164698860Y-49848791D01*
X164789296Y-49642616D01*
X164844564Y-49424368D01*
X164856309Y-49282635D01*
X164863156Y-49200005D01*
X164863156Y-49199994D01*
X164844565Y-48975640D01*
X164844563Y-48975628D01*
X164800063Y-48799901D01*
X164789296Y-48757384D01*
X164698860Y-48551209D01*
X164682706Y-48526484D01*
X164575723Y-48362734D01*
X164575715Y-48362723D01*
X164423243Y-48197097D01*
X164423238Y-48197092D01*
X164245577Y-48058812D01*
X164245572Y-48058808D01*
X164047580Y-47951661D01*
X164047577Y-47951659D01*
X164047574Y-47951658D01*
X164047571Y-47951657D01*
X164047569Y-47951656D01*
X163834637Y-47878556D01*
X163612569Y-47841500D01*
X163387431Y-47841500D01*
X163165362Y-47878556D01*
X162952430Y-47951656D01*
X162952419Y-47951661D01*
X162754427Y-48058808D01*
X162754422Y-48058812D01*
X162576761Y-48197092D01*
X162576756Y-48197097D01*
X162424284Y-48362723D01*
X162424276Y-48362734D01*
X162333808Y-48501206D01*
X162280662Y-48546562D01*
X162211431Y-48555986D01*
X162148095Y-48526484D01*
X162126192Y-48501206D01*
X162035723Y-48362734D01*
X162035715Y-48362723D01*
X161883243Y-48197097D01*
X161883238Y-48197092D01*
X161705577Y-48058812D01*
X161705572Y-48058808D01*
X161507580Y-47951661D01*
X161507577Y-47951659D01*
X161507574Y-47951658D01*
X161507571Y-47951657D01*
X161507569Y-47951656D01*
X161294637Y-47878556D01*
X161072569Y-47841500D01*
X160847431Y-47841500D01*
X160625362Y-47878556D01*
X160412430Y-47951656D01*
X160412419Y-47951661D01*
X160214427Y-48058808D01*
X160214422Y-48058812D01*
X160036761Y-48197092D01*
X160036756Y-48197097D01*
X159884284Y-48362723D01*
X159884276Y-48362734D01*
X159793808Y-48501206D01*
X159740662Y-48546562D01*
X159671431Y-48555986D01*
X159608095Y-48526484D01*
X159586192Y-48501206D01*
X159495723Y-48362734D01*
X159495715Y-48362723D01*
X159343243Y-48197097D01*
X159343238Y-48197092D01*
X159165577Y-48058812D01*
X159165572Y-48058808D01*
X158967580Y-47951661D01*
X158967577Y-47951659D01*
X158967574Y-47951658D01*
X158967571Y-47951657D01*
X158967569Y-47951656D01*
X158754637Y-47878556D01*
X158532569Y-47841500D01*
X158307431Y-47841500D01*
X158085362Y-47878556D01*
X157872430Y-47951656D01*
X157872419Y-47951661D01*
X157674427Y-48058808D01*
X157674422Y-48058812D01*
X157496761Y-48197092D01*
X157496756Y-48197097D01*
X157344284Y-48362723D01*
X157344276Y-48362734D01*
X157253808Y-48501206D01*
X157200662Y-48546562D01*
X157131431Y-48555986D01*
X157068095Y-48526484D01*
X157046192Y-48501206D01*
X156955723Y-48362734D01*
X156955715Y-48362723D01*
X156803243Y-48197097D01*
X156803238Y-48197092D01*
X156625577Y-48058812D01*
X156625572Y-48058808D01*
X156427580Y-47951661D01*
X156427577Y-47951659D01*
X156427574Y-47951658D01*
X156427571Y-47951657D01*
X156427569Y-47951656D01*
X156214637Y-47878556D01*
X155992569Y-47841500D01*
X155767431Y-47841500D01*
X155545362Y-47878556D01*
X155332430Y-47951656D01*
X155332419Y-47951661D01*
X155134427Y-48058808D01*
X155134422Y-48058812D01*
X154956761Y-48197092D01*
X154956756Y-48197097D01*
X154804284Y-48362723D01*
X154804276Y-48362734D01*
X154713808Y-48501206D01*
X154660662Y-48546562D01*
X154591431Y-48555986D01*
X154528095Y-48526484D01*
X154506192Y-48501206D01*
X154415723Y-48362734D01*
X154415715Y-48362723D01*
X154263243Y-48197097D01*
X154263238Y-48197092D01*
X154085577Y-48058812D01*
X154085572Y-48058808D01*
X153887580Y-47951661D01*
X153887577Y-47951659D01*
X153887574Y-47951658D01*
X153887571Y-47951657D01*
X153887569Y-47951656D01*
X153674637Y-47878556D01*
X153452569Y-47841500D01*
X153227431Y-47841500D01*
X153005362Y-47878556D01*
X152792430Y-47951656D01*
X152792419Y-47951661D01*
X152594427Y-48058808D01*
X152594422Y-48058812D01*
X152416761Y-48197092D01*
X152416756Y-48197097D01*
X152264284Y-48362723D01*
X152264276Y-48362734D01*
X152173808Y-48501206D01*
X152120662Y-48546562D01*
X152051431Y-48555986D01*
X151988095Y-48526484D01*
X151966192Y-48501206D01*
X151875723Y-48362734D01*
X151875715Y-48362723D01*
X151723243Y-48197097D01*
X151723238Y-48197092D01*
X151545577Y-48058812D01*
X151545572Y-48058808D01*
X151347580Y-47951661D01*
X151347577Y-47951659D01*
X151347574Y-47951658D01*
X151347571Y-47951657D01*
X151347569Y-47951656D01*
X151134637Y-47878556D01*
X150912569Y-47841500D01*
X150687431Y-47841500D01*
X150465362Y-47878556D01*
X150252430Y-47951656D01*
X150252419Y-47951661D01*
X150054427Y-48058808D01*
X150054422Y-48058812D01*
X149876761Y-48197092D01*
X149876756Y-48197097D01*
X149724284Y-48362723D01*
X149724276Y-48362734D01*
X149633808Y-48501206D01*
X149580662Y-48546562D01*
X149511431Y-48555986D01*
X149448095Y-48526484D01*
X149426192Y-48501206D01*
X149335723Y-48362734D01*
X149335715Y-48362723D01*
X149183243Y-48197097D01*
X149183238Y-48197092D01*
X149005577Y-48058812D01*
X149005572Y-48058808D01*
X148807580Y-47951661D01*
X148807577Y-47951659D01*
X148807574Y-47951658D01*
X148807571Y-47951657D01*
X148807569Y-47951656D01*
X148594637Y-47878556D01*
X148372569Y-47841500D01*
X148147431Y-47841500D01*
X147925362Y-47878556D01*
X147712430Y-47951656D01*
X147712419Y-47951661D01*
X147514427Y-48058808D01*
X147514422Y-48058812D01*
X147336761Y-48197092D01*
X147273548Y-48265760D01*
X147213661Y-48301750D01*
X147143823Y-48299649D01*
X147086207Y-48260124D01*
X147066138Y-48225110D01*
X147020889Y-48103796D01*
X146987214Y-48058812D01*
X146933261Y-47986739D01*
X146816204Y-47899111D01*
X146679203Y-47848011D01*
X146618654Y-47841500D01*
X146618638Y-47841500D01*
X144821362Y-47841500D01*
X144821345Y-47841500D01*
X144760797Y-47848011D01*
X144760795Y-47848011D01*
X144623795Y-47899111D01*
X144506739Y-47986739D01*
X144419111Y-48103795D01*
X144368011Y-48240795D01*
X144368011Y-48240797D01*
X144361500Y-48301345D01*
X144361500Y-49817500D01*
X144341815Y-49884539D01*
X144289011Y-49930294D01*
X144237500Y-49941500D01*
X143592254Y-49941500D01*
X143525215Y-49921815D01*
X143504573Y-49905181D01*
X143042980Y-49443588D01*
X143009495Y-49382265D01*
X143007085Y-49345669D01*
X143019156Y-49200000D01*
X143015612Y-49157233D01*
X143000565Y-48975640D01*
X143000563Y-48975628D01*
X142956063Y-48799901D01*
X142945296Y-48757384D01*
X142854860Y-48551209D01*
X142838706Y-48526484D01*
X142731723Y-48362734D01*
X142731715Y-48362723D01*
X142579243Y-48197097D01*
X142579238Y-48197092D01*
X142401577Y-48058812D01*
X142401572Y-48058808D01*
X142203580Y-47951661D01*
X142203577Y-47951659D01*
X142203574Y-47951658D01*
X142203571Y-47951657D01*
X142203569Y-47951656D01*
X141990637Y-47878556D01*
X141768569Y-47841500D01*
X141543431Y-47841500D01*
X141321362Y-47878556D01*
X141108430Y-47951656D01*
X141108419Y-47951661D01*
X140910427Y-48058808D01*
X140910422Y-48058812D01*
X140732761Y-48197092D01*
X140732756Y-48197097D01*
X140580284Y-48362723D01*
X140580276Y-48362734D01*
X140489808Y-48501206D01*
X140436662Y-48546562D01*
X140367431Y-48555986D01*
X140304095Y-48526484D01*
X140282192Y-48501206D01*
X140191723Y-48362734D01*
X140191715Y-48362723D01*
X140039243Y-48197097D01*
X140039238Y-48197092D01*
X139861577Y-48058812D01*
X139861572Y-48058808D01*
X139663580Y-47951661D01*
X139663577Y-47951659D01*
X139663574Y-47951658D01*
X139663571Y-47951657D01*
X139663569Y-47951656D01*
X139450637Y-47878556D01*
X139228569Y-47841500D01*
X139003431Y-47841500D01*
X138781362Y-47878556D01*
X138568430Y-47951656D01*
X138568419Y-47951661D01*
X138370427Y-48058808D01*
X138370422Y-48058812D01*
X138192761Y-48197092D01*
X138192756Y-48197097D01*
X138040284Y-48362723D01*
X138040276Y-48362734D01*
X137949808Y-48501206D01*
X137896662Y-48546562D01*
X137827431Y-48555986D01*
X137764095Y-48526484D01*
X137742192Y-48501206D01*
X137651723Y-48362734D01*
X137651715Y-48362723D01*
X137499243Y-48197097D01*
X137499238Y-48197092D01*
X137321577Y-48058812D01*
X137321572Y-48058808D01*
X137123580Y-47951661D01*
X137123577Y-47951659D01*
X137123574Y-47951658D01*
X137123571Y-47951657D01*
X137123569Y-47951656D01*
X136910637Y-47878556D01*
X136688569Y-47841500D01*
X136463431Y-47841500D01*
X136241362Y-47878556D01*
X136028430Y-47951656D01*
X136028419Y-47951661D01*
X135830427Y-48058808D01*
X135830422Y-48058812D01*
X135652761Y-48197092D01*
X135652756Y-48197097D01*
X135500284Y-48362723D01*
X135500276Y-48362734D01*
X135409808Y-48501206D01*
X135356662Y-48546562D01*
X135287431Y-48555986D01*
X135224095Y-48526484D01*
X135202192Y-48501206D01*
X135111723Y-48362734D01*
X135111715Y-48362723D01*
X134959243Y-48197097D01*
X134959238Y-48197092D01*
X134781577Y-48058812D01*
X134781572Y-48058808D01*
X134583580Y-47951661D01*
X134583577Y-47951659D01*
X134583574Y-47951658D01*
X134583571Y-47951657D01*
X134583569Y-47951656D01*
X134370637Y-47878556D01*
X134148569Y-47841500D01*
X133923431Y-47841500D01*
X133701362Y-47878556D01*
X133488430Y-47951656D01*
X133488419Y-47951661D01*
X133290427Y-48058808D01*
X133290422Y-48058812D01*
X133112761Y-48197092D01*
X133112756Y-48197097D01*
X132960284Y-48362723D01*
X132960276Y-48362734D01*
X132869808Y-48501206D01*
X132816662Y-48546562D01*
X132747431Y-48555986D01*
X132684095Y-48526484D01*
X132662192Y-48501206D01*
X132571723Y-48362734D01*
X132571715Y-48362723D01*
X132419243Y-48197097D01*
X132419238Y-48197092D01*
X132241577Y-48058812D01*
X132241572Y-48058808D01*
X132043580Y-47951661D01*
X132043577Y-47951659D01*
X132043574Y-47951658D01*
X132043571Y-47951657D01*
X132043569Y-47951656D01*
X131830637Y-47878556D01*
X131608569Y-47841500D01*
X131383431Y-47841500D01*
X131161362Y-47878556D01*
X130948430Y-47951656D01*
X130948419Y-47951661D01*
X130750427Y-48058808D01*
X130750422Y-48058812D01*
X130572761Y-48197092D01*
X130572756Y-48197097D01*
X130420284Y-48362723D01*
X130420276Y-48362734D01*
X130329808Y-48501206D01*
X130276662Y-48546562D01*
X130207431Y-48555986D01*
X130144095Y-48526484D01*
X130122192Y-48501206D01*
X130031723Y-48362734D01*
X130031715Y-48362723D01*
X129879243Y-48197097D01*
X129879238Y-48197092D01*
X129701577Y-48058812D01*
X129701572Y-48058808D01*
X129503580Y-47951661D01*
X129503577Y-47951659D01*
X129503574Y-47951658D01*
X129503571Y-47951657D01*
X129503569Y-47951656D01*
X129290637Y-47878556D01*
X129068569Y-47841500D01*
X128843431Y-47841500D01*
X128621362Y-47878556D01*
X128408430Y-47951656D01*
X128408419Y-47951661D01*
X128210427Y-48058808D01*
X128210422Y-48058812D01*
X128032761Y-48197092D01*
X128032756Y-48197097D01*
X127880284Y-48362723D01*
X127880276Y-48362734D01*
X127786251Y-48506650D01*
X127733105Y-48552007D01*
X127663873Y-48561430D01*
X127600538Y-48531928D01*
X127580868Y-48509951D01*
X127454113Y-48328926D01*
X127454108Y-48328920D01*
X127287082Y-48161894D01*
X127093578Y-48026399D01*
X126879492Y-47926570D01*
X126879486Y-47926567D01*
X126666000Y-47869364D01*
X126666000Y-48766988D01*
X126608993Y-48734075D01*
X126481826Y-48700000D01*
X126350174Y-48700000D01*
X126223007Y-48734075D01*
X126166000Y-48766988D01*
X126166000Y-47869364D01*
X126165999Y-47869364D01*
X125952513Y-47926567D01*
X125952507Y-47926570D01*
X125738422Y-48026399D01*
X125738420Y-48026400D01*
X125544926Y-48161886D01*
X125544920Y-48161891D01*
X125377891Y-48328920D01*
X125377890Y-48328922D01*
X125251131Y-48509952D01*
X125196554Y-48553577D01*
X125127055Y-48560769D01*
X125064701Y-48529247D01*
X125045752Y-48506656D01*
X124951722Y-48362732D01*
X124951715Y-48362725D01*
X124951715Y-48362723D01*
X124799243Y-48197097D01*
X124799238Y-48197092D01*
X124621577Y-48058812D01*
X124621572Y-48058808D01*
X124423580Y-47951661D01*
X124423577Y-47951659D01*
X124423574Y-47951658D01*
X124423571Y-47951657D01*
X124423569Y-47951656D01*
X124210637Y-47878556D01*
X123988569Y-47841500D01*
X123763431Y-47841500D01*
X123541362Y-47878556D01*
X123328430Y-47951656D01*
X123328419Y-47951661D01*
X123130427Y-48058808D01*
X123130422Y-48058812D01*
X122952761Y-48197092D01*
X122952756Y-48197097D01*
X122800284Y-48362723D01*
X122800276Y-48362734D01*
X122709808Y-48501206D01*
X122656662Y-48546562D01*
X122587431Y-48555986D01*
X122524095Y-48526484D01*
X122502192Y-48501206D01*
X122411723Y-48362734D01*
X122411715Y-48362723D01*
X122259243Y-48197097D01*
X122259238Y-48197092D01*
X122081577Y-48058812D01*
X122081572Y-48058808D01*
X121883580Y-47951661D01*
X121883577Y-47951659D01*
X121883574Y-47951658D01*
X121883571Y-47951657D01*
X121883569Y-47951656D01*
X121670638Y-47878556D01*
X121558057Y-47859769D01*
X121554278Y-47859078D01*
X121513862Y-47851039D01*
X121415630Y-47831500D01*
X121256370Y-47831500D01*
X121206095Y-47841500D01*
X121117696Y-47859083D01*
X121113916Y-47859774D01*
X121001362Y-47878556D01*
X120788430Y-47951656D01*
X120788419Y-47951661D01*
X120590427Y-48058808D01*
X120590422Y-48058812D01*
X120412761Y-48197092D01*
X120349548Y-48265760D01*
X120289661Y-48301750D01*
X120219823Y-48299649D01*
X120162207Y-48260124D01*
X120142138Y-48225110D01*
X120096889Y-48103796D01*
X120063214Y-48058812D01*
X120009261Y-47986739D01*
X119892204Y-47899111D01*
X119755203Y-47848011D01*
X119694654Y-47841500D01*
X119694638Y-47841500D01*
X117897362Y-47841500D01*
X117897345Y-47841500D01*
X117836797Y-47848011D01*
X117836795Y-47848011D01*
X117699795Y-47899111D01*
X117582739Y-47986739D01*
X117495111Y-48103795D01*
X117444011Y-48240795D01*
X117444011Y-48240797D01*
X117437500Y-48301345D01*
X117437500Y-48783911D01*
X117417815Y-48850950D01*
X117401181Y-48871592D01*
X113302698Y-52970074D01*
X113302695Y-52970078D01*
X113214218Y-53102492D01*
X113214213Y-53102501D01*
X113183742Y-53176065D01*
X113183742Y-53176067D01*
X113153269Y-53249636D01*
X113153268Y-53249640D01*
X113153267Y-53249643D01*
X113153266Y-53249643D01*
X113122199Y-53405832D01*
X113122199Y-55594167D01*
X113153267Y-55750357D01*
X113153268Y-55750363D01*
X113178272Y-55810724D01*
X113178272Y-55810726D01*
X113214213Y-55897497D01*
X113214218Y-55897506D01*
X113302695Y-56029922D01*
X113302698Y-56029925D01*
X117283822Y-60011047D01*
X117283843Y-60011070D01*
X117400771Y-60127998D01*
X117400774Y-60128000D01*
X117400777Y-60128003D01*
X117480155Y-60181041D01*
X117480158Y-60181044D01*
X117533194Y-60216481D01*
X117533197Y-60216483D01*
X117551748Y-60224167D01*
X117551752Y-60224170D01*
X117551753Y-60224169D01*
X117680335Y-60277430D01*
X117836531Y-60308499D01*
X117836535Y-60308500D01*
X117836536Y-60308500D01*
X117995796Y-60308500D01*
X145613746Y-60308500D01*
X145680785Y-60328185D01*
X145701427Y-60344819D01*
X146115181Y-60758573D01*
X146148666Y-60819896D01*
X146151500Y-60846254D01*
X146151500Y-61656795D01*
X146131815Y-61723834D01*
X146092294Y-61762519D01*
X146081375Y-61769211D01*
X146070580Y-61775826D01*
X145890031Y-61930031D01*
X145784290Y-62053838D01*
X145725783Y-62092031D01*
X145655915Y-62092529D01*
X145596869Y-62055176D01*
X145595710Y-62053838D01*
X145489969Y-61930031D01*
X145349141Y-61809752D01*
X145309413Y-61775821D01*
X145309410Y-61775820D01*
X145106962Y-61651759D01*
X145106959Y-61651757D01*
X144887596Y-61560895D01*
X144656714Y-61505465D01*
X144420000Y-61486835D01*
X144183285Y-61505465D01*
X143952404Y-61560895D01*
X143952402Y-61560895D01*
X143733040Y-61651757D01*
X143733037Y-61651759D01*
X143530586Y-61775821D01*
X143530576Y-61775829D01*
X143512083Y-61791623D01*
X143448321Y-61820191D01*
X143379236Y-61809752D01*
X143326761Y-61763619D01*
X143323578Y-61758210D01*
X143237190Y-61642812D01*
X143237187Y-61642809D01*
X143122093Y-61556649D01*
X143122086Y-61556645D01*
X142987379Y-61506403D01*
X142987372Y-61506401D01*
X142927844Y-61500000D01*
X142130000Y-61500000D01*
X142130000Y-62684314D01*
X142125606Y-62679920D01*
X142034394Y-62627259D01*
X141932661Y-62600000D01*
X141827339Y-62600000D01*
X141725606Y-62627259D01*
X141634394Y-62679920D01*
X141630000Y-62684314D01*
X141630000Y-61500000D01*
X140832155Y-61500000D01*
X140772627Y-61506401D01*
X140772620Y-61506403D01*
X140637913Y-61556645D01*
X140637906Y-61556649D01*
X140522812Y-61642809D01*
X140522809Y-61642812D01*
X140436649Y-61757906D01*
X140436645Y-61757913D01*
X140386403Y-61892620D01*
X140386401Y-61892627D01*
X140380000Y-61952155D01*
X140380000Y-62750000D01*
X141564314Y-62750000D01*
X141559920Y-62754394D01*
X141507259Y-62845606D01*
X141480000Y-62947339D01*
X141480000Y-63052661D01*
X141507259Y-63154394D01*
X141559920Y-63245606D01*
X141564314Y-63250000D01*
X140380000Y-63250000D01*
X140380000Y-64047844D01*
X140386401Y-64107372D01*
X140386403Y-64107379D01*
X140436645Y-64242086D01*
X140436649Y-64242093D01*
X140522809Y-64357187D01*
X140522812Y-64357190D01*
X140637906Y-64443350D01*
X140637913Y-64443354D01*
X140772620Y-64493596D01*
X140772627Y-64493598D01*
X140832155Y-64499999D01*
X140832172Y-64500000D01*
X141630000Y-64500000D01*
X141630000Y-63315686D01*
X141634394Y-63320080D01*
X141725606Y-63372741D01*
X141827339Y-63400000D01*
X141932661Y-63400000D01*
X142034394Y-63372741D01*
X142125606Y-63320080D01*
X142130000Y-63315686D01*
X142130000Y-64500000D01*
X142927828Y-64500000D01*
X142927844Y-64499999D01*
X142987372Y-64493598D01*
X142987379Y-64493596D01*
X143122086Y-64443354D01*
X143122093Y-64443350D01*
X143237187Y-64357190D01*
X143237190Y-64357187D01*
X143328669Y-64234989D01*
X143329988Y-64235976D01*
X143372125Y-64193838D01*
X143440397Y-64178984D01*
X143505862Y-64203398D01*
X143512074Y-64208367D01*
X143530584Y-64224176D01*
X143661841Y-64304611D01*
X143733037Y-64348240D01*
X143733040Y-64348242D01*
X143952403Y-64439104D01*
X143952404Y-64439104D01*
X143952406Y-64439105D01*
X144183289Y-64494535D01*
X144420000Y-64513165D01*
X144656711Y-64494535D01*
X144681464Y-64488592D01*
X144751242Y-64492080D01*
X144798092Y-64521484D01*
X145155181Y-64878573D01*
X145188666Y-64939896D01*
X145191500Y-64966254D01*
X145191500Y-78147500D01*
X145171815Y-78214539D01*
X145119011Y-78260294D01*
X145067500Y-78271500D01*
X142170466Y-78271500D01*
X142014277Y-78302567D01*
X142014277Y-78302568D01*
X142014274Y-78302569D01*
X142014270Y-78302570D01*
X141928079Y-78338271D01*
X141928077Y-78338271D01*
X141867136Y-78363514D01*
X141867126Y-78363519D01*
X141734712Y-78451996D01*
X141734708Y-78451999D01*
X126871999Y-93314708D01*
X126871996Y-93314712D01*
X126783517Y-93447129D01*
X126761618Y-93500000D01*
X126722570Y-93594269D01*
X126722568Y-93594277D01*
X126691500Y-93750466D01*
X126691500Y-94977500D01*
X126671815Y-95044539D01*
X126619011Y-95090294D01*
X126567500Y-95101500D01*
X121096254Y-95101500D01*
X121029215Y-95081815D01*
X121008573Y-95065181D01*
X120463573Y-94520181D01*
X120430088Y-94458858D01*
X120435072Y-94389166D01*
X120476944Y-94333233D01*
X120542408Y-94308816D01*
X120551254Y-94308500D01*
X123906640Y-94308500D01*
X123973679Y-94328185D01*
X123994321Y-94344819D01*
X124155700Y-94506198D01*
X124343251Y-94637523D01*
X124380343Y-94654819D01*
X124550750Y-94734281D01*
X124550752Y-94734281D01*
X124550757Y-94734284D01*
X124771913Y-94793543D01*
X124934832Y-94807796D01*
X124999998Y-94813498D01*
X125000000Y-94813498D01*
X125000002Y-94813498D01*
X125057021Y-94808509D01*
X125228087Y-94793543D01*
X125449243Y-94734284D01*
X125656749Y-94637523D01*
X125844300Y-94506198D01*
X126006198Y-94344300D01*
X126137523Y-94156749D01*
X126234284Y-93949243D01*
X126293543Y-93728087D01*
X126313498Y-93500000D01*
X126293543Y-93271913D01*
X126234284Y-93050757D01*
X126137523Y-92843251D01*
X126006198Y-92655700D01*
X125844819Y-92494321D01*
X125811334Y-92432998D01*
X125808500Y-92406640D01*
X125808500Y-91076253D01*
X125828185Y-91009214D01*
X125844814Y-90988577D01*
X129394999Y-87438391D01*
X129456320Y-87404908D01*
X129493486Y-87402546D01*
X129500000Y-87403116D01*
X129500000Y-87403115D01*
X129500001Y-87403116D01*
X129500002Y-87403116D01*
X129564122Y-87397506D01*
X129710655Y-87384686D01*
X129914910Y-87329956D01*
X130106558Y-87240589D01*
X130279776Y-87119301D01*
X130429301Y-86969776D01*
X130550589Y-86796558D01*
X130639956Y-86604910D01*
X130694686Y-86400655D01*
X130713116Y-86190000D01*
X130694686Y-85979345D01*
X130639956Y-85775090D01*
X130550589Y-85583442D01*
X130429301Y-85410224D01*
X130429299Y-85410221D01*
X130279778Y-85260700D01*
X130106558Y-85139411D01*
X130106556Y-85139410D01*
X129997350Y-85088486D01*
X129944911Y-85042313D01*
X129925759Y-84975120D01*
X129945975Y-84908239D01*
X129962070Y-84888427D01*
X130006198Y-84844300D01*
X130137523Y-84656749D01*
X130234284Y-84449243D01*
X130293543Y-84228087D01*
X130313498Y-84000000D01*
X130293543Y-83771913D01*
X130234284Y-83550757D01*
X130137523Y-83343251D01*
X130006198Y-83155700D01*
X129844300Y-82993802D01*
X129656749Y-82862477D01*
X129655917Y-82862089D01*
X129449249Y-82765718D01*
X129449238Y-82765714D01*
X129228089Y-82706457D01*
X129228081Y-82706456D01*
X129000002Y-82686502D01*
X128999998Y-82686502D01*
X128771918Y-82706456D01*
X128771910Y-82706457D01*
X128550761Y-82765714D01*
X128550750Y-82765718D01*
X128343254Y-82862475D01*
X128343252Y-82862476D01*
X128343251Y-82862477D01*
X128155700Y-82993802D01*
X128155698Y-82993803D01*
X128155695Y-82993806D01*
X127993806Y-83155695D01*
X127993803Y-83155698D01*
X127993802Y-83155700D01*
X127930849Y-83245606D01*
X127862476Y-83343252D01*
X127862475Y-83343254D01*
X127765718Y-83550750D01*
X127765714Y-83550761D01*
X127706457Y-83771910D01*
X127706456Y-83771918D01*
X127686502Y-83999998D01*
X127686502Y-84000001D01*
X127706456Y-84228081D01*
X127706457Y-84228089D01*
X127765714Y-84449238D01*
X127765718Y-84449249D01*
X127857661Y-84646421D01*
X127862477Y-84656749D01*
X127993802Y-84844300D01*
X127993805Y-84844303D01*
X127993806Y-84844304D01*
X128155181Y-85005679D01*
X128188666Y-85067002D01*
X128191500Y-85093360D01*
X128191500Y-85769634D01*
X128222568Y-85925823D01*
X128222570Y-85925831D01*
X128253043Y-85999399D01*
X128283138Y-86072055D01*
X128292105Y-86130314D01*
X128286884Y-86189997D01*
X128286884Y-86189998D01*
X128287454Y-86196517D01*
X128273684Y-86265017D01*
X128251606Y-86295000D01*
X126441427Y-88105179D01*
X126380104Y-88138664D01*
X126310412Y-88133680D01*
X126254479Y-88091808D01*
X126236884Y-88055579D01*
X126236138Y-88055851D01*
X126234281Y-88050750D01*
X126164536Y-87901182D01*
X126137523Y-87843251D01*
X126006198Y-87655700D01*
X125844819Y-87494321D01*
X125811334Y-87432998D01*
X125808500Y-87406640D01*
X125808500Y-84571939D01*
X125828185Y-84504900D01*
X125844814Y-84484262D01*
X125929301Y-84399776D01*
X126050589Y-84226558D01*
X126139956Y-84034910D01*
X126194686Y-83830655D01*
X126213116Y-83620000D01*
X126212546Y-83613487D01*
X126226311Y-83544988D01*
X126248390Y-83515000D01*
X129628003Y-80135389D01*
X129716484Y-80002969D01*
X129759732Y-79898556D01*
X129777430Y-79855831D01*
X129808500Y-79699630D01*
X129808500Y-74933360D01*
X129828185Y-74866321D01*
X129844819Y-74845679D01*
X129903239Y-74787259D01*
X130006198Y-74684300D01*
X130137523Y-74496749D01*
X130234284Y-74289243D01*
X130293543Y-74068087D01*
X130313498Y-73840000D01*
X130293543Y-73611913D01*
X130234284Y-73390757D01*
X130137523Y-73183251D01*
X130006198Y-72995700D01*
X129844300Y-72833802D01*
X129656749Y-72702477D01*
X129656745Y-72702475D01*
X129449249Y-72605718D01*
X129449238Y-72605714D01*
X129228089Y-72546457D01*
X129228081Y-72546456D01*
X129000002Y-72526502D01*
X128999998Y-72526502D01*
X128771918Y-72546456D01*
X128771910Y-72546457D01*
X128550761Y-72605714D01*
X128550750Y-72605718D01*
X128343254Y-72702475D01*
X128343252Y-72702476D01*
X128343251Y-72702477D01*
X128155700Y-72833802D01*
X128155698Y-72833803D01*
X128155695Y-72833806D01*
X127993806Y-72995695D01*
X127993803Y-72995698D01*
X127993802Y-72995700D01*
X127934515Y-73080370D01*
X127862476Y-73183252D01*
X127862475Y-73183254D01*
X127765718Y-73390750D01*
X127765714Y-73390761D01*
X127706457Y-73611910D01*
X127706456Y-73611918D01*
X127686502Y-73839998D01*
X127686502Y-73840001D01*
X127706456Y-74068081D01*
X127706457Y-74068089D01*
X127765714Y-74289238D01*
X127765718Y-74289249D01*
X127862475Y-74496745D01*
X127862477Y-74496749D01*
X127993802Y-74684300D01*
X127993806Y-74684304D01*
X128155181Y-74845679D01*
X128188666Y-74907002D01*
X128191500Y-74933360D01*
X128191500Y-79233745D01*
X128171815Y-79300784D01*
X128155181Y-79321426D01*
X125105000Y-82371606D01*
X125043677Y-82405091D01*
X125006517Y-82407454D01*
X125003637Y-82407202D01*
X125000000Y-82406884D01*
X124999999Y-82406884D01*
X124999998Y-82406884D01*
X124789350Y-82425313D01*
X124789339Y-82425315D01*
X124585097Y-82480041D01*
X124585088Y-82480045D01*
X124393443Y-82569410D01*
X124393441Y-82569411D01*
X124220221Y-82690700D01*
X124070700Y-82840221D01*
X123949411Y-83013441D01*
X123949410Y-83013443D01*
X123899722Y-83120000D01*
X123865664Y-83193039D01*
X123860045Y-83205088D01*
X123860041Y-83205097D01*
X123805315Y-83409339D01*
X123805313Y-83409350D01*
X123786884Y-83619998D01*
X123786884Y-83620001D01*
X123805313Y-83830649D01*
X123805315Y-83830660D01*
X123860041Y-84034902D01*
X123860043Y-84034906D01*
X123860044Y-84034910D01*
X123904447Y-84130133D01*
X123949410Y-84226556D01*
X123949411Y-84226558D01*
X124070697Y-84399774D01*
X124070698Y-84399775D01*
X124070699Y-84399776D01*
X124155182Y-84484259D01*
X124188666Y-84545580D01*
X124191500Y-84571939D01*
X124191500Y-87406640D01*
X124171815Y-87473679D01*
X124155181Y-87494321D01*
X123994321Y-87655181D01*
X123932998Y-87688666D01*
X123906640Y-87691500D01*
X121841605Y-87691500D01*
X121774566Y-87671815D01*
X121729223Y-87619904D01*
X121696981Y-87550761D01*
X121637523Y-87423251D01*
X121506198Y-87235700D01*
X121344300Y-87073802D01*
X121156749Y-86942477D01*
X121113655Y-86922382D01*
X121061215Y-86876210D01*
X121042063Y-86809017D01*
X121062278Y-86742136D01*
X121113655Y-86697618D01*
X121116882Y-86696112D01*
X121156749Y-86677523D01*
X121344300Y-86546198D01*
X121506198Y-86384300D01*
X121637523Y-86196749D01*
X121734284Y-85989243D01*
X121793543Y-85768087D01*
X121813498Y-85540000D01*
X121804851Y-85441178D01*
X121818617Y-85372682D01*
X121840695Y-85342695D01*
X122628003Y-84555389D01*
X122716483Y-84422969D01*
X122752306Y-84336484D01*
X122777430Y-84275831D01*
X122808500Y-84119630D01*
X122808500Y-79432500D01*
X122828185Y-79365461D01*
X122880989Y-79319706D01*
X122932500Y-79308500D01*
X124559530Y-79308500D01*
X124559531Y-79308499D01*
X124715730Y-79277430D01*
X124789298Y-79246956D01*
X124862867Y-79216484D01*
X124995288Y-79128003D01*
X127028003Y-77095288D01*
X127116484Y-76962867D01*
X127146956Y-76889298D01*
X127177430Y-76815730D01*
X127208500Y-76659529D01*
X127208500Y-75320370D01*
X127177430Y-75164169D01*
X127137862Y-75068644D01*
X127116484Y-75017032D01*
X127116482Y-75017030D01*
X127116482Y-75017028D01*
X127028003Y-74884611D01*
X127028000Y-74884607D01*
X116515392Y-64371999D01*
X116515388Y-64371996D01*
X116382974Y-64283519D01*
X116382970Y-64283517D01*
X116382968Y-64283516D01*
X116309399Y-64253043D01*
X116309397Y-64253042D01*
X116309396Y-64253041D01*
X116235831Y-64222570D01*
X116235823Y-64222568D01*
X116073655Y-64190311D01*
X116074015Y-64188499D01*
X116017244Y-64165570D01*
X116006513Y-64156015D01*
X115844304Y-63993806D01*
X115844300Y-63993802D01*
X115656749Y-63862477D01*
X115656745Y-63862475D01*
X115449249Y-63765718D01*
X115449238Y-63765714D01*
X115228089Y-63706457D01*
X115228081Y-63706456D01*
X115000002Y-63686502D01*
X114999998Y-63686502D01*
X114771918Y-63706456D01*
X114771910Y-63706457D01*
X114550761Y-63765714D01*
X114550750Y-63765718D01*
X114343254Y-63862475D01*
X114343252Y-63862476D01*
X114343251Y-63862477D01*
X114155700Y-63993802D01*
X114155698Y-63993803D01*
X114155695Y-63993806D01*
X113993806Y-64155695D01*
X113993803Y-64155698D01*
X113993802Y-64155700D01*
X113938283Y-64234989D01*
X113862476Y-64343252D01*
X113862475Y-64343254D01*
X113765718Y-64550750D01*
X113765714Y-64550761D01*
X113706457Y-64771910D01*
X113706456Y-64771918D01*
X113686502Y-64999998D01*
X113686502Y-65000002D01*
X113695147Y-65098818D01*
X113681380Y-65167318D01*
X113659300Y-65197306D01*
X110451427Y-68405181D01*
X110390104Y-68438666D01*
X110363746Y-68441500D01*
X110093360Y-68441500D01*
X110026321Y-68421815D01*
X110005679Y-68405181D01*
X109844304Y-68243806D01*
X109844300Y-68243802D01*
X109656749Y-68112477D01*
X109656745Y-68112475D01*
X109449249Y-68015718D01*
X109449238Y-68015714D01*
X109228089Y-67956457D01*
X109228081Y-67956456D01*
X109000002Y-67936502D01*
X108999998Y-67936502D01*
X108771918Y-67956456D01*
X108771910Y-67956457D01*
X108550761Y-68015714D01*
X108550750Y-68015718D01*
X108343254Y-68112475D01*
X108343252Y-68112476D01*
X108343251Y-68112477D01*
X108155700Y-68243802D01*
X108155698Y-68243803D01*
X108155695Y-68243806D01*
X107993806Y-68405695D01*
X107993803Y-68405698D01*
X107993802Y-68405700D01*
X107911767Y-68522856D01*
X107862476Y-68593252D01*
X107862475Y-68593254D01*
X107765718Y-68800750D01*
X107765714Y-68800761D01*
X107706457Y-69021910D01*
X107706456Y-69021918D01*
X107686502Y-69249998D01*
X107686502Y-69250001D01*
X107706456Y-69478081D01*
X107706457Y-69478089D01*
X107765714Y-69699238D01*
X107765718Y-69699249D01*
X107862475Y-69906745D01*
X107862477Y-69906749D01*
X107993802Y-70094300D01*
X108155700Y-70256198D01*
X108343251Y-70387523D01*
X108353511Y-70392307D01*
X108405950Y-70438479D01*
X108425102Y-70505673D01*
X108404886Y-70572554D01*
X108353513Y-70617070D01*
X108347518Y-70619865D01*
X108347512Y-70619868D01*
X108274526Y-70670973D01*
X108274526Y-70670974D01*
X108953553Y-71350000D01*
X108947339Y-71350000D01*
X108845606Y-71377259D01*
X108754394Y-71429920D01*
X108679920Y-71504394D01*
X108627259Y-71595606D01*
X108600000Y-71697339D01*
X108600000Y-71703552D01*
X107920974Y-71024526D01*
X107920973Y-71024526D01*
X107869868Y-71097512D01*
X107869866Y-71097516D01*
X107773734Y-71303673D01*
X107773730Y-71303682D01*
X107714860Y-71523389D01*
X107714858Y-71523400D01*
X107695034Y-71749997D01*
X107695034Y-71750002D01*
X107714858Y-71976599D01*
X107714860Y-71976610D01*
X107773730Y-72196317D01*
X107773735Y-72196331D01*
X107869863Y-72402478D01*
X107920974Y-72475472D01*
X108600000Y-71796446D01*
X108600000Y-71802661D01*
X108627259Y-71904394D01*
X108679920Y-71995606D01*
X108754394Y-72070080D01*
X108845606Y-72122741D01*
X108947339Y-72150000D01*
X108953553Y-72150000D01*
X108274526Y-72829025D01*
X108347513Y-72880132D01*
X108347521Y-72880136D01*
X108553668Y-72976264D01*
X108553682Y-72976269D01*
X108773389Y-73035139D01*
X108773400Y-73035141D01*
X108999998Y-73054966D01*
X109000002Y-73054966D01*
X109226599Y-73035141D01*
X109226610Y-73035139D01*
X109446317Y-72976269D01*
X109446331Y-72976264D01*
X109652478Y-72880136D01*
X109725471Y-72829024D01*
X109046447Y-72150000D01*
X109052661Y-72150000D01*
X109154394Y-72122741D01*
X109245606Y-72070080D01*
X109320080Y-71995606D01*
X109372741Y-71904394D01*
X109400000Y-71802661D01*
X109400000Y-71796447D01*
X110079024Y-72475471D01*
X110130136Y-72402478D01*
X110226264Y-72196331D01*
X110226269Y-72196317D01*
X110285139Y-71976610D01*
X110285141Y-71976599D01*
X110304966Y-71750002D01*
X110304966Y-71749997D01*
X110285141Y-71523400D01*
X110285139Y-71523389D01*
X110226269Y-71303682D01*
X110226264Y-71303668D01*
X110130136Y-71097521D01*
X110130132Y-71097513D01*
X110079025Y-71024526D01*
X109400000Y-71703551D01*
X109400000Y-71697339D01*
X109372741Y-71595606D01*
X109320080Y-71504394D01*
X109245606Y-71429920D01*
X109154394Y-71377259D01*
X109052661Y-71350000D01*
X109046448Y-71350000D01*
X109725472Y-70670974D01*
X109652478Y-70619863D01*
X109652477Y-70619862D01*
X109646483Y-70617067D01*
X109594046Y-70570892D01*
X109574898Y-70503697D01*
X109595118Y-70436817D01*
X109646493Y-70392305D01*
X109656749Y-70387523D01*
X109844300Y-70256198D01*
X110005679Y-70094819D01*
X110067002Y-70061334D01*
X110093360Y-70058500D01*
X110829631Y-70058500D01*
X110829632Y-70058499D01*
X110985831Y-70027430D01*
X111059399Y-69996956D01*
X111132968Y-69966484D01*
X111265389Y-69878003D01*
X114802694Y-66340696D01*
X114864015Y-66307213D01*
X114901175Y-66304851D01*
X115000000Y-66313498D01*
X115000002Y-66313498D01*
X115057021Y-66308509D01*
X115228087Y-66293543D01*
X115449243Y-66234284D01*
X115656749Y-66137523D01*
X115769956Y-66058254D01*
X115836157Y-66035928D01*
X115903925Y-66052937D01*
X115928757Y-66072149D01*
X124555293Y-74698685D01*
X124588778Y-74760008D01*
X124583794Y-74829700D01*
X124541922Y-74885633D01*
X124512406Y-74901993D01*
X124462822Y-74921201D01*
X124462820Y-74921202D01*
X124273738Y-75038278D01*
X124109391Y-75188099D01*
X123975368Y-75365574D01*
X123876239Y-75564650D01*
X123823505Y-75750000D01*
X124755025Y-75750000D01*
X124719930Y-75785095D01*
X124673852Y-75864905D01*
X124650000Y-75953922D01*
X124650000Y-76046078D01*
X124673852Y-76135095D01*
X124719930Y-76214905D01*
X124755025Y-76250000D01*
X123823505Y-76250000D01*
X123876239Y-76435349D01*
X123975368Y-76634425D01*
X124109391Y-76811900D01*
X124273738Y-76961721D01*
X124462820Y-77078797D01*
X124462828Y-77078801D01*
X124497915Y-77092393D01*
X124553317Y-77134964D01*
X124576909Y-77200731D01*
X124561199Y-77268811D01*
X124540804Y-77295701D01*
X124181326Y-77655181D01*
X124120003Y-77688666D01*
X124093645Y-77691500D01*
X122173360Y-77691500D01*
X122106321Y-77671815D01*
X122085679Y-77655181D01*
X121924304Y-77493806D01*
X121924300Y-77493802D01*
X121736749Y-77362477D01*
X121736745Y-77362475D01*
X121529249Y-77265718D01*
X121529238Y-77265714D01*
X121308089Y-77206457D01*
X121308081Y-77206456D01*
X121080002Y-77186502D01*
X121079998Y-77186502D01*
X120851918Y-77206456D01*
X120851910Y-77206457D01*
X120630761Y-77265714D01*
X120630750Y-77265718D01*
X120423254Y-77362475D01*
X120423252Y-77362476D01*
X120423251Y-77362477D01*
X120235700Y-77493802D01*
X120235698Y-77493803D01*
X120235695Y-77493806D01*
X120073806Y-77655695D01*
X120073803Y-77655698D01*
X120073802Y-77655700D01*
X119997260Y-77765013D01*
X119942476Y-77843252D01*
X119942475Y-77843254D01*
X119845718Y-78050750D01*
X119845714Y-78050761D01*
X119786457Y-78271910D01*
X119786456Y-78271918D01*
X119766502Y-78499998D01*
X119766502Y-78500001D01*
X119786456Y-78728081D01*
X119786457Y-78728089D01*
X119845714Y-78949238D01*
X119845718Y-78949249D01*
X119942475Y-79156745D01*
X119942477Y-79156749D01*
X120073802Y-79344300D01*
X120235700Y-79506198D01*
X120423251Y-79637523D01*
X120548091Y-79695736D01*
X120630750Y-79734281D01*
X120630752Y-79734281D01*
X120630757Y-79734284D01*
X120851913Y-79793543D01*
X121030177Y-79809139D01*
X121078307Y-79813350D01*
X121143376Y-79838802D01*
X121184355Y-79895393D01*
X121191500Y-79936878D01*
X121191500Y-81693419D01*
X121171815Y-81760458D01*
X121119011Y-81806213D01*
X121049853Y-81816157D01*
X121015096Y-81805801D01*
X120946330Y-81773735D01*
X120750000Y-81721127D01*
X120750000Y-82684314D01*
X120745606Y-82679920D01*
X120654394Y-82627259D01*
X120552661Y-82600000D01*
X120447339Y-82600000D01*
X120345606Y-82627259D01*
X120254394Y-82679920D01*
X120250000Y-82684314D01*
X120250000Y-81721127D01*
X120053671Y-81773734D01*
X119847517Y-81869865D01*
X119661179Y-82000342D01*
X119500342Y-82161179D01*
X119369865Y-82347517D01*
X119273734Y-82553673D01*
X119273730Y-82553682D01*
X119221127Y-82749999D01*
X119221128Y-82750000D01*
X120184314Y-82750000D01*
X120179920Y-82754394D01*
X120127259Y-82845606D01*
X120100000Y-82947339D01*
X120100000Y-83052661D01*
X120127259Y-83154394D01*
X120179920Y-83245606D01*
X120184314Y-83250000D01*
X119221128Y-83250000D01*
X119273730Y-83446317D01*
X119273734Y-83446326D01*
X119369865Y-83652482D01*
X119500342Y-83838820D01*
X119661179Y-83999657D01*
X119847517Y-84130133D01*
X119896399Y-84152927D01*
X119948839Y-84199099D01*
X119967992Y-84266292D01*
X119947777Y-84333174D01*
X119896402Y-84377691D01*
X119843256Y-84402474D01*
X119843252Y-84402476D01*
X119776470Y-84449238D01*
X119655700Y-84533802D01*
X119655698Y-84533803D01*
X119655695Y-84533806D01*
X119493806Y-84695695D01*
X119493803Y-84695698D01*
X119493802Y-84695700D01*
X119438607Y-84774526D01*
X119362476Y-84883252D01*
X119362475Y-84883254D01*
X119265718Y-85090750D01*
X119265714Y-85090761D01*
X119206457Y-85311910D01*
X119206456Y-85311918D01*
X119186502Y-85539998D01*
X119186502Y-85540001D01*
X119206456Y-85768081D01*
X119206457Y-85768089D01*
X119265714Y-85989238D01*
X119265718Y-85989249D01*
X119359329Y-86189998D01*
X119362477Y-86196749D01*
X119493802Y-86384300D01*
X119655700Y-86546198D01*
X119843251Y-86677523D01*
X119886345Y-86697618D01*
X119938784Y-86743791D01*
X119957936Y-86810984D01*
X119937720Y-86877865D01*
X119886345Y-86922382D01*
X119843251Y-86942476D01*
X119718126Y-87030090D01*
X119655700Y-87073802D01*
X119655698Y-87073803D01*
X119655695Y-87073806D01*
X119493806Y-87235695D01*
X119493803Y-87235698D01*
X119493802Y-87235700D01*
X119427803Y-87329956D01*
X119362476Y-87423252D01*
X119362475Y-87423254D01*
X119265718Y-87630750D01*
X119265714Y-87630761D01*
X119206457Y-87851910D01*
X119206456Y-87851918D01*
X119186502Y-88079998D01*
X119186502Y-88080001D01*
X119206456Y-88308081D01*
X119206457Y-88308089D01*
X119265714Y-88529238D01*
X119265718Y-88529249D01*
X119362475Y-88736745D01*
X119362477Y-88736749D01*
X119493802Y-88924300D01*
X119655700Y-89086198D01*
X119663370Y-89091568D01*
X119706993Y-89146144D01*
X119714185Y-89215642D01*
X119682663Y-89277997D01*
X119622433Y-89313410D01*
X119605501Y-89316430D01*
X119590797Y-89318011D01*
X119590795Y-89318011D01*
X119453795Y-89369111D01*
X119336739Y-89456739D01*
X119249111Y-89573795D01*
X119198011Y-89710795D01*
X119198011Y-89710797D01*
X119191500Y-89771345D01*
X119191500Y-90748746D01*
X119171815Y-90815785D01*
X119119011Y-90861540D01*
X119049853Y-90871484D01*
X118986297Y-90842459D01*
X118979819Y-90836427D01*
X114168785Y-86025393D01*
X114135300Y-85964070D01*
X114136691Y-85905618D01*
X114173543Y-85768087D01*
X114193498Y-85540000D01*
X114189998Y-85500000D01*
X114185391Y-85447339D01*
X114173543Y-85311913D01*
X114114284Y-85090757D01*
X114017523Y-84883251D01*
X113886198Y-84695700D01*
X113724300Y-84533802D01*
X113536749Y-84402477D01*
X113530952Y-84399774D01*
X113493655Y-84382382D01*
X113441215Y-84336210D01*
X113422063Y-84269017D01*
X113442278Y-84202136D01*
X113493655Y-84157618D01*
X113496882Y-84156112D01*
X113536749Y-84137523D01*
X113724300Y-84006198D01*
X113886198Y-83844300D01*
X114017523Y-83656749D01*
X114114284Y-83449243D01*
X114173543Y-83228087D01*
X114193498Y-83000000D01*
X114173543Y-82771913D01*
X114114284Y-82550757D01*
X114017523Y-82343251D01*
X113886198Y-82155700D01*
X113724300Y-81993802D01*
X113536749Y-81862477D01*
X113536745Y-81862475D01*
X113329249Y-81765718D01*
X113329238Y-81765714D01*
X113108089Y-81706457D01*
X113108081Y-81706456D01*
X112880002Y-81686502D01*
X112879998Y-81686502D01*
X112651918Y-81706456D01*
X112651910Y-81706457D01*
X112430761Y-81765714D01*
X112430750Y-81765718D01*
X112223254Y-81862475D01*
X112223252Y-81862476D01*
X112214232Y-81868792D01*
X112035700Y-81993802D01*
X112035698Y-81993803D01*
X112035695Y-81993806D01*
X111873806Y-82155695D01*
X111873803Y-82155698D01*
X111873802Y-82155700D01*
X111826744Y-82222906D01*
X111742476Y-82343252D01*
X111742475Y-82343254D01*
X111645718Y-82550750D01*
X111645714Y-82550761D01*
X111586457Y-82771910D01*
X111586456Y-82771918D01*
X111566502Y-82999998D01*
X111566502Y-83000001D01*
X111586456Y-83228081D01*
X111586457Y-83228089D01*
X111645714Y-83449238D01*
X111645718Y-83449249D01*
X111722304Y-83613488D01*
X111742477Y-83656749D01*
X111873802Y-83844300D01*
X112035700Y-84006198D01*
X112197699Y-84119631D01*
X112223251Y-84137523D01*
X112266345Y-84157618D01*
X112318784Y-84203791D01*
X112337936Y-84270984D01*
X112317720Y-84337865D01*
X112266345Y-84382382D01*
X112223251Y-84402476D01*
X112106457Y-84484257D01*
X112035700Y-84533802D01*
X112035698Y-84533803D01*
X112035695Y-84533806D01*
X111873806Y-84695695D01*
X111873803Y-84695698D01*
X111873802Y-84695700D01*
X111818607Y-84774526D01*
X111742476Y-84883252D01*
X111742475Y-84883254D01*
X111645718Y-85090750D01*
X111645714Y-85090761D01*
X111586457Y-85311910D01*
X111586456Y-85311917D01*
X111582992Y-85351518D01*
X111557539Y-85416586D01*
X111500948Y-85457565D01*
X111431186Y-85461443D01*
X111371783Y-85428391D01*
X108378044Y-82434652D01*
X108344559Y-82373329D01*
X108349543Y-82303637D01*
X108389564Y-82249117D01*
X108423235Y-82222910D01*
X108423235Y-82222909D01*
X108423240Y-82222906D01*
X108549341Y-82085925D01*
X108575715Y-82057276D01*
X108575716Y-82057274D01*
X108575722Y-82057268D01*
X108698860Y-81868791D01*
X108789296Y-81662616D01*
X108844564Y-81444368D01*
X108846003Y-81427007D01*
X108863156Y-81220005D01*
X108863156Y-81219994D01*
X108844565Y-80995640D01*
X108844563Y-80995628D01*
X108789296Y-80777385D01*
X108757375Y-80704612D01*
X108698860Y-80571209D01*
X108685889Y-80551356D01*
X108575723Y-80382734D01*
X108575715Y-80382723D01*
X108430510Y-80224991D01*
X108399587Y-80162337D01*
X108407447Y-80092911D01*
X108451594Y-80038755D01*
X108478405Y-80024827D01*
X108558584Y-79994920D01*
X108596204Y-79980889D01*
X108713261Y-79893261D01*
X108800889Y-79776204D01*
X108851989Y-79639201D01*
X108856285Y-79599245D01*
X108883023Y-79534694D01*
X108940415Y-79494845D01*
X108979574Y-79488500D01*
X110011329Y-79488500D01*
X110078368Y-79508185D01*
X110082435Y-79510914D01*
X110263251Y-79637523D01*
X110388091Y-79695736D01*
X110470750Y-79734281D01*
X110470752Y-79734281D01*
X110470757Y-79734284D01*
X110691913Y-79793543D01*
X110854832Y-79807796D01*
X110919998Y-79813498D01*
X110920000Y-79813498D01*
X110920002Y-79813498D01*
X110977021Y-79808509D01*
X111148087Y-79793543D01*
X111369243Y-79734284D01*
X111576749Y-79637523D01*
X111764300Y-79506198D01*
X111926198Y-79344300D01*
X112057523Y-79156749D01*
X112154284Y-78949243D01*
X112213543Y-78728087D01*
X112233498Y-78500000D01*
X112229298Y-78451999D01*
X112221557Y-78363514D01*
X112213543Y-78271913D01*
X112154284Y-78050757D01*
X112057523Y-77843251D01*
X111926198Y-77655700D01*
X111764300Y-77493802D01*
X111576749Y-77362477D01*
X111576745Y-77362475D01*
X111369249Y-77265718D01*
X111369238Y-77265714D01*
X111148089Y-77206457D01*
X111148081Y-77206456D01*
X110920002Y-77186502D01*
X110919998Y-77186502D01*
X110691918Y-77206456D01*
X110691910Y-77206457D01*
X110470761Y-77265714D01*
X110470750Y-77265718D01*
X110263254Y-77362475D01*
X110263252Y-77362476D01*
X110263251Y-77362477D01*
X110075700Y-77493802D01*
X110075698Y-77493803D01*
X110075695Y-77493806D01*
X109913806Y-77655695D01*
X109913803Y-77655698D01*
X109913802Y-77655700D01*
X109799719Y-77818625D01*
X109745145Y-77862249D01*
X109698147Y-77871500D01*
X108979574Y-77871500D01*
X108912535Y-77851815D01*
X108866780Y-77799011D01*
X108856285Y-77760755D01*
X108851989Y-77720798D01*
X108851988Y-77720795D01*
X108827706Y-77655695D01*
X108800889Y-77583796D01*
X108713261Y-77466739D01*
X108596204Y-77379111D01*
X108459203Y-77328011D01*
X108398654Y-77321500D01*
X108398638Y-77321500D01*
X106601362Y-77321500D01*
X106601345Y-77321500D01*
X106540797Y-77328011D01*
X106540795Y-77328011D01*
X106403795Y-77379111D01*
X106286739Y-77466739D01*
X106199111Y-77583795D01*
X106148011Y-77720795D01*
X106148011Y-77720797D01*
X106141500Y-77781345D01*
X106141500Y-79578654D01*
X106148011Y-79639202D01*
X106148011Y-79639204D01*
X106183474Y-79734281D01*
X106199111Y-79776204D01*
X106286739Y-79893261D01*
X106403796Y-79980889D01*
X106455737Y-80000262D01*
X106521595Y-80024827D01*
X106577528Y-80066699D01*
X106601944Y-80132163D01*
X106587092Y-80200436D01*
X106569490Y-80224991D01*
X106435829Y-80370185D01*
X106434634Y-80371483D01*
X106374746Y-80407474D01*
X106343404Y-80411500D01*
X106218284Y-80411500D01*
X106062095Y-80442568D01*
X106062087Y-80442570D01*
X105914949Y-80503517D01*
X105782531Y-80591995D01*
X105782524Y-80592001D01*
X105669920Y-80704605D01*
X105669914Y-80704612D01*
X105581436Y-80837030D01*
X105520489Y-80984168D01*
X105520487Y-80984176D01*
X105489419Y-81140365D01*
X105489419Y-81299634D01*
X105520487Y-81455823D01*
X105520489Y-81455831D01*
X105581436Y-81602969D01*
X105669914Y-81735387D01*
X105669920Y-81735394D01*
X105782524Y-81847998D01*
X105782531Y-81848004D01*
X105914949Y-81936482D01*
X105914950Y-81936482D01*
X105914951Y-81936483D01*
X106062088Y-81997430D01*
X106176054Y-82020099D01*
X106218284Y-82028499D01*
X106218288Y-82028500D01*
X106218289Y-82028500D01*
X106343404Y-82028500D01*
X106410443Y-82048185D01*
X106434633Y-82068517D01*
X106576756Y-82222902D01*
X106576760Y-82222906D01*
X106643663Y-82274979D01*
X106684475Y-82331687D01*
X106691500Y-82372831D01*
X106691500Y-82779634D01*
X106722568Y-82935825D01*
X106722572Y-82935839D01*
X106729747Y-82953158D01*
X106729746Y-82953158D01*
X106729749Y-82953162D01*
X106783516Y-83082968D01*
X106783517Y-83082971D01*
X106871996Y-83215388D01*
X106871999Y-83215392D01*
X111539300Y-87882692D01*
X111572785Y-87944015D01*
X111575147Y-87981180D01*
X111566502Y-88079997D01*
X111566502Y-88080001D01*
X111586456Y-88308081D01*
X111586457Y-88308089D01*
X111645714Y-88529238D01*
X111645718Y-88529249D01*
X111742475Y-88736745D01*
X111742477Y-88736749D01*
X111873802Y-88924300D01*
X112035700Y-89086198D01*
X112220565Y-89215642D01*
X112223251Y-89217523D01*
X112266345Y-89237618D01*
X112318784Y-89283791D01*
X112337936Y-89350984D01*
X112317720Y-89417865D01*
X112266345Y-89462382D01*
X112223251Y-89482476D01*
X112098126Y-89570090D01*
X112035700Y-89613802D01*
X112035698Y-89613803D01*
X112035695Y-89613806D01*
X111873806Y-89775695D01*
X111742476Y-89963252D01*
X111742475Y-89963254D01*
X111645718Y-90170750D01*
X111645714Y-90170761D01*
X111586457Y-90391910D01*
X111586456Y-90391918D01*
X111566502Y-90619998D01*
X111566502Y-90620001D01*
X111586456Y-90848081D01*
X111586457Y-90848089D01*
X111645714Y-91069238D01*
X111645718Y-91069249D01*
X111737332Y-91265716D01*
X111742477Y-91276749D01*
X111873802Y-91464300D01*
X112035700Y-91626198D01*
X112223251Y-91757523D01*
X112278445Y-91783260D01*
X112430750Y-91854281D01*
X112430752Y-91854281D01*
X112430757Y-91854284D01*
X112651913Y-91913543D01*
X112814832Y-91927796D01*
X112879998Y-91933498D01*
X112880000Y-91933498D01*
X112880002Y-91933498D01*
X112937139Y-91928499D01*
X113108087Y-91913543D01*
X113329243Y-91854284D01*
X113536749Y-91757523D01*
X113724300Y-91626198D01*
X113886198Y-91464300D01*
X114017523Y-91276749D01*
X114114284Y-91069243D01*
X114173543Y-90848087D01*
X114177008Y-90808481D01*
X114202458Y-90743415D01*
X114259048Y-90702435D01*
X114328810Y-90698556D01*
X114388216Y-90731608D01*
X120194607Y-96538000D01*
X120194610Y-96538003D01*
X120321403Y-96622723D01*
X120327032Y-96626484D01*
X120355761Y-96638383D01*
X120429485Y-96668921D01*
X120474169Y-96687430D01*
X120630365Y-96718499D01*
X120630369Y-96718500D01*
X120630370Y-96718500D01*
X126457500Y-96718500D01*
X126524539Y-96738185D01*
X126570294Y-96790989D01*
X126581500Y-96842500D01*
X126581500Y-98358654D01*
X126588011Y-98419202D01*
X126588011Y-98419204D01*
X126639111Y-98556204D01*
X126726739Y-98673261D01*
X126843796Y-98760889D01*
X126980799Y-98811989D01*
X127008050Y-98814918D01*
X127041345Y-98818499D01*
X127041362Y-98818500D01*
X128838638Y-98818500D01*
X128838654Y-98818499D01*
X128865692Y-98815591D01*
X128899201Y-98811989D01*
X129036204Y-98760889D01*
X129153261Y-98673261D01*
X129240889Y-98556204D01*
X129286138Y-98434887D01*
X129328009Y-98378956D01*
X129393474Y-98354539D01*
X129461746Y-98369391D01*
X129493545Y-98394236D01*
X129556760Y-98462906D01*
X129734424Y-98601189D01*
X129734425Y-98601189D01*
X129734427Y-98601191D01*
X129861135Y-98669761D01*
X129932426Y-98708342D01*
X130145365Y-98781444D01*
X130367431Y-98818500D01*
X130592569Y-98818500D01*
X130814635Y-98781444D01*
X131027574Y-98708342D01*
X131225576Y-98601189D01*
X131403240Y-98462906D01*
X131524594Y-98331082D01*
X131555715Y-98297276D01*
X131555715Y-98297275D01*
X131555722Y-98297268D01*
X131646193Y-98158790D01*
X131699338Y-98113437D01*
X131768569Y-98104013D01*
X131831905Y-98133515D01*
X131853804Y-98158787D01*
X131944278Y-98297268D01*
X131944283Y-98297273D01*
X131944284Y-98297276D01*
X132070968Y-98434889D01*
X132096760Y-98462906D01*
X132274424Y-98601189D01*
X132274425Y-98601189D01*
X132274427Y-98601191D01*
X132401135Y-98669761D01*
X132472426Y-98708342D01*
X132685365Y-98781444D01*
X132907431Y-98818500D01*
X133132569Y-98818500D01*
X133354635Y-98781444D01*
X133567574Y-98708342D01*
X133765576Y-98601189D01*
X133943240Y-98462906D01*
X134064594Y-98331082D01*
X134095715Y-98297276D01*
X134095715Y-98297275D01*
X134095722Y-98297268D01*
X134186193Y-98158790D01*
X134239338Y-98113437D01*
X134308569Y-98104013D01*
X134371905Y-98133515D01*
X134393804Y-98158787D01*
X134484278Y-98297268D01*
X134484283Y-98297273D01*
X134484284Y-98297276D01*
X134610968Y-98434889D01*
X134636760Y-98462906D01*
X134814424Y-98601189D01*
X134814425Y-98601189D01*
X134814427Y-98601191D01*
X134941135Y-98669761D01*
X135012426Y-98708342D01*
X135225365Y-98781444D01*
X135447431Y-98818500D01*
X135672569Y-98818500D01*
X135894635Y-98781444D01*
X136107574Y-98708342D01*
X136305576Y-98601189D01*
X136483240Y-98462906D01*
X136604594Y-98331082D01*
X136635715Y-98297276D01*
X136635715Y-98297275D01*
X136635722Y-98297268D01*
X136726193Y-98158790D01*
X136779338Y-98113437D01*
X136848569Y-98104013D01*
X136911905Y-98133515D01*
X136933804Y-98158787D01*
X137024278Y-98297268D01*
X137024283Y-98297273D01*
X137024284Y-98297276D01*
X137150968Y-98434889D01*
X137176760Y-98462906D01*
X137354424Y-98601189D01*
X137354425Y-98601189D01*
X137354427Y-98601191D01*
X137481135Y-98669761D01*
X137552426Y-98708342D01*
X137765365Y-98781444D01*
X137987431Y-98818500D01*
X138212569Y-98818500D01*
X138434635Y-98781444D01*
X138647574Y-98708342D01*
X138845576Y-98601189D01*
X139023240Y-98462906D01*
X139144594Y-98331082D01*
X139175715Y-98297276D01*
X139175715Y-98297275D01*
X139175722Y-98297268D01*
X139269749Y-98153347D01*
X139322894Y-98107994D01*
X139392125Y-98098570D01*
X139455461Y-98128072D01*
X139475130Y-98150048D01*
X139601890Y-98331078D01*
X139768917Y-98498105D01*
X139962421Y-98633600D01*
X140176507Y-98733429D01*
X140176516Y-98733433D01*
X140390000Y-98790634D01*
X140390000Y-97893012D01*
X140447007Y-97925925D01*
X140574174Y-97960000D01*
X140705826Y-97960000D01*
X140832993Y-97925925D01*
X140890000Y-97893012D01*
X140890000Y-98790633D01*
X141103483Y-98733433D01*
X141103492Y-98733429D01*
X141317578Y-98633600D01*
X141511082Y-98498105D01*
X141678105Y-98331082D01*
X141808425Y-98144968D01*
X141863002Y-98101344D01*
X141932501Y-98094151D01*
X141994855Y-98125673D01*
X142011575Y-98144968D01*
X142141894Y-98331082D01*
X142308917Y-98498105D01*
X142502421Y-98633600D01*
X142716507Y-98733429D01*
X142716516Y-98733433D01*
X142930000Y-98790634D01*
X142930000Y-97893012D01*
X142987007Y-97925925D01*
X143114174Y-97960000D01*
X143245826Y-97960000D01*
X143372993Y-97925925D01*
X143430000Y-97893012D01*
X143430000Y-98790633D01*
X143643483Y-98733433D01*
X143643492Y-98733429D01*
X143857578Y-98633600D01*
X144051082Y-98498105D01*
X144218105Y-98331082D01*
X144344868Y-98150048D01*
X144399445Y-98106423D01*
X144468944Y-98099231D01*
X144531298Y-98130753D01*
X144550251Y-98153350D01*
X144644276Y-98297265D01*
X144644284Y-98297276D01*
X144770968Y-98434889D01*
X144796760Y-98462906D01*
X144974424Y-98601189D01*
X144974425Y-98601189D01*
X144974427Y-98601191D01*
X145101135Y-98669761D01*
X145172426Y-98708342D01*
X145385365Y-98781444D01*
X145607431Y-98818500D01*
X145832569Y-98818500D01*
X146054635Y-98781444D01*
X146267574Y-98708342D01*
X146465576Y-98601189D01*
X146643240Y-98462906D01*
X146764594Y-98331082D01*
X146795715Y-98297276D01*
X146795717Y-98297273D01*
X146795722Y-98297268D01*
X146918860Y-98108791D01*
X147009296Y-97902616D01*
X147064564Y-97684368D01*
X147067164Y-97652993D01*
X147083156Y-97460005D01*
X147083156Y-97459994D01*
X147064565Y-97235640D01*
X147064563Y-97235628D01*
X147009296Y-97017385D01*
X146999071Y-96994075D01*
X146918860Y-96811209D01*
X146902706Y-96786484D01*
X146837991Y-96687429D01*
X146795722Y-96622732D01*
X146795719Y-96622729D01*
X146795715Y-96622723D01*
X146643243Y-96457097D01*
X146643238Y-96457092D01*
X146465577Y-96318812D01*
X146465572Y-96318808D01*
X146267580Y-96211661D01*
X146267577Y-96211659D01*
X146267574Y-96211658D01*
X146267571Y-96211657D01*
X146267569Y-96211656D01*
X146054637Y-96138556D01*
X145832569Y-96101500D01*
X145607431Y-96101500D01*
X145385362Y-96138556D01*
X145172430Y-96211656D01*
X145172419Y-96211661D01*
X144974427Y-96318808D01*
X144974422Y-96318812D01*
X144796761Y-96457092D01*
X144796756Y-96457097D01*
X144644284Y-96622723D01*
X144644276Y-96622734D01*
X144550251Y-96766650D01*
X144497105Y-96812007D01*
X144427873Y-96821430D01*
X144364538Y-96791928D01*
X144344868Y-96769951D01*
X144218113Y-96588926D01*
X144218108Y-96588920D01*
X144051082Y-96421894D01*
X143857578Y-96286399D01*
X143643492Y-96186570D01*
X143643486Y-96186567D01*
X143430000Y-96129364D01*
X143430000Y-97026988D01*
X143372993Y-96994075D01*
X143245826Y-96960000D01*
X143114174Y-96960000D01*
X142987007Y-96994075D01*
X142930000Y-97026988D01*
X142930000Y-96129364D01*
X142929999Y-96129364D01*
X142716513Y-96186567D01*
X142716507Y-96186570D01*
X142502422Y-96286399D01*
X142502420Y-96286400D01*
X142308926Y-96421886D01*
X142308920Y-96421891D01*
X142141891Y-96588920D01*
X142141890Y-96588922D01*
X142011575Y-96775031D01*
X141956998Y-96818655D01*
X141887499Y-96825848D01*
X141825145Y-96794326D01*
X141808425Y-96775031D01*
X141678109Y-96588922D01*
X141678108Y-96588920D01*
X141511082Y-96421894D01*
X141317578Y-96286399D01*
X141103492Y-96186570D01*
X141103486Y-96186567D01*
X140890000Y-96129364D01*
X140890000Y-97026988D01*
X140832993Y-96994075D01*
X140705826Y-96960000D01*
X140574174Y-96960000D01*
X140447007Y-96994075D01*
X140390000Y-97026988D01*
X140390000Y-96129364D01*
X140389999Y-96129364D01*
X140176513Y-96186567D01*
X140176507Y-96186570D01*
X139962422Y-96286399D01*
X139962420Y-96286400D01*
X139768926Y-96421886D01*
X139768920Y-96421891D01*
X139601891Y-96588920D01*
X139601890Y-96588922D01*
X139475131Y-96769952D01*
X139420554Y-96813577D01*
X139351055Y-96820769D01*
X139288701Y-96789247D01*
X139269752Y-96766656D01*
X139175722Y-96622732D01*
X139175715Y-96622725D01*
X139175715Y-96622723D01*
X139023243Y-96457097D01*
X139023238Y-96457092D01*
X138845577Y-96318812D01*
X138845572Y-96318808D01*
X138647580Y-96211661D01*
X138647577Y-96211659D01*
X138647574Y-96211658D01*
X138647571Y-96211657D01*
X138647569Y-96211656D01*
X138434637Y-96138556D01*
X138212569Y-96101500D01*
X137987431Y-96101500D01*
X137962511Y-96105658D01*
X137893146Y-96097275D01*
X137854422Y-96071030D01*
X137065392Y-95281999D01*
X137065388Y-95281996D01*
X136932974Y-95193519D01*
X136932970Y-95193517D01*
X136932968Y-95193516D01*
X136859399Y-95163043D01*
X136859397Y-95163042D01*
X136859396Y-95163041D01*
X136785831Y-95132570D01*
X136785823Y-95132568D01*
X136629634Y-95101500D01*
X136629630Y-95101500D01*
X130149250Y-95101500D01*
X130082211Y-95081815D01*
X130036456Y-95029011D01*
X130026512Y-94959853D01*
X130055537Y-94896297D01*
X130096844Y-94865118D01*
X130106558Y-94860589D01*
X130279776Y-94739301D01*
X130364259Y-94654817D01*
X130425580Y-94621334D01*
X130451939Y-94618500D01*
X131769631Y-94618500D01*
X131769632Y-94618499D01*
X131925831Y-94587430D01*
X131999399Y-94556956D01*
X132072968Y-94526484D01*
X132205389Y-94438003D01*
X132802694Y-93840696D01*
X132864015Y-93807213D01*
X132901175Y-93804851D01*
X133000000Y-93813498D01*
X133000002Y-93813498D01*
X133057021Y-93808509D01*
X133228087Y-93793543D01*
X133449243Y-93734284D01*
X133656749Y-93637523D01*
X133844300Y-93506198D01*
X134006198Y-93344300D01*
X134137523Y-93156749D01*
X134142305Y-93146493D01*
X134188472Y-93094054D01*
X134255665Y-93074898D01*
X134322547Y-93095110D01*
X134367067Y-93146483D01*
X134369862Y-93152477D01*
X134369863Y-93152478D01*
X134420974Y-93225472D01*
X135100000Y-92546446D01*
X135100000Y-92552661D01*
X135127259Y-92654394D01*
X135179920Y-92745606D01*
X135254394Y-92820080D01*
X135345606Y-92872741D01*
X135447339Y-92900000D01*
X135453553Y-92900000D01*
X134774526Y-93579025D01*
X134847513Y-93630132D01*
X134847521Y-93630136D01*
X135053668Y-93726264D01*
X135053682Y-93726269D01*
X135273389Y-93785139D01*
X135273400Y-93785141D01*
X135499998Y-93804966D01*
X135500002Y-93804966D01*
X135726599Y-93785141D01*
X135726610Y-93785139D01*
X135946317Y-93726269D01*
X135946331Y-93726264D01*
X136152478Y-93630136D01*
X136225471Y-93579024D01*
X135546447Y-92900000D01*
X135552661Y-92900000D01*
X135654394Y-92872741D01*
X135745606Y-92820080D01*
X135820080Y-92745606D01*
X135872741Y-92654394D01*
X135900000Y-92552661D01*
X135900000Y-92546447D01*
X136579024Y-93225471D01*
X136630136Y-93152478D01*
X136726264Y-92946331D01*
X136726269Y-92946317D01*
X136785139Y-92726610D01*
X136785141Y-92726599D01*
X136804966Y-92500002D01*
X136804966Y-92499997D01*
X136785141Y-92273400D01*
X136785139Y-92273389D01*
X136726269Y-92053682D01*
X136726264Y-92053668D01*
X136694199Y-91984904D01*
X136683707Y-91915827D01*
X136712227Y-91852043D01*
X136770704Y-91813804D01*
X136806581Y-91808500D01*
X143953746Y-91808500D01*
X144020785Y-91828185D01*
X144041427Y-91844819D01*
X149405181Y-97208573D01*
X149438666Y-97269896D01*
X149441500Y-97296254D01*
X149441500Y-98358654D01*
X149448011Y-98419202D01*
X149448011Y-98419204D01*
X149499111Y-98556204D01*
X149586739Y-98673261D01*
X149703796Y-98760889D01*
X149840799Y-98811989D01*
X149868050Y-98814918D01*
X149901345Y-98818499D01*
X149901362Y-98818500D01*
X151698638Y-98818500D01*
X151698654Y-98818499D01*
X151725692Y-98815591D01*
X151759201Y-98811989D01*
X151896204Y-98760889D01*
X152013261Y-98673261D01*
X152100889Y-98556204D01*
X152146138Y-98434887D01*
X152188009Y-98378956D01*
X152253474Y-98354539D01*
X152321746Y-98369391D01*
X152353545Y-98394236D01*
X152416760Y-98462906D01*
X152594424Y-98601189D01*
X152594425Y-98601189D01*
X152594427Y-98601191D01*
X152721135Y-98669761D01*
X152792426Y-98708342D01*
X153005365Y-98781444D01*
X153227431Y-98818500D01*
X153452569Y-98818500D01*
X153674635Y-98781444D01*
X153887574Y-98708342D01*
X154085576Y-98601189D01*
X154263240Y-98462906D01*
X154384594Y-98331082D01*
X154415715Y-98297276D01*
X154415715Y-98297275D01*
X154415722Y-98297268D01*
X154506193Y-98158790D01*
X154559338Y-98113437D01*
X154628569Y-98104013D01*
X154691905Y-98133515D01*
X154713804Y-98158787D01*
X154804278Y-98297268D01*
X154804283Y-98297273D01*
X154804284Y-98297276D01*
X154930968Y-98434889D01*
X154956760Y-98462906D01*
X155134424Y-98601189D01*
X155134425Y-98601189D01*
X155134427Y-98601191D01*
X155261135Y-98669761D01*
X155332426Y-98708342D01*
X155545365Y-98781444D01*
X155767431Y-98818500D01*
X155992569Y-98818500D01*
X156214635Y-98781444D01*
X156427574Y-98708342D01*
X156625576Y-98601189D01*
X156803240Y-98462906D01*
X156924594Y-98331082D01*
X156955715Y-98297276D01*
X156955715Y-98297275D01*
X156955722Y-98297268D01*
X157046193Y-98158790D01*
X157099338Y-98113437D01*
X157168569Y-98104013D01*
X157231905Y-98133515D01*
X157253804Y-98158787D01*
X157344278Y-98297268D01*
X157344283Y-98297273D01*
X157344284Y-98297276D01*
X157470968Y-98434889D01*
X157496760Y-98462906D01*
X157674424Y-98601189D01*
X157674425Y-98601189D01*
X157674427Y-98601191D01*
X157801135Y-98669761D01*
X157872426Y-98708342D01*
X158085365Y-98781444D01*
X158307431Y-98818500D01*
X158532569Y-98818500D01*
X158754635Y-98781444D01*
X158967574Y-98708342D01*
X159165576Y-98601189D01*
X159343240Y-98462906D01*
X159464594Y-98331082D01*
X159495715Y-98297276D01*
X159495715Y-98297275D01*
X159495722Y-98297268D01*
X159586193Y-98158790D01*
X159639338Y-98113437D01*
X159708569Y-98104013D01*
X159771905Y-98133515D01*
X159793804Y-98158787D01*
X159884278Y-98297268D01*
X159884283Y-98297273D01*
X159884284Y-98297276D01*
X160010968Y-98434889D01*
X160036760Y-98462906D01*
X160214424Y-98601189D01*
X160214425Y-98601189D01*
X160214427Y-98601191D01*
X160341135Y-98669761D01*
X160412426Y-98708342D01*
X160625365Y-98781444D01*
X160847431Y-98818500D01*
X161072569Y-98818500D01*
X161294635Y-98781444D01*
X161507574Y-98708342D01*
X161705576Y-98601189D01*
X161883240Y-98462906D01*
X162004594Y-98331082D01*
X162035715Y-98297276D01*
X162035715Y-98297275D01*
X162035722Y-98297268D01*
X162126193Y-98158790D01*
X162179338Y-98113437D01*
X162248569Y-98104013D01*
X162311905Y-98133515D01*
X162333804Y-98158787D01*
X162424278Y-98297268D01*
X162424283Y-98297273D01*
X162424284Y-98297276D01*
X162550968Y-98434889D01*
X162576760Y-98462906D01*
X162754424Y-98601189D01*
X162754425Y-98601189D01*
X162754427Y-98601191D01*
X162881135Y-98669761D01*
X162952426Y-98708342D01*
X163165365Y-98781444D01*
X163387431Y-98818500D01*
X163612569Y-98818500D01*
X163834635Y-98781444D01*
X164047574Y-98708342D01*
X164245576Y-98601189D01*
X164423240Y-98462906D01*
X164544594Y-98331082D01*
X164575715Y-98297276D01*
X164575717Y-98297273D01*
X164575722Y-98297268D01*
X164698860Y-98108791D01*
X164789296Y-97902616D01*
X164844564Y-97684368D01*
X164847164Y-97652993D01*
X164863156Y-97460005D01*
X164863156Y-97459994D01*
X164844565Y-97235640D01*
X164844563Y-97235628D01*
X164789296Y-97017385D01*
X164779071Y-96994075D01*
X164698860Y-96811209D01*
X164682706Y-96786484D01*
X164617991Y-96687429D01*
X164575722Y-96622732D01*
X164575719Y-96622729D01*
X164575715Y-96622723D01*
X164423243Y-96457097D01*
X164423238Y-96457092D01*
X164245577Y-96318812D01*
X164245572Y-96318808D01*
X164047580Y-96211661D01*
X164047577Y-96211659D01*
X164047574Y-96211658D01*
X164047571Y-96211657D01*
X164047569Y-96211656D01*
X163834637Y-96138556D01*
X163612569Y-96101500D01*
X163387431Y-96101500D01*
X163165362Y-96138556D01*
X162952430Y-96211656D01*
X162952419Y-96211661D01*
X162754427Y-96318808D01*
X162754422Y-96318812D01*
X162576761Y-96457092D01*
X162576756Y-96457097D01*
X162424284Y-96622723D01*
X162424276Y-96622734D01*
X162333808Y-96761206D01*
X162280662Y-96806562D01*
X162211431Y-96815986D01*
X162148095Y-96786484D01*
X162126192Y-96761206D01*
X162038173Y-96626484D01*
X162035722Y-96622732D01*
X162035719Y-96622729D01*
X162035715Y-96622723D01*
X161883243Y-96457097D01*
X161883238Y-96457092D01*
X161705577Y-96318812D01*
X161705572Y-96318808D01*
X161507580Y-96211661D01*
X161507577Y-96211659D01*
X161507574Y-96211658D01*
X161507571Y-96211657D01*
X161507569Y-96211656D01*
X161294637Y-96138556D01*
X161072569Y-96101500D01*
X160847431Y-96101500D01*
X160625362Y-96138556D01*
X160412430Y-96211656D01*
X160412419Y-96211661D01*
X160214427Y-96318808D01*
X160214422Y-96318812D01*
X160036761Y-96457092D01*
X160036756Y-96457097D01*
X159884284Y-96622723D01*
X159884276Y-96622734D01*
X159793808Y-96761206D01*
X159740662Y-96806562D01*
X159671431Y-96815986D01*
X159608095Y-96786484D01*
X159586192Y-96761206D01*
X159498173Y-96626484D01*
X159495722Y-96622732D01*
X159495719Y-96622729D01*
X159495715Y-96622723D01*
X159343243Y-96457097D01*
X159343238Y-96457092D01*
X159165577Y-96318812D01*
X159165572Y-96318808D01*
X158967580Y-96211661D01*
X158967577Y-96211659D01*
X158967574Y-96211658D01*
X158967571Y-96211657D01*
X158967569Y-96211656D01*
X158754637Y-96138556D01*
X158532569Y-96101500D01*
X158307431Y-96101500D01*
X158085362Y-96138556D01*
X157872430Y-96211656D01*
X157872419Y-96211661D01*
X157674427Y-96318808D01*
X157674422Y-96318812D01*
X157496761Y-96457092D01*
X157496756Y-96457097D01*
X157344284Y-96622723D01*
X157344276Y-96622734D01*
X157253808Y-96761206D01*
X157200662Y-96806562D01*
X157131431Y-96815986D01*
X157068095Y-96786484D01*
X157046192Y-96761206D01*
X156958173Y-96626484D01*
X156955722Y-96622732D01*
X156955719Y-96622729D01*
X156955715Y-96622723D01*
X156803243Y-96457097D01*
X156803238Y-96457092D01*
X156625577Y-96318812D01*
X156625572Y-96318808D01*
X156427580Y-96211661D01*
X156427577Y-96211659D01*
X156427574Y-96211658D01*
X156427571Y-96211657D01*
X156427569Y-96211656D01*
X156214637Y-96138556D01*
X155992569Y-96101500D01*
X155767431Y-96101500D01*
X155545362Y-96138556D01*
X155332430Y-96211656D01*
X155332419Y-96211661D01*
X155134427Y-96318808D01*
X155134422Y-96318812D01*
X154956761Y-96457092D01*
X154956756Y-96457097D01*
X154804284Y-96622723D01*
X154804276Y-96622734D01*
X154713808Y-96761206D01*
X154660662Y-96806562D01*
X154591431Y-96815986D01*
X154528095Y-96786484D01*
X154506192Y-96761206D01*
X154418173Y-96626484D01*
X154415722Y-96622732D01*
X154415719Y-96622729D01*
X154415715Y-96622723D01*
X154263243Y-96457097D01*
X154263238Y-96457092D01*
X154085577Y-96318812D01*
X154085572Y-96318808D01*
X153887580Y-96211661D01*
X153887577Y-96211659D01*
X153887574Y-96211658D01*
X153887571Y-96211657D01*
X153887569Y-96211656D01*
X153674637Y-96138556D01*
X153452569Y-96101500D01*
X153227431Y-96101500D01*
X153005362Y-96138556D01*
X152792430Y-96211656D01*
X152792419Y-96211661D01*
X152594427Y-96318808D01*
X152594422Y-96318812D01*
X152416761Y-96457092D01*
X152353548Y-96525760D01*
X152293661Y-96561750D01*
X152223823Y-96559649D01*
X152166207Y-96520124D01*
X152146138Y-96485110D01*
X152100889Y-96363796D01*
X152067214Y-96318812D01*
X152013261Y-96246739D01*
X151896204Y-96159111D01*
X151895172Y-96158726D01*
X151759203Y-96108011D01*
X151698654Y-96101500D01*
X151698638Y-96101500D01*
X150636254Y-96101500D01*
X150569215Y-96081815D01*
X150548573Y-96065181D01*
X144855392Y-90371999D01*
X144855388Y-90371996D01*
X144722974Y-90283519D01*
X144722970Y-90283517D01*
X144722968Y-90283516D01*
X144649399Y-90253043D01*
X144649397Y-90253042D01*
X144649396Y-90253041D01*
X144575831Y-90222570D01*
X144575823Y-90222568D01*
X144419634Y-90191500D01*
X144419630Y-90191500D01*
X134085764Y-90191500D01*
X134085744Y-90191499D01*
X134079630Y-90191499D01*
X133920370Y-90191499D01*
X133920368Y-90191499D01*
X133790085Y-90217415D01*
X133790084Y-90217415D01*
X133764172Y-90222568D01*
X133745596Y-90230262D01*
X133721073Y-90240420D01*
X133721072Y-90240420D01*
X133617033Y-90283515D01*
X133617029Y-90283517D01*
X133484615Y-90371993D01*
X133484607Y-90371999D01*
X132629075Y-91227531D01*
X132573491Y-91259624D01*
X132550755Y-91265716D01*
X132550752Y-91265717D01*
X132343254Y-91362475D01*
X132343252Y-91362476D01*
X132343251Y-91362477D01*
X132155700Y-91493802D01*
X132155698Y-91493803D01*
X132155695Y-91493806D01*
X131993806Y-91655695D01*
X131862476Y-91843252D01*
X131862475Y-91843254D01*
X131765718Y-92050750D01*
X131765714Y-92050761D01*
X131706457Y-92271910D01*
X131706456Y-92271918D01*
X131686502Y-92499998D01*
X131686502Y-92500002D01*
X131695147Y-92598818D01*
X131681380Y-92667318D01*
X131659300Y-92697306D01*
X131391425Y-92965182D01*
X131330105Y-92998666D01*
X131303746Y-93001500D01*
X130451939Y-93001500D01*
X130384900Y-92981815D01*
X130364262Y-92965185D01*
X130279776Y-92880699D01*
X130279775Y-92880698D01*
X130279774Y-92880697D01*
X130106558Y-92759411D01*
X130106556Y-92759410D01*
X129999392Y-92709438D01*
X129946953Y-92663265D01*
X129927801Y-92596071D01*
X129948017Y-92529190D01*
X129964111Y-92509380D01*
X140043053Y-82430439D01*
X140101612Y-82371880D01*
X140101624Y-82371866D01*
X142548674Y-79924819D01*
X142609997Y-79891334D01*
X142636355Y-79888500D01*
X145920370Y-79888500D01*
X164389619Y-79888500D01*
X164456658Y-79908185D01*
X164489935Y-79939612D01*
X164579380Y-80062722D01*
X164747278Y-80230620D01*
X164939373Y-80370185D01*
X165043139Y-80423056D01*
X165150936Y-80477982D01*
X165150942Y-80477984D01*
X165212389Y-80497949D01*
X165261753Y-80528199D01*
X165870590Y-81137037D01*
X165807007Y-81154075D01*
X165692993Y-81219901D01*
X165599901Y-81312993D01*
X165534075Y-81427007D01*
X165517037Y-81490590D01*
X164337040Y-80310593D01*
X164286645Y-80377914D01*
X164236403Y-80512620D01*
X164236401Y-80512627D01*
X164230000Y-80572155D01*
X164230000Y-82667844D01*
X164236401Y-82727372D01*
X164236403Y-82727379D01*
X164286645Y-82862086D01*
X164286647Y-82862089D01*
X164337040Y-82929406D01*
X165517037Y-81749409D01*
X165534075Y-81812993D01*
X165599901Y-81927007D01*
X165692993Y-82020099D01*
X165807007Y-82085925D01*
X165870590Y-82102962D01*
X164853553Y-83119999D01*
X164853554Y-83120000D01*
X167037500Y-83120000D01*
X167104539Y-83139685D01*
X167150294Y-83192489D01*
X167161500Y-83244000D01*
X167161500Y-84646421D01*
X167141815Y-84713460D01*
X167119267Y-84732997D01*
X167119911Y-84733641D01*
X166400000Y-85453552D01*
X166400000Y-85447339D01*
X166372741Y-85345606D01*
X166320080Y-85254394D01*
X166245606Y-85179920D01*
X166154394Y-85127259D01*
X166052661Y-85100000D01*
X166046448Y-85100000D01*
X166725472Y-84420974D01*
X166652478Y-84369863D01*
X166446331Y-84273735D01*
X166446317Y-84273730D01*
X166226610Y-84214860D01*
X166226599Y-84214858D01*
X166000002Y-84195034D01*
X165999998Y-84195034D01*
X165773400Y-84214858D01*
X165773389Y-84214860D01*
X165553682Y-84273730D01*
X165553673Y-84273734D01*
X165347516Y-84369866D01*
X165347512Y-84369868D01*
X165274526Y-84420973D01*
X165274526Y-84420974D01*
X165953553Y-85100000D01*
X165947339Y-85100000D01*
X165845606Y-85127259D01*
X165754394Y-85179920D01*
X165679920Y-85254394D01*
X165627259Y-85345606D01*
X165600000Y-85447339D01*
X165600000Y-85453552D01*
X164920974Y-84774526D01*
X164920973Y-84774526D01*
X164869868Y-84847512D01*
X164869866Y-84847516D01*
X164773734Y-85053673D01*
X164773730Y-85053682D01*
X164714860Y-85273389D01*
X164714858Y-85273400D01*
X164695034Y-85499997D01*
X164695034Y-85500002D01*
X164714858Y-85726599D01*
X164714860Y-85726610D01*
X164773730Y-85946317D01*
X164773735Y-85946331D01*
X164869863Y-86152478D01*
X164920974Y-86225472D01*
X165600000Y-85546446D01*
X165600000Y-85552661D01*
X165627259Y-85654394D01*
X165679920Y-85745606D01*
X165754394Y-85820080D01*
X165845606Y-85872741D01*
X165947339Y-85900000D01*
X165953553Y-85900000D01*
X165274526Y-86579025D01*
X165347513Y-86630132D01*
X165347518Y-86630135D01*
X165353512Y-86632930D01*
X165405950Y-86679103D01*
X165425101Y-86746297D01*
X165404884Y-86813178D01*
X165353512Y-86857692D01*
X165343252Y-86862476D01*
X165272856Y-86911767D01*
X165155700Y-86993802D01*
X165155698Y-86993803D01*
X165155695Y-86993806D01*
X164993806Y-87155695D01*
X164862476Y-87343252D01*
X164862475Y-87343254D01*
X164765718Y-87550750D01*
X164765714Y-87550761D01*
X164706457Y-87771910D01*
X164706456Y-87771918D01*
X164686502Y-87999998D01*
X164686502Y-88000001D01*
X164706456Y-88228081D01*
X164706457Y-88228089D01*
X164765714Y-88449238D01*
X164765718Y-88449249D01*
X164803020Y-88529243D01*
X164862477Y-88656749D01*
X164993802Y-88844300D01*
X165155700Y-89006198D01*
X165343251Y-89137523D01*
X165468091Y-89195736D01*
X165550750Y-89234281D01*
X165550752Y-89234281D01*
X165550757Y-89234284D01*
X165771913Y-89293543D01*
X165934832Y-89307796D01*
X165999998Y-89313498D01*
X166000000Y-89313498D01*
X166000002Y-89313498D01*
X166057127Y-89308500D01*
X166228087Y-89293543D01*
X166449243Y-89234284D01*
X166656749Y-89137523D01*
X166844300Y-89006198D01*
X167006198Y-88844300D01*
X167137523Y-88656749D01*
X167234284Y-88449243D01*
X167293543Y-88228087D01*
X167313498Y-88000000D01*
X167304851Y-87901178D01*
X167318617Y-87832682D01*
X167340695Y-87802695D01*
X168292820Y-86850571D01*
X168354142Y-86817087D01*
X168423834Y-86822071D01*
X168479767Y-86863943D01*
X168504184Y-86929407D01*
X168504500Y-86938253D01*
X168504500Y-96107364D01*
X168484815Y-96174403D01*
X168468181Y-96195045D01*
X165997233Y-98665994D01*
X165975995Y-98687231D01*
X165964500Y-98714982D01*
X165964500Y-99231907D01*
X165963903Y-99244062D01*
X165952505Y-99359778D01*
X165947763Y-99383618D01*
X165917832Y-99482290D01*
X165915789Y-99489024D01*
X165906486Y-99511482D01*
X165854561Y-99608627D01*
X165841056Y-99628839D01*
X165771176Y-99713988D01*
X165753988Y-99731176D01*
X165668839Y-99801056D01*
X165648627Y-99814561D01*
X165551482Y-99866486D01*
X165529028Y-99875787D01*
X165487028Y-99888528D01*
X165423618Y-99907763D01*
X165399778Y-99912505D01*
X165291162Y-99923203D01*
X165284060Y-99923903D01*
X165271907Y-99924500D01*
X100768093Y-99924500D01*
X100755939Y-99923903D01*
X100747995Y-99923120D01*
X100640221Y-99912505D01*
X100616381Y-99907763D01*
X100599445Y-99902625D01*
X100510968Y-99875786D01*
X100488517Y-99866486D01*
X100391372Y-99814561D01*
X100371160Y-99801056D01*
X100286011Y-99731176D01*
X100268823Y-99713988D01*
X100198943Y-99628839D01*
X100185438Y-99608627D01*
X100133510Y-99511476D01*
X100124215Y-99489037D01*
X100092234Y-99383612D01*
X100087494Y-99359777D01*
X100076097Y-99244061D01*
X100075500Y-99231907D01*
X100075500Y-74909999D01*
X113721127Y-74909999D01*
X113721128Y-74910000D01*
X114684314Y-74910000D01*
X114679920Y-74914394D01*
X114627259Y-75005606D01*
X114600000Y-75107339D01*
X114600000Y-75212661D01*
X114627259Y-75314394D01*
X114679920Y-75405606D01*
X114684314Y-75410000D01*
X113721128Y-75410000D01*
X113773730Y-75606317D01*
X113773734Y-75606326D01*
X113869865Y-75812482D01*
X114000342Y-75998820D01*
X114161179Y-76159657D01*
X114347517Y-76290134D01*
X114553673Y-76386265D01*
X114553682Y-76386269D01*
X114749999Y-76438872D01*
X114750000Y-76438871D01*
X114750000Y-75475686D01*
X114754394Y-75480080D01*
X114845606Y-75532741D01*
X114947339Y-75560000D01*
X115052661Y-75560000D01*
X115154394Y-75532741D01*
X115245606Y-75480080D01*
X115250000Y-75475686D01*
X115250000Y-76438872D01*
X115446317Y-76386269D01*
X115446326Y-76386265D01*
X115652482Y-76290134D01*
X115838820Y-76159657D01*
X115999657Y-75998820D01*
X116130134Y-75812482D01*
X116226265Y-75606326D01*
X116226269Y-75606317D01*
X116278872Y-75410000D01*
X115315686Y-75410000D01*
X115320080Y-75405606D01*
X115372741Y-75314394D01*
X115400000Y-75212661D01*
X115400000Y-75107339D01*
X115372741Y-75005606D01*
X115320080Y-74914394D01*
X115315686Y-74910000D01*
X116278872Y-74910000D01*
X116278872Y-74909999D01*
X116226269Y-74713682D01*
X116226265Y-74713673D01*
X116130134Y-74507517D01*
X115999657Y-74321179D01*
X115838820Y-74160342D01*
X115652482Y-74029865D01*
X115446328Y-73933734D01*
X115250000Y-73881127D01*
X115250000Y-74844314D01*
X115245606Y-74839920D01*
X115154394Y-74787259D01*
X115052661Y-74760000D01*
X114947339Y-74760000D01*
X114845606Y-74787259D01*
X114754394Y-74839920D01*
X114750000Y-74844314D01*
X114750000Y-73881127D01*
X114553671Y-73933734D01*
X114347517Y-74029865D01*
X114161179Y-74160342D01*
X114000342Y-74321179D01*
X113869865Y-74507517D01*
X113773734Y-74713673D01*
X113773730Y-74713682D01*
X113721127Y-74909999D01*
X100075500Y-74909999D01*
X100075500Y-62119999D01*
X115117395Y-62119999D01*
X115117395Y-62120000D01*
X115136576Y-62339244D01*
X115136578Y-62339254D01*
X115193536Y-62551828D01*
X115193538Y-62551832D01*
X115193539Y-62551836D01*
X115253266Y-62679920D01*
X115286552Y-62751303D01*
X115286554Y-62751307D01*
X115412788Y-62931588D01*
X115568411Y-63087211D01*
X115748692Y-63213445D01*
X115748694Y-63213446D01*
X115748697Y-63213448D01*
X115948164Y-63306461D01*
X116160751Y-63363423D01*
X116336150Y-63378768D01*
X116379999Y-63382605D01*
X116380000Y-63382605D01*
X116380001Y-63382605D01*
X116416541Y-63379408D01*
X116599249Y-63363423D01*
X116811836Y-63306461D01*
X117011303Y-63213448D01*
X117191587Y-63087212D01*
X117347212Y-62931587D01*
X117473448Y-62751303D01*
X117537618Y-62613687D01*
X117583790Y-62561250D01*
X117650984Y-62542098D01*
X117717865Y-62562314D01*
X117762380Y-62613687D01*
X117793266Y-62679920D01*
X117826552Y-62751303D01*
X117826554Y-62751307D01*
X117952788Y-62931588D01*
X118108411Y-63087211D01*
X118288692Y-63213445D01*
X118288694Y-63213446D01*
X118288697Y-63213448D01*
X118488164Y-63306461D01*
X118700751Y-63363423D01*
X118876150Y-63378768D01*
X118919999Y-63382605D01*
X118920000Y-63382605D01*
X118920001Y-63382605D01*
X118956541Y-63379408D01*
X119139249Y-63363423D01*
X119351836Y-63306461D01*
X119551303Y-63213448D01*
X119731587Y-63087212D01*
X119887212Y-62931587D01*
X120013448Y-62751303D01*
X120077618Y-62613687D01*
X120123790Y-62561250D01*
X120190984Y-62542098D01*
X120257865Y-62562314D01*
X120302380Y-62613687D01*
X120333266Y-62679920D01*
X120366552Y-62751303D01*
X120366554Y-62751307D01*
X120492788Y-62931588D01*
X120648411Y-63087211D01*
X120828692Y-63213445D01*
X120828694Y-63213446D01*
X120828697Y-63213448D01*
X121028164Y-63306461D01*
X121240751Y-63363423D01*
X121416150Y-63378768D01*
X121459999Y-63382605D01*
X121460000Y-63382605D01*
X121460001Y-63382605D01*
X121496541Y-63379408D01*
X121679249Y-63363423D01*
X121891836Y-63306461D01*
X122091303Y-63213448D01*
X122271587Y-63087212D01*
X122427212Y-62931587D01*
X122553448Y-62751303D01*
X122617618Y-62613687D01*
X122663790Y-62561250D01*
X122730984Y-62542098D01*
X122797865Y-62562314D01*
X122842380Y-62613687D01*
X122873266Y-62679920D01*
X122906552Y-62751303D01*
X122906554Y-62751307D01*
X123032788Y-62931588D01*
X123188411Y-63087211D01*
X123368692Y-63213445D01*
X123368694Y-63213446D01*
X123368697Y-63213448D01*
X123568164Y-63306461D01*
X123780751Y-63363423D01*
X123956150Y-63378768D01*
X123999999Y-63382605D01*
X124000000Y-63382605D01*
X124000001Y-63382605D01*
X124036541Y-63379408D01*
X124219249Y-63363423D01*
X124431836Y-63306461D01*
X124631303Y-63213448D01*
X124811587Y-63087212D01*
X124967212Y-62931587D01*
X125093448Y-62751303D01*
X125186461Y-62551836D01*
X125243423Y-62339249D01*
X125262605Y-62120000D01*
X125243423Y-61900751D01*
X125186461Y-61688164D01*
X125093448Y-61488698D01*
X124967212Y-61308413D01*
X124967210Y-61308410D01*
X124811588Y-61152788D01*
X124631307Y-61026554D01*
X124631303Y-61026552D01*
X124631301Y-61026551D01*
X124431836Y-60933539D01*
X124431832Y-60933538D01*
X124431828Y-60933536D01*
X124219254Y-60876578D01*
X124219244Y-60876576D01*
X124000001Y-60857395D01*
X123999999Y-60857395D01*
X123780755Y-60876576D01*
X123780745Y-60876578D01*
X123568171Y-60933536D01*
X123568162Y-60933540D01*
X123368699Y-61026551D01*
X123368697Y-61026552D01*
X123188410Y-61152789D01*
X123032789Y-61308410D01*
X122906552Y-61488697D01*
X122906551Y-61488699D01*
X122842382Y-61626310D01*
X122796209Y-61678749D01*
X122729016Y-61697901D01*
X122662135Y-61677685D01*
X122617618Y-61626310D01*
X122561703Y-61506401D01*
X122553448Y-61488698D01*
X122427212Y-61308413D01*
X122427210Y-61308410D01*
X122271588Y-61152788D01*
X122091307Y-61026554D01*
X122091303Y-61026552D01*
X122091301Y-61026551D01*
X121891836Y-60933539D01*
X121891832Y-60933538D01*
X121891828Y-60933536D01*
X121679254Y-60876578D01*
X121679244Y-60876576D01*
X121460001Y-60857395D01*
X121459999Y-60857395D01*
X121240755Y-60876576D01*
X121240745Y-60876578D01*
X121028171Y-60933536D01*
X121028162Y-60933540D01*
X120828699Y-61026551D01*
X120828697Y-61026552D01*
X120648410Y-61152789D01*
X120492789Y-61308410D01*
X120366552Y-61488697D01*
X120366551Y-61488699D01*
X120302382Y-61626310D01*
X120256209Y-61678749D01*
X120189016Y-61697901D01*
X120122135Y-61677685D01*
X120077618Y-61626310D01*
X120021703Y-61506401D01*
X120013448Y-61488698D01*
X119887212Y-61308413D01*
X119887210Y-61308410D01*
X119731588Y-61152788D01*
X119551307Y-61026554D01*
X119551303Y-61026552D01*
X119551301Y-61026551D01*
X119351836Y-60933539D01*
X119351832Y-60933538D01*
X119351828Y-60933536D01*
X119139254Y-60876578D01*
X119139244Y-60876576D01*
X118920001Y-60857395D01*
X118919999Y-60857395D01*
X118700755Y-60876576D01*
X118700745Y-60876578D01*
X118488171Y-60933536D01*
X118488162Y-60933540D01*
X118288699Y-61026551D01*
X118288697Y-61026552D01*
X118108410Y-61152789D01*
X117952789Y-61308410D01*
X117826552Y-61488697D01*
X117826551Y-61488699D01*
X117762382Y-61626310D01*
X117716209Y-61678749D01*
X117649016Y-61697901D01*
X117582135Y-61677685D01*
X117537618Y-61626310D01*
X117481703Y-61506401D01*
X117473448Y-61488698D01*
X117347212Y-61308413D01*
X117347210Y-61308410D01*
X117191588Y-61152788D01*
X117011307Y-61026554D01*
X117011303Y-61026552D01*
X117011301Y-61026551D01*
X116811836Y-60933539D01*
X116811832Y-60933538D01*
X116811828Y-60933536D01*
X116599254Y-60876578D01*
X116599244Y-60876576D01*
X116380001Y-60857395D01*
X116379999Y-60857395D01*
X116160755Y-60876576D01*
X116160745Y-60876578D01*
X115948171Y-60933536D01*
X115948162Y-60933540D01*
X115748699Y-61026551D01*
X115748697Y-61026552D01*
X115568410Y-61152789D01*
X115412789Y-61308410D01*
X115286552Y-61488697D01*
X115286551Y-61488699D01*
X115193540Y-61688162D01*
X115193536Y-61688171D01*
X115136578Y-61900745D01*
X115136576Y-61900755D01*
X115117395Y-62119999D01*
X100075500Y-62119999D01*
X100075500Y-47428092D01*
X100076097Y-47415938D01*
X100087494Y-47300222D01*
X100092234Y-47276389D01*
X100124216Y-47170959D01*
X100133508Y-47148526D01*
X100185442Y-47051365D01*
X100198938Y-47031166D01*
X100268827Y-46946006D01*
X100286006Y-46928827D01*
X100371166Y-46858938D01*
X100391365Y-46845442D01*
X100488526Y-46793508D01*
X100510959Y-46784216D01*
X100616389Y-46752234D01*
X100640220Y-46747494D01*
X100755939Y-46736097D01*
X100768093Y-46735500D01*
X100786531Y-46735500D01*
X163417365Y-46735500D01*
X163484404Y-46755185D01*
G37*
%TD.AperFunction*%
%TA.AperFunction,Conductor*%
G36*
X142714075Y-97267007D02*
G01*
X142680000Y-97394174D01*
X142680000Y-97525826D01*
X142714075Y-97652993D01*
X142746988Y-97710000D01*
X141073012Y-97710000D01*
X141105925Y-97652993D01*
X141140000Y-97525826D01*
X141140000Y-97394174D01*
X141105925Y-97267007D01*
X141073012Y-97210000D01*
X142746988Y-97210000D01*
X142714075Y-97267007D01*
G37*
%TD.AperFunction*%
%TA.AperFunction,Conductor*%
G36*
X155753703Y-53897541D02*
G01*
X155760181Y-53903573D01*
X160655181Y-58798573D01*
X160688666Y-58859896D01*
X160691500Y-58886254D01*
X160691500Y-72389634D01*
X160722568Y-72545823D01*
X160722570Y-72545831D01*
X160745844Y-72602019D01*
X160783512Y-72692960D01*
X160783519Y-72692973D01*
X160871996Y-72825389D01*
X160871999Y-72825392D01*
X164210512Y-76163903D01*
X164243997Y-76225226D01*
X164245304Y-76270982D01*
X164221500Y-76421272D01*
X164221500Y-76658727D01*
X164258643Y-76893241D01*
X164332019Y-77119067D01*
X164376547Y-77206457D01*
X164439815Y-77330627D01*
X164579380Y-77522722D01*
X164747278Y-77690620D01*
X164756633Y-77697416D01*
X164773515Y-77709683D01*
X164816181Y-77765013D01*
X164822159Y-77834626D01*
X164789553Y-77896421D01*
X164773515Y-77910317D01*
X164747284Y-77929375D01*
X164747275Y-77929382D01*
X164579382Y-78097275D01*
X164579382Y-78097276D01*
X164579380Y-78097278D01*
X164494185Y-78214539D01*
X164489937Y-78220386D01*
X164434607Y-78263051D01*
X164389619Y-78271500D01*
X146932500Y-78271500D01*
X146865461Y-78251815D01*
X146819706Y-78199011D01*
X146808500Y-78147500D01*
X146808500Y-65632500D01*
X146828185Y-65565461D01*
X146880989Y-65519706D01*
X146932500Y-65508500D01*
X150879631Y-65508500D01*
X150879632Y-65508499D01*
X151035831Y-65477430D01*
X151109399Y-65446956D01*
X151182968Y-65416484D01*
X151315389Y-65328003D01*
X152015386Y-64628004D01*
X152015389Y-64628003D01*
X152128003Y-64515389D01*
X152191161Y-64420865D01*
X152216483Y-64382969D01*
X152248940Y-64304611D01*
X152277430Y-64235831D01*
X152308500Y-64079630D01*
X152308500Y-59920370D01*
X152277430Y-59764169D01*
X152243630Y-59682570D01*
X152216484Y-59617032D01*
X152216480Y-59617026D01*
X152128003Y-59484610D01*
X149515392Y-56871999D01*
X149515388Y-56871996D01*
X149382974Y-56783519D01*
X149382970Y-56783517D01*
X149382968Y-56783516D01*
X149309399Y-56753043D01*
X149309397Y-56753042D01*
X149309396Y-56753041D01*
X149235831Y-56722570D01*
X149235823Y-56722568D01*
X149079634Y-56691500D01*
X149079630Y-56691500D01*
X146886254Y-56691500D01*
X146819215Y-56671815D01*
X146798573Y-56655181D01*
X146602520Y-56459128D01*
X146569035Y-56397805D01*
X146574019Y-56328113D01*
X146615891Y-56272180D01*
X146670804Y-56248974D01*
X146771246Y-56233066D01*
X146771247Y-56233065D01*
X146995802Y-56160102D01*
X147206171Y-56052914D01*
X147397186Y-55914133D01*
X147438883Y-55872435D01*
X146549409Y-54982962D01*
X146612993Y-54965925D01*
X146727007Y-54900099D01*
X146820099Y-54807007D01*
X146885925Y-54692993D01*
X146902962Y-54629409D01*
X147511800Y-55238247D01*
X147542049Y-55287608D01*
X147562017Y-55349063D01*
X147627736Y-55478043D01*
X147669815Y-55560627D01*
X147809380Y-55752722D01*
X147977278Y-55920620D01*
X148169373Y-56060185D01*
X148254931Y-56103779D01*
X148380932Y-56167980D01*
X148380934Y-56167980D01*
X148380937Y-56167982D01*
X148501984Y-56207312D01*
X148606758Y-56241356D01*
X148841273Y-56278500D01*
X148841278Y-56278500D01*
X149078727Y-56278500D01*
X149313241Y-56241356D01*
X149338758Y-56233065D01*
X149539063Y-56167982D01*
X149750627Y-56060185D01*
X149942722Y-55920620D01*
X150110620Y-55752722D01*
X150129681Y-55726487D01*
X150185010Y-55683820D01*
X150254624Y-55677840D01*
X150316419Y-55710446D01*
X150330319Y-55726487D01*
X150349376Y-55752718D01*
X150349380Y-55752722D01*
X150517278Y-55920620D01*
X150709373Y-56060185D01*
X150794931Y-56103779D01*
X150920932Y-56167980D01*
X150920934Y-56167980D01*
X150920937Y-56167982D01*
X151041984Y-56207312D01*
X151146758Y-56241356D01*
X151381273Y-56278500D01*
X151381278Y-56278500D01*
X151618727Y-56278500D01*
X151853241Y-56241356D01*
X151878758Y-56233065D01*
X152079063Y-56167982D01*
X152290627Y-56060185D01*
X152407410Y-55975336D01*
X152473213Y-55951858D01*
X152541267Y-55967683D01*
X152582819Y-56009835D01*
X152583796Y-56009104D01*
X152589110Y-56016203D01*
X152589111Y-56016204D01*
X152676739Y-56133261D01*
X152793796Y-56220889D01*
X152930799Y-56271989D01*
X152958050Y-56274918D01*
X152991345Y-56278499D01*
X152991362Y-56278500D01*
X155088638Y-56278500D01*
X155088654Y-56278499D01*
X155115692Y-56275591D01*
X155149201Y-56271989D01*
X155286204Y-56220889D01*
X155403261Y-56133261D01*
X155490889Y-56016204D01*
X155541989Y-55879201D01*
X155545591Y-55845692D01*
X155548499Y-55818654D01*
X155548500Y-55818637D01*
X155548500Y-53991254D01*
X155568185Y-53924215D01*
X155620989Y-53878460D01*
X155690147Y-53868516D01*
X155753703Y-53897541D01*
G37*
%TD.AperFunction*%
%TA.AperFunction,Conductor*%
G36*
X140467905Y-49873515D02*
G01*
X140489804Y-49898787D01*
X140580278Y-50037268D01*
X140580283Y-50037273D01*
X140580284Y-50037276D01*
X140692526Y-50159201D01*
X140732760Y-50202906D01*
X140910424Y-50341189D01*
X140910425Y-50341189D01*
X140910427Y-50341191D01*
X140970314Y-50373600D01*
X141108426Y-50448342D01*
X141321365Y-50521444D01*
X141543431Y-50558500D01*
X141768570Y-50558500D01*
X141774656Y-50557484D01*
X141793484Y-50554342D01*
X141862848Y-50562722D01*
X141901577Y-50588969D01*
X142690607Y-51378000D01*
X142690610Y-51378003D01*
X142823026Y-51466480D01*
X142823032Y-51466484D01*
X142851761Y-51478383D01*
X142925485Y-51508921D01*
X142970169Y-51527430D01*
X143126365Y-51558499D01*
X143126369Y-51558500D01*
X143126370Y-51558500D01*
X143285630Y-51558500D01*
X144957909Y-51558500D01*
X145024948Y-51578185D01*
X145045590Y-51594819D01*
X146038093Y-52587322D01*
X146071578Y-52648645D01*
X146066594Y-52718337D01*
X146024722Y-52774270D01*
X145988731Y-52792934D01*
X145844195Y-52839897D01*
X145633825Y-52947087D01*
X145442822Y-53085857D01*
X145401116Y-53127563D01*
X146290590Y-54017037D01*
X146227007Y-54034075D01*
X146112993Y-54099901D01*
X146019901Y-54192993D01*
X145954075Y-54307007D01*
X145937037Y-54370590D01*
X145328199Y-53761752D01*
X145297949Y-53712388D01*
X145277984Y-53650941D01*
X145226477Y-53549853D01*
X145170185Y-53439373D01*
X145030620Y-53247278D01*
X144862722Y-53079380D01*
X144670627Y-52939815D01*
X144656863Y-52932802D01*
X144459067Y-52832019D01*
X144233241Y-52758643D01*
X143998727Y-52721500D01*
X143998722Y-52721500D01*
X143761278Y-52721500D01*
X143761273Y-52721500D01*
X143526758Y-52758643D01*
X143300932Y-52832019D01*
X143089372Y-52939815D01*
X142897275Y-53079382D01*
X142729382Y-53247275D01*
X142729375Y-53247284D01*
X142710317Y-53273515D01*
X142654987Y-53316181D01*
X142585374Y-53322159D01*
X142523579Y-53289553D01*
X142509683Y-53273515D01*
X142490624Y-53247284D01*
X142490620Y-53247278D01*
X142322722Y-53079380D01*
X142130627Y-52939815D01*
X142116863Y-52932802D01*
X141919067Y-52832019D01*
X141693241Y-52758643D01*
X141458727Y-52721500D01*
X141458722Y-52721500D01*
X141221278Y-52721500D01*
X141221273Y-52721500D01*
X140986758Y-52758643D01*
X140760932Y-52832019D01*
X140549372Y-52939815D01*
X140357275Y-53079382D01*
X140189382Y-53247275D01*
X140049815Y-53439372D01*
X139942019Y-53650932D01*
X139868643Y-53876758D01*
X139831500Y-54111272D01*
X139831500Y-54888727D01*
X139868643Y-55123241D01*
X139942019Y-55349067D01*
X140007736Y-55478043D01*
X140049815Y-55560627D01*
X140189380Y-55752722D01*
X140357278Y-55920620D01*
X140549373Y-56060185D01*
X140634931Y-56103779D01*
X140760932Y-56167980D01*
X140760934Y-56167980D01*
X140760937Y-56167982D01*
X140881984Y-56207312D01*
X140986758Y-56241356D01*
X141221273Y-56278500D01*
X141221278Y-56278500D01*
X141458727Y-56278500D01*
X141693241Y-56241356D01*
X141718758Y-56233065D01*
X141919063Y-56167982D01*
X142130627Y-56060185D01*
X142322722Y-55920620D01*
X142490620Y-55752722D01*
X142509681Y-55726487D01*
X142565010Y-55683820D01*
X142634624Y-55677840D01*
X142696419Y-55710446D01*
X142710319Y-55726487D01*
X142729376Y-55752718D01*
X142729380Y-55752722D01*
X142897278Y-55920620D01*
X143047719Y-56029922D01*
X143076613Y-56050914D01*
X143118289Y-56103779D01*
X143130501Y-56133261D01*
X143130501Y-56133262D01*
X143163512Y-56212960D01*
X143163519Y-56212973D01*
X143251996Y-56345389D01*
X143251999Y-56345392D01*
X143642657Y-56736048D01*
X143642676Y-56736069D01*
X143759605Y-56852998D01*
X143759608Y-56853000D01*
X143759611Y-56853003D01*
X143838989Y-56906041D01*
X143838992Y-56906044D01*
X143892031Y-56941483D01*
X143935122Y-56959331D01*
X143935126Y-56959334D01*
X143935127Y-56959333D01*
X144039169Y-57002430D01*
X144195365Y-57033499D01*
X144195369Y-57033500D01*
X144195370Y-57033500D01*
X144354630Y-57033500D01*
X144838746Y-57033500D01*
X144905785Y-57053185D01*
X144926427Y-57069819D01*
X145336427Y-57479819D01*
X145369912Y-57541142D01*
X145364928Y-57610834D01*
X145323056Y-57666767D01*
X145257592Y-57691184D01*
X145248746Y-57691500D01*
X118716634Y-57691500D01*
X118649595Y-57671815D01*
X118628953Y-57655181D01*
X116833666Y-55859894D01*
X116800181Y-55798571D01*
X116805165Y-55728879D01*
X116847037Y-55672946D01*
X116868938Y-55659833D01*
X117011303Y-55593448D01*
X117191587Y-55467212D01*
X117347212Y-55311587D01*
X117473448Y-55131303D01*
X117537618Y-54993687D01*
X117583790Y-54941250D01*
X117650984Y-54922098D01*
X117717865Y-54942314D01*
X117762380Y-54993687D01*
X117801964Y-55078573D01*
X117826552Y-55131303D01*
X117826554Y-55131307D01*
X117952788Y-55311588D01*
X118108411Y-55467211D01*
X118288692Y-55593445D01*
X118288694Y-55593446D01*
X118288697Y-55593448D01*
X118488164Y-55686461D01*
X118700751Y-55743423D01*
X118920000Y-55762605D01*
X118972020Y-55758053D01*
X119040518Y-55771819D01*
X119070508Y-55793900D01*
X119853907Y-56577300D01*
X119853911Y-56577303D01*
X119986327Y-56665781D01*
X119986328Y-56665781D01*
X119986332Y-56665784D01*
X120048417Y-56691500D01*
X120133469Y-56726730D01*
X120265745Y-56753041D01*
X120289665Y-56757799D01*
X120289669Y-56757800D01*
X120289670Y-56757800D01*
X129906331Y-56757800D01*
X129906332Y-56757799D01*
X130062531Y-56726730D01*
X130147583Y-56691500D01*
X130209668Y-56665784D01*
X130342089Y-56577303D01*
X136330423Y-50588967D01*
X136391744Y-50555484D01*
X136438514Y-50554342D01*
X136463429Y-50558500D01*
X136463431Y-50558500D01*
X136688569Y-50558500D01*
X136910635Y-50521444D01*
X137123574Y-50448342D01*
X137321576Y-50341189D01*
X137499240Y-50202906D01*
X137598614Y-50094957D01*
X137651715Y-50037276D01*
X137651715Y-50037275D01*
X137651722Y-50037268D01*
X137742193Y-49898790D01*
X137795338Y-49853437D01*
X137864569Y-49844013D01*
X137927905Y-49873515D01*
X137949804Y-49898787D01*
X138040278Y-50037268D01*
X138040283Y-50037273D01*
X138040284Y-50037276D01*
X138152526Y-50159201D01*
X138192760Y-50202906D01*
X138370424Y-50341189D01*
X138370425Y-50341189D01*
X138370427Y-50341191D01*
X138430314Y-50373600D01*
X138568426Y-50448342D01*
X138781365Y-50521444D01*
X139003431Y-50558500D01*
X139228569Y-50558500D01*
X139450635Y-50521444D01*
X139663574Y-50448342D01*
X139861576Y-50341189D01*
X140039240Y-50202906D01*
X140138614Y-50094957D01*
X140191715Y-50037276D01*
X140191715Y-50037275D01*
X140191722Y-50037268D01*
X140282193Y-49898790D01*
X140335338Y-49853437D01*
X140404569Y-49844013D01*
X140467905Y-49873515D01*
G37*
%TD.AperFunction*%
%TD*%
M02*
